<svg width="88" height="36" viewBox="0 0 88 36" fill="none" xmlns="http://www.w3.org/2000/svg">
<path id="Union" fill-rule="evenodd" clip-rule="evenodd" d="M62.2221 23.7772C62.2221 30.1853 57.0603 35.4325 50.7565 35.4325C46.3254 35.4325 42.397 32.9249 40.4327 28.8851C40.3003 28.6144 40.2225 28.3195 40.2039 28.0178C40.1851 27.7161 40.2259 27.4136 40.3237 27.1281C40.4216 26.8426 40.5746 26.5799 40.7737 26.3553C40.9729 26.1308 41.2141 25.9489 41.4833 25.8204C42.0173 25.5551 42.6324 25.5134 43.1963 25.7044C43.7601 25.8956 44.2277 26.304 44.4983 26.8419C45.6859 29.303 48.0613 30.8354 50.7565 30.8354C54.5479 30.8354 57.6084 27.7243 57.6998 23.9165V21.3626C55.7355 22.8485 53.3602 23.7772 50.7565 23.7772C48.4887 23.7772 46.2719 23.0937 44.3864 21.8129C42.5009 20.5323 41.0313 18.712 40.1635 16.5823C39.2956 14.4526 39.0685 12.1091 39.511 9.84821C39.9534 7.58732 41.0454 5.51055 42.649 3.88054C44.2524 2.25053 46.2954 1.14047 48.5195 0.690755C50.7437 0.241034 53.0491 0.471846 55.1441 1.35401C57.2393 2.23616 59.03 3.73004 60.2897 5.64673C61.5497 7.56343 62.2221 9.81684 62.2221 12.1221V23.7772ZM57.7016 12.1221C57.7016 8.22148 54.5497 5.06388 50.7583 5.06388C48.9167 5.06388 47.1507 5.80751 45.8485 7.13117C44.5463 8.45483 43.8149 10.2501 43.8149 12.1221C43.8149 15.9761 46.9212 19.1801 50.7583 19.1801C54.5479 19.1801 57.7016 15.9761 57.7016 12.1221ZM38.7587 4.42849C39.1867 3.99345 39.4278 3.4039 39.4296 2.78866C39.4278 2.48645 39.3672 2.18759 39.2512 1.90932C39.1352 1.63104 38.9662 1.37888 38.7539 1.16734C38.5415 0.955813 38.2901 0.789122 38.014 0.676868C37.738 0.56462 37.4428 0.50904 37.1455 0.513337C34.1052 0.515305 31.1901 1.7439 29.0402 3.92925C26.8904 6.1146 25.6818 9.07801 25.6799 12.1685V21.502C25.6815 22.1173 25.9227 22.7068 26.3507 23.1419C26.7787 23.5769 27.3586 23.8221 27.9638 23.8238C29.1972 23.8238 30.2022 22.7558 30.2022 21.502V12.1685C30.2022 10.2966 30.9337 8.50136 32.2359 7.1777C33.538 5.85405 35.3041 5.11042 37.1455 5.11042C37.7508 5.10871 38.3307 4.86354 38.7587 4.42849ZM22.939 21.4085V12.3072C22.939 5.75989 18.1426 0.559151 11.7017 0.559151C5.2608 0.559151 0.14463 5.75989 0.14463 12.3072C0.14463 18.8546 5.2608 23.7303 11.7017 23.7303C14.3055 23.7303 16.4982 23.0803 18.4624 21.4085C18.4624 22.7552 19.7414 23.7303 20.655 23.7303C21.9797 23.7303 22.939 22.7552 22.939 21.4085ZM11.7017 5.1098C15.5388 5.1098 18.4624 8.4067 18.4624 12.3072C18.4624 16.2079 15.5388 19.1796 11.7017 19.1796C7.86457 19.1796 4.62129 16.2079 4.62129 12.3072C4.62129 8.4067 7.86457 5.1098 11.7017 5.1098ZM66.8516 5.64645C65.5916 7.5632 64.9191 9.81672 64.9191 12.1221C64.9191 18.5301 70.0782 23.7772 76.382 23.7772C78.6499 23.7778 80.8669 23.0948 82.7528 21.8144C84.6387 20.534 86.1087 18.7139 86.9769 16.5842C87.8452 14.4545 88.0726 12.1109 87.6306 9.84992C87.1885 7.58885 86.0966 5.51182 84.4933 3.88152C82.8899 2.25124 80.8469 1.14091 78.6226 0.690962C76.3985 0.241012 74.093 0.471662 71.9977 1.35373C69.9025 2.23581 68.1115 3.72969 66.8516 5.64645ZM76.3848 19.1801C72.5477 19.1801 69.4414 15.9761 69.4414 12.1221C69.4414 10.2501 70.173 8.45483 71.4751 7.13117C72.7773 5.80751 74.5433 5.06388 76.3848 5.06388C78.2263 5.06388 79.9924 5.80751 81.2945 7.13117C82.5967 8.45483 83.3281 10.2501 83.3281 12.1221C83.3281 15.9761 80.222 19.1801 76.3848 19.1801Z" fill="#ACACAC"/>
</svg>
