<svg width="174" height="37" viewBox="0 0 174 37" fill="none" xmlns="http://www.w3.org/2000/svg">
<g id="Group 1171274998">
<path id="Vector" d="M17.1286 19.5256C16.998 19.7113 16.8878 19.8642 16.7818 20.0187C15.0908 22.5075 13.4004 24.996 11.7105 27.4843C10.1384 29.7988 8.56473 32.112 6.98937 34.4238C6.96323 34.4601 6.92974 34.4905 6.89108 34.513C6.85242 34.5355 6.80946 34.5496 6.76498 34.5545C4.54085 34.5353 2.31727 34.5112 0.0942365 34.4821C0.0695788 34.4821 0.0440991 34.4747 -0.00439453 34.4673C0.0135606 34.4209 0.034424 34.3756 0.0580718 34.3317C1.60932 31.9268 3.16057 29.5224 4.71181 27.1185C6.08772 24.9881 7.46444 22.8582 8.84199 20.7289C10.3686 18.3628 11.8943 15.9951 13.4193 13.6258C13.6445 13.2765 13.8787 12.9337 14.0924 12.5778C14.1472 12.4826 14.1637 12.37 14.1385 12.263C13.7275 10.9529 13.3083 9.64601 12.89 8.33915C12.7108 7.77942 12.5234 7.22298 12.3557 6.65996C12.3015 6.47913 12.2119 6.42407 12.027 6.42489C10.6297 6.43064 9.24062 6.429 7.84746 6.429C7.5828 6.429 7.58198 6.429 7.58198 6.16762C7.58198 4.45473 7.58198 2.74184 7.57705 1.02895C7.57705 0.83826 7.63951 0.79552 7.81869 0.79552C10.6236 0.800451 13.4292 0.800451 16.2352 0.79552C16.3004 0.787187 16.3663 0.802862 16.4208 0.839617C16.4753 0.876373 16.5145 0.931694 16.5311 0.995248C18.0106 4.71638 19.49 8.43614 20.9695 12.1545C22.6955 16.491 24.4216 20.828 26.1476 25.1656C26.6835 26.5119 27.2235 27.8574 27.7537 29.207C27.817 29.3714 27.8827 29.4026 28.0487 29.3517C29.5192 28.8972 30.9929 28.455 32.4625 27.9996C32.6474 27.9421 32.7148 27.9807 32.7724 28.164C33.2737 29.7396 33.785 31.312 34.2929 32.886C34.3102 32.9402 34.3233 32.9953 34.3439 33.0709C34.2387 33.1095 34.14 33.1531 34.0389 33.181C30.6964 34.2402 27.3559 35.3 24.0172 36.3602C23.8577 36.4104 23.8101 36.3561 23.7566 36.2222C22.7369 33.638 21.7147 31.055 20.69 28.473C19.6878 25.9448 18.6851 23.4166 17.6818 20.8883C17.5314 20.5086 17.3834 20.1272 17.233 19.7475C17.2092 19.6825 17.1763 19.6258 17.1286 19.5256Z" fill="#ACACAC"/>
<g id="AWS Lambda">
<path id="Vector_2" d="M169.573 15.0342C170.954 15.0342 171.997 15.34 172.701 15.9517C173.411 16.5634 173.766 17.5172 173.766 18.8129V26.1632H172.118L171.674 24.6142H171.596C171.286 25.0088 170.967 25.3344 170.639 25.5909C170.31 25.8475 169.928 26.0382 169.494 26.1632C169.067 26.2947 168.544 26.3605 167.925 26.3605C167.274 26.3605 166.692 26.2421 166.179 26.0053C165.666 25.762 165.261 25.3936 164.966 24.9003C164.67 24.407 164.522 23.7822 164.522 23.0258C164.522 21.901 164.939 21.0558 165.775 20.4902C166.616 19.9245 167.886 19.6121 169.583 19.5529L171.477 19.4838V18.9116C171.477 18.1552 171.3 17.6158 170.944 17.2935C170.596 16.9712 170.102 16.8101 169.464 16.8101C168.919 16.8101 168.389 16.889 167.876 17.0469C167.363 17.2047 166.863 17.3988 166.376 17.629L165.627 15.9912C166.159 15.7084 166.764 15.4782 167.442 15.3006C168.126 15.123 168.836 15.0342 169.573 15.0342ZM171.467 20.944L170.056 20.9933C168.899 21.0328 168.087 21.2301 167.62 21.5853C167.153 21.9405 166.919 22.4272 166.919 23.0455C166.919 23.5848 167.08 23.9795 167.402 24.2294C167.725 24.4728 168.149 24.5945 168.675 24.5945C169.478 24.5945 170.142 24.3675 170.668 23.9137C171.201 23.4533 171.467 22.7791 171.467 21.8911V20.944Z" fill="#ACACAC"/>
<path id="Vector_3" d="M156.372 26.3604C155.07 26.3604 154.024 25.8869 153.235 24.9397C152.452 23.986 152.061 22.5817 152.061 20.7269C152.061 18.8523 152.459 17.4349 153.254 16.4746C154.057 15.5143 155.113 15.0341 156.421 15.0341C156.974 15.0341 157.457 15.1097 157.872 15.261C158.286 15.4057 158.641 15.6031 158.937 15.853C159.24 16.1029 159.496 16.3825 159.707 16.6916H159.815C159.783 16.4877 159.743 16.195 159.697 15.8135C159.658 15.4255 159.638 15.067 159.638 14.7381V10.8114H161.966V26.1631H160.151L159.736 24.6733H159.638C159.44 24.989 159.191 25.2752 158.888 25.5317C158.592 25.7816 158.237 25.9822 157.822 26.1335C157.415 26.2848 156.931 26.3604 156.372 26.3604ZM157.023 24.476C158.016 24.476 158.717 24.1899 159.125 23.6177C159.533 23.0454 159.743 22.1871 159.756 21.0426V20.7367C159.756 19.5133 159.559 18.5761 159.164 17.9249C158.77 17.2671 158.049 16.9383 157.004 16.9383C156.168 16.9383 155.53 17.277 155.09 17.9545C154.655 18.6254 154.438 19.5627 154.438 20.7663C154.438 21.97 154.655 22.8908 155.09 23.5289C155.53 24.1603 156.175 24.476 157.023 24.476Z" fill="#ACACAC"/>
<path id="Vector_4" d="M142.431 10.8114V14.5112C142.431 14.9387 142.418 15.3597 142.392 15.7741C142.372 16.1819 142.352 16.5009 142.333 16.7311H142.431C142.727 16.2575 143.138 15.8596 143.665 15.5373C144.197 15.2084 144.878 15.044 145.707 15.044C147.003 15.044 148.045 15.5208 148.834 16.4746C149.624 17.4217 150.018 18.826 150.018 20.6874C150.018 21.924 149.837 22.9632 149.476 23.8051C149.114 24.647 148.604 25.285 147.946 25.7191C147.295 26.1467 146.529 26.3604 145.648 26.3604C144.819 26.3604 144.148 26.2092 143.635 25.9066C143.128 25.5975 142.731 25.239 142.441 24.8312H142.273L141.849 26.1631H140.113V10.8114H142.431ZM145.095 16.9284C144.437 16.9284 143.914 17.06 143.526 17.3231C143.145 17.5862 142.869 17.9808 142.698 18.507C142.527 19.0266 142.438 19.6876 142.431 20.4901V20.6973C142.431 21.9141 142.622 22.8448 143.003 23.4894C143.392 24.134 144.095 24.4563 145.115 24.4563C145.924 24.4563 146.545 24.1307 146.98 23.4795C147.414 22.8218 147.631 21.8812 147.631 20.6578C147.631 19.4213 147.414 18.4905 146.98 17.8657C146.552 17.2408 145.924 16.9284 145.095 16.9284Z" fill="#ACACAC"/>
<path id="Vector_5" d="M133.177 15.0342C134.4 15.0342 135.321 15.3499 135.939 15.9813C136.564 16.6128 136.877 17.6257 136.877 19.0201V26.1632H134.558V19.4345C134.558 18.6057 134.397 17.9809 134.075 17.5599C133.752 17.139 133.262 16.9285 132.605 16.9285C131.684 16.9285 131.019 17.2245 130.612 17.8164C130.21 18.4018 130.01 19.2536 130.01 20.3718V26.1632H127.691V19.4345C127.691 18.882 127.619 18.4216 127.474 18.0532C127.336 17.6783 127.122 17.3988 126.833 17.2146C126.543 17.0239 126.178 16.9285 125.738 16.9285C125.1 16.9285 124.59 17.0732 124.208 17.3626C123.834 17.652 123.564 18.0795 123.399 18.6452C123.235 19.2043 123.153 19.8916 123.153 20.7072V26.1632H120.834V15.2414H122.64L122.965 16.7114H123.094C123.317 16.3299 123.594 16.0175 123.922 15.7741C124.258 15.5242 124.629 15.34 125.037 15.2216C125.445 15.0967 125.869 15.0342 126.31 15.0342C127.126 15.0342 127.813 15.1789 128.372 15.4683C128.931 15.7511 129.349 16.1852 129.625 16.7706H129.803C130.145 16.1787 130.621 15.7413 131.233 15.4584C131.845 15.1756 132.493 15.0342 133.177 15.0342Z" fill="#ACACAC"/>
<path id="Vector_6" d="M113.395 15.0342C114.776 15.0342 115.819 15.34 116.523 15.9517C117.233 16.5634 117.588 17.5172 117.588 18.8129V26.1632H115.941L115.497 24.6142H115.418C115.109 25.0088 114.79 25.3344 114.461 25.5909C114.132 25.8475 113.75 26.0382 113.316 26.1632C112.889 26.2947 112.366 26.3605 111.748 26.3605C111.096 26.3605 110.514 26.2421 110.001 26.0053C109.488 25.762 109.084 25.3936 108.788 24.9003C108.492 24.407 108.344 23.7822 108.344 23.0258C108.344 21.901 108.761 21.0558 109.597 20.4902C110.439 19.9245 111.708 19.6121 113.405 19.5529L115.299 19.4838V18.9116C115.299 18.1552 115.122 17.6158 114.767 17.2935C114.418 16.9712 113.925 16.8101 113.287 16.8101C112.741 16.8101 112.211 16.889 111.698 17.0469C111.185 17.2047 110.685 17.3988 110.199 17.629L109.449 15.9912C109.982 15.7084 110.587 15.4782 111.264 15.3006C111.948 15.123 112.659 15.0342 113.395 15.0342ZM115.289 20.944L113.879 20.9933C112.721 21.0328 111.909 21.2301 111.442 21.5853C110.975 21.9405 110.741 22.4272 110.741 23.0455C110.741 23.5848 110.902 23.9795 111.225 24.2294C111.547 24.4728 111.971 24.5945 112.497 24.5945C113.3 24.5945 113.964 24.3675 114.49 23.9137C115.023 23.4533 115.289 22.7791 115.289 21.8911V20.944Z" fill="#ACACAC"/>
<path id="Vector_7" d="M98.3592 26.1632V11.7389H100.727V24.1505H106.854V26.1632H98.3592Z" fill="#ACACAC"/>
<path id="Vector_8" d="M90.3282 22.2364C90.3282 23.0914 90.1177 23.8281 89.6967 24.4464C89.2824 25.0647 88.6838 25.5382 87.9011 25.8671C87.125 26.196 86.1975 26.3604 85.1188 26.3604C84.5927 26.3604 84.0895 26.3308 83.6093 26.2716C83.1292 26.2124 82.6753 26.1269 82.2478 26.0151C81.8268 25.8967 81.4421 25.7553 81.0935 25.5909V23.3611C81.6789 23.6176 82.3333 23.8511 83.0568 24.0616C83.7803 24.2655 84.517 24.3675 85.2668 24.3675C85.8785 24.3675 86.385 24.2885 86.7862 24.1307C87.194 23.9662 87.4966 23.736 87.6939 23.44C87.8912 23.1375 87.9899 22.7856 87.9899 22.3844C87.9899 21.9568 87.8748 21.5951 87.6446 21.2991C87.4144 21.0031 87.0658 20.7334 86.5988 20.4901C86.1383 20.2401 85.5595 19.9737 84.8623 19.6909C84.3888 19.5002 83.9349 19.2831 83.5008 19.0397C83.0733 18.7964 82.6918 18.5103 82.3563 18.1814C82.0209 17.8525 81.7545 17.4645 81.5572 17.0172C81.3664 16.5633 81.2711 16.0306 81.2711 15.4189C81.2711 14.6033 81.4651 13.9061 81.8532 13.3273C82.2478 12.7484 82.8003 12.3045 83.5107 11.9953C84.2276 11.6862 85.0629 11.5316 86.0167 11.5316C86.7731 11.5316 87.4834 11.6105 88.1478 11.7684C88.8186 11.9263 89.4764 12.1499 90.121 12.4393L89.3712 14.3435C88.7792 14.1001 88.2037 13.9061 87.6446 13.7614C87.0921 13.6167 86.5264 13.5443 85.9476 13.5443C85.4477 13.5443 85.0235 13.6199 84.6749 13.7712C84.3263 13.9225 84.0599 14.1363 83.8757 14.4125C83.6981 14.6822 83.6093 15.0045 83.6093 15.3794C83.6093 15.8004 83.7113 16.1555 83.9152 16.445C84.1257 16.7278 84.4479 16.9876 84.8821 17.2244C85.3227 17.4612 85.8884 17.7243 86.579 18.0137C87.3749 18.3425 88.0491 18.6879 88.6016 19.0496C89.1607 19.4114 89.5882 19.8455 89.8842 20.3519C90.1802 20.8518 90.3282 21.48 90.3282 22.2364Z" fill="#ACACAC"/>
<path id="Vector_9" d="M79.9589 11.7389L76.19 26.1632H73.6051L71.1977 17.5204C71.1385 17.31 71.0728 17.06 71.0004 16.7706C70.928 16.4812 70.8557 16.1852 70.7833 15.8827C70.7176 15.5801 70.6584 15.3039 70.6058 15.0539C70.5597 14.7974 70.5268 14.6001 70.5071 14.4619C70.4939 14.6001 70.4643 14.7941 70.4183 15.044C70.3723 15.294 70.3163 15.5702 70.2506 15.8728C70.1914 16.1688 70.1256 16.4648 70.0533 16.7608C69.9809 17.0502 69.9151 17.3067 69.8559 17.5303L67.4881 26.1632H64.913L61.154 11.7389H63.5317L65.6135 20.1942C65.6793 20.4638 65.745 20.7565 65.8108 21.0723C65.8832 21.3814 65.9489 21.6938 66.0081 22.0095C66.0739 22.3253 66.1331 22.6344 66.1857 22.937C66.2383 23.2329 66.2811 23.5026 66.314 23.746C66.3469 23.496 66.3896 23.2198 66.4422 22.9172C66.4949 22.6081 66.5508 22.2957 66.61 21.9799C66.6757 21.6576 66.7415 21.3485 66.8073 21.0525C66.8796 20.7565 66.952 20.4902 67.0243 20.2534L69.3725 11.7389H71.6812L74.0786 20.283C74.151 20.5263 74.22 20.7993 74.2858 21.1019C74.3582 21.4044 74.4272 21.7136 74.493 22.0293C74.5588 22.345 74.618 22.6508 74.6706 22.9468C74.7232 23.2428 74.766 23.5092 74.7989 23.746C74.8449 23.4237 74.9041 23.0554 74.9765 22.641C75.0488 22.2266 75.131 21.8056 75.2231 21.3781C75.3152 20.9506 75.4073 20.5559 75.4994 20.1942L77.5712 11.7389H79.9589Z" fill="#ACACAC"/>
<path id="Vector_10" d="M58.4803 26.1632L57.0694 22.1575H51.5542L50.1434 26.1632H47.6472L53.0144 11.6797H55.6388L60.9961 26.1632H58.4803ZM56.4577 20.1251L55.0863 16.1786C55.0337 16.0076 54.9581 15.7676 54.8594 15.4584C54.7607 15.1427 54.6621 14.8237 54.5634 14.5014C54.4647 14.1725 54.3825 13.8963 54.3168 13.6726C54.251 13.9423 54.1688 14.2449 54.0701 14.5803C53.978 14.9092 53.8859 15.2183 53.7939 15.5077C53.7083 15.7972 53.6426 16.0208 53.5965 16.1786L52.2153 20.1251H56.4577Z" fill="#ACACAC"/>
</g>
</g>
</svg>
