<svg width="135" height="40" viewBox="0 0 135 40" fill="none" xmlns="http://www.w3.org/2000/svg">
<path id="Union" d="M23.9384 37.0032C30.3418 35.8604 35.6306 34.9148 35.6913 34.9018L35.8018 34.8781L29.7564 27.6136C26.4314 23.6181 23.711 20.3336 23.711 20.3147C23.711 20.2788 29.9534 2.91249 29.9884 2.85071C30.0002 2.83005 34.2483 10.2395 40.2862 20.8117C45.939 30.7096 50.5995 38.8704 50.6428 38.9469L50.7215 39.0859L31.5087 39.0834L12.2959 39.0809L23.9384 37.0032ZM97.6173 35.2463C94.6928 35.0569 92.9918 33.3745 92.5411 30.2255C92.4212 29.3878 92.4207 29.366 92.4084 23.9277L92.3966 18.6644H93.6909H94.9852L94.9954 23.7554C95.0046 28.3438 95.0104 28.8818 95.0538 29.2046C95.23 30.5146 95.5809 31.3955 96.1782 32.0278C96.6562 32.5339 97.2159 32.8302 97.9905 32.9874C98.356 33.0616 99.3956 33.0617 99.7289 32.9877C100.514 32.8131 101.144 32.4678 101.699 31.9071C102.332 31.2679 102.8 30.3611 103.027 29.3357L103.103 28.9901L103.111 23.856L103.12 18.7219H104.441H105.763V26.7929V34.8638H104.455H103.147V33.5833C103.147 32.7132 103.138 32.3059 103.118 32.3127C103.102 32.3181 103.034 32.4219 102.968 32.5434C102.518 33.3737 101.767 34.1331 100.944 34.5905C99.9578 35.1389 98.9687 35.3338 97.6173 35.2463ZM127.302 35.2333C126.27 35.1549 125.183 34.7963 124.294 34.2411C122.421 33.0709 121.313 31.1419 120.989 28.4874C120.877 27.5688 120.863 26.335 120.957 25.5544C121.166 23.8104 121.845 22.0983 122.811 20.876C123.058 20.5627 123.62 19.9951 123.93 19.745C124.768 19.0694 125.747 18.597 126.788 18.3671C127.394 18.2332 128.461 18.1703 129.105 18.2306C130.722 18.382 132.205 19.1514 133.212 20.3623C134.236 21.5926 134.798 23.3117 134.87 25.4285C134.882 25.7602 134.884 26.3419 134.876 26.721L134.862 27.4103L129.197 27.4176L123.532 27.4248V27.6802C123.532 28.4577 123.719 29.3432 124.043 30.0965C124.322 30.7462 124.802 31.4557 125.195 31.799C126.001 32.5029 126.987 32.9243 128.067 33.0257C128.467 33.0633 129.487 33.0237 129.943 32.9529C131.245 32.7508 132.482 32.2352 133.481 31.4784C133.599 31.3894 133.711 31.3062 133.731 31.2936C133.76 31.2751 133.767 31.5077 133.766 32.4856L133.766 33.7005L133.498 33.8678C132.368 34.574 131.073 35.0274 129.702 35.1972C129.293 35.2478 127.791 35.2704 127.302 35.2333ZM132.232 24.9863C132.232 23.6841 131.689 22.2374 130.92 21.4925C130.371 20.9608 129.708 20.6359 128.92 20.5126C128.547 20.4542 127.761 20.4767 127.367 20.557C126.536 20.7267 125.848 21.0959 125.249 21.6946C124.618 22.3247 124.144 23.09 123.847 23.962C123.74 24.2755 123.615 24.7903 123.576 25.0766L123.557 25.2131H127.895H132.232V24.9863ZM55.3891 34.8279C55.3957 34.8081 57.3194 29.7028 59.6639 23.4827L63.9266 12.1733L65.2962 12.1733L66.6659 12.1732L66.7795 12.4676C67.1268 13.3672 75.3132 34.8392 75.3132 34.8504C75.3132 34.8577 74.6575 34.8637 73.8561 34.8635L72.399 34.8632L71.2191 31.6897L70.0393 28.5162L65.2885 28.5161L60.5377 28.5161L60.4964 28.6238C60.4737 28.683 59.9696 30.111 59.3762 31.7971L58.2973 34.8627L56.8371 34.8632C55.6814 34.8636 55.3795 34.8563 55.3891 34.8279ZM69.1721 26.0943C69.1721 26.0893 68.3781 23.9146 67.4076 21.2618C65.5921 16.2988 65.4905 16.0001 65.347 15.2034C65.2798 14.8297 65.2458 14.8193 65.2058 15.1603C65.1773 15.404 65.0535 15.9493 64.9581 16.2517C64.9108 16.4018 64.0932 18.6688 63.1413 21.2894C62.1893 23.9101 61.4105 26.0654 61.4105 26.0789C61.4105 26.0924 63.1568 26.1035 65.2913 26.1035C67.4257 26.1035 69.1721 26.0994 69.1721 26.0943ZM76.1946 34.4504V34.0371L80.9278 27.4637L85.661 20.8904L81.3756 20.876L77.0901 20.8616L77.0827 19.763L77.0753 18.6644H83.2736H89.4718V19.0355V19.4065L84.7381 26.0157C82.1345 29.6508 80.0043 32.6311 80.0043 32.6386C80.0043 32.646 82.1089 32.6521 84.6812 32.6521H89.3581V33.758V34.8638H82.7764H76.1946V34.4504ZM110.928 34.8446C110.917 34.8341 110.909 31.1892 110.909 26.7449V18.6644H112.202H113.496V20.3303C113.496 21.2465 113.507 21.9962 113.521 21.9962C113.534 21.9962 113.597 21.8462 113.66 21.6629C113.951 20.8229 114.456 20.038 115.106 19.4142C115.691 18.8523 116.36 18.5162 117.149 18.3876C117.371 18.3515 117.559 18.3446 118.002 18.3563C118.559 18.3709 118.851 18.4121 119.189 18.5239L119.296 18.5591V19.9157V21.2722L118.99 21.1176C118.45 20.8446 117.918 20.7365 117.277 20.7702C116.861 20.7921 116.587 20.8461 116.254 20.9725C115.568 21.2324 115.012 21.6912 114.624 22.3174C114.061 23.224 113.66 24.3894 113.542 25.4604C113.52 25.6527 113.508 27.2181 113.503 30.3041L113.496 34.8638H112.221C111.52 34.8638 110.938 34.8551 110.928 34.8446ZM0.880859 34.7879C0.880859 34.7776 3.72943 29.7821 7.21102 23.6866L13.5412 12.604L20.9182 6.3497C24.9756 2.90985 28.3062 0.0912193 28.3196 0.0860788C28.3329 0.0809393 28.2796 0.216651 28.201 0.387663C28.1224 0.558674 24.5177 8.3696 20.1905 17.7453L12.323 34.792L6.6019 34.7992C3.45533 34.8032 0.880859 34.7981 0.880859 34.7879Z" fill="#ACACAC"/>
</svg>
