<svg width="192" height="40" viewBox="0 0 192 40" fill="none" xmlns="http://www.w3.org/2000/svg">
<g id="Group 1171274999">
<path id="Subtract" fill-rule="evenodd" clip-rule="evenodd" d="M34.0928 2.70921L42.9624 18.1349C43.6536 19.3485 43.6536 20.8367 42.9624 22.0503L34.0928 37.476C33.4204 38.6957 32.1561 39.472 30.7642 39.5197H13.0216C11.6296 39.4661 10.3676 38.6866 9.69633 37.4659L0.826731 21.9525C0.140317 20.7581 0.140317 19.2889 0.826731 18.0944L9.69971 2.70921C10.3779 1.50515 11.6433 0.750544 13.025 0.726196H30.7675C32.149 0.751225 33.4141 1.50564 34.0928 2.70921ZM17.0681 26.8533L15.2909 28.6305L11.7332 25.0728V15.0143L15.2909 11.4565L17.0681 13.2337L14.404 15.8978V24.1892L17.0681 26.8533ZM18.0424 21.3034C18.7382 21.3034 19.3022 20.7393 19.3022 20.0436C19.3022 19.3478 18.7382 18.7837 18.0424 18.7837C17.3466 18.7837 16.7826 19.3478 16.7826 20.0436C16.7826 20.7393 17.3466 21.3034 18.0424 21.3034ZM23.0717 20.0436C23.0717 20.7393 22.5076 21.3034 21.8118 21.3034C21.116 21.3034 20.552 20.7393 20.552 20.0436C20.552 19.3478 21.116 18.7837 21.8118 18.7837C22.5076 18.7837 23.0717 19.3478 23.0717 20.0436ZM25.5812 21.3034C26.277 21.3034 26.841 20.7393 26.841 20.0436C26.841 19.3478 26.277 18.7837 25.5812 18.7837C24.8854 18.7837 24.3214 19.3478 24.3214 20.0436C24.3214 20.7393 24.8854 21.3034 25.5812 21.3034ZM26.5387 13.2337L28.3159 11.4565L31.8736 15.0143V25.0728L28.3159 28.6305L26.5387 26.8533L29.2028 24.1892V15.8978L26.5387 13.2337Z" fill="#ACACAC"/>
<g id="Google Cloud Function">
<path id="Vector" d="M187.985 25.4395C189.184 25.4395 190.153 25.8211 190.893 26.5845C191.632 27.3357 192.001 28.3898 192.001 29.7469V35.6537H189.457V30.0922C189.457 29.2925 189.257 28.6806 188.857 28.2565C188.457 27.8204 187.912 27.6023 187.221 27.6023C186.518 27.6023 185.961 27.8204 185.549 28.2565C185.149 28.6806 184.949 29.2925 184.949 30.0922V35.6537H182.405V25.5849H184.949V26.8389C185.289 26.4027 185.719 26.0635 186.24 25.8211C186.773 25.5667 187.355 25.4395 187.985 25.4395Z" fill="#ACACAC"/>
<path id="Vector_2" d="M175.286 35.8171C174.317 35.8171 173.444 35.6051 172.669 35.181C171.893 34.7448 171.281 34.1329 170.833 33.3454C170.397 32.5578 170.179 31.649 170.179 30.6191C170.179 29.5892 170.403 28.6805 170.851 27.8929C171.312 27.1053 171.936 26.4995 172.723 26.0754C173.511 25.6392 174.389 25.4211 175.359 25.4211C176.328 25.4211 177.206 25.6392 177.994 26.0754C178.782 26.4995 179.399 27.1053 179.848 27.8929C180.308 28.6805 180.538 29.5892 180.538 30.6191C180.538 31.649 180.302 32.5578 179.83 33.3454C179.369 34.1329 178.739 34.7448 177.939 35.181C177.152 35.6051 176.267 35.8171 175.286 35.8171ZM175.286 33.5998C175.746 33.5998 176.176 33.4908 176.576 33.2727C176.988 33.0424 177.315 32.7032 177.558 32.2549C177.8 31.8066 177.921 31.2613 177.921 30.6191C177.921 29.6619 177.667 28.9289 177.158 28.42C176.661 27.899 176.049 27.6385 175.322 27.6385C174.595 27.6385 173.983 27.899 173.487 28.42C173.002 28.9289 172.76 29.6619 172.76 30.6191C172.76 31.5763 172.996 32.3154 173.468 32.8365C173.953 33.3454 174.559 33.5998 175.286 33.5998Z" fill="#ACACAC"/>
<path id="Vector_3" d="M167.047 24.3853C166.599 24.3853 166.223 24.246 165.92 23.9673C165.629 23.6765 165.484 23.3191 165.484 22.895C165.484 22.4709 165.629 22.1195 165.92 21.8409C166.223 21.5501 166.599 21.4047 167.047 21.4047C167.495 21.4047 167.865 21.5501 168.156 21.8409C168.459 22.1195 168.61 22.4709 168.61 22.895C168.61 23.3191 168.459 23.6765 168.156 23.9673C167.865 24.246 167.495 24.3853 167.047 24.3853ZM168.301 25.5849V35.6537H165.757V25.5849H168.301Z" fill="#ACACAC"/>
<path id="Vector_4" d="M161.673 27.6749V32.5457C161.673 32.885 161.751 33.1334 161.909 33.2909C162.079 33.4363 162.357 33.509 162.745 33.509H163.926V35.6536H162.327C160.182 35.6536 159.11 34.6116 159.11 32.5276V27.6749H157.911V25.5848H159.11V23.0948H161.673V25.5848H163.926V27.6749H161.673Z" fill="#ACACAC"/>
<path id="Vector_5" d="M147.123 30.6191C147.123 29.5771 147.335 28.6684 147.759 27.8929C148.183 27.1053 148.77 26.4995 149.522 26.0754C150.273 25.6392 151.133 25.4211 152.103 25.4211C153.351 25.4211 154.38 25.7362 155.192 26.3662C156.016 26.9842 156.567 27.8566 156.846 28.9834H154.102C153.956 28.5472 153.708 28.2079 153.357 27.9656C153.017 27.7112 152.593 27.5839 152.084 27.5839C151.357 27.5839 150.782 27.8505 150.358 28.3836C149.934 28.9046 149.722 29.6498 149.722 30.6191C149.722 31.5763 149.934 32.3215 150.358 32.8546C150.782 33.3756 151.357 33.6362 152.084 33.6362C153.114 33.6362 153.787 33.1757 154.102 32.2549H156.846C156.567 33.3454 156.016 34.2117 155.192 34.8539C154.368 35.496 153.338 35.8171 152.103 35.8171C151.133 35.8171 150.273 35.6051 149.522 35.181C148.77 34.7448 148.183 34.139 147.759 33.3635C147.335 32.576 147.123 31.6612 147.123 30.6191Z" fill="#ACACAC"/>
<path id="Vector_6" d="M141.341 25.4395C142.54 25.4395 143.51 25.8211 144.249 26.5845C144.988 27.3357 145.357 28.3898 145.357 29.7469V35.6537H142.813V30.0922C142.813 29.2925 142.613 28.6806 142.213 28.2565C141.813 27.8204 141.268 27.6023 140.577 27.6023C139.875 27.6023 139.317 27.8204 138.905 28.2565C138.505 28.6806 138.305 29.2925 138.305 30.0922V35.6537H135.761V25.5849H138.305V26.8389C138.645 26.4027 139.075 26.0635 139.596 25.8211C140.129 25.5667 140.711 25.4395 141.341 25.4395Z" fill="#ACACAC"/>
<path id="Vector_7" d="M133.25 25.5848V35.6537H130.688V34.3814C130.361 34.8176 129.931 35.163 129.397 35.4174C128.876 35.6597 128.307 35.7809 127.689 35.7809C126.901 35.7809 126.205 35.6173 125.599 35.2902C124.993 34.9509 124.514 34.4602 124.163 33.818C123.824 33.1637 123.654 32.3883 123.654 31.4916V25.5848H126.199V31.1282C126.199 31.9278 126.399 32.5458 126.798 32.982C127.198 33.4061 127.744 33.6181 128.434 33.6181C129.137 33.6181 129.688 33.4061 130.088 32.982C130.488 32.5458 130.688 31.9278 130.688 31.1282V25.5848H133.25Z" fill="#ACACAC"/>
<path id="Vector_8" d="M121.941 22.9677V25.0214H116.652V28.2747H120.705V30.2921H116.652V35.6537H114.107V22.9677H121.941Z" fill="#ACACAC"/>
<path id="Vector_9" d="M96.8047 30.5828C96.8047 29.565 97.0047 28.6623 97.4045 27.8748C97.8165 27.0872 98.3738 26.4814 99.0766 26.0573C99.7794 25.6332 100.561 25.4212 101.421 25.4212C102.075 25.4212 102.699 25.5666 103.293 25.8574C103.887 26.136 104.359 26.5117 104.711 26.9842V22.2042H107.292V35.6536H104.711V34.1632C104.396 34.66 103.954 35.0599 103.384 35.3628C102.815 35.6657 102.154 35.8171 101.403 35.8171C100.555 35.8171 99.7794 35.599 99.0766 35.1629C98.3738 34.7267 97.8165 34.1148 97.4045 33.3272C97.0047 32.5275 96.8047 31.6127 96.8047 30.5828ZM104.729 30.6192C104.729 30.0012 104.608 29.4741 104.365 29.0379C104.123 28.5896 103.796 28.2504 103.384 28.0202C102.972 27.7778 102.53 27.6567 102.057 27.6567C101.585 27.6567 101.149 27.7718 100.749 28.002C100.349 28.2322 100.022 28.5715 99.7672 29.0198C99.5249 29.456 99.4037 29.977 99.4037 30.5828C99.4037 31.1886 99.5249 31.7218 99.7672 32.1822C100.022 32.6305 100.349 32.9758 100.749 33.2182C101.161 33.4605 101.597 33.5816 102.057 33.5816C102.53 33.5816 102.972 33.4665 103.384 33.2363C103.796 32.994 104.123 32.6547 104.365 32.2185C104.608 31.7702 104.729 31.2371 104.729 30.6192Z" fill="#ACACAC"/>
<path id="Vector_10" d="M94.9485 25.5848V35.6537H92.3858V34.3814C92.0587 34.8176 91.6286 35.163 91.0954 35.4174C90.5744 35.6597 90.005 35.7809 89.387 35.7809C88.5994 35.7809 87.9027 35.6173 87.2969 35.2902C86.6911 34.9509 86.2125 34.4602 85.8611 33.818C85.5218 33.1637 85.3522 32.3883 85.3522 31.4916V25.5848H87.8967V31.1282C87.8967 31.9278 88.0966 32.5458 88.4964 32.982C88.8963 33.4061 89.4415 33.6181 90.1322 33.6181C90.8349 33.6181 91.3862 33.4061 91.7861 32.982C92.1859 32.5458 92.3858 31.9278 92.3858 31.1282V25.5848H94.9485Z" fill="#ACACAC"/>
<path id="Vector_11" d="M78.3241 35.8171C77.3548 35.8171 76.4824 35.6051 75.707 35.181C74.9315 34.7448 74.3196 34.1329 73.8713 33.3454C73.4351 32.5578 73.217 31.649 73.217 30.6191C73.217 29.5892 73.4412 28.6805 73.8895 27.8929C74.3499 27.1053 74.9739 26.4995 75.7615 26.0754C76.5491 25.6392 77.4275 25.4211 78.3968 25.4211C79.3662 25.4211 80.2446 25.6392 81.0322 26.0754C81.8197 26.4995 82.4377 27.1053 82.886 27.8929C83.3464 28.6805 83.5766 29.5892 83.5766 30.6191C83.5766 31.649 83.3404 32.5578 82.8678 33.3454C82.4074 34.1329 81.7773 34.7448 80.9776 35.181C80.1901 35.6051 79.3056 35.8171 78.3241 35.8171ZM78.3241 33.5998C78.7846 33.5998 79.2147 33.4908 79.6145 33.2727C80.0265 33.0424 80.3536 32.7032 80.596 32.2549C80.8383 31.8066 80.9595 31.2613 80.9595 30.6191C80.9595 29.6619 80.705 28.9289 80.1961 28.42C79.6994 27.899 79.0875 27.6385 78.3605 27.6385C77.6335 27.6385 77.0216 27.899 76.5248 28.42C76.0402 28.9289 75.7978 29.6619 75.7978 30.6191C75.7978 31.5763 76.0341 32.3154 76.5066 32.8365C76.9913 33.3454 77.5971 33.5998 78.3241 33.5998Z" fill="#ACACAC"/>
<path id="Vector_12" d="M71.3392 22.2042V35.6536H68.7947V22.2042H71.3392Z" fill="#ACACAC"/>
<path id="Vector_13" d="M54.2262 29.2925C54.2262 28.0445 54.5049 26.9298 55.0622 25.9483C55.6317 24.9548 56.4011 24.1854 57.3704 23.6401C58.3519 23.0828 59.4484 22.8041 60.6601 22.8041C62.0777 22.8041 63.3196 23.1676 64.3859 23.8946C65.4521 24.6216 66.1973 25.6272 66.6214 26.9116H63.6953C63.4045 26.3058 62.9925 25.8514 62.4594 25.5485C61.9384 25.2456 61.3325 25.0941 60.6419 25.0941C59.9028 25.0941 59.2424 25.2698 58.6608 25.6212C58.0914 25.9604 57.643 26.4451 57.3159 27.0752C57.0009 27.7052 56.8434 28.4443 56.8434 29.2925C56.8434 30.1285 57.0009 30.8676 57.3159 31.5098C57.643 32.1399 58.0914 32.6306 58.6608 32.982C59.2424 33.3212 59.9028 33.4909 60.6419 33.4909C61.3325 33.4909 61.9384 33.3394 62.4594 33.0365C62.9925 32.7215 63.4045 32.261 63.6953 31.6552H66.6214C66.1973 32.9517 65.4521 33.9634 64.3859 34.6904C63.3318 35.4053 62.0898 35.7627 60.6601 35.7627C59.4484 35.7627 58.3519 35.4901 57.3704 34.9448C56.4011 34.3875 55.6317 33.6181 55.0622 32.6366C54.5049 31.6552 54.2262 30.5405 54.2262 29.2925Z" fill="#ACACAC"/>
<path id="Vector_14" d="M118.711 12.2189C118.711 12.5824 118.687 12.9096 118.638 13.2003H111.277C111.338 13.9273 111.592 14.4968 112.041 14.9088C112.489 15.3207 113.04 15.5267 113.695 15.5267C114.64 15.5267 115.312 15.1208 115.712 14.309H118.456C118.166 15.2783 117.608 16.078 116.784 16.7081C115.96 17.326 114.949 17.635 113.749 17.635C112.78 17.635 111.907 17.423 111.132 16.9989C110.369 16.5627 109.769 15.9508 109.333 15.1632C108.909 14.3757 108.696 13.4669 108.696 12.437C108.696 11.395 108.909 10.4802 109.333 9.69261C109.757 8.90504 110.35 8.29921 111.114 7.87513C111.877 7.45105 112.756 7.23901 113.749 7.23901C114.706 7.23901 115.561 7.44499 116.312 7.85696C117.075 8.26892 117.663 8.85657 118.075 9.61991C118.499 10.3711 118.711 11.2375 118.711 12.2189ZM116.075 11.4919C116.063 10.8376 115.827 10.3166 115.367 9.92888C114.906 9.52904 114.343 9.32912 113.676 9.32912C113.046 9.32912 112.513 9.52298 112.077 9.91071C111.653 10.2863 111.392 10.8134 111.295 11.4919H116.075Z" fill="#ACACAC"/>
<path id="Vector_15" d="M106.837 4.02197V17.4713H104.292V4.02197H106.837Z" fill="#ACACAC"/>
<path id="Vector_16" d="M95.9186 7.23901C96.6698 7.23901 97.3302 7.39047 97.8996 7.69338C98.4691 7.98418 98.9174 8.36585 99.2446 8.8384V7.40259H101.807V17.5441C101.807 18.4771 101.619 19.3071 101.244 20.0341C100.868 20.7732 100.305 21.3548 99.5535 21.7789C98.8023 22.215 97.8936 22.4331 96.8273 22.4331C95.3976 22.4331 94.2223 22.0999 93.3014 21.4335C92.3927 20.7671 91.8777 19.8584 91.7566 18.7073H94.2829C94.4161 19.1677 94.7009 19.5312 95.1371 19.7978C95.5854 20.0765 96.1246 20.2158 96.7546 20.2158C97.4937 20.2158 98.0935 19.9917 98.5539 19.5434C99.0144 19.1072 99.2446 18.4407 99.2446 17.5441V15.9811C98.9174 16.4536 98.4631 16.8474 97.8815 17.1625C97.312 17.4775 96.6577 17.635 95.9186 17.635C95.0704 17.635 94.295 17.4169 93.5922 16.9807C92.8895 16.5445 92.3321 15.9326 91.9201 15.1451C91.5203 14.3454 91.3204 13.4306 91.3204 12.4007C91.3204 11.3829 91.5203 10.4802 91.9201 9.69261C92.3321 8.90504 92.8834 8.29921 93.574 7.87513C94.2768 7.45105 95.0583 7.23901 95.9186 7.23901ZM99.2446 12.437C99.2446 11.8191 99.1234 11.292 98.8811 10.8558C98.6387 10.4075 98.3116 10.0682 97.8996 9.83801C97.4877 9.59568 97.0454 9.47451 96.5729 9.47451C96.1003 9.47451 95.6641 9.58962 95.2643 9.81983C94.8644 10.05 94.5373 10.3893 94.2829 10.8376C94.0405 11.2738 93.9194 11.7948 93.9194 12.4007C93.9194 13.0065 94.0405 13.5396 94.2829 14C94.5373 14.4483 94.8644 14.7937 95.2643 15.036C95.6763 15.2783 96.1124 15.3995 96.5729 15.3995C97.0454 15.3995 97.4877 15.2844 97.8996 15.0542C98.3116 14.8118 98.6387 14.4726 98.8811 14.0364C99.1234 13.5881 99.2446 13.0549 99.2446 12.437Z" fill="#ACACAC"/>
<path id="Vector_17" d="M84.8557 17.635C83.8863 17.635 83.014 17.423 82.2385 16.9989C81.463 16.5627 80.8512 15.9508 80.4028 15.1632C79.9666 14.3757 79.7486 13.4669 79.7486 12.437C79.7486 11.4071 79.9727 10.4984 80.421 9.71079C80.8814 8.92321 81.5054 8.31738 82.293 7.89331C83.0806 7.45711 83.959 7.23901 84.9284 7.23901C85.8977 7.23901 86.7761 7.45711 87.5637 7.89331C88.3513 8.31738 88.9692 8.92321 89.4175 9.71079C89.878 10.4984 90.1082 11.4071 90.1082 12.437C90.1082 13.4669 89.8719 14.3757 89.3994 15.1632C88.9389 15.9508 88.3089 16.5627 87.5092 16.9989C86.7216 17.423 85.8371 17.635 84.8557 17.635ZM84.8557 15.4177C85.3161 15.4177 85.7462 15.3086 86.1461 15.0905C86.558 14.8603 86.8852 14.521 87.1275 14.0727C87.3698 13.6244 87.491 13.0792 87.491 12.437C87.491 11.4798 87.2366 10.7467 86.7277 10.2379C86.2309 9.71684 85.619 9.45634 84.892 9.45634C84.165 9.45634 83.5531 9.71684 83.0564 10.2379C82.5717 10.7467 82.3294 11.4798 82.3294 12.437C82.3294 13.3942 82.5656 14.1333 83.0382 14.6543C83.5228 15.1632 84.1287 15.4177 84.8557 15.4177Z" fill="#ACACAC"/>
<path id="Vector_18" d="M73.2657 17.635C72.2964 17.635 71.424 17.423 70.6485 16.9989C69.8731 16.5627 69.2612 15.9508 68.8129 15.1632C68.3767 14.3757 68.1586 13.4669 68.1586 12.437C68.1586 11.4071 68.3827 10.4984 68.8311 9.71079C69.2915 8.92321 69.9155 8.31738 70.7031 7.89331C71.4906 7.45711 72.3691 7.23901 73.3384 7.23901C74.3077 7.23901 75.1862 7.45711 75.9737 7.89331C76.7613 8.31738 77.3793 8.92321 77.8276 9.71079C78.288 10.4984 78.5182 11.4071 78.5182 12.437C78.5182 13.4669 78.2819 14.3757 77.8094 15.1632C77.349 15.9508 76.7189 16.5627 75.9192 16.9989C75.1316 17.423 74.2471 17.635 73.2657 17.635ZM73.2657 15.4177C73.7261 15.4177 74.1563 15.3086 74.5561 15.0905C74.9681 14.8603 75.2952 14.521 75.5376 14.0727C75.7799 13.6244 75.901 13.0792 75.901 12.437C75.901 11.4798 75.6466 10.7467 75.1377 10.2379C74.6409 9.71684 74.029 9.45634 73.3021 9.45634C72.5751 9.45634 71.9632 9.71684 71.4664 10.2379C70.9817 10.7467 70.7394 11.4798 70.7394 12.437C70.7394 13.3942 70.9757 14.1333 71.4482 14.6543C71.9329 15.1632 72.5387 15.4177 73.2657 15.4177Z" fill="#ACACAC"/>
<path id="Vector_19" d="M63.6771 8.60211C63.3863 8.06898 62.9864 7.66308 62.4775 7.3844C61.9686 7.10572 61.3749 6.96638 60.6964 6.96638C59.9452 6.96638 59.2788 7.13601 58.6972 7.47527C58.1156 7.81453 57.6612 8.29919 57.3341 8.92925C57.0069 9.55931 56.8434 10.2863 56.8434 11.1102C56.8434 11.9584 57.0069 12.6975 57.3341 13.3276C57.6733 13.9576 58.1398 14.4423 58.7335 14.7815C59.3272 15.1208 60.0179 15.2904 60.8055 15.2904C61.7748 15.2904 62.5684 15.036 63.1864 14.5271C63.8043 14.0061 64.2102 13.2851 64.4041 12.3643H60.0421V10.4196H66.9122V12.6369C66.7426 13.5214 66.3791 14.3393 65.8217 15.0905C65.2643 15.8417 64.5434 16.4476 63.6589 16.908C62.7865 17.3563 61.8051 17.5805 60.7146 17.5805C59.4908 17.5805 58.3822 17.3078 57.3886 16.7626C56.4072 16.2052 55.6317 15.4358 55.0622 14.4544C54.5049 13.473 54.2262 12.3582 54.2262 11.1102C54.2262 9.86223 54.5049 8.7475 55.0622 7.76607C55.6317 6.77251 56.4072 6.00311 57.3886 5.45787C58.3822 4.90051 59.4848 4.62183 60.6964 4.62183C62.1262 4.62183 63.3681 4.97321 64.4222 5.67596C65.4764 6.36661 66.2034 7.34199 66.6032 8.60211H63.6771Z" fill="#ACACAC"/>
</g>
</g>
</svg>
