<svg width="110" height="53" viewBox="0 0 110 53" fill="none" xmlns="http://www.w3.org/2000/svg">
<g id="Istio-0 1" clip-path="url(#clip0_9764_43008)">
<path id="Vector" d="M50.141 42.8992C50.104 42.8626 50.0747 42.8187 50.0551 42.7701C50.0354 42.7215 50.0258 42.6692 50.0269 42.6167V20.1579C50.026 20.1054 50.0356 20.0532 50.0553 20.0046C50.0749 19.956 50.1041 19.912 50.141 19.8754C50.1772 19.8377 50.2206 19.808 50.2685 19.788C50.3164 19.7681 50.3678 19.7583 50.4195 19.7592H53.423C53.4744 19.7585 53.5255 19.7685 53.573 19.7884C53.6206 19.8084 53.6637 19.838 53.6997 19.8754C53.7366 19.9121 53.7657 19.9561 53.7853 20.0047C53.8049 20.0533 53.8146 20.1054 53.8138 20.1579V42.6167C53.8148 42.6692 53.8052 42.7214 53.7856 42.77C53.766 42.8186 53.7367 42.8626 53.6997 42.8992C53.6638 42.9367 53.6207 42.9664 53.5731 42.9864C53.5255 43.0063 53.4744 43.0162 53.423 43.0154H50.4195C50.3678 43.0164 50.3163 43.0067 50.2684 42.9867C50.2205 42.9667 50.1772 42.937 50.141 42.8992Z" fill="#ACACAC"/>
<path id="Vector_2" d="M60.8154 42.5994C59.8819 42.2613 59.0537 41.6765 58.4157 40.905C57.8636 40.2281 57.5622 39.3755 57.5641 38.4957V38.1967C57.5631 38.1442 57.5728 38.092 57.5924 38.0434C57.612 37.9948 57.6412 37.9508 57.6782 37.9142C57.7142 37.8764 57.7574 37.8465 57.8051 37.8264C57.8529 37.8063 57.9042 37.7963 57.9558 37.7972H60.829C60.8807 37.7963 60.932 37.8063 60.9797 37.8264C61.0275 37.8465 61.0707 37.8764 61.1066 37.9142C61.1435 37.9509 61.1727 37.9949 61.1923 38.0434C61.212 38.092 61.2216 38.1442 61.2207 38.1967V38.2634C61.2361 38.5624 61.3267 38.8523 61.4839 39.1053C61.641 39.3583 61.8595 39.5659 62.1183 39.7082C62.7965 40.1405 63.5871 40.3547 64.3868 40.3226C65.1319 40.3565 65.8701 40.1656 66.5089 39.774C66.7516 39.637 66.9546 39.4375 67.0978 39.1955C67.241 38.9535 67.3192 38.6776 67.3247 38.3952C67.3324 38.1591 67.2735 37.9256 67.1549 37.7226C67.0362 37.5195 66.8629 37.3553 66.6554 37.2494C65.9625 36.9 65.2348 36.6271 64.4848 36.4356L63.244 36.037C62.2804 35.7612 61.3405 35.4055 60.4339 34.9736C59.6874 34.6098 59.0295 34.082 58.5077 33.4283C57.9646 32.7121 57.6872 31.824 57.7242 30.9202C57.703 30.2002 57.8557 29.486 58.1688 28.84C58.4819 28.1941 58.9459 27.6361 59.5202 27.2152C60.9057 26.2379 62.5694 25.7532 64.2531 25.8363C65.4479 25.8115 66.6354 26.032 67.7446 26.4846C68.665 26.8536 69.4672 27.4745 70.0625 28.2786C70.6041 29.0353 70.8903 29.9502 70.8783 30.8864C70.8794 30.9389 70.8698 30.9911 70.8502 31.0397C70.8306 31.0883 70.8013 31.1323 70.7642 31.1689C70.7284 31.2065 70.6853 31.2363 70.6377 31.2562C70.5901 31.2762 70.5389 31.286 70.4874 31.285H67.713C67.6614 31.2861 67.6101 31.2764 67.5623 31.2564C67.5146 31.2364 67.4714 31.2066 67.4354 31.1689C67.3984 31.1323 67.3692 31.0883 67.3496 31.0397C67.33 30.9911 67.3203 30.9389 67.3213 30.8864C67.3159 30.5931 67.2364 30.3062 67.0905 30.0532C66.9447 29.8002 66.7374 29.5896 66.4885 29.4416C65.8069 29.0194 65.0159 28.8166 64.2191 28.8601C63.498 28.8292 62.782 28.9956 62.1455 29.342C61.9026 29.4686 61.6992 29.6616 61.5581 29.8993C61.417 30.1371 61.3438 30.4102 61.3468 30.6879C61.3439 30.9443 61.4149 31.1959 61.5512 31.4115C61.6874 31.6272 61.8828 31.7975 62.1132 31.9012C62.9352 32.2928 63.794 32.5991 64.6764 32.8156L65.3942 33.014C66.3852 33.3081 67.3558 33.6688 68.2998 34.0939C69.0664 34.4468 69.7465 34.9687 70.2907 35.6218C70.8561 36.3406 71.146 37.2439 71.1065 38.1638C71.1313 38.8877 70.977 39.6064 70.6576 40.2537C70.3383 40.9011 69.8643 41.4565 69.2791 41.8688C67.8388 42.8305 66.1354 43.3015 64.4149 43.2138C63.188 43.2378 61.9675 43.0295 60.8154 42.5994Z" fill="#ACACAC"/>
<path id="Vector_3" d="M83.0157 29.0447C82.9797 29.0825 82.9365 29.1124 82.8888 29.1325C82.841 29.1526 82.7897 29.1625 82.738 29.1617H79.4076C79.3854 29.1584 79.3628 29.1605 79.3416 29.1678C79.3203 29.175 79.3011 29.1872 79.2853 29.2034C79.2695 29.2195 79.2576 29.2392 79.2506 29.2609C79.2436 29.2825 79.2417 29.3055 79.2449 29.3281V37.3352C79.1862 37.992 79.379 38.6466 79.7831 39.1621C80.0167 39.3689 80.289 39.5256 80.5836 39.6227C80.8781 39.7198 81.1889 39.7553 81.4973 39.7272H82.4766C82.5281 39.7264 82.5792 39.7362 82.6268 39.7562C82.6744 39.7762 82.7174 39.8058 82.7534 39.8433C82.7905 39.8799 82.8197 39.9239 82.8394 39.9725C82.859 40.0211 82.8686 40.0733 82.8675 40.1259V42.6175C82.8708 42.6723 82.8632 42.7273 82.8452 42.779C82.8272 42.8308 82.7991 42.8784 82.7626 42.9188C82.7261 42.9593 82.682 42.9918 82.6328 43.0145C82.5837 43.0372 82.5306 43.0496 82.4766 43.0509L80.7786 43.0847C79.4356 43.1796 78.095 42.8675 76.9261 42.1877C76.0774 41.5897 75.6423 40.4601 75.6207 38.799V29.3298C75.6238 29.3073 75.6217 29.2843 75.6146 29.2628C75.6076 29.2412 75.5957 29.2216 75.5799 29.2055C75.5642 29.1894 75.545 29.1772 75.5238 29.1699C75.5027 29.1626 75.4802 29.1604 75.458 29.1634H73.5965C73.5448 29.1644 73.4935 29.1545 73.4457 29.1344C73.3979 29.1142 73.3548 29.0843 73.3189 29.0464C73.2818 29.0098 73.2525 28.9658 73.2329 28.9172C73.2133 28.8686 73.2037 28.8164 73.2048 28.7639V26.4386C73.2037 26.386 73.2133 26.3338 73.2329 26.2852C73.2525 26.2366 73.2818 26.1926 73.3189 26.1561C73.3549 26.1183 73.3981 26.0884 73.4458 26.0683C73.4935 26.0482 73.5448 26.0382 73.5965 26.0391H75.458C75.4802 26.0423 75.5028 26.0402 75.524 26.0329C75.5453 26.0257 75.5645 26.0135 75.5803 25.9973C75.5961 25.9812 75.608 25.9615 75.615 25.9399C75.622 25.9182 75.624 25.8952 75.6207 25.8727V21.9857C75.6194 21.9331 75.6289 21.8808 75.6486 21.8322C75.6682 21.7836 75.6976 21.7396 75.7348 21.7031C75.7706 21.6654 75.8137 21.6357 75.8613 21.6157C75.9089 21.5957 75.9601 21.5859 76.0115 21.587H78.8524C78.9038 21.5861 78.9549 21.5959 79.0025 21.6159C79.0501 21.6359 79.0932 21.6656 79.1291 21.7031C79.1663 21.7397 79.1957 21.7836 79.2155 21.8322C79.2353 21.8808 79.245 21.9331 79.2441 21.9857V25.8727C79.2408 25.8952 79.2428 25.9182 79.2498 25.9399C79.2568 25.9615 79.2686 25.9812 79.2844 25.9973C79.3002 26.0135 79.3195 26.0257 79.3407 26.0329C79.362 26.0402 79.3846 26.0423 79.4067 26.0391H82.7372C82.7888 26.0383 82.8401 26.0483 82.8878 26.0684C82.9356 26.0885 82.9788 26.1184 83.0148 26.1561C83.0517 26.1928 83.0808 26.2368 83.1004 26.2854C83.1201 26.3339 83.1297 26.3861 83.1289 26.4386V28.7639C83.1296 28.816 83.12 28.8678 83.1005 28.916C83.081 28.9643 83.0522 29.0081 83.0157 29.0447Z" fill="#ACACAC"/>
<path id="Vector_4" d="M86.9797 23.0474C86.7629 22.8253 86.5931 22.5604 86.4808 22.269C86.3685 21.9776 86.316 21.6659 86.3265 21.353C86.3162 21.0402 86.3688 20.7286 86.4811 20.4372C86.5935 20.1458 86.7631 19.8809 86.9797 19.6587C87.198 19.4383 87.4583 19.2656 87.7446 19.1513C88.0309 19.037 88.3371 18.9835 88.6445 18.994C88.9518 18.9835 89.2581 19.037 89.5443 19.1513C89.8306 19.2656 90.0909 19.4383 90.3093 19.6587C90.5258 19.881 90.6954 20.1459 90.8077 20.4373C90.92 20.7286 90.9726 21.0402 90.9624 21.353C90.9729 21.6659 90.9203 21.9776 90.808 22.2689C90.6957 22.5603 90.526 22.8252 90.3093 23.0474C90.091 23.2679 89.8308 23.4407 89.5444 23.555C89.2581 23.6693 88.9519 23.7228 88.6445 23.7121C88.3371 23.7229 88.0308 23.6694 87.7445 23.5551C87.4582 23.4408 87.1979 23.268 86.9797 23.0474ZM86.8 42.8992C86.7629 42.8627 86.7336 42.8187 86.714 42.7701C86.6944 42.7215 86.6848 42.6693 86.6859 42.6167V26.404C86.6849 26.3514 86.6946 26.2993 86.7142 26.2507C86.7338 26.2021 86.763 26.1581 86.8 26.1214C86.8361 26.0839 86.8793 26.0542 86.927 26.0343C86.9748 26.0143 87.026 26.0044 87.0776 26.0053H90.0811C90.1327 26.0044 90.1839 26.0143 90.2316 26.0343C90.2794 26.0542 90.3226 26.0839 90.3587 26.1214C90.3956 26.1581 90.4248 26.2021 90.4444 26.2507C90.464 26.2993 90.4737 26.3514 90.4728 26.404V42.6167C90.4738 42.6692 90.4642 42.7214 90.4445 42.77C90.4249 42.8186 90.3957 42.8626 90.3587 42.8992C90.3227 42.9369 90.2795 42.9666 90.2317 42.9866C90.184 43.0066 90.1327 43.0164 90.0811 43.0154H87.0776C87.026 43.0164 86.9747 43.0066 86.927 42.9866C86.8792 42.9666 86.836 42.9369 86.8 42.8992Z" fill="#ACACAC"/>
<path id="Vector_5" d="M97.4752 41.9554C96.2332 41.0523 95.3206 39.7553 94.8805 38.2678C94.5056 37.0418 94.3183 35.7644 94.3252 34.4804C94.3058 33.1978 94.4822 31.9198 94.8481 30.6922C95.2917 29.2199 96.2119 27.9436 97.459 27.0713C98.7832 26.1807 100.345 25.7268 101.931 25.7713C103.461 25.7344 104.963 26.1893 106.224 27.0713C107.442 27.9488 108.342 29.2096 108.786 30.6593C109.203 31.8759 109.402 33.1586 109.374 34.4466C109.39 35.7312 109.203 37.01 108.82 38.234C108.378 39.7211 107.473 41.0217 106.241 41.939C104.973 42.8514 103.45 43.3234 101.898 43.2849C100.323 43.3287 98.7744 42.8633 97.4752 41.9554ZM103.972 39.2688C104.577 38.7604 105.015 38.0766 105.229 37.3084C105.468 36.3986 105.578 35.4584 105.555 34.5168C105.587 33.5751 105.477 32.6339 105.229 31.7262C105.036 30.9571 104.6 30.2739 103.988 29.7822C103.364 29.3169 102.606 29.0774 101.833 29.1019C101.081 29.0843 100.346 29.3238 99.7437 29.7822C99.1274 30.2771 98.6803 30.9574 98.4664 31.7262C98.2324 32.6368 98.1227 33.5758 98.1402 34.5168C98.1226 35.4582 98.2323 36.3975 98.4664 37.3084C98.6631 38.0843 99.1047 38.773 99.7233 39.2688C100.35 39.7416 101.114 39.9858 101.894 39.9621C102.646 39.9811 103.38 39.7332 103.972 39.261V39.2688Z" fill="#ACACAC"/>
<path id="Vector_6" d="M13.2437 28.3687V41.8584C13.2439 41.8706 13.2398 41.8824 13.2321 41.8918C13.2245 41.9011 13.2138 41.9074 13.202 41.9095L0.439621 44.136C0.430622 44.1373 0.421428 44.1362 0.412988 44.1328C0.404548 44.1293 0.397169 44.1236 0.391613 44.1163C0.386058 44.109 0.382526 44.1002 0.381385 44.0911C0.380244 44.0819 0.381533 44.0725 0.385121 44.064L13.1475 15.0567C13.1525 15.0462 13.1608 15.0377 13.1712 15.0326C13.1815 15.0275 13.1932 15.026 13.2044 15.0286C13.2156 15.0311 13.2257 15.0373 13.233 15.0464C13.2403 15.0554 13.2443 15.0667 13.2446 15.0784L13.2437 28.3687Z" fill="#ACACAC"/>
<path id="Vector_7" d="M15.3947 20.5946V41.9146C15.3949 41.9273 15.3995 41.9395 15.4078 41.9489C15.4161 41.9583 15.4275 41.9643 15.4399 41.9658L34.5566 44.1385C34.5655 44.1394 34.5745 44.138 34.5827 44.1343C34.5908 44.1305 34.5979 44.1247 34.6032 44.1173C34.6084 44.11 34.6117 44.1013 34.6126 44.0922C34.6136 44.0832 34.6122 44.074 34.6085 44.0657L15.4918 0.613627C15.4869 0.60316 15.4786 0.594687 15.4683 0.589561C15.4581 0.584434 15.4465 0.58295 15.4353 0.585344C15.4241 0.587738 15.414 0.593873 15.4067 0.60277C15.3993 0.611667 15.3951 0.622812 15.3947 0.634427V20.5946Z" fill="#ACACAC"/>
<path id="Vector_8" d="M34.4101 46.1275L13.2633 52.5842C13.2515 52.5886 13.2385 52.5886 13.2267 52.5842L0.44812 46.1275C0.437395 46.1227 0.428647 46.1143 0.423386 46.1036C0.418126 46.093 0.416684 46.0808 0.419309 46.0692C0.421935 46.0576 0.428462 46.0473 0.437765 46.04C0.447068 46.0328 0.458562 46.0291 0.470261 46.0296H34.3957C34.4063 46.0313 34.4162 46.0365 34.4238 46.0444C34.4314 46.0522 34.4364 46.0623 34.438 46.0732C34.4396 46.0841 34.4378 46.0952 34.4328 46.105C34.4278 46.1147 34.4198 46.1226 34.4101 46.1275Z" fill="#ACACAC"/>
</g>
<defs>
<clipPath id="clip0_9764_43008">
<rect width="109" height="52" fill="white" transform="translate(0.380859 0.585938)"/>
</clipPath>
</defs>
</svg>
