<svg width="130" height="43" viewBox="0 0 130 43" fill="none" xmlns="http://www.w3.org/2000/svg">
<g id="Group 1171275149">
<path id="Union" fill-rule="evenodd" clip-rule="evenodd" d="M0.737484 0.585938L0.733795 8.4594H0.733703L0.730014 16.3329H5.33133V16.3331H0.729858L0.726169 24.2066H5.32748V24.2068H0.725949L0.72226 32.0803H0.722103L0.718414 39.9538H8.59568L8.59979 32.0803H8.59953L8.60363 24.2074H13.205H16.4809L16.4772 32.0804H24.3547L24.3586 24.2074H28.9599H28.96H32.2358L32.2321 32.0803H32.232L32.2283 39.9538H40.1058L40.1096 32.0804L40.1097 32.0803L40.1135 24.2068H36.8374V24.2066H40.1135L40.1174 16.3331H36.8412V16.3329H40.1174L40.1213 8.45945L40.1252 0.585938H32.2475L32.2438 8.4594H32.2438H32.2436H24.3661L24.3624 16.3329H28.9638V16.3331H24.3624H24.3622H16.485H16.4847H13.2088V16.3329H16.4847L16.4888 8.4594H8.61139H8.61114H8.61106L8.61517 0.585938H0.737484ZM53.1803 8.04122H56.0524L57.2374 12.3266L57.6439 13.9987H57.7184L58.12 12.3266L59.3105 8.04122H62.1826V20.1337H59.8666V16.3903C59.8666 15.0287 60.1056 12.0799 60.2334 10.773H60.1778L59.2497 14.0187L58.3081 16.9317H56.9798L56.0218 14.0187L55.1562 10.773H55.092C55.2306 12.0799 55.4588 15.0287 55.4588 16.3903V20.1337H53.1803V8.04122ZM67.4512 17.8388H64.6258V20.1337H73.0143V17.8388H70.1897V10.3358H73.0143V8.04095H64.6258V10.3358H67.4512V17.8388ZM75.3256 18.6102L76.8972 16.7306C77.8118 17.4791 78.9403 17.9925 80.1133 17.9925C81.2752 17.9925 81.8119 17.5428 81.8119 16.9517C81.8119 16.1585 81.2152 15.9131 80.2439 15.5136C80.1488 15.4745 80.0501 15.4339 79.948 15.3912L78.3717 14.7187C77.0314 14.2096 75.8073 13.1821 75.8073 11.4219C75.8073 9.41924 77.6122 7.81848 80.2414 7.81848C81.6965 7.81848 83.1669 8.36401 84.2594 9.40174L82.8799 11.1269C82.0275 10.5153 81.2736 10.1823 80.0914 10.1823C79.1899 10.1823 78.5777 10.5561 78.5777 11.2622C78.5777 11.9553 79.3137 12.2298 80.3868 12.6301L80.5491 12.6908L82.0292 13.3177C83.6138 13.9113 84.6137 14.899 84.6137 16.6056C84.6137 18.6158 82.9265 20.3562 79.9316 20.3562C78.2967 20.3562 76.6084 19.7585 75.3256 18.6102ZM86.1025 10.3358H89.7297V20.1337H92.4681V10.3358H96.0947V8.04095H86.1025V10.3358ZM100.701 10.2131H102.036C103.474 10.2131 104.246 10.6144 104.246 11.8086C104.246 12.9924 103.474 13.6112 102.036 13.6112H100.701V10.2131ZM107.511 20.1337L104.774 15.2959C106.066 14.712 106.93 13.5854 106.93 11.8086C106.93 8.93146 104.821 8.04095 102.259 8.04095H97.9569V20.1337H100.701V15.7834H102.138L104.448 20.1337H107.511ZM112.342 14.0115L112.056 15.1256H114.605L114.321 14.0115C114.269 13.8066 114.215 13.5957 114.16 13.3806L114.158 13.3708L114.158 13.3707C113.89 12.3203 113.596 11.1679 113.355 10.1117H113.281L112.342 14.0115ZM118.786 20.1337H115.883L115.149 17.258H111.508L110.769 20.1337H107.967L111.736 8.04122H115.018L118.786 20.1337ZM120.925 8.04122H123.658V17.8391H129.043V20.1337H120.925V8.04122ZM56.6466 33.4105L56.3603 34.5246H58.9098L58.6255 33.4105C58.573 33.2036 58.5187 32.9906 58.4632 32.7733C58.195 31.7218 57.9006 30.5678 57.6595 29.5104H57.5853L56.6466 33.4105ZM63.0908 39.5375H60.1865L59.4525 36.6601H55.8101L55.0709 39.5375H52.2679L56.0377 27.4399H59.3211L63.0908 39.5375ZM64.6258 37.2382H67.4512V29.7349H64.6258V27.44H73.0143V29.7349H70.1897V37.2382H73.0143V39.5331H64.6258V37.2382ZM84.4152 40.5321H75.5037V42.5859H84.4152V40.5321Z" fill="#ACACAC"/>
</g>
</svg>
