<svg width="143" height="42" viewBox="0 0 143 42" fill="none" xmlns="http://www.w3.org/2000/svg">
<g id="OpenAI-0 (1) 1" clip-path="url(#clip0_9764_42755)">
<path id="Vector" d="M59.4727 20.2057C59.4727 14.7579 62.9576 10.9559 67.7909 10.9559C72.6242 10.9559 76.1093 14.7579 76.1093 20.2057C76.1093 25.6536 72.6242 29.4555 67.7909 29.4555C62.9576 29.4555 59.4727 25.6536 59.4727 20.2057ZM72.9146 20.2057C72.9146 16.31 70.7988 13.7788 67.7909 13.7788C64.7832 13.7788 62.6672 16.2996 62.6672 20.2057C62.6672 24.1118 64.7832 26.6326 67.7909 26.6326C70.7988 26.6326 72.9146 24.1118 72.9146 20.2057ZM85.0707 29.4555C83.38 29.4555 82.1354 28.7785 81.3161 27.8096V33.6846H78.3289V16.06H81.3161V17.4558C82.1354 16.4766 83.38 15.81 85.0707 15.81C88.732 15.81 90.8167 18.9141 90.8167 22.6328C90.8167 26.3515 88.7215 29.4555 85.0707 29.4555ZM81.233 22.2577V23.0285C81.233 25.4555 82.6228 26.8306 84.469 26.8306C86.6368 26.8306 87.8088 25.1327 87.8088 22.6328C87.8088 20.1328 86.6368 18.4349 84.469 18.4349C82.6228 18.4349 81.233 19.789 81.233 22.2577ZM98.8964 29.4555C95.1625 29.4555 92.5488 26.6846 92.5488 22.6328C92.5488 18.5807 95.1419 15.81 98.7719 15.81C102.402 15.81 104.57 18.6848 104.57 22.2889V23.2889H95.4115C95.6396 25.539 96.9776 26.9139 98.8964 26.9139C100.369 26.9139 101.531 26.1639 101.935 24.8097L104.497 25.7889C103.574 28.0909 101.51 29.4659 98.8964 29.4659V29.4555ZM98.7512 18.3308C97.2058 18.3308 96.013 19.2578 95.567 21.0286H101.562C101.541 19.5808 100.639 18.3308 98.7512 18.3308ZM106.821 29.1846V16.06H109.808V17.4558C110.555 16.5808 111.727 15.81 113.417 15.81C116.155 15.81 117.794 17.7058 117.794 20.5391V29.1846H114.807V21.414C114.807 19.789 114.164 18.6119 112.515 18.6119C111.166 18.6119 109.797 19.612 109.797 21.4869V29.1846H106.81H106.821ZM126.548 11.2372H130.157L136.93 29.1846H133.715L132.17 25.0806H124.453L122.939 29.1846H119.775L126.548 11.2372ZM128.291 14.7892L125.5 22.2889H131.122L128.28 14.7892H128.291ZM142.054 11.2372V29.1846H138.87V11.2372H142.054Z" fill="#ACACAC"/>
<path id="Vector_2" d="M36.8622 17.027C37.3014 15.7038 37.4478 14.3072 37.3136 12.9228C37.1794 11.5383 36.7281 10.203 36.0328 9.00231C34.9958 7.18912 33.4099 5.7557 31.5069 4.89811C29.6039 4.04051 27.4812 3.81999 25.444 4.26104C24.529 3.21966 23.3944 2.38657 22.1258 1.82301C20.8571 1.25945 19.4908 0.965413 18.1001 0.977663C16.0141 0.977663 13.989 1.62699 12.2933 2.86438C10.6098 4.08952 9.35334 5.8292 8.7068 7.81394C7.3527 8.09571 6.07179 8.65927 4.94948 9.48012C3.82716 10.301 2.88783 11.3423 2.20468 12.5552C1.15556 14.3684 0.7164 16.4634 0.935984 18.5462C1.15557 20.629 2.02169 22.5891 3.42459 24.145C2.98542 25.4682 2.83904 26.8649 2.97323 28.2492C3.11961 29.6336 3.55878 30.969 4.25414 32.1697C5.29106 33.9828 6.87693 35.4162 8.77998 36.2738C10.683 37.1315 12.8057 37.352 14.8429 36.9109C15.7579 37.9523 16.8924 38.7854 18.1611 39.349C19.4298 39.9125 20.796 40.2066 22.1867 40.1943C24.2729 40.1943 26.31 39.5449 27.9936 38.3076C29.677 37.0824 30.9336 35.3428 31.58 33.3457C32.9342 33.0641 34.215 32.5004 35.3373 31.6795C36.4597 30.8588 37.3869 29.8174 38.0822 28.6045C39.1314 26.7913 39.5705 24.6963 39.351 22.6135C39.1314 20.5309 38.2652 18.5706 36.8622 17.027ZM22.2723 37.6215C20.3326 37.6215 18.8199 37.0213 17.5145 35.9186C17.5755 35.8818 17.6731 35.8328 17.7463 35.7838L25.5171 31.2754C25.7124 31.1651 25.8709 31.0059 25.9808 30.8098C26.0905 30.6137 26.1515 30.3932 26.1515 30.1727V19.171L29.433 21.0821C29.433 21.0821 29.4697 21.1067 29.4818 21.119C29.4818 21.1311 29.494 21.1557 29.5063 21.168V30.283C29.5063 34.4117 26.0782 37.6338 22.2723 37.6338V37.6215ZM6.47436 30.8832C5.62043 29.4008 5.30325 27.6489 5.60823 25.9582C5.66922 25.995 5.76683 26.0563 5.84001 26.093L13.6108 30.6014C13.806 30.7117 14.0256 30.7731 14.2452 30.7731C14.4648 30.7731 14.6843 30.7117 14.8795 30.6014L24.3705 25.1006V28.9108C24.3705 28.9108 24.3705 28.9475 24.3705 28.9721C24.3705 28.9844 24.346 29.0088 24.3338 29.0211L16.4776 33.5785C14.7941 34.5465 12.8057 34.816 10.927 34.3137C9.04838 33.8113 7.45029 32.574 6.48658 30.8955L6.47436 30.8832ZM4.42493 13.8416C5.27887 12.3469 6.63296 11.2076 8.23103 10.6195V19.9061C8.23103 20.1266 8.29204 20.3471 8.40182 20.543C8.5116 20.7391 8.6702 20.8985 8.8654 21.0086L18.3563 26.5096L15.0747 28.4207C15.0747 28.4207 15.0381 28.433 15.0259 28.4453C15.0015 28.4453 14.9893 28.4453 14.9649 28.4453L7.10871 23.8877C5.42525 22.9077 4.20535 21.3028 3.70519 19.4282C3.20503 17.5415 3.46119 15.5445 4.42493 13.8539V13.8416ZM31.4215 20.151L21.9306 14.6502L25.2122 12.7512C25.2122 12.7512 25.2488 12.739 25.261 12.7267H25.3219L33.1782 17.2842C34.3859 17.9825 35.3618 19.0118 36.0083 20.2491C36.6549 21.4864 36.9233 22.8831 36.8134 24.2676C36.6915 25.6641 36.1792 26.9873 35.3373 28.0899C34.4956 29.2049 33.3612 30.0502 32.0559 30.528V21.2415C32.0559 21.0209 31.9948 20.8004 31.8851 20.6044C31.7753 20.4083 31.6168 20.2491 31.4215 20.1387V20.151ZM34.6909 15.2015C34.6909 15.2015 34.5322 15.1035 34.4591 15.0667L26.6883 10.5582C26.493 10.448 26.2735 10.3867 26.0539 10.3867C25.8343 10.3867 25.6025 10.448 25.4195 10.5582L15.9287 16.0591V12.2489C15.9287 12.2489 15.9287 12.2122 15.9287 12.1877C15.9287 12.1754 15.9531 12.1509 15.9653 12.1387L23.8215 7.58115C25.0292 6.88283 26.3954 6.53978 27.7861 6.60105C29.1768 6.6623 30.5187 7.1156 31.6533 7.91195C32.7877 8.70827 33.6782 9.82315 34.215 11.1096C34.7518 12.3959 34.9104 13.8171 34.6786 15.1893L34.6909 15.2015ZM14.1354 22.001L10.8538 20.0899C10.8538 20.0899 10.8172 20.0653 10.805 20.053C10.805 20.0409 10.7928 20.0163 10.7807 20.004V10.889C10.7807 9.49237 11.1832 8.13247 11.9274 6.94408C12.6715 5.76795 13.7328 4.82459 15.0015 4.23653C16.258 3.64846 17.6609 3.42794 19.0395 3.59946C20.4179 3.78323 21.7233 4.3468 22.7845 5.24114C22.7235 5.27789 22.626 5.3269 22.5527 5.3759L14.7819 9.88442C14.5868 9.99467 14.4282 10.154 14.3184 10.35C14.2086 10.546 14.1476 10.7665 14.1476 10.987V21.9887L14.1354 22.001ZM15.9165 18.1419L20.1373 15.6916L24.3583 18.1419V23.0424L20.1373 25.4926L15.9165 23.0424V18.1419Z" fill="#ACACAC"/>
</g>
<defs>
<clipPath id="clip0_9764_42755">
<rect width="142" height="41" fill="white" transform="translate(0.880859 0.0859375)"/>
</clipPath>
</defs>
</svg>
