<svg width="198" height="37" viewBox="0 0 198 37" fill="none" xmlns="http://www.w3.org/2000/svg">
<g id="Group 1171275000">
<g id="Group">
<path id="Vector" d="M18.344 19.6135C15.5503 14.5763 12.1217 16.2272 9.70891 16.5658C7.29615 16.9044 4.54477 14.1107 4.54477 14.1107C5.05272 24.1004 13.6455 24.5237 13.6455 24.5237C13.6455 24.5237 17.3705 24.9469 16.6085 27.656C16.2699 28.8835 15.9313 29.9418 15.5503 30.873" stroke="#ACACAC" stroke-width="1.04718" stroke-miterlimit="10" stroke-linecap="round" stroke-linejoin="round"/>
<path id="Vector_2" d="M18.3441 19.6135C21.1378 14.5763 24.5664 16.2272 26.9792 16.5658C29.3919 16.9044 32.1433 14.1107 32.1433 14.1107C31.6354 24.1004 23.0426 24.5237 23.0426 24.5237C23.0426 24.5237 19.0213 24.9469 20.0795 27.656C20.5028 28.7566 20.9685 29.8994 21.3917 30.9153" stroke="#ACACAC" stroke-width="1.04718" stroke-miterlimit="10" stroke-linecap="round" stroke-linejoin="round"/>
<path id="Vector_3" d="M13.3452 4.70331L6.86713 6.67957L8.62105 12.4288L15.0991 10.4526L13.3452 4.70331Z" fill="#121212" stroke="#ACACAC" stroke-width="0.540245" stroke-miterlimit="10"/>
<path id="Vector_4" d="M19.9442 13.8669L15.8903 13.2009C17.053 12.8046 17.9504 11.8493 18.5936 10.8955C19.0637 10.1984 19.4111 9.48444 19.6406 8.94615C19.7555 8.67661 19.8414 8.45015 19.8986 8.29057C19.9096 8.26008 19.9194 8.23202 19.9283 8.20656L20.7699 8.32265L19.9442 13.8669Z" fill="#E0E1E2" stroke="#ACACAC" stroke-width="0.42329"/>
<path id="Vector_5" d="M29.4679 6.04764L22.7122 6.52344L23.1345 12.5191L29.8902 12.0433L29.4679 6.04764Z" fill="#121212" stroke="#ACACAC" stroke-width="0.700164" stroke-miterlimit="10"/>
<path id="Vector_6" d="M21.0475 8.27461L14.3541 7.23975L13.4357 13.1801L20.1291 14.215L21.0475 8.27461Z" fill="#121212" stroke="#ACACAC" stroke-width="0.700164" stroke-miterlimit="10"/>
<g id="Group_2">
<path id="Vector_7" d="M35.9952 31.8042C31.6777 31.8042 31.6777 29.0105 27.3178 29.0105C23.0002 29.0105 23.0002 31.8042 18.6403 31.8042C14.3228 31.8042 14.3228 29.0105 9.96288 29.0105C5.60299 29.0105 5.64532 31.8042 1.28543 31.8042" stroke="#ACACAC" stroke-width="1.04718" stroke-miterlimit="10" stroke-linecap="round" stroke-linejoin="round"/>
</g>
<g id="Group_3">
<path id="Vector_8" d="M24.6511 8.05762L24.7781 10.682" stroke="#ACACAC" stroke-width="0.540245" stroke-miterlimit="10"/>
<path id="Vector_9" d="M26.2173 7.9729L26.3866 10.5973" stroke="#ACACAC" stroke-width="0.540245" stroke-miterlimit="10"/>
<path id="Vector_10" d="M27.8257 7.88831L27.9527 10.5127" stroke="#ACACAC" stroke-width="0.540245" stroke-miterlimit="10"/>
</g>
<g id="Group_4">
<path id="Vector_11" d="M15.7196 9.28516L15.381 11.9096" stroke="#ACACAC" stroke-width="0.540245" stroke-miterlimit="10"/>
<path id="Vector_12" d="M17.2858 9.53906L16.9472 12.1211" stroke="#ACACAC" stroke-width="0.540245" stroke-miterlimit="10"/>
<path id="Vector_13" d="M18.8943 9.75073L18.5134 12.3328" stroke="#ACACAC" stroke-width="0.540245" stroke-miterlimit="10"/>
</g>
<g id="Group_5">
<path id="Vector_14" d="M8.94699 7.76135L9.66658 10.3011" stroke="#ACACAC" stroke-width="0.540245" stroke-miterlimit="10"/>
<path id="Vector_15" d="M10.5132 7.33801L11.2328 9.87775" stroke="#ACACAC" stroke-width="0.540245" stroke-miterlimit="10"/>
<path id="Vector_16" d="M12.037 6.91479L12.7566 9.41221" stroke="#ACACAC" stroke-width="0.540245" stroke-miterlimit="10"/>
</g>
<path id="Vector_17" d="M30.5348 36.2488H6.83055C3.52888 36.2488 0.819824 33.5397 0.819824 30.238V6.53379C0.819824 3.23213 3.52888 0.523071 6.83055 0.523071H30.5348C33.8365 0.523071 36.5455 3.23213 36.5455 6.53379V30.238C36.5455 33.5397 33.8365 36.2488 30.5348 36.2488Z" stroke="#ACACAC" stroke-width="0.967345" stroke-miterlimit="10" stroke-linecap="round" stroke-linejoin="round"/>
</g>
<path id="Vector_18" d="M62.197 12.0789V25.3279C62.197 28.5449 59.5726 31.1693 56.4402 31.1693C53.2232 31.1693 50.5988 28.5449 50.5988 25.3279V12.0789C50.5988 8.90421 53.2232 6.32214 56.4402 6.32214C59.5726 6.32214 62.197 8.90421 62.197 12.0789ZM58.98 12.0789C58.98 10.682 57.8371 9.49682 56.3979 9.49682C54.9587 9.49682 53.7735 10.6397 53.7735 12.0789V25.3279C53.7735 26.7671 54.9164 27.9523 56.3979 27.9523C57.7947 27.9523 58.98 26.8094 58.98 25.3279V12.0789Z" fill="#ACACAC"/>
<path id="Vector_19" d="M82.6842 12.0789V14.4916C82.6842 17.7087 80.0598 20.333 76.9274 20.333H74.303V30.365C74.303 30.746 73.9644 31.1693 73.4988 31.1693H71.848C71.467 31.1693 71.0437 30.7883 71.0437 30.365V20.333V17.116V7.12639C71.0437 6.66077 71.4247 6.32214 71.848 6.32214H76.8851C80.0598 6.32214 82.6842 8.90421 82.6842 12.0789ZM79.4672 12.0789C79.4672 10.682 78.3243 9.49682 76.8851 9.49682H74.2607V17.0737H76.8851C78.282 17.0737 79.4672 15.9308 79.4672 14.4493V12.0789Z" fill="#ACACAC"/>
<path id="Vector_20" d="M93.3088 9.53915V17.116H97.6687C98.1343 17.116 98.4729 17.4547 98.4729 17.9203V19.5288C98.4729 19.9944 98.1343 20.333 97.6687 20.333H93.3088V27.9523H97.6687C98.1343 27.9523 98.4729 28.2909 98.4729 28.7565V30.365C98.4729 30.8307 98.1343 31.1693 97.6687 31.1693H91.7003C90.8114 31.1693 90.0918 30.4074 90.0918 29.5608V7.93065C90.0918 7.04174 90.8114 6.32214 91.7003 6.32214H97.6687C98.1343 6.32214 98.4729 6.66077 98.4729 7.12639V8.7349C98.4729 9.20052 98.1343 9.53915 97.6687 9.53915H93.3088Z" fill="#ACACAC"/>
<path id="Vector_21" d="M132.124 9.53915V17.116H136.484C136.95 17.116 137.289 17.4547 137.289 17.9203V19.5288C137.289 19.9944 136.95 20.333 136.484 20.333H132.124V30.365C132.124 30.8307 131.786 31.1693 131.32 31.1693H129.712C129.246 31.1693 128.907 30.8307 128.907 30.365V7.93065C128.907 7.04174 129.627 6.32214 130.516 6.32214H136.484C136.95 6.32214 137.289 6.66077 137.289 7.12639V8.7349C137.289 9.20052 136.95 9.53915 136.484 9.53915H132.124Z" fill="#ACACAC"/>
<path id="Vector_22" d="M157.437 12.1213V30.3651C157.437 30.8307 157.099 31.1693 156.633 31.1693H155.025C154.559 31.1693 154.22 30.8307 154.22 30.3651V20.3754H149.056V30.3651C149.056 30.8307 148.717 31.1693 148.252 31.1693H146.643C146.178 31.1693 145.839 30.8307 145.839 30.3651V12.1213C145.839 8.94658 148.464 6.3645 151.681 6.3645C154.813 6.3645 157.437 8.9889 157.437 12.1213ZM154.22 12.1213C154.22 10.7244 153.077 9.53918 151.638 9.53918C150.199 9.53918 149.014 10.6821 149.014 12.1213V17.1584H154.178V12.1213H154.22Z" fill="#ACACAC"/>
<path id="Vector_23" d="M177.755 12.1213V30.3651C177.755 30.8307 177.417 31.1693 176.951 31.1693H175.342C174.877 31.1693 174.538 30.8307 174.538 30.3651V20.3754H169.374V30.3651C169.374 30.8307 169.035 31.1693 168.57 31.1693H166.961C166.496 31.1693 166.157 30.8307 166.157 30.3651V12.1213C166.157 8.94658 168.781 6.3645 171.998 6.3645C175.173 6.3645 177.755 8.9889 177.755 12.1213ZM174.581 12.1213C174.581 10.7244 173.438 9.53918 172.041 9.53918C170.602 9.53918 169.416 10.6821 169.416 12.1213V17.1584H174.581V12.1213Z" fill="#ACACAC"/>
<path id="Vector_24" d="M193.925 13.772V12.0789C193.925 10.682 192.782 9.49682 191.343 9.49682C189.946 9.49682 188.803 10.6397 188.803 12.0789C188.803 12.7138 188.803 12.7138 188.972 12.9255L195.957 22.1532C197.142 23.7617 197.142 23.7617 197.142 25.3702C197.142 28.5449 194.518 31.127 191.385 31.127C188.21 31.127 185.628 28.5026 185.628 25.3702V23.677C185.628 23.2114 185.967 22.8728 186.433 22.8728H188.041C188.507 22.8728 188.845 23.2114 188.845 23.677V25.3702C188.845 26.7671 189.988 27.9523 191.385 27.9523C192.782 27.9523 193.967 26.8094 193.967 25.3702C193.967 24.7353 193.967 24.7353 193.798 24.5236L186.814 15.2959C185.628 13.6874 185.628 13.6874 185.628 12.0789C185.628 8.90421 188.253 6.32214 191.385 6.32214C194.56 6.32214 197.142 8.94654 197.142 12.0789V13.772C197.142 14.2377 196.803 14.5763 196.338 14.5763H194.729C194.264 14.5763 193.925 14.2377 193.925 13.772Z" fill="#ACACAC"/>
<path id="Vector_25" d="M113.076 6.4914C112.145 6.4914 111.256 6.70304 110.452 7.12633V7.04168C110.452 6.66071 110.113 6.23743 109.648 6.23743H108.039C107.574 6.23743 107.235 6.61839 107.235 7.04168V12.2481V17.9202V30.3226C107.235 30.7036 107.574 31.1269 108.039 31.1269H109.648C110.113 31.1269 110.452 30.7459 110.452 30.3226V17.9202V12.2481C110.452 10.8513 111.595 9.66607 113.076 9.66607C114.473 9.66607 115.658 10.809 115.658 12.2481V30.3226C115.658 30.7036 115.997 31.1269 116.463 31.1269H118.071C118.537 31.1269 118.875 30.7459 118.875 30.3226V12.2481C118.833 9.1158 116.251 6.4914 113.076 6.4914Z" fill="#ACACAC"/>
</g>
</svg>
