<svg version="1.1" xmlns="http://www.w3.org/2000/svg" viewBox="0 0 1349.0703048469945 1555.4790126137448" width="1349.0703048469945" height="1555.4790126137448">
  <!-- svg-source:excalidraw -->
  
  <defs>
    <style class="style-fonts">
      @font-face {
        font-family: "Virgil";
        src: url("https://excalidraw.com/Virgil.woff2");
      }
      @font-face {
        font-family: "Cascadia";
        src: url("https://excalidraw.com/Cascadia.woff2");
      }
      @font-face {
        font-family: "Assistant";
        src: url("https://app.excalidraw.com//dist/excalidraw-assets/Assistant-Regular.woff2");
      }
    </style>
    
  </defs>
  <rect x="0" y="0" width="1349.0703048469945" height="1555.4790126137448" fill="#ffffff"></rect><g stroke-linecap="round"><g transform="translate(296.27302878676085 130.64198916701753) rotate(0 109.65110771410784 0)"><path d="M0 0 C36.55 0, 182.75 0, 219.3 0 M0 0 C36.55 0, 182.75 0, 219.3 0" stroke="#596979" stroke-width="1" fill="none"></path></g><g transform="translate(296.27302878676085 130.64198916701753) rotate(0 109.65110771410784 0)"><path d="M219.3 0 L205.71 6.34 L205.71 -6.34 L219.3 0" stroke="none" stroke-width="0" fill="#596979" fill-rule="evenodd"></path><path d="M219.3 0 C214.21 2.37, 209.12 4.75, 205.71 6.34 M219.3 0 C214.69 2.15, 210.08 4.3, 205.71 6.34 M205.71 6.34 C205.71 3.28, 205.71 0.22, 205.71 -6.34 M205.71 6.34 C205.71 2.45, 205.71 -1.44, 205.71 -6.34 M205.71 -6.34 C210.24 -4.22, 214.78 -2.11, 219.3 0 M205.71 -6.34 C209.53 -4.56, 213.35 -2.78, 219.3 0 M219.3 0 C219.3 0, 219.3 0, 219.3 0 M219.3 0 C219.3 0, 219.3 0, 219.3 0" stroke="#596979" stroke-width="1" fill="none"></path></g></g><mask></mask><g transform="translate(340.6579055569665 103.35205742250014) rotate(0 59.533332824707 10.5)"><text x="59.53333282470703" y="16.400390625" font-family="Helvetica, Segoe UI Emoji" font-size="20px" fill="black" text-anchor="middle" style="white-space: pre;" direction="ltr" dominant-baseline="alphabetic">Send request</text></g><g stroke-linecap="round"><g transform="translate(520.0087067080416 424.9790371042088) rotate(0 386.66759457746844 0.8059913469571711)"><path d="M0 0 C128.89 0.27, 644.45 1.34, 773.34 1.61 M0 0 C128.89 0.27, 644.45 1.34, 773.34 1.61" stroke="#596979" stroke-width="1" fill="none"></path></g><g transform="translate(520.0087067080416 424.9790371042088) rotate(0 386.66759457746844 0.8059913469571711)"><path d="M773.34 1.61 L759.73 7.92 L759.75 -4.76 L773.34 1.61" stroke="none" stroke-width="0" fill="#596979" fill-rule="evenodd"></path><path d="M773.34 1.61 C769.04 3.6, 764.74 5.6, 759.73 7.92 M773.34 1.61 C769.51 3.39, 765.68 5.16, 759.73 7.92 M759.73 7.92 C759.74 4.08, 759.74 0.24, 759.75 -4.76 M759.73 7.92 C759.73 5.33, 759.74 2.73, 759.75 -4.76 M759.75 -4.76 C765.16 -2.22, 770.56 0.31, 773.34 1.61 M759.75 -4.76 C763.24 -3.12, 766.73 -1.48, 773.34 1.61 M773.34 1.61 C773.34 1.61, 773.34 1.61, 773.34 1.61 M773.34 1.61 C773.34 1.61, 773.34 1.61, 773.34 1.61" stroke="#596979" stroke-width="1" fill="none"></path></g></g><mask></mask><g transform="translate(576.2554953182664 390.6428718252871) rotate(0 72.86666870117188 10.5)"><text x="72.86666870117188" y="16.400390625" font-family="Helvetica, Segoe UI Emoji" font-size="20px" fill="black" text-anchor="middle" style="white-space: pre;" direction="ltr" dominant-baseline="alphabetic">Forward request</text></g><g stroke-linecap="round"><g transform="translate(1286.907977347975 483.3329420999605) rotate(0 -385.4243211466918 -1.041072156486507)"><path d="M0 0 C-128.47 -0.35, -642.37 -1.74, -770.85 -2.08 M0 0 C-128.47 -0.35, -642.37 -1.74, -770.85 -2.08" stroke="#596979" stroke-width="1" fill="none"></path></g><g transform="translate(1286.907977347975 483.3329420999605) rotate(0 -385.4243211466918 -1.041072156486507)"><path d="M-770.85 -2.08 L-757.24 -8.38 L-757.27 4.29 L-770.85 -2.08" stroke="none" stroke-width="0" fill="#596979" fill-rule="evenodd"></path><path d="M-770.85 -2.08 C-767.54 -3.61, -764.23 -5.15, -757.24 -8.38 M-770.85 -2.08 C-765.82 -4.41, -760.78 -6.74, -757.24 -8.38 M-757.24 -8.38 C-757.25 -3.95, -757.26 0.48, -757.27 4.29 M-757.24 -8.38 C-757.24 -5.72, -757.25 -3.05, -757.27 4.29 M-757.27 4.29 C-761.66 2.23, -766.05 0.17, -770.85 -2.08 M-757.27 4.29 C-761.07 2.51, -764.87 0.73, -770.85 -2.08 M-770.85 -2.08 C-770.85 -2.08, -770.85 -2.08, -770.85 -2.08 M-770.85 -2.08 C-770.85 -2.08, -770.85 -2.08, -770.85 -2.08" stroke="#596979" stroke-width="1" fill="none"></path></g></g><mask></mask><g transform="translate(1093.3958218508149 433.8173987299367) rotate(0 94.01667022705078 20.5)"><text x="94.01667022705078" y="15.900390625" font-family="Helvetica, Segoe UI Emoji" font-size="20px" fill="black" text-anchor="middle" style="white-space: pre;" direction="ltr" dominant-baseline="alphabetic">Send response with </text><text x="94.01667022705078" y="36.400390625" font-family="Helvetica, Segoe UI Emoji" font-size="20px" fill="black" text-anchor="middle" style="white-space: pre;" direction="ltr" dominant-baseline="alphabetic">cache-control header</text></g><g stroke-linecap="round"><g transform="translate(519.1520345055347 561.6106636739839) rotate(0 146.42300885262006 0.6775858627606794)"><path d="M0 0 C48.81 0.23, 244.04 1.13, 292.85 1.36 M0 0 C48.81 0.23, 244.04 1.13, 292.85 1.36" stroke="#596979" stroke-width="1" fill="none"></path></g><g transform="translate(519.1520345055347 561.6106636739839) rotate(0 146.42300885262006 0.6775858627606794)"><path d="M292.85 1.36 L279.22 7.63 L279.28 -5.05 L292.85 1.36" stroke="none" stroke-width="0" fill="#596979" fill-rule="evenodd"></path><path d="M292.85 1.36 C289.31 2.98, 285.77 4.61, 279.22 7.63 M292.85 1.36 C289.8 2.76, 286.75 4.16, 279.22 7.63 M279.22 7.63 C279.25 2.59, 279.27 -2.45, 279.28 -5.05 M279.22 7.63 C279.23 4.89, 279.25 2.15, 279.28 -5.05 M279.28 -5.05 C282.88 -3.35, 286.47 -1.65, 292.85 1.36 M279.28 -5.05 C283.23 -3.18, 287.18 -1.32, 292.85 1.36 M292.85 1.36 C292.85 1.36, 292.85 1.36, 292.85 1.36 M292.85 1.36 C292.85 1.36, 292.85 1.36, 292.85 1.36" stroke="#596979" stroke-width="1" fill="none"></path></g></g><mask></mask><g stroke-linecap="round"><g transform="translate(519.5480371754492 518.745953863451) rotate(0 -112.28623049643869 0.4127973344811835)"><path d="M0 0 C-37.43 0.14, -187.14 0.69, -224.57 0.83 M0 0 C-37.43 0.14, -187.14 0.69, -224.57 0.83" stroke="#596979" stroke-width="1" fill="none"></path></g><g transform="translate(519.5480371754492 518.745953863451) rotate(0 -112.28623049643869 0.4127973344811835)"><path d="M-224.57 0.83 L-211 -5.56 L-210.95 7.11 L-224.57 0.83" stroke="none" stroke-width="0" fill="#596979" fill-rule="evenodd"></path><path d="M-224.57 0.83 C-221.3 -0.72, -218.02 -2.26, -211 -5.56 M-224.57 0.83 C-220.41 -1.13, -216.25 -3.09, -211 -5.56 M-211 -5.56 C-210.99 -1.33, -210.97 2.89, -210.95 7.11 M-211 -5.56 C-210.99 -2, -210.98 1.56, -210.95 7.11 M-210.95 7.11 C-214.13 5.65, -217.31 4.18, -224.57 0.83 M-210.95 7.11 C-214.56 5.45, -218.17 3.78, -224.57 0.83 M-224.57 0.83 C-224.57 0.83, -224.57 0.83, -224.57 0.83 M-224.57 0.83 C-224.57 0.83, -224.57 0.83, -224.57 0.83" stroke="#596979" stroke-width="1" fill="none"></path></g></g><mask></mask><g transform="translate(326.8032395642282 491.29866511010164) rotate(0 73.98332977294922 10.5)"><text x="73.98332977294922" y="16.400390625" font-family="Helvetica, Segoe UI Emoji" font-size="20px" fill="black" text-anchor="middle" style="white-space: pre;" direction="ltr" dominant-baseline="alphabetic">Return response</text></g><g transform="translate(531.9135422830722 528.7526899793372) rotate(0 118.48332977294922 10.5)"><text x="118.48332977294922" y="16.400390625" font-family="Helvetica, Segoe UI Emoji" font-size="20px" fill="black" text-anchor="middle" style="white-space: pre;" direction="ltr" dominant-baseline="alphabetic">Request response caching</text></g><g stroke-linecap="round"><g transform="translate(292.76534413561706 694.8056577317027) rotate(0 113.25430003556312 1.2425699932259704)"><path d="M0 0 C37.75 0.41, 188.76 2.07, 226.51 2.49 M0 0 C37.75 0.41, 188.76 2.07, 226.51 2.49" stroke="#158bc2" stroke-width="1" fill="none"></path></g><g transform="translate(292.76534413561706 694.8056577317027) rotate(0 113.25430003556312 1.2425699932259704)"><path d="M226.51 2.49 L212.85 8.67 L212.98 -4 L226.51 2.49" stroke="none" stroke-width="0" fill="#158bc2" fill-rule="evenodd"></path><path d="M226.51 2.49 C221.71 4.66, 216.91 6.84, 212.85 8.67 M226.51 2.49 C223.13 4.02, 219.75 5.55, 212.85 8.67 M212.85 8.67 C212.89 4.98, 212.93 1.29, 212.98 -4 M212.85 8.67 C212.9 3.67, 212.96 -1.34, 212.98 -4 M212.98 -4 C216.97 -2.09, 220.95 -0.18, 226.51 2.49 M212.98 -4 C216.96 -2.1, 220.93 -0.19, 226.51 2.49 M226.51 2.49 C226.51 2.49, 226.51 2.49, 226.51 2.49 M226.51 2.49 C226.51 2.49, 226.51 2.49, 226.51 2.49" stroke="#158bc2" stroke-width="1" fill="none"></path></g></g><mask></mask><g transform="translate(340.7634647826203 666.2117771893306) rotate(0 59.53333282470703 10.5)"><text x="59.53333282470703" y="16.400390625" font-family="Helvetica, Segoe UI Emoji" font-size="20px" fill="black" text-anchor="middle" style="white-space: pre;" direction="ltr" dominant-baseline="alphabetic">Send request</text></g><g stroke-linecap="round"><g transform="translate(519.554535247472 748.1889166922626) rotate(0 147.20708401134794 -0.6539436787647901)"><path d="M0 0 C49.07 -0.22, 245.35 -1.09, 294.41 -1.31 M0 0 C49.07 -0.22, 245.35 -1.09, 294.41 -1.31" stroke="#158bc2" stroke-width="1" fill="none"></path></g><g transform="translate(519.554535247472 748.1889166922626) rotate(0 147.20708401134794 -0.6539436787647901)"><path d="M294.41 -1.31 L280.85 5.09 L280.79 -7.59 L294.41 -1.31" stroke="none" stroke-width="0" fill="#158bc2" fill-rule="evenodd"></path><path d="M294.41 -1.31 C290.18 0.69, 285.94 2.69, 280.85 5.09 M294.41 -1.31 C290.36 0.61, 286.3 2.52, 280.85 5.09 M280.85 5.09 C280.83 0.03, 280.8 -5.04, 280.79 -7.59 M280.85 5.09 C280.83 1.93, 280.82 -1.22, 280.79 -7.59 M280.79 -7.59 C284.48 -5.89, 288.17 -4.19, 294.41 -1.31 M280.79 -7.59 C285.07 -5.61, 289.35 -3.64, 294.41 -1.31 M294.41 -1.31 C294.41 -1.31, 294.41 -1.31, 294.41 -1.31 M294.41 -1.31 C294.41 -1.31, 294.41 -1.31, 294.41 -1.31" stroke="#158bc2" stroke-width="1" fill="none"></path></g></g><mask></mask><g transform="translate(563.8461577685697 708.6307215738113) rotate(0 95.13333129882812 10.5)"><text x="95.13333129882812" y="16.400390625" font-family="Helvetica, Segoe UI Emoji" font-size="20px" fill="black" text-anchor="middle" style="white-space: pre;" direction="ltr" dominant-baseline="alphabetic">Get cached response</text></g><g stroke-linecap="round"><g transform="translate(810.3432419937485 842.44381928075) rotate(0 -143.4191981711847 0.7143803958183526)"><path d="M0 0 C-47.81 0.24, -239.03 1.19, -286.84 1.43 M0 0 C-47.81 0.24, -239.03 1.19, -286.84 1.43" stroke="#158bc2" stroke-width="1" fill="none"></path></g><g transform="translate(810.3432419937485 842.44381928075) rotate(0 -143.4191981711847 0.7143803958183526)"><path d="M-286.84 1.43 L-273.28 -4.98 L-273.21 7.7 L-286.84 1.43" stroke="none" stroke-width="0" fill="#158bc2" fill-rule="evenodd"></path><path d="M-286.84 1.43 C-282.31 -0.71, -277.79 -2.85, -273.28 -4.98 M-286.84 1.43 C-283.03 -0.37, -279.21 -2.17, -273.28 -4.98 M-273.28 -4.98 C-273.26 -2.02, -273.25 0.94, -273.21 7.7 M-273.28 -4.98 C-273.26 -1.62, -273.24 1.74, -273.21 7.7 M-273.21 7.7 C-276.49 6.19, -279.77 4.68, -286.84 1.43 M-273.21 7.7 C-278.41 5.31, -283.62 2.91, -286.84 1.43 M-286.84 1.43 C-286.84 1.43, -286.84 1.43, -286.84 1.43 M-286.84 1.43 C-286.84 1.43, -286.84 1.43, -286.84 1.43" stroke="#158bc2" stroke-width="1" fill="none"></path></g></g><mask></mask><g transform="translate(561.0670101753417 785.0727987494131) rotate(0 109.03333282470703 20.5)"><text x="109.03333282470703" y="15.900390625" font-family="Helvetica, Segoe UI Emoji" font-size="20px" fill="black" text-anchor="middle" style="white-space: pre;" direction="ltr" dominant-baseline="alphabetic">Return cached response</text><text x="109.03333282470703" y="36.400390625" font-family="Helvetica, Segoe UI Emoji" font-size="20px" fill="black" text-anchor="middle" style="white-space: pre;" direction="ltr" dominant-baseline="alphabetic">with age header</text></g><g stroke-linecap="round"><g transform="translate(516.6255206144795 887.41638370748) rotate(0 -109.37281646924572 -0.9147419745031584)"><path d="M0 0 C-36.46 -0.3, -182.29 -1.52, -218.75 -1.83 M0 0 C-36.46 -0.3, -182.29 -1.52, -218.75 -1.83" stroke="#158bc2" stroke-width="1" fill="none"></path></g><g transform="translate(516.6255206144795 887.41638370748) rotate(0 -109.37281646924572 -0.9147419745031584)"><path d="M-218.75 -1.83 L-205.1 -8.05 L-205.2 4.62 L-218.75 -1.83" stroke="none" stroke-width="0" fill="#158bc2" fill-rule="evenodd"></path><path d="M-218.75 -1.83 C-213.32 -4.31, -207.89 -6.78, -205.1 -8.05 M-218.75 -1.83 C-215.24 -3.43, -211.73 -5.03, -205.1 -8.05 M-205.1 -8.05 C-205.12 -5.03, -205.15 -2.01, -205.2 4.62 M-205.1 -8.05 C-205.12 -5.13, -205.15 -2.2, -205.2 4.62 M-205.2 4.62 C-209.78 2.44, -214.36 0.26, -218.75 -1.83 M-205.2 4.62 C-210.4 2.15, -215.6 -0.33, -218.75 -1.83 M-218.75 -1.83 C-218.75 -1.83, -218.75 -1.83, -218.75 -1.83 M-218.75 -1.83 C-218.75 -1.83, -218.75 -1.83, -218.75 -1.83" stroke="#158bc2" stroke-width="1" fill="none"></path></g></g><mask></mask><g transform="translate(300.3460529912677 830.7746010570997) rotate(0 109.03333282470706 20.5)"><text x="109.03333282470703" y="15.900390625" font-family="Helvetica, Segoe UI Emoji" font-size="20px" fill="black" text-anchor="middle" style="white-space: pre;" direction="ltr" dominant-baseline="alphabetic">Return cached response</text><text x="109.03333282470703" y="36.400390625" font-family="Helvetica, Segoe UI Emoji" font-size="20px" fill="black" text-anchor="middle" style="white-space: pre;" direction="ltr" dominant-baseline="alphabetic">with age header</text></g><g stroke-linecap="round"><g transform="translate(294.1518936361289 1018.0499124194764) rotate(0 110.52557776600327 0)"><path d="M0 0 C36.84 0, 184.21 0, 221.05 0 M0 0 C36.84 0, 184.21 0, 221.05 0" stroke="#596979" stroke-width="1" fill="none"></path></g><g transform="translate(294.1518936361289 1018.0499124194764) rotate(0 110.52557776600327 0)"><path d="M221.05 0 L207.46 6.34 L207.46 -6.34 L221.05 0" stroke="none" stroke-width="0" fill="#596979" fill-rule="evenodd"></path><path d="M221.05 0 C216.65 2.05, 212.26 4.1, 207.46 6.34 M221.05 0 C217.25 1.77, 213.45 3.55, 207.46 6.34 M207.46 6.34 C207.46 3.21, 207.46 0.08, 207.46 -6.34 M207.46 6.34 C207.46 1.6, 207.46 -3.14, 207.46 -6.34 M207.46 -6.34 C210.63 -4.86, 213.8 -3.38, 221.05 0 M207.46 -6.34 C211.5 -4.46, 215.54 -2.57, 221.05 0 M221.05 0 C221.05 0, 221.05 0, 221.05 0 M221.05 0 C221.05 0, 221.05 0, 221.05 0" stroke="#596979" stroke-width="1" fill="none"></path></g></g><mask></mask><g transform="translate(297.725472036925 957.5307208343872) rotate(0 109.01667022705078 20.5)"><text x="109.01667022705078" y="15.900390625" font-family="Helvetica, Segoe UI Emoji" font-size="20px" fill="black" text-anchor="middle" style="white-space: pre;" direction="ltr" dominant-baseline="alphabetic">Send request with</text><text x="109.01667022705078" y="36.400390625" font-family="Helvetica, Segoe UI Emoji" font-size="20px" fill="black" text-anchor="middle" style="white-space: pre;" direction="ltr" dominant-baseline="alphabetic">If-Modified-Since header</text></g><g stroke-linecap="round"><g transform="translate(1293.196850720423 1151.768860714608) rotate(0 -383.4008478599405 -0.12055929786424713)"><path d="M0 0 C-127.8 -0.04, -639 -0.2, -766.8 -0.24" stroke="#0fac7c" stroke-width="1.5" fill="none" stroke-dasharray="1.5 7"></path></g><g transform="translate(1293.196850720423 1151.768860714608) rotate(0 -383.4008478599405 -0.12055929786424713)"><path d="M-766.8 -0.24 L-753.21 -6.58 L-753.21 6.1 L-766.8 -0.24" stroke="none" stroke-width="0" fill="#0fac7c" fill-rule="evenodd"></path><path d="M-766.8 -0.24 C-763.2 -1.92, -759.59 -3.6, -753.21 -6.58 M-753.21 -6.58 C-753.21 -2.88, -753.21 0.81, -753.21 6.1 M-753.21 6.1 C-758.33 3.71, -763.45 1.32, -766.8 -0.24 M-766.8 -0.24 C-766.8 -0.24, -766.8 -0.24, -766.8 -0.24" stroke="#0fac7c" stroke-width="1.5" fill="none"></path></g></g><mask></mask><g transform="translate(1089.1217601714795 1116.0229048206163) rotate(0 97.36666870117188 10.5)"><text x="97.36666870117188" y="16.400390625" font-family="Helvetica, Segoe UI Emoji" font-size="20px" fill="black" text-anchor="middle" style="white-space: pre;" direction="ltr" dominant-baseline="alphabetic">If new, send response</text></g><g stroke-linecap="round"><g transform="translate(514.0082977015004 1521.5184236251214) rotate(0 -108.592014598346 0)"><path d="M0 0 C-36.2 0, -180.99 0, -217.18 0 M0 0 C-36.2 0, -180.99 0, -217.18 0" stroke="#bf0a17" stroke-width="1" fill="none"></path></g><g transform="translate(514.0082977015004 1521.5184236251214) rotate(0 -108.592014598346 0)"><path d="M-217.18 0 L-203.59 -6.34 L-203.59 6.34 L-217.18 0" stroke="none" stroke-width="0" fill="#bf0a17" fill-rule="evenodd"></path><path d="M-217.18 0 C-214.28 -1.35, -211.38 -2.7, -203.59 -6.34 M-217.18 0 C-214.16 -1.41, -211.13 -2.82, -203.59 -6.34 M-203.59 -6.34 C-203.59 -2.14, -203.59 2.05, -203.59 6.34 M-203.59 -6.34 C-203.59 -2.6, -203.59 1.14, -203.59 6.34 M-203.59 6.34 C-208.72 3.95, -213.85 1.55, -217.18 0 M-203.59 6.34 C-206.4 5.03, -209.22 3.72, -217.18 0 M-217.18 0 C-217.18 0, -217.18 0, -217.18 0 M-217.18 0 C-217.18 0, -217.18 0, -217.18 0" stroke="#bf0a17" stroke-width="1" fill="none"></path></g></g><mask></mask><g transform="translate(296.63461194005527 1484.6959133540793) rotate(0 109.03333282470703 10.5)"><text x="109.03333282470703" y="16.400390625" font-family="Helvetica, Segoe UI Emoji" font-size="20px" fill="black" text-anchor="middle" style="white-space: pre;" direction="ltr" dominant-baseline="alphabetic">Return cached response</text></g><g stroke-linecap="round" transform="translate(17.396916251750866 97.89056735359486) rotate(0 14.569823253966462 14.569823253966433)"><path d="M29.14 14.57 C29.14 15.41, 29.06 16.27, 28.92 17.1 C28.77 17.93, 28.55 18.76, 28.26 19.55 C27.97 20.35, 27.61 21.12, 27.19 21.85 C26.77 22.59, 26.27 23.29, 25.73 23.94 C25.19 24.58, 24.58 25.19, 23.94 25.73 C23.29 26.27, 22.59 26.77, 21.85 27.19 C21.12 27.61, 20.35 27.97, 19.55 28.26 C18.76 28.55, 17.93 28.77, 17.1 28.92 C16.27 29.06, 15.41 29.14, 14.57 29.14 C13.73 29.14, 12.87 29.06, 12.04 28.92 C11.21 28.77, 10.38 28.55, 9.59 28.26 C8.79 27.97, 8.02 27.61, 7.28 27.19 C6.55 26.77, 5.85 26.27, 5.2 25.73 C4.56 25.19, 3.95 24.58, 3.41 23.94 C2.87 23.29, 2.37 22.59, 1.95 21.85 C1.53 21.12, 1.17 20.35, 0.88 19.55 C0.59 18.76, 0.37 17.93, 0.22 17.1 C0.07 16.27, 0 15.41, 0 14.57 C0 13.73, 0.07 12.87, 0.22 12.04 C0.37 11.21, 0.59 10.38, 0.88 9.59 C1.17 8.79, 1.53 8.02, 1.95 7.28 C2.37 6.55, 2.87 5.85, 3.41 5.2 C3.95 4.56, 4.56 3.95, 5.2 3.41 C5.85 2.87, 6.55 2.37, 7.28 1.95 C8.02 1.53, 8.79 1.17, 9.59 0.88 C10.38 0.59, 11.21 0.37, 12.04 0.22 C12.87 0.07, 13.73 0, 14.57 0 C15.41 0, 16.27 0.07, 17.1 0.22 C17.93 0.37, 18.76 0.59, 19.55 0.88 C20.35 1.17, 21.12 1.53, 21.85 1.95 C22.59 2.37, 23.29 2.87, 23.94 3.41 C24.58 3.95, 25.19 4.56, 25.73 5.2 C26.27 5.85, 26.77 6.55, 27.19 7.28 C27.61 8.02, 27.97 8.79, 28.26 9.59 C28.55 10.38, 28.77 11.21, 28.92 12.04 C29.06 12.87, 29.1 14.15, 29.14 14.57 C29.18 14.99, 29.18 14.15, 29.14 14.57" stroke="none" stroke-width="0" fill="#596979"></path><path d="M29.14 14.57 C29.14 15.41, 29.06 16.27, 28.92 17.1 C28.77 17.93, 28.55 18.76, 28.26 19.55 C27.97 20.35, 27.61 21.12, 27.19 21.85 C26.77 22.59, 26.27 23.29, 25.73 23.94 C25.19 24.58, 24.58 25.19, 23.94 25.73 C23.29 26.27, 22.59 26.77, 21.85 27.19 C21.12 27.61, 20.35 27.97, 19.55 28.26 C18.76 28.55, 17.93 28.77, 17.1 28.92 C16.27 29.06, 15.41 29.14, 14.57 29.14 C13.73 29.14, 12.87 29.06, 12.04 28.92 C11.21 28.77, 10.38 28.55, 9.59 28.26 C8.79 27.97, 8.02 27.61, 7.28 27.19 C6.55 26.77, 5.85 26.27, 5.2 25.73 C4.56 25.19, 3.95 24.58, 3.41 23.94 C2.87 23.29, 2.37 22.59, 1.95 21.85 C1.53 21.12, 1.17 20.35, 0.88 19.55 C0.59 18.76, 0.37 17.93, 0.22 17.1 C0.07 16.27, 0 15.41, 0 14.57 C0 13.73, 0.07 12.87, 0.22 12.04 C0.37 11.21, 0.59 10.38, 0.88 9.59 C1.17 8.79, 1.53 8.02, 1.95 7.28 C2.37 6.55, 2.87 5.85, 3.41 5.2 C3.95 4.56, 4.56 3.95, 5.2 3.41 C5.85 2.87, 6.55 2.37, 7.28 1.95 C8.02 1.53, 8.79 1.17, 9.59 0.88 C10.38 0.59, 11.21 0.37, 12.04 0.22 C12.87 0.07, 13.73 0, 14.57 0 C15.41 0, 16.27 0.07, 17.1 0.22 C17.93 0.37, 18.76 0.59, 19.55 0.88 C20.35 1.17, 21.12 1.53, 21.85 1.95 C22.59 2.37, 23.29 2.87, 23.94 3.41 C24.58 3.95, 25.19 4.56, 25.73 5.2 C26.27 5.85, 26.77 6.55, 27.19 7.28 C27.61 8.02, 27.97 8.79, 28.26 9.59 C28.55 10.38, 28.77 11.21, 28.92 12.04 C29.06 12.87, 29.1 14.15, 29.14 14.57 C29.18 14.99, 29.18 14.15, 29.14 14.57" stroke="#596979" stroke-width="1" fill="none"></path></g><g transform="translate(26.070625390805475 102.71093708938292) rotate(0 5.566666603088379 10.5)"><text x="0" y="16.400390625" font-family="Helvetica, Segoe UI Emoji" font-size="20px" fill="white" text-anchor="start" style="white-space: pre;" direction="ltr" dominant-baseline="alphabetic">1</text></g><g transform="translate(78.71968138442227 103.15070640101703) rotate(0 59.516666412353516 10.5)"><text x="59.516666412353516" y="16.400390625" font-family="Helvetica, Segoe UI Emoji" font-size="20px" fill="black" text-anchor="middle" style="white-space: pre;" direction="ltr" dominant-baseline="alphabetic">Initial request</text></g><g stroke-linecap="round" transform="translate(11.81819183065457 682.4676386638146) rotate(0 14.569823253966469 14.569823253966433)"><path d="M29.14 14.57 C29.14 15.41, 29.06 16.27, 28.92 17.1 C28.77 17.93, 28.55 18.76, 28.26 19.55 C27.97 20.35, 27.61 21.12, 27.19 21.85 C26.77 22.59, 26.27 23.29, 25.73 23.94 C25.19 24.58, 24.58 25.19, 23.94 25.73 C23.29 26.27, 22.59 26.77, 21.85 27.19 C21.12 27.61, 20.35 27.97, 19.55 28.26 C18.76 28.55, 17.93 28.77, 17.1 28.92 C16.27 29.06, 15.41 29.14, 14.57 29.14 C13.73 29.14, 12.87 29.06, 12.04 28.92 C11.21 28.77, 10.38 28.55, 9.59 28.26 C8.79 27.97, 8.02 27.61, 7.28 27.19 C6.55 26.77, 5.85 26.27, 5.2 25.73 C4.56 25.19, 3.95 24.58, 3.41 23.94 C2.87 23.29, 2.37 22.59, 1.95 21.85 C1.53 21.12, 1.17 20.35, 0.88 19.55 C0.59 18.76, 0.37 17.93, 0.22 17.1 C0.07 16.27, 0 15.41, 0 14.57 C0 13.73, 0.07 12.87, 0.22 12.04 C0.37 11.21, 0.59 10.38, 0.88 9.59 C1.17 8.79, 1.53 8.02, 1.95 7.28 C2.37 6.55, 2.87 5.85, 3.41 5.2 C3.95 4.56, 4.56 3.95, 5.2 3.41 C5.85 2.87, 6.55 2.37, 7.28 1.95 C8.02 1.53, 8.79 1.17, 9.59 0.88 C10.38 0.59, 11.21 0.37, 12.04 0.22 C12.87 0.07, 13.73 0, 14.57 0 C15.41 0, 16.27 0.07, 17.1 0.22 C17.93 0.37, 18.76 0.59, 19.55 0.88 C20.35 1.17, 21.12 1.53, 21.85 1.95 C22.59 2.37, 23.29 2.87, 23.94 3.41 C24.58 3.95, 25.19 4.56, 25.73 5.2 C26.27 5.85, 26.77 6.55, 27.19 7.28 C27.61 8.02, 27.97 8.79, 28.26 9.59 C28.55 10.38, 28.77 11.21, 28.92 12.04 C29.06 12.87, 29.1 14.15, 29.14 14.57 C29.18 14.99, 29.18 14.15, 29.14 14.57" stroke="none" stroke-width="0" fill="#158bc2"></path><path d="M29.14 14.57 C29.14 15.41, 29.06 16.27, 28.92 17.1 C28.77 17.93, 28.55 18.76, 28.26 19.55 C27.97 20.35, 27.61 21.12, 27.19 21.85 C26.77 22.59, 26.27 23.29, 25.73 23.94 C25.19 24.58, 24.58 25.19, 23.94 25.73 C23.29 26.27, 22.59 26.77, 21.85 27.19 C21.12 27.61, 20.35 27.97, 19.55 28.26 C18.76 28.55, 17.93 28.77, 17.1 28.92 C16.27 29.06, 15.41 29.14, 14.57 29.14 C13.73 29.14, 12.87 29.06, 12.04 28.92 C11.21 28.77, 10.38 28.55, 9.59 28.26 C8.79 27.97, 8.02 27.61, 7.28 27.19 C6.55 26.77, 5.85 26.27, 5.2 25.73 C4.56 25.19, 3.95 24.58, 3.41 23.94 C2.87 23.29, 2.37 22.59, 1.95 21.85 C1.53 21.12, 1.17 20.35, 0.88 19.55 C0.59 18.76, 0.37 17.93, 0.22 17.1 C0.07 16.27, 0 15.41, 0 14.57 C0 13.73, 0.07 12.87, 0.22 12.04 C0.37 11.21, 0.59 10.38, 0.88 9.59 C1.17 8.79, 1.53 8.02, 1.95 7.28 C2.37 6.55, 2.87 5.85, 3.41 5.2 C3.95 4.56, 4.56 3.95, 5.2 3.41 C5.85 2.87, 6.55 2.37, 7.28 1.95 C8.02 1.53, 8.79 1.17, 9.59 0.88 C10.38 0.59, 11.21 0.37, 12.04 0.22 C12.87 0.07, 13.73 0, 14.57 0 C15.41 0, 16.27 0.07, 17.1 0.22 C17.93 0.37, 18.76 0.59, 19.55 0.88 C20.35 1.17, 21.12 1.53, 21.85 1.95 C22.59 2.37, 23.29 2.87, 23.94 3.41 C24.58 3.95, 25.19 4.56, 25.73 5.2 C26.27 5.85, 26.77 6.55, 27.19 7.28 C27.61 8.02, 27.97 8.79, 28.26 9.59 C28.55 10.38, 28.77 11.21, 28.92 12.04 C29.06 12.87, 29.1 14.15, 29.14 14.57 C29.18 14.99, 29.18 14.15, 29.14 14.57" stroke="#158bc2" stroke-width="1" fill="none"></path></g><g transform="translate(20.774350092724006 687.2880083996031) rotate(0 5.566666603088379 10.5)"><text x="0" y="16.400390625" font-family="Helvetica, Segoe UI Emoji" font-size="20px" fill="white" text-anchor="start" style="white-space: pre;" direction="ltr" dominant-baseline="alphabetic">2</text></g><g transform="translate(67.18439866091916 679.7445057066122) rotate(0 73.96666717529298 20.5)"><text x="73.96666717529297" y="15.900390625" font-family="Helvetica, Segoe UI Emoji" font-size="20px" fill="black" text-anchor="middle" style="white-space: pre;" direction="ltr" dominant-baseline="alphabetic">Request within</text><text x="73.96666717529297" y="36.400390625" font-family="Helvetica, Segoe UI Emoji" font-size="20px" fill="black" text-anchor="middle" style="white-space: pre;" direction="ltr" dominant-baseline="alphabetic">cache timeframe</text></g><g transform="translate(571.1514826475202 1390.2691395107738) rotate(0 95.13333129882812 10.5)"><text x="95.13333129882812" y="16.400390625" font-family="Helvetica, Segoe UI Emoji" font-size="20px" fill="black" text-anchor="middle" style="white-space: pre;" direction="ltr" dominant-baseline="alphabetic">Get cached response</text></g><g stroke-linecap="round" transform="translate(11.087268305227639 987.6947704436695) rotate(0 14.569823253966469 14.569823253966433)"><path d="M29.14 14.57 C29.14 15.41, 29.06 16.27, 28.92 17.1 C28.77 17.93, 28.55 18.76, 28.26 19.55 C27.97 20.35, 27.61 21.12, 27.19 21.85 C26.77 22.59, 26.27 23.29, 25.73 23.94 C25.19 24.58, 24.58 25.19, 23.94 25.73 C23.29 26.27, 22.59 26.77, 21.85 27.19 C21.12 27.61, 20.35 27.97, 19.55 28.26 C18.76 28.55, 17.93 28.77, 17.1 28.92 C16.27 29.06, 15.41 29.14, 14.57 29.14 C13.73 29.14, 12.87 29.06, 12.04 28.92 C11.21 28.77, 10.38 28.55, 9.59 28.26 C8.79 27.97, 8.02 27.61, 7.28 27.19 C6.55 26.77, 5.85 26.27, 5.2 25.73 C4.56 25.19, 3.95 24.58, 3.41 23.94 C2.87 23.29, 2.37 22.59, 1.95 21.85 C1.53 21.12, 1.17 20.35, 0.88 19.55 C0.59 18.76, 0.37 17.93, 0.22 17.1 C0.07 16.27, 0 15.41, 0 14.57 C0 13.73, 0.07 12.87, 0.22 12.04 C0.37 11.21, 0.59 10.38, 0.88 9.59 C1.17 8.79, 1.53 8.02, 1.95 7.28 C2.37 6.55, 2.87 5.85, 3.41 5.2 C3.95 4.56, 4.56 3.95, 5.2 3.41 C5.85 2.87, 6.55 2.37, 7.28 1.95 C8.02 1.53, 8.79 1.17, 9.59 0.88 C10.38 0.59, 11.21 0.37, 12.04 0.22 C12.87 0.07, 13.73 0, 14.57 0 C15.41 0, 16.27 0.07, 17.1 0.22 C17.93 0.37, 18.76 0.59, 19.55 0.88 C20.35 1.17, 21.12 1.53, 21.85 1.95 C22.59 2.37, 23.29 2.87, 23.94 3.41 C24.58 3.95, 25.19 4.56, 25.73 5.2 C26.27 5.85, 26.77 6.55, 27.19 7.28 C27.61 8.02, 27.97 8.79, 28.26 9.59 C28.55 10.38, 28.77 11.21, 28.92 12.04 C29.06 12.87, 29.1 14.15, 29.14 14.57 C29.18 14.99, 29.18 14.15, 29.14 14.57" stroke="none" stroke-width="0" fill="#596979"></path><path d="M29.14 14.57 C29.14 15.41, 29.06 16.27, 28.92 17.1 C28.77 17.93, 28.55 18.76, 28.26 19.55 C27.97 20.35, 27.61 21.12, 27.19 21.85 C26.77 22.59, 26.27 23.29, 25.73 23.94 C25.19 24.58, 24.58 25.19, 23.94 25.73 C23.29 26.27, 22.59 26.77, 21.85 27.19 C21.12 27.61, 20.35 27.97, 19.55 28.26 C18.76 28.55, 17.93 28.77, 17.1 28.92 C16.27 29.06, 15.41 29.14, 14.57 29.14 C13.73 29.14, 12.87 29.06, 12.04 28.92 C11.21 28.77, 10.38 28.55, 9.59 28.26 C8.79 27.97, 8.02 27.61, 7.28 27.19 C6.55 26.77, 5.85 26.27, 5.2 25.73 C4.56 25.19, 3.95 24.58, 3.41 23.94 C2.87 23.29, 2.37 22.59, 1.95 21.85 C1.53 21.12, 1.17 20.35, 0.88 19.55 C0.59 18.76, 0.37 17.93, 0.22 17.1 C0.07 16.27, 0 15.41, 0 14.57 C0 13.73, 0.07 12.87, 0.22 12.04 C0.37 11.21, 0.59 10.38, 0.88 9.59 C1.17 8.79, 1.53 8.02, 1.95 7.28 C2.37 6.55, 2.87 5.85, 3.41 5.2 C3.95 4.56, 4.56 3.95, 5.2 3.41 C5.85 2.87, 6.55 2.37, 7.28 1.95 C8.02 1.53, 8.79 1.17, 9.59 0.88 C10.38 0.59, 11.21 0.37, 12.04 0.22 C12.87 0.07, 13.73 0, 14.57 0 C15.41 0, 16.27 0.07, 17.1 0.22 C17.93 0.37, 18.76 0.59, 19.55 0.88 C20.35 1.17, 21.12 1.53, 21.85 1.95 C22.59 2.37, 23.29 2.87, 23.94 3.41 C24.58 3.95, 25.19 4.56, 25.73 5.2 C26.27 5.85, 26.77 6.55, 27.19 7.28 C27.61 8.02, 27.97 8.79, 28.26 9.59 C28.55 10.38, 28.77 11.21, 28.92 12.04 C29.06 12.87, 29.1 14.15, 29.14 14.57 C29.18 14.99, 29.18 14.15, 29.14 14.57" stroke="#596979" stroke-width="1" fill="none"></path></g><g transform="translate(20.043426567297132 992.5151401794581) rotate(0 5.566666603088379 10.5)"><text x="0" y="16.400390625" font-family="Helvetica, Segoe UI Emoji" font-size="20px" fill="white" text-anchor="start" style="white-space: pre;" direction="ltr" dominant-baseline="alphabetic">3</text></g><g transform="translate(69.22014259269088 979.1030237861294) rotate(0 73.96666717529295 20.5)"><text x="73.96666717529297" y="15.900390625" font-family="Helvetica, Segoe UI Emoji" font-size="20px" fill="black" text-anchor="middle" style="white-space: pre;" direction="ltr" dominant-baseline="alphabetic">Request outside</text><text x="73.96666717529297" y="36.400390625" font-family="Helvetica, Segoe UI Emoji" font-size="20px" fill="black" text-anchor="middle" style="white-space: pre;" direction="ltr" dominant-baseline="alphabetic">cache timeframe</text></g><g stroke-linecap="round"><g transform="translate(516.7326217735066 1194.8867743804137) rotate(0 -109.62985600175483 -0.267119346240861)"><path d="M0 0 C-36.54 -0.09, -182.72 -0.45, -219.26 -0.53" stroke="#0fac7c" stroke-width="1.5" fill="none" stroke-dasharray="1.5 7"></path></g><g transform="translate(516.7326217735066 1194.8867743804137) rotate(0 -109.62985600175483 -0.267119346240861)"><path d="M-219.26 -0.53 L-205.65 -6.84 L-205.68 5.84 L-219.26 -0.53" stroke="none" stroke-width="0" fill="#0fac7c" fill-rule="evenodd"></path><path d="M-219.26 -0.53 C-215.9 -2.09, -212.54 -3.65, -205.65 -6.84 M-205.65 -6.84 C-205.66 -2.1, -205.67 2.64, -205.68 5.84 M-205.68 5.84 C-208.85 4.35, -212.01 2.87, -219.26 -0.53 M-219.26 -0.53 C-219.26 -0.53, -219.26 -0.53, -219.26 -0.53" stroke="#0fac7c" stroke-width="1.5" fill="none"></path></g></g><mask></mask><g transform="translate(312.90087530065273 1154.3059633757673) rotate(0 95.11666870117188 10.5)"><text x="95.11666870117188" y="16.400390625" font-family="Helvetica, Segoe UI Emoji" font-size="20px" fill="black" text-anchor="middle" style="white-space: pre;" direction="ltr" dominant-baseline="alphabetic">Return new response</text></g><g stroke-linecap="round"><g transform="translate(520.9407631677585 1233.2557967713535) rotate(0 144.93304963894474 0.16491392363673185)"><path d="M0 0 C48.31 0.05, 241.56 0.27, 289.87 0.33" stroke="#0fac7c" stroke-width="1.5" fill="none" stroke-dasharray="1.5 7"></path></g><g transform="translate(520.9407631677585 1233.2557967713535) rotate(0 144.93304963894474 0.16491392363673185)"><path d="M289.87 0.33 L276.26 6.65 L276.28 -6.02 L289.87 0.33" stroke="none" stroke-width="0" fill="#0fac7c" fill-rule="evenodd"></path><path d="M289.87 0.33 C284.74 2.71, 279.62 5.09, 276.26 6.65 M276.26 6.65 C276.27 3.36, 276.27 0.06, 276.28 -6.02 M276.28 -6.02 C279.44 -4.55, 282.59 -3.07, 289.87 0.33 M289.87 0.33 C289.87 0.33, 289.87 0.33, 289.87 0.33" stroke="#0fac7c" stroke-width="1.5" fill="none"></path></g></g><mask></mask><g transform="translate(540.58164566866 1195.973537364908) rotate(0 121.26667022705078 10.5)"><text x="121.26667022705078" y="16.400390625" font-family="Helvetica, Segoe UI Emoji" font-size="20px" fill="black" text-anchor="middle" style="white-space: pre;" direction="ltr" dominant-baseline="alphabetic">Request response caching </text></g><g stroke-linecap="round" transform="translate(10.136660875478782 1127.8679716544132) rotate(0 14.569823253966469 14.569823253966433)"><path d="M29.14 14.57 C29.14 15.41, 29.06 16.27, 28.92 17.1 C28.77 17.93, 28.55 18.76, 28.26 19.55 C27.97 20.35, 27.61 21.12, 27.19 21.85 C26.77 22.59, 26.27 23.29, 25.73 23.94 C25.19 24.58, 24.58 25.19, 23.94 25.73 C23.29 26.27, 22.59 26.77, 21.85 27.19 C21.12 27.61, 20.35 27.97, 19.55 28.26 C18.76 28.55, 17.93 28.77, 17.1 28.92 C16.27 29.06, 15.41 29.14, 14.57 29.14 C13.73 29.14, 12.87 29.06, 12.04 28.92 C11.21 28.77, 10.38 28.55, 9.59 28.26 C8.79 27.97, 8.02 27.61, 7.28 27.19 C6.55 26.77, 5.85 26.27, 5.2 25.73 C4.56 25.19, 3.95 24.58, 3.41 23.94 C2.87 23.29, 2.37 22.59, 1.95 21.85 C1.53 21.12, 1.17 20.35, 0.88 19.55 C0.59 18.76, 0.37 17.93, 0.22 17.1 C0.07 16.27, 0 15.41, 0 14.57 C0 13.73, 0.07 12.87, 0.22 12.04 C0.37 11.21, 0.59 10.38, 0.88 9.59 C1.17 8.79, 1.53 8.02, 1.95 7.28 C2.37 6.55, 2.87 5.85, 3.41 5.2 C3.95 4.56, 4.56 3.95, 5.2 3.41 C5.85 2.87, 6.55 2.37, 7.28 1.95 C8.02 1.53, 8.79 1.17, 9.59 0.88 C10.38 0.59, 11.21 0.37, 12.04 0.22 C12.87 0.07, 13.73 0, 14.57 0 C15.41 0, 16.27 0.07, 17.1 0.22 C17.93 0.37, 18.76 0.59, 19.55 0.88 C20.35 1.17, 21.12 1.53, 21.85 1.95 C22.59 2.37, 23.29 2.87, 23.94 3.41 C24.58 3.95, 25.19 4.56, 25.73 5.2 C26.27 5.85, 26.77 6.55, 27.19 7.28 C27.61 8.02, 27.97 8.79, 28.26 9.59 C28.55 10.38, 28.77 11.21, 28.92 12.04 C29.06 12.87, 29.1 14.15, 29.14 14.57 C29.18 14.99, 29.18 14.15, 29.14 14.57" stroke="none" stroke-width="0" fill="#0fac7c"></path><path d="M29.14 14.57 C29.14 15.41, 29.06 16.27, 28.92 17.1 C28.77 17.93, 28.55 18.76, 28.26 19.55 C27.97 20.35, 27.61 21.12, 27.19 21.85 C26.77 22.59, 26.27 23.29, 25.73 23.94 C25.19 24.58, 24.58 25.19, 23.94 25.73 C23.29 26.27, 22.59 26.77, 21.85 27.19 C21.12 27.61, 20.35 27.97, 19.55 28.26 C18.76 28.55, 17.93 28.77, 17.1 28.92 C16.27 29.06, 15.41 29.14, 14.57 29.14 C13.73 29.14, 12.87 29.06, 12.04 28.92 C11.21 28.77, 10.38 28.55, 9.59 28.26 C8.79 27.97, 8.02 27.61, 7.28 27.19 C6.55 26.77, 5.85 26.27, 5.2 25.73 C4.56 25.19, 3.95 24.58, 3.41 23.94 C2.87 23.29, 2.37 22.59, 1.95 21.85 C1.53 21.12, 1.17 20.35, 0.88 19.55 C0.59 18.76, 0.37 17.93, 0.22 17.1 C0.07 16.27, 0 15.41, 0 14.57 C0 13.73, 0.07 12.87, 0.22 12.04 C0.37 11.21, 0.59 10.38, 0.88 9.59 C1.17 8.79, 1.53 8.02, 1.95 7.28 C2.37 6.55, 2.87 5.85, 3.41 5.2 C3.95 4.56, 4.56 3.95, 5.2 3.41 C5.85 2.87, 6.55 2.37, 7.28 1.95 C8.02 1.53, 8.79 1.17, 9.59 0.88 C10.38 0.59, 11.21 0.37, 12.04 0.22 C12.87 0.07, 13.73 0, 14.57 0 C15.41 0, 16.27 0.07, 17.1 0.22 C17.93 0.37, 18.76 0.59, 19.55 0.88 C20.35 1.17, 21.12 1.53, 21.85 1.95 C22.59 2.37, 23.29 2.87, 23.94 3.41 C24.58 3.95, 25.19 4.56, 25.73 5.2 C26.27 5.85, 26.77 6.55, 27.19 7.28 C27.61 8.02, 27.97 8.79, 28.26 9.59 C28.55 10.38, 28.77 11.21, 28.92 12.04 C29.06 12.87, 29.1 14.15, 29.14 14.57 C29.18 14.99, 29.18 14.15, 29.14 14.57" stroke="#0fac7c" stroke-width="1" fill="none"></path></g><g transform="translate(14.092819137548247 1132.6883413902026) rotate(0 11.133333206176758 10.5)"><text x="0" y="16.400390625" font-family="Helvetica, Segoe UI Emoji" font-size="20px" fill="white" text-anchor="start" style="white-space: pre;" direction="ltr" dominant-baseline="alphabetic">3a</text></g><g stroke-linecap="round" transform="translate(10 1337.52365661387) rotate(0 14.569823253966469 14.569823253966433)"><path d="M29.14 14.57 C29.14 15.41, 29.06 16.27, 28.92 17.1 C28.77 17.93, 28.55 18.76, 28.26 19.55 C27.97 20.35, 27.61 21.12, 27.19 21.85 C26.77 22.59, 26.27 23.29, 25.73 23.94 C25.19 24.58, 24.58 25.19, 23.94 25.73 C23.29 26.27, 22.59 26.77, 21.85 27.19 C21.12 27.61, 20.35 27.97, 19.55 28.26 C18.76 28.55, 17.93 28.77, 17.1 28.92 C16.27 29.06, 15.41 29.14, 14.57 29.14 C13.73 29.14, 12.87 29.06, 12.04 28.92 C11.21 28.77, 10.38 28.55, 9.59 28.26 C8.79 27.97, 8.02 27.61, 7.28 27.19 C6.55 26.77, 5.85 26.27, 5.2 25.73 C4.56 25.19, 3.95 24.58, 3.41 23.94 C2.87 23.29, 2.37 22.59, 1.95 21.85 C1.53 21.12, 1.17 20.35, 0.88 19.55 C0.59 18.76, 0.37 17.93, 0.22 17.1 C0.07 16.27, 0 15.41, 0 14.57 C0 13.73, 0.07 12.87, 0.22 12.04 C0.37 11.21, 0.59 10.38, 0.88 9.59 C1.17 8.79, 1.53 8.02, 1.95 7.28 C2.37 6.55, 2.87 5.85, 3.41 5.2 C3.95 4.56, 4.56 3.95, 5.2 3.41 C5.85 2.87, 6.55 2.37, 7.28 1.95 C8.02 1.53, 8.79 1.17, 9.59 0.88 C10.38 0.59, 11.21 0.37, 12.04 0.22 C12.87 0.07, 13.73 0, 14.57 0 C15.41 0, 16.27 0.07, 17.1 0.22 C17.93 0.37, 18.76 0.59, 19.55 0.88 C20.35 1.17, 21.12 1.53, 21.85 1.95 C22.59 2.37, 23.29 2.87, 23.94 3.41 C24.58 3.95, 25.19 4.56, 25.73 5.2 C26.27 5.85, 26.77 6.55, 27.19 7.28 C27.61 8.02, 27.97 8.79, 28.26 9.59 C28.55 10.38, 28.77 11.21, 28.92 12.04 C29.06 12.87, 29.1 14.15, 29.14 14.57 C29.18 14.99, 29.18 14.15, 29.14 14.57" stroke="none" stroke-width="0" fill="#bf0a17"></path><path d="M29.14 14.57 C29.14 15.41, 29.06 16.27, 28.92 17.1 C28.77 17.93, 28.55 18.76, 28.26 19.55 C27.97 20.35, 27.61 21.12, 27.19 21.85 C26.77 22.59, 26.27 23.29, 25.73 23.94 C25.19 24.58, 24.58 25.19, 23.94 25.73 C23.29 26.27, 22.59 26.77, 21.85 27.19 C21.12 27.61, 20.35 27.97, 19.55 28.26 C18.76 28.55, 17.93 28.77, 17.1 28.92 C16.27 29.06, 15.41 29.14, 14.57 29.14 C13.73 29.14, 12.87 29.06, 12.04 28.92 C11.21 28.77, 10.38 28.55, 9.59 28.26 C8.79 27.97, 8.02 27.61, 7.28 27.19 C6.55 26.77, 5.85 26.27, 5.2 25.73 C4.56 25.19, 3.95 24.58, 3.41 23.94 C2.87 23.29, 2.37 22.59, 1.95 21.85 C1.53 21.12, 1.17 20.35, 0.88 19.55 C0.59 18.76, 0.37 17.93, 0.22 17.1 C0.07 16.27, 0 15.41, 0 14.57 C0 13.73, 0.07 12.87, 0.22 12.04 C0.37 11.21, 0.59 10.38, 0.88 9.59 C1.17 8.79, 1.53 8.02, 1.95 7.28 C2.37 6.55, 2.87 5.85, 3.41 5.2 C3.95 4.56, 4.56 3.95, 5.2 3.41 C5.85 2.87, 6.55 2.37, 7.28 1.95 C8.02 1.53, 8.79 1.17, 9.59 0.88 C10.38 0.59, 11.21 0.37, 12.04 0.22 C12.87 0.07, 13.73 0, 14.57 0 C15.41 0, 16.27 0.07, 17.1 0.22 C17.93 0.37, 18.76 0.59, 19.55 0.88 C20.35 1.17, 21.12 1.53, 21.85 1.95 C22.59 2.37, 23.29 2.87, 23.94 3.41 C24.58 3.95, 25.19 4.56, 25.73 5.2 C26.27 5.85, 26.77 6.55, 27.19 7.28 C27.61 8.02, 27.97 8.79, 28.26 9.59 C28.55 10.38, 28.77 11.21, 28.92 12.04 C29.06 12.87, 29.1 14.15, 29.14 14.57 C29.18 14.99, 29.18 14.15, 29.14 14.57" stroke="#bf0a17" stroke-width="1" fill="none"></path></g><g transform="translate(13.956158262069465 1342.3440263496593) rotate(0 11.133333206176758 10.5)"><text x="0" y="16.400390625" font-family="Helvetica, Segoe UI Emoji" font-size="20px" fill="white" text-anchor="start" style="white-space: pre;" direction="ltr" dominant-baseline="alphabetic">3b</text></g><g transform="translate(68.10366523281778 1131.6833549525038) rotate(0 63.930664062499986 21)"><text x="63.9306640625" y="16.400390625" font-family="Helvetica, Segoe UI Emoji" font-size="20px" fill="black" text-anchor="middle" style="white-space: pre;" direction="ltr" dominant-baseline="alphabetic">Response has</text><text x="63.9306640625" y="37.400390625" font-family="Helvetica, Segoe UI Emoji" font-size="20px" fill="black" text-anchor="middle" style="white-space: pre;" direction="ltr" dominant-baseline="alphabetic"> changed</text></g><g transform="translate(59.161698254126435 1340.7848759791248) rotate(0 80.6103515625 21)"><text x="80.6103515625" y="16.400390625" font-family="Helvetica, Segoe UI Emoji" font-size="20px" fill="black" text-anchor="middle" style="white-space: pre;" direction="ltr" dominant-baseline="alphabetic">Response did not </text><text x="80.6103515625" y="37.400390625" font-family="Helvetica, Segoe UI Emoji" font-size="20px" fill="black" text-anchor="middle" style="white-space: pre;" direction="ltr" dominant-baseline="alphabetic">change</text></g><g transform="translate(268.324344603996 12.290403075463473) rotate(0 25.566667556762695 10.5)"><text x="25.566667556762695" y="16.400390625" font-family="Helvetica, Segoe UI Emoji" font-size="20px" fill="black" text-anchor="middle" style="white-space: pre;" direction="ltr" dominant-baseline="alphabetic">Client</text></g><g stroke-linecap="round"><g transform="translate(295.9898931827057 41.508486480324336) rotate(0 -1.783848495839237 751.9852630667102)"><path d="M0 0 C-0.59 250.66, -2.97 1253.31, -3.57 1503.97" stroke="black" stroke-width="1.5" fill="none" stroke-dasharray="8 9"></path></g></g><mask></mask><g transform="translate(477.7409895263082 10) rotate(0 39.483333587646484 10.5)"><text x="39.483333587646484" y="16.400390625" font-family="Helvetica, Segoe UI Emoji" font-size="20px" fill="black" text-anchor="middle" style="white-space: pre;" direction="ltr" dominant-baseline="alphabetic">Gateway</text></g><g stroke-linecap="round"><g transform="translate(518.493814322809 40.83937599891078) rotate(0 -0.2607619063684865 751.3665113076555)"><path d="M0 0 C-0.09 250.46, -0.43 1252.28, -0.52 1502.73" stroke="black" stroke-width="1.5" fill="none" stroke-dasharray="8 9"></path></g></g><mask></mask><g transform="translate(1044.0109131303711 12.795235386280638) rotate(0 25.566667556762695 10.5)"><text x="25.566667556762695" y="16.400390625" font-family="Helvetica, Segoe UI Emoji" font-size="20px" fill="black" text-anchor="middle" style="white-space: pre;" direction="ltr" dominant-baseline="alphabetic">Redis</text></g><g stroke-linecap="round"><g transform="translate(1068.3235474286253 43.702552716582886) rotate(0 1.0667532533257145 749.9835702808881)"><path d="M0 0 C0.36 249.99, 1.78 1249.97, 2.13 1499.97" stroke="black" stroke-width="1.5" fill="none" stroke-dasharray="8 9"></path></g></g><mask></mask><g transform="translate(1252.3369750740453 13.475932105086713) rotate(0 43.36666488647461 10.5)"><text x="43.36666488647461" y="16.400390625" font-family="Helvetica, Segoe UI Emoji" font-size="20px" fill="black" text-anchor="middle" style="white-space: pre;" direction="ltr" dominant-baseline="alphabetic">Upstream</text></g><g stroke-linecap="round"><g transform="translate(1296.4919242938222 43.36559265949995) rotate(0 -3.4057085346918257 749.456655926376)"><path d="M0 0 C-1.14 249.82, -5.68 1249.09, -6.81 1498.91" stroke="black" stroke-width="1.5" fill="none" stroke-dasharray="8 9"></path></g></g><mask></mask><g stroke-linecap="round"><g transform="translate(518.7493790285735 1428.0645173273995) rotate(0 146.9173491244561 -0.6829776628894706)"><path d="M0 0 C48.97 -0.23, 244.86 -1.14, 293.83 -1.37 M0 0 C48.97 -0.23, 244.86 -1.14, 293.83 -1.37" stroke="#bf0a17" stroke-width="1" fill="none"></path></g><g transform="translate(518.7493790285735 1428.0645173273995) rotate(0 146.9173491244561 -0.6829776628894706)"><path d="M293.83 -1.37 L280.27 5.04 L280.21 -7.64 L293.83 -1.37" stroke="none" stroke-width="0" fill="#bf0a17" fill-rule="evenodd"></path><path d="M293.83 -1.37 C288.68 1.06, 283.53 3.5, 280.27 5.04 M293.83 -1.37 C288.51 1.15, 283.19 3.66, 280.27 5.04 M280.27 5.04 C280.26 2.31, 280.24 -0.42, 280.21 -7.64 M280.27 5.04 C280.26 2.47, 280.25 -0.1, 280.21 -7.64 M280.21 -7.64 C285.13 -5.38, 290.04 -3.11, 293.83 -1.37 M280.21 -7.64 C285.47 -5.22, 290.73 -2.8, 293.83 -1.37 M293.83 -1.37 C293.83 -1.37, 293.83 -1.37, 293.83 -1.37 M293.83 -1.37 C293.83 -1.37, 293.83 -1.37, 293.83 -1.37" stroke="#bf0a17" stroke-width="1" fill="none"></path></g></g><mask></mask><g transform="translate(747.080700079548 10.358057609101934) rotate(0 67.28333282470703 10.5)"><text x="67.28333282470703" y="16.400390625" font-family="Helvetica, Segoe UI Emoji" font-size="20px" fill="black" text-anchor="middle" style="white-space: pre;" direction="ltr" dominant-baseline="alphabetic">Caching server</text></g><g stroke-linecap="round"><g transform="translate(813.3668106141399 41.40760870651434) rotate(0 0.7980894710067332 751.9511373925784)"><path d="M0 0 C0.27 250.65, 1.33 1253.25, 1.6 1503.9" stroke="black" stroke-width="1.5" fill="none" stroke-dasharray="8 9"></path></g></g><mask></mask><g stroke-linecap="round"><g transform="translate(816.1691866623604 617.1884595999816) rotate(0 125.71656928333687 1.4466757279224112)"><path d="M0 0 C41.91 0.48, 209.53 2.41, 251.43 2.89 M0 0 C41.91 0.48, 209.53 2.41, 251.43 2.89" stroke="#596979" stroke-width="1" fill="none"></path></g><g transform="translate(816.1691866623604 617.1884595999816) rotate(0 125.71656928333687 1.4466757279224112)"><path d="M251.43 2.89 L237.77 9.08 L237.91 -3.6 L251.43 2.89" stroke="none" stroke-width="0" fill="#596979" fill-rule="evenodd"></path><path d="M251.43 2.89 C246.61 5.08, 241.78 7.26, 237.77 9.08 M251.43 2.89 C247.29 4.77, 243.15 6.64, 237.77 9.08 M237.77 9.08 C237.81 5.35, 237.85 1.62, 237.91 -3.6 M237.77 9.08 C237.82 4.06, 237.88 -0.96, 237.91 -3.6 M237.91 -3.6 C242.94 -1.19, 247.96 1.22, 251.43 2.89 M237.91 -3.6 C242.62 -1.34, 247.33 0.92, 251.43 2.89 M251.43 2.89 C251.43 2.89, 251.43 2.89, 251.43 2.89 M251.43 2.89 C251.43 2.89, 251.43 2.89, 251.43 2.89" stroke="#596979" stroke-width="1" fill="none"></path></g></g><mask></mask><g transform="translate(871.8636338680795 585.9674390850412) rotate(0 67.86666870117188 10.5)"><text x="67.86666870117188" y="16.400390625" font-family="Helvetica, Segoe UI Emoji" font-size="20px" fill="black" text-anchor="middle" style="white-space: pre;" direction="ltr" dominant-baseline="alphabetic">Store response</text></g><g stroke-linecap="round"><g transform="translate(814.7125202382042 806.82889624007) rotate(0 125.36602002060846 0.555106785526732)"><path d="M0 0 C41.79 0.19, 208.94 0.93, 250.73 1.11 M0 0 C41.79 0.19, 208.94 0.93, 250.73 1.11" stroke="#158bc2" stroke-width="1" fill="none"></path></g><g transform="translate(814.7125202382042 806.82889624007) rotate(0 125.36602002060846 0.555106785526732)"><path d="M250.73 1.11 L237.11 7.39 L237.17 -5.29 L250.73 1.11" stroke="none" stroke-width="0" fill="#158bc2" fill-rule="evenodd"></path><path d="M250.73 1.11 C247.36 2.66, 243.99 4.22, 237.11 7.39 M250.73 1.11 C246.19 3.2, 241.66 5.29, 237.11 7.39 M237.11 7.39 C237.12 4.75, 237.13 2.1, 237.17 -5.29 M237.11 7.39 C237.13 3.6, 237.14 -0.19, 237.17 -5.29 M237.17 -5.29 C241.14 -3.41, 245.12 -1.54, 250.73 1.11 M237.17 -5.29 C240.77 -3.59, 244.38 -1.88, 250.73 1.11 M250.73 1.11 C250.73 1.11, 250.73 1.11, 250.73 1.11 M250.73 1.11 C250.73 1.11, 250.73 1.11, 250.73 1.11" stroke="#158bc2" stroke-width="1" fill="none"></path></g></g><mask></mask><g transform="translate(850.7342718502634 769.6888020502026) rotate(0 95.13333129882818 10.5)"><text x="95.13333129882812" y="16.400390625" font-family="Helvetica, Segoe UI Emoji" font-size="20px" fill="black" text-anchor="middle" style="white-space: pre;" direction="ltr" dominant-baseline="alphabetic">Get cached response</text></g><g stroke-linecap="round"><g transform="translate(518.8073229939398 1088.975814185599) rotate(0 387.54806307728137 0.7704329051796321)"><path d="M0 0 C129.18 0.26, 645.91 1.28, 775.1 1.54 M0 0 C129.18 0.26, 645.91 1.28, 775.1 1.54" stroke="#596979" stroke-width="1" fill="none"></path></g><g transform="translate(518.8073229939398 1088.975814185599) rotate(0 387.54806307728137 0.7704329051796321)"><path d="M775.1 1.54 L761.49 7.85 L761.51 -4.83 L775.1 1.54" stroke="none" stroke-width="0" fill="#596979" fill-rule="evenodd"></path><path d="M775.1 1.54 C772.17 2.9, 769.24 4.26, 761.49 7.85 M775.1 1.54 C772.34 2.82, 769.58 4.1, 761.49 7.85 M761.49 7.85 C761.5 3.28, 761.51 -1.3, 761.51 -4.83 M761.49 7.85 C761.5 2.96, 761.51 -1.94, 761.51 -4.83 M761.51 -4.83 C766.87 -2.31, 772.23 0.2, 775.1 1.54 M761.51 -4.83 C766.84 -2.33, 772.16 0.16, 775.1 1.54 M775.1 1.54 C775.1 1.54, 775.1 1.54, 775.1 1.54 M775.1 1.54 C775.1 1.54, 775.1 1.54, 775.1 1.54" stroke="#596979" stroke-width="1" fill="none"></path></g></g><mask></mask><g transform="translate(535.1222724451424 1052.2166022275667) rotate(0 114.56666564941406 10.5)"><text x="114.56666564941406" y="16.400390625" font-family="Helvetica, Segoe UI Emoji" font-size="20px" fill="black" text-anchor="middle" style="white-space: pre;" direction="ltr" dominant-baseline="alphabetic">New response available? </text></g><g stroke-linecap="round"><g transform="translate(818.5690969766354 1281.0835331300684) rotate(0 123.43543690387565 -0.26435089065557804)"><path d="M0 0 C41.15 -0.09, 205.73 -0.44, 246.87 -0.53" stroke="#0fac7c" stroke-width="1.5" fill="none" stroke-dasharray="1.5 7"></path></g><g transform="translate(818.5690969766354 1281.0835331300684) rotate(0 123.43543690387565 -0.26435089065557804)"><path d="M246.87 -0.53 L233.29 5.84 L233.26 -6.84 L246.87 -0.53" stroke="none" stroke-width="0" fill="#0fac7c" fill-rule="evenodd"></path><path d="M246.87 -0.53 C243.1 1.24, 239.32 3.01, 233.29 5.84 M233.29 5.84 C233.28 1.9, 233.27 -2.05, 233.26 -6.84 M233.26 -6.84 C237.15 -5.03, 241.05 -3.23, 246.87 -0.53 M246.87 -0.53 C246.87 -0.53, 246.87 -0.53, 246.87 -0.53" stroke="#0fac7c" stroke-width="1.5" fill="none"></path></g></g><mask></mask><g transform="translate(880.4460143790236 1241.7905081574834) rotate(0 67.86666870117193 10.5)"><text x="67.86666870117188" y="16.400390625" font-family="Helvetica, Segoe UI Emoji" font-size="20px" fill="black" text-anchor="middle" style="white-space: pre;" direction="ltr" dominant-baseline="alphabetic">Store response</text></g><g stroke-linecap="round"><g transform="translate(818.8556691856859 1459.4908006665644) rotate(0 123.707360799519 -0.5300530676352082)"><path d="M0 0 C41.24 -0.18, 206.18 -0.88, 247.41 -1.06 M0 0 C41.24 -0.18, 206.18 -0.88, 247.41 -1.06" stroke="#bf0a17" stroke-width="1" fill="none"></path></g><g transform="translate(818.8556691856859 1459.4908006665644) rotate(0 123.707360799519 -0.5300530676352082)"><path d="M247.41 -1.06 L233.85 5.34 L233.79 -7.34 L247.41 -1.06" stroke="none" stroke-width="0" fill="#bf0a17" fill-rule="evenodd"></path><path d="M247.41 -1.06 C242.08 1.46, 236.74 3.97, 233.85 5.34 M247.41 -1.06 C242.7 1.16, 237.99 3.38, 233.85 5.34 M233.85 5.34 C233.84 2.74, 233.83 0.15, 233.79 -7.34 M233.85 5.34 C233.83 0.91, 233.81 -3.51, 233.79 -7.34 M233.79 -7.34 C237.42 -5.67, 241.05 -4, 247.41 -1.06 M233.79 -7.34 C238.55 -5.15, 243.31 -2.95, 247.41 -1.06 M247.41 -1.06 C247.41 -1.06, 247.41 -1.06, 247.41 -1.06 M247.41 -1.06 C247.41 -1.06, 247.41 -1.06, 247.41 -1.06" stroke="#bf0a17" stroke-width="1" fill="none"></path></g></g><mask></mask><g transform="translate(861.0496202281262 1425.32738086117) rotate(0 95.13333129882812 10.5)"><text x="95.13333129882812" y="16.400390625" font-family="Helvetica, Segoe UI Emoji" font-size="20px" fill="black" text-anchor="middle" style="white-space: pre;" direction="ltr" dominant-baseline="alphabetic">Get cached response</text></g><g stroke-linecap="round"><g transform="translate(810.7098491082395 1492.233169847247) rotate(0 -145.25276807097538 0.6598066418716826)"><path d="M0 0 C-48.42 0.22, -242.09 1.1, -290.51 1.32 M0 0 C-48.42 0.22, -242.09 1.1, -290.51 1.32" stroke="#bf0a17" stroke-width="1" fill="none"></path></g><g transform="translate(810.7098491082395 1492.233169847247) rotate(0 -145.25276807097538 0.6598066418716826)"><path d="M-290.51 1.32 L-276.94 -5.08 L-276.88 7.6 L-290.51 1.32" stroke="none" stroke-width="0" fill="#bf0a17" fill-rule="evenodd"></path><path d="M-290.51 1.32 C-285.69 -0.95, -280.87 -3.23, -276.94 -5.08 M-290.51 1.32 C-285.22 -1.17, -279.94 -3.67, -276.94 -5.08 M-276.94 -5.08 C-276.92 -0.97, -276.9 3.14, -276.88 7.6 M-276.94 -5.08 C-276.92 -1.41, -276.91 2.27, -276.88 7.6 M-276.88 7.6 C-282.21 5.14, -287.54 2.69, -290.51 1.32 M-276.88 7.6 C-280.9 5.75, -284.92 3.89, -290.51 1.32 M-290.51 1.32 C-290.51 1.32, -290.51 1.32, -290.51 1.32 M-290.51 1.32 C-290.51 1.32, -290.51 1.32, -290.51 1.32" stroke="#bf0a17" stroke-width="1" fill="none"></path></g></g><mask></mask><g transform="translate(557.8929589791807 1463.2168760441125) rotate(0 109.03333282470703 10.5)"><text x="109.03333282470703" y="16.400390625" font-family="Helvetica, Segoe UI Emoji" font-size="20px" fill="black" text-anchor="middle" style="white-space: pre;" direction="ltr" dominant-baseline="alphabetic">Return cached response</text></g><g stroke-linecap="round"><g transform="translate(1290.8643322683458 1361.5821839971984) rotate(0 -386.70899237892496 0.7038015664338673)"><path d="M0 0 C-128.9 0.23, -644.51 1.17, -773.42 1.41 M0 0 C-128.9 0.23, -644.51 1.17, -773.42 1.41" stroke="#bf0a17" stroke-width="1" fill="none"></path></g><g transform="translate(1290.8643322683458 1361.5821839971984) rotate(0 -386.70899237892496 0.7038015664338673)"><path d="M-773.42 1.41 L-759.83 -4.96 L-759.81 7.72 L-773.42 1.41" stroke="none" stroke-width="0" fill="#bf0a17" fill-rule="evenodd"></path><path d="M-773.42 1.41 C-769.44 -0.46, -765.47 -2.32, -759.83 -4.96 M-773.42 1.41 C-770.64 0.11, -767.86 -1.2, -759.83 -4.96 M-759.83 -4.96 C-759.83 -0.69, -759.82 3.59, -759.81 7.72 M-759.83 -4.96 C-759.83 -0.58, -759.82 3.8, -759.81 7.72 M-759.81 7.72 C-762.59 6.43, -765.37 5.14, -773.42 1.41 M-759.81 7.72 C-763.57 5.98, -767.32 4.24, -773.42 1.41 M-773.42 1.41 C-773.42 1.41, -773.42 1.41, -773.42 1.41 M-773.42 1.41 C-773.42 1.41, -773.42 1.41, -773.42 1.41" stroke="#bf0a17" stroke-width="1" fill="none"></path></g></g><mask></mask><g transform="translate(1116.2176643636742 1327.4231378337197) rotate(0 75.6500015258789 10.5)"><text x="75.6500015258789" y="16.400390625" font-family="Helvetica, Segoe UI Emoji" font-size="20px" fill="black" text-anchor="middle" style="white-space: pre;" direction="ltr" dominant-baseline="alphabetic">304 Not Modified</text></g><g stroke-linecap="round"><g transform="translate(518.8837091643528 173.4264528401775) rotate(0 145.7345578809942 -0.034288101393030956)"><path d="M0 0 C48.58 -0.01, 242.89 -0.06, 291.47 -0.07 M0 0 C48.58 -0.01, 242.89 -0.06, 291.47 -0.07" stroke="#596979" stroke-width="1" fill="none"></path></g><g transform="translate(518.8837091643528 173.4264528401775) rotate(0 145.7345578809942 -0.034288101393030956)"><path d="M291.47 -0.07 L277.88 6.27 L277.87 -6.4 L291.47 -0.07" stroke="none" stroke-width="0" fill="#596979" fill-rule="evenodd"></path><path d="M291.47 -0.07 C286.42 2.29, 281.37 4.64, 277.88 6.27 M291.47 -0.07 C286.73 2.14, 282 4.35, 277.88 6.27 M277.88 6.27 C277.88 2.19, 277.87 -1.88, 277.87 -6.4 M277.88 6.27 C277.87 1.89, 277.87 -2.5, 277.87 -6.4 M277.87 -6.4 C282.27 -4.36, 286.67 -2.31, 291.47 -0.07 M277.87 -6.4 C282.92 -4.05, 287.97 -1.7, 291.47 -0.07 M291.47 -0.07 C291.47 -0.07, 291.47 -0.07, 291.47 -0.07 M291.47 -0.07 C291.47 -0.07, 291.47 -0.07, 291.47 -0.07" stroke="#596979" stroke-width="1" fill="none"></path></g></g><mask></mask><g transform="translate(558.7816424022071 137.53651284912985) rotate(0 95.13333129882812 10.5)"><text x="95.13333129882812" y="16.400390625" font-family="Helvetica, Segoe UI Emoji" font-size="20px" fill="black" text-anchor="middle" style="white-space: pre;" direction="ltr" dominant-baseline="alphabetic">Get cached response</text></g><g stroke-linecap="round"><g transform="translate(815.9900453926748 222.33882519472968) rotate(0 126.21700107673058 1.2960885173815768)"><path d="M0 0 C42.07 0.43, 210.36 2.16, 252.43 2.59 M0 0 C42.07 0.43, 210.36 2.16, 252.43 2.59" stroke="#596979" stroke-width="1" fill="none"></path></g><g transform="translate(815.9900453926748 222.33882519472968) rotate(0 126.21700107673058 1.2960885173815768)"><path d="M252.43 2.59 L238.78 8.79 L238.91 -3.89 L252.43 2.59" stroke="none" stroke-width="0" fill="#596979" fill-rule="evenodd"></path><path d="M252.43 2.59 C248.43 4.41, 244.43 6.23, 238.78 8.79 M252.43 2.59 C248.8 4.24, 245.17 5.89, 238.78 8.79 M238.78 8.79 C238.81 5.71, 238.84 2.62, 238.91 -3.89 M238.78 8.79 C238.81 5.48, 238.84 2.17, 238.91 -3.89 M238.91 -3.89 C241.63 -2.58, 244.35 -1.28, 252.43 2.59 M238.91 -3.89 C242.29 -2.26, 245.68 -0.64, 252.43 2.59 M252.43 2.59 C252.43 2.59, 252.43 2.59, 252.43 2.59 M252.43 2.59 C252.43 2.59, 252.43 2.59, 252.43 2.59" stroke="#596979" stroke-width="1" fill="none"></path></g></g><mask></mask><g transform="translate(842.0401896019798 186.6488536969805) rotate(0 95.13333129882807 10.500000000000114)"><text x="95.13333129882812" y="16.400390625" font-family="Helvetica, Segoe UI Emoji" font-size="20px" fill="black" text-anchor="middle" style="white-space: pre;" direction="ltr" dominant-baseline="alphabetic">Get cached response</text></g><g stroke-linecap="round"><g transform="translate(1067.5017222940771 318.0356618104704) rotate(0 -127.86773543434714 0.04229421182526494)"><path d="M0 0 C-42.62 0.01, -213.11 0.07, -255.74 0.08 M0 0 C-42.62 0.01, -213.11 0.07, -255.74 0.08" stroke="#596979" stroke-width="1" fill="none"></path></g><g transform="translate(1067.5017222940771 318.0356618104704) rotate(0 -127.86773543434714 0.04229421182526494)"><path d="M-255.74 0.08 L-242.14 -6.26 L-242.14 6.42 L-255.74 0.08" stroke="none" stroke-width="0" fill="#596979" fill-rule="evenodd"></path><path d="M-255.74 0.08 C-250.37 -2.42, -245.01 -4.92, -242.14 -6.26 M-255.74 0.08 C-250.41 -2.4, -245.08 -4.89, -242.14 -6.26 M-242.14 -6.26 C-242.14 -3.06, -242.14 0.14, -242.14 6.42 M-242.14 -6.26 C-242.14 -2.47, -242.14 1.32, -242.14 6.42 M-242.14 6.42 C-245.22 4.99, -248.3 3.55, -255.74 0.08 M-242.14 6.42 C-245.81 4.71, -249.49 3, -255.74 0.08 M-255.74 0.08 C-255.74 0.08, -255.74 0.08, -255.74 0.08 M-255.74 0.08 C-255.74 0.08, -255.74 0.08, -255.74 0.08" stroke="#596979" stroke-width="1" fill="none"></path></g></g><mask></mask><g transform="translate(858.1359139843559 260.5574541698554) rotate(0 91.78333282470703 20.5)"><text x="91.78333282470703" y="15.900390625" font-family="Helvetica, Segoe UI Emoji" font-size="20px" fill="black" text-anchor="middle" style="white-space: pre;" direction="ltr" dominant-baseline="alphabetic">No cached response</text><text x="91.78333282470703" y="36.400390625" font-family="Helvetica, Segoe UI Emoji" font-size="20px" fill="black" text-anchor="middle" style="white-space: pre;" direction="ltr" dominant-baseline="alphabetic"> available </text></g><g stroke-linecap="round"><g transform="translate(810.7166409506575 352.65476285087857) rotate(0 -144.50496796984783 -0.09611994439296723)"><path d="M0 0 C-48.17 -0.03, -240.84 -0.16, -289.01 -0.19 M0 0 C-48.17 -0.03, -240.84 -0.16, -289.01 -0.19" stroke="#596979" stroke-width="1" fill="none"></path></g><g transform="translate(810.7166409506575 352.65476285087857) rotate(0 -144.50496796984783 -0.09611994439296723)"><path d="M-289.01 -0.19 L-275.41 -6.52 L-275.42 6.16 L-289.01 -0.19" stroke="none" stroke-width="0" fill="#596979" fill-rule="evenodd"></path><path d="M-289.01 -0.19 C-284.26 -2.4, -279.51 -4.61, -275.41 -6.52 M-289.01 -0.19 C-285.63 -1.77, -282.24 -3.34, -275.41 -6.52 M-275.41 -6.52 C-275.41 -1.64, -275.42 3.25, -275.42 6.16 M-275.41 -6.52 C-275.41 -3.9, -275.41 -1.28, -275.42 6.16 M-275.42 6.16 C-278.46 4.73, -281.51 3.31, -289.01 -0.19 M-275.42 6.16 C-280.55 3.76, -285.68 1.36, -289.01 -0.19 M-289.01 -0.19 C-289.01 -0.19, -289.01 -0.19, -289.01 -0.19 M-289.01 -0.19 C-289.01 -0.19, -289.01 -0.19, -289.01 -0.19" stroke="#596979" stroke-width="1" fill="none"></path></g></g><mask></mask><g transform="translate(576.2426218080284 293.18528247072186) rotate(0 91.78333282470703 20.5)"><text x="91.78333282470703" y="15.900390625" font-family="Helvetica, Segoe UI Emoji" font-size="20px" fill="black" text-anchor="middle" style="white-space: pre;" direction="ltr" dominant-baseline="alphabetic">No cached response</text><text x="91.78333282470703" y="36.400390625" font-family="Helvetica, Segoe UI Emoji" font-size="20px" fill="black" text-anchor="middle" style="white-space: pre;" direction="ltr" dominant-baseline="alphabetic"> available </text></g></svg>