<svg version="1.1" xmlns="http://www.w3.org/2000/svg" viewBox="0 0 1196.8743463093938 842.7687434913671" width="1196.8743463093938" height="842.7687434913671">
  <!-- svg-source:excalidraw -->
  
  <defs>
    <style class="style-fonts">
      @font-face {
        font-family: "Virgil";
        src: url("https://excalidraw.com/Virgil.woff2");
      }
      @font-face {
        font-family: "Cascadia";
        src: url("https://excalidraw.com/Cascadia.woff2");
      }
      @font-face {
        font-family: "Assistant";
        src: url("https://app.excalidraw.com//dist/excalidraw-assets/Assistant-Regular.woff2");
      }
    </style>
    
  </defs>
  <rect x="0" y="0" width="1196.8743463093938" height="842.7687434913671" fill="#ffffff"></rect><g stroke-linecap="round"><g transform="translate(254.81821978054296 125.56012538516484) rotate(0 110.57421874999997 -0.99609375)"><path d="M0 0 C36.86 -0.33, 184.29 -1.66, 221.15 -1.99 M0 0 C36.86 -0.33, 184.29 -1.66, 221.15 -1.99" stroke="#596979" stroke-width="1" fill="none"></path></g><g transform="translate(254.81821978054296 125.56012538516484) rotate(0 110.57421874999997 -0.99609375)"><path d="M221.15 -1.99 L207.61 4.47 L207.5 -8.21 L221.15 -1.99" stroke="none" stroke-width="0" fill="#596979" fill-rule="evenodd"></path><path d="M221.15 -1.99 C216.96 0.01, 212.76 2.01, 207.61 4.47 M221.15 -1.99 C215.87 0.53, 210.6 3.04, 207.61 4.47 M207.61 4.47 C207.58 1.17, 207.55 -2.14, 207.5 -8.21 M207.61 4.47 C207.57 -0.42, 207.52 -5.32, 207.5 -8.21 M207.5 -8.21 C212.75 -5.81, 218.01 -3.42, 221.15 -1.99 M207.5 -8.21 C212.5 -5.93, 217.51 -3.65, 221.15 -1.99 M221.15 -1.99 C221.15 -1.99, 221.15 -1.99, 221.15 -1.99 M221.15 -1.99 C221.15 -1.99, 221.15 -1.99, 221.15 -1.99" stroke="#596979" stroke-width="1" fill="none"></path></g></g><mask></mask><g transform="translate(302.74681809176855 82.2688113905233) rotate(0 59.53333282470703 10.5)"><text x="59.53333282470703" y="16.400390625" font-family="Helvetica, Segoe UI Emoji" font-size="20px" fill="black" text-anchor="middle" style="white-space: pre;" direction="ltr" dominant-baseline="alphabetic">Send request</text></g><g transform="translate(228.52208533644125 15.968155733269327) rotate(0 25.566667556762695 10.5)"><text x="25.566667556762695" y="16.400390625" font-family="Helvetica, Segoe UI Emoji" font-size="20px" fill="black" text-anchor="middle" style="white-space: pre;" direction="ltr" dominant-baseline="alphabetic">Client</text></g><g stroke-linecap="round"><g transform="translate(256.18763391515097 45.31856457329059) rotate(0 -1.2655233367812855 393.72508945903826)"><path d="M0 0 C-0.42 131.24, -2.11 656.21, -2.53 787.45" stroke="black" stroke-width="1.5" fill="none" stroke-dasharray="8 9"></path></g></g><mask></mask><g transform="translate(437.71202999027923 13.800231735039915) rotate(0 39.483333587646484 10.5)"><text x="39.483333587646484" y="16.400390625" font-family="Helvetica, Segoe UI Emoji" font-size="20px" fill="black" text-anchor="middle" style="white-space: pre;" direction="ltr" dominant-baseline="alphabetic">Gateway</text></g><g stroke-linecap="round"><g transform="translate(478.1224437577299 44.77590571848668) rotate(0 0.17142210204696084 392.18920965993743)"><path d="M0 0 C0.06 130.73, 0.29 653.65, 0.34 784.38" stroke="black" stroke-width="1.5" fill="none" stroke-dasharray="8 9"></path></g></g><mask></mask><g transform="translate(922.2048507051634 10.961429568569883) rotate(0 25.566667556762695 10.5)"><text x="25.566667556762695" y="16.400390625" font-family="Helvetica, Segoe UI Emoji" font-size="20px" fill="black" text-anchor="middle" style="white-space: pre;" direction="ltr" dominant-baseline="alphabetic">Redis</text></g><g stroke-linecap="round"><g transform="translate(946.6399640806515 41.87859325679881) rotate(0 -1.0707059530089964 390.242770576008)"><path d="M0 0 C-0.36 130.08, -1.78 650.4, -2.14 780.49" stroke="black" stroke-width="1.5" fill="none" stroke-dasharray="8 9"></path></g></g><mask></mask><g transform="translate(1100.1410165364446 12.155748224162267) rotate(0 43.36666488647461 10.5)"><text x="43.36666488647461" y="16.400390625" font-family="Helvetica, Segoe UI Emoji" font-size="20px" fill="black" text-anchor="middle" style="white-space: pre;" direction="ltr" dominant-baseline="alphabetic">Upstream</text></g><g stroke-linecap="round"><g transform="translate(1144.7562742456057 42.05525513650241) rotate(0 -2.396350035241653 385.03986254826634)"><path d="M0 0 C-0.8 128.35, -3.99 641.73, -4.79 770.08" stroke="black" stroke-width="1.5" fill="none" stroke-dasharray="8 9"></path></g></g><mask></mask><g stroke-linecap="round"><g transform="translate(481.5440760348579 396.2515072937497) rotate(0 330.00867213352456 1.858181744999115)"><path d="M0 0 C110 0.62, 550.01 3.1, 660.02 3.72 M0 0 C110 0.62, 550.01 3.1, 660.02 3.72" stroke="#596979" stroke-width="1" fill="none"></path></g><g transform="translate(481.5440760348579 396.2515072937497) rotate(0 330.00867213352456 1.858181744999115)"><path d="M660.02 3.72 L646.39 9.98 L646.46 -2.7 L660.02 3.72" stroke="none" stroke-width="0" fill="#596979" fill-rule="evenodd"></path><path d="M660.02 3.72 C656.74 5.22, 653.47 6.73, 646.39 9.98 M660.02 3.72 C656.68 5.25, 653.34 6.79, 646.39 9.98 M646.39 9.98 C646.41 5.41, 646.44 0.85, 646.46 -2.7 M646.39 9.98 C646.41 5.12, 646.44 0.26, 646.46 -2.7 M646.46 -2.7 C651.4 -0.36, 656.33 1.97, 660.02 3.72 M646.46 -2.7 C650.91 -0.59, 655.37 1.52, 660.02 3.72 M660.02 3.72 C660.02 3.72, 660.02 3.72, 660.02 3.72 M660.02 3.72 C660.02 3.72, 660.02 3.72, 660.02 3.72" stroke="#596979" stroke-width="1" fill="none"></path></g></g><mask></mask><g stroke-linecap="round"><g transform="translate(1141.8788114059212 464.3951234207593) rotate(0 -330.71483872680017 -1.771140813029092)"><path d="M0 0 C-110.24 -0.59, -551.19 -2.95, -661.43 -3.54 M0 0 C-110.24 -0.59, -551.19 -2.95, -661.43 -3.54" stroke="#596979" stroke-width="1" fill="none"></path></g><g transform="translate(1141.8788114059212 464.3951234207593) rotate(0 -330.71483872680017 -1.771140813029092)"><path d="M-661.43 -3.54 L-647.8 -9.81 L-647.87 2.87 L-661.43 -3.54" stroke="none" stroke-width="0" fill="#596979" fill-rule="evenodd"></path><path d="M-661.43 -3.54 C-657.88 -5.17, -654.33 -6.81, -647.8 -9.81 M-661.43 -3.54 C-656.17 -5.96, -650.91 -8.38, -647.8 -9.81 M-647.8 -9.81 C-647.83 -4.93, -647.85 -0.04, -647.87 2.87 M-647.8 -9.81 C-647.83 -5.16, -647.85 -0.51, -647.87 2.87 M-647.87 2.87 C-653.09 0.4, -658.3 -2.06, -661.43 -3.54 M-647.87 2.87 C-652.42 0.72, -656.98 -1.44, -661.43 -3.54 M-661.43 -3.54 C-661.43 -3.54, -661.43 -3.54, -661.43 -3.54 M-661.43 -3.54 C-661.43 -3.54, -661.43 -3.54, -661.43 -3.54" stroke="#596979" stroke-width="1" fill="none"></path></g></g><mask></mask><g stroke-linecap="round"><g transform="translate(480.3081137867241 533.0016620027843) rotate(0 125.91473464190472 0.09877344938195165)"><path d="M0 0 C41.97 0.03, 209.86 0.16, 251.83 0.2 M0 0 C41.97 0.03, 209.86 0.16, 251.83 0.2" stroke="#596979" stroke-width="1" fill="none"></path></g><g transform="translate(480.3081137867241 533.0016620027843) rotate(0 125.91473464190472 0.09877344938195165)"><path d="M251.83 0.2 L238.23 6.53 L238.24 -6.15 L251.83 0.2" stroke="none" stroke-width="0" fill="#596979" fill-rule="evenodd"></path><path d="M251.83 0.2 C249.1 1.47, 246.37 2.74, 238.23 6.53 M251.83 0.2 C246.55 2.66, 241.26 5.11, 238.23 6.53 M238.23 6.53 C238.23 2.62, 238.24 -1.28, 238.24 -6.15 M238.23 6.53 C238.23 3.68, 238.23 0.84, 238.24 -6.15 M238.24 -6.15 C242.32 -4.25, 246.4 -2.34, 251.83 0.2 M238.24 -6.15 C241.28 -4.73, 244.32 -3.31, 251.83 0.2 M251.83 0.2 C251.83 0.2, 251.83 0.2, 251.83 0.2 M251.83 0.2 C251.83 0.2, 251.83 0.2, 251.83 0.2" stroke="#596979" stroke-width="1" fill="none"></path></g></g><mask></mask><g stroke-linecap="round"><g transform="translate(476.8118650399357 491.90533272197877) rotate(0 -108.45945831185367 -0.08222553981784131)"><path d="M0 0 C-36.15 -0.03, -180.77 -0.14, -216.92 -0.16 M0 0 C-36.15 -0.03, -180.77 -0.14, -216.92 -0.16" stroke="#596979" stroke-width="1" fill="none"></path></g><g transform="translate(476.8118650399357 491.90533272197877) rotate(0 -108.45945831185367 -0.08222553981784131)"><path d="M-216.92 -0.16 L-203.32 -6.49 L-203.33 6.19 L-216.92 -0.16" stroke="none" stroke-width="0" fill="#596979" fill-rule="evenodd"></path><path d="M-216.92 -0.16 C-212.51 -2.22, -208.1 -4.27, -203.32 -6.49 M-216.92 -0.16 C-213.73 -1.65, -210.53 -3.14, -203.32 -6.49 M-203.32 -6.49 C-203.32 -3.54, -203.32 -0.59, -203.33 6.19 M-203.32 -6.49 C-203.32 -2.43, -203.33 1.63, -203.33 6.19 M-203.33 6.19 C-206.51 4.7, -209.69 3.21, -216.92 -0.16 M-203.33 6.19 C-207.56 4.21, -211.79 2.23, -216.92 -0.16 M-216.92 -0.16 C-216.92 -0.16, -216.92 -0.16, -216.92 -0.16 M-216.92 -0.16 C-216.92 -0.16, -216.92 -0.16, -216.92 -0.16" stroke="#596979" stroke-width="1" fill="none"></path></g></g><mask></mask><g transform="translate(286.31036898954096 453.8768402092162) rotate(0 73.98332977294922 10.5)"><text x="73.98332977294922" y="16.400390625" font-family="Helvetica, Segoe UI Emoji" font-size="20px" fill="black" text-anchor="middle" style="white-space: pre;" direction="ltr" dominant-baseline="alphabetic">Return response</text></g><g transform="translate(485.55130693168394 495.66244989210577) rotate(0 118.48332977294922 10.5)"><text x="118.48332977294922" y="16.400390625" font-family="Helvetica, Segoe UI Emoji" font-size="20px" fill="black" text-anchor="middle" style="white-space: pre;" direction="ltr" dominant-baseline="alphabetic">Request response caching</text></g><g stroke-linecap="round"><g transform="translate(255.3792617201559 643.0228149176719) rotate(0 110.56876017202734 0.4519700993379274)"><path d="M0 0 C36.86 0.15, 184.28 0.75, 221.14 0.9 M0 0 C36.86 0.15, 184.28 0.75, 221.14 0.9" stroke="#158bc2" stroke-width="1" fill="none"></path></g><g transform="translate(255.3792617201559 643.0228149176719) rotate(0 110.56876017202734 0.4519700993379274)"><path d="M221.14 0.9 L207.52 7.19 L207.57 -5.49 L221.14 0.9" stroke="none" stroke-width="0" fill="#158bc2" fill-rule="evenodd"></path><path d="M221.14 0.9 C215.82 3.36, 210.5 5.81, 207.52 7.19 M221.14 0.9 C215.89 3.33, 210.64 5.75, 207.52 7.19 M207.52 7.19 C207.53 3.71, 207.55 0.23, 207.57 -5.49 M207.52 7.19 C207.53 3.23, 207.55 -0.74, 207.57 -5.49 M207.57 -5.49 C212.19 -3.31, 216.8 -1.14, 221.14 0.9 M207.57 -5.49 C212.85 -3, 218.12 -0.52, 221.14 0.9 M221.14 0.9 C221.14 0.9, 221.14 0.9, 221.14 0.9 M221.14 0.9 C221.14 0.9, 221.14 0.9, 221.14 0.9" stroke="#158bc2" stroke-width="1" fill="none"></path></g></g><mask></mask><g transform="translate(298.89628202923166 605.6382834799472) rotate(0 59.53333282470703 10.5)"><text x="59.53333282470703" y="16.400390625" font-family="Helvetica, Segoe UI Emoji" font-size="20px" fill="black" text-anchor="middle" style="white-space: pre;" direction="ltr" dominant-baseline="alphabetic">Send request</text></g><g stroke-linecap="round" transform="translate(10.000000000000028 91.77414635788693) rotate(0 14.569823253966476 14.56982325396649)"><path d="M29.14 14.57 C29.14 15.41, 29.06 16.27, 28.92 17.1 C28.77 17.93, 28.55 18.76, 28.26 19.55 C27.97 20.35, 27.61 21.12, 27.19 21.85 C26.77 22.59, 26.27 23.29, 25.73 23.94 C25.19 24.58, 24.58 25.19, 23.94 25.73 C23.29 26.27, 22.59 26.77, 21.85 27.19 C21.12 27.61, 20.35 27.97, 19.55 28.26 C18.76 28.55, 17.93 28.77, 17.1 28.92 C16.27 29.06, 15.41 29.14, 14.57 29.14 C13.73 29.14, 12.87 29.06, 12.04 28.92 C11.21 28.77, 10.38 28.55, 9.59 28.26 C8.79 27.97, 8.02 27.61, 7.28 27.19 C6.55 26.77, 5.85 26.27, 5.2 25.73 C4.56 25.19, 3.95 24.58, 3.41 23.94 C2.87 23.29, 2.37 22.59, 1.95 21.85 C1.53 21.12, 1.17 20.35, 0.88 19.55 C0.59 18.76, 0.37 17.93, 0.22 17.1 C0.07 16.27, 0 15.41, 0 14.57 C0 13.73, 0.07 12.87, 0.22 12.04 C0.37 11.21, 0.59 10.38, 0.88 9.59 C1.17 8.79, 1.53 8.02, 1.95 7.28 C2.37 6.55, 2.87 5.85, 3.41 5.2 C3.95 4.56, 4.56 3.95, 5.2 3.41 C5.85 2.87, 6.55 2.37, 7.28 1.95 C8.02 1.53, 8.79 1.17, 9.59 0.88 C10.38 0.59, 11.21 0.37, 12.04 0.22 C12.87 0.07, 13.73 0, 14.57 0 C15.41 0, 16.27 0.07, 17.1 0.22 C17.93 0.37, 18.76 0.59, 19.55 0.88 C20.35 1.17, 21.12 1.53, 21.85 1.95 C22.59 2.37, 23.29 2.87, 23.94 3.41 C24.58 3.95, 25.19 4.56, 25.73 5.2 C26.27 5.85, 26.77 6.55, 27.19 7.28 C27.61 8.02, 27.97 8.79, 28.26 9.59 C28.55 10.38, 28.77 11.21, 28.92 12.04 C29.06 12.87, 29.1 14.15, 29.14 14.57 C29.18 14.99, 29.18 14.15, 29.14 14.57" stroke="none" stroke-width="0" fill="#596979"></path><path d="M29.14 14.57 C29.14 15.41, 29.06 16.27, 28.92 17.1 C28.77 17.93, 28.55 18.76, 28.26 19.55 C27.97 20.35, 27.61 21.12, 27.19 21.85 C26.77 22.59, 26.27 23.29, 25.73 23.94 C25.19 24.58, 24.58 25.19, 23.94 25.73 C23.29 26.27, 22.59 26.77, 21.85 27.19 C21.12 27.61, 20.35 27.97, 19.55 28.26 C18.76 28.55, 17.93 28.77, 17.1 28.92 C16.27 29.06, 15.41 29.14, 14.57 29.14 C13.73 29.14, 12.87 29.06, 12.04 28.92 C11.21 28.77, 10.38 28.55, 9.59 28.26 C8.79 27.97, 8.02 27.61, 7.28 27.19 C6.55 26.77, 5.85 26.27, 5.2 25.73 C4.56 25.19, 3.95 24.58, 3.41 23.94 C2.87 23.29, 2.37 22.59, 1.95 21.85 C1.53 21.12, 1.17 20.35, 0.88 19.55 C0.59 18.76, 0.37 17.93, 0.22 17.1 C0.07 16.27, 0 15.41, 0 14.57 C0 13.73, 0.07 12.87, 0.22 12.04 C0.37 11.21, 0.59 10.38, 0.88 9.59 C1.17 8.79, 1.53 8.02, 1.95 7.28 C2.37 6.55, 2.87 5.85, 3.41 5.2 C3.95 4.56, 4.56 3.95, 5.2 3.41 C5.85 2.87, 6.55 2.37, 7.28 1.95 C8.02 1.53, 8.79 1.17, 9.59 0.88 C10.38 0.59, 11.21 0.37, 12.04 0.22 C12.87 0.07, 13.73 0, 14.57 0 C15.41 0, 16.27 0.07, 17.1 0.22 C17.93 0.37, 18.76 0.59, 19.55 0.88 C20.35 1.17, 21.12 1.53, 21.85 1.95 C22.59 2.37, 23.29 2.87, 23.94 3.41 C24.58 3.95, 25.19 4.56, 25.73 5.2 C26.27 5.85, 26.77 6.55, 27.19 7.28 C27.61 8.02, 27.97 8.79, 28.26 9.59 C28.55 10.38, 28.77 11.21, 28.92 12.04 C29.06 12.87, 29.1 14.15, 29.14 14.57 C29.18 14.99, 29.18 14.15, 29.14 14.57" stroke="#596979" stroke-width="1" fill="none"></path></g><g transform="translate(18.67370913905461 96.59451609367488) rotate(0 5.566666603088379 10.5)"><text x="0" y="16.400390625" font-family="Helvetica, Segoe UI Emoji" font-size="20px" fill="white" text-anchor="start" style="white-space: pre;" direction="ltr" dominant-baseline="alphabetic">1</text></g><g stroke-linecap="round"><g transform="translate(479.58872604744727 682.1287318074544) rotate(0 125.89594642472264 0.8138932229077227)"><path d="M0 0 C41.97 0.27, 209.83 1.36, 251.79 1.63 M0 0 C41.97 0.27, 209.83 1.36, 251.79 1.63" stroke="#158bc2" stroke-width="1" fill="none"></path></g><g transform="translate(479.58872604744727 682.1287318074544) rotate(0 125.89594642472264 0.8138932229077227)"><path d="M251.79 1.63 L238.16 7.88 L238.24 -4.8 L251.79 1.63" stroke="none" stroke-width="0" fill="#158bc2" fill-rule="evenodd"></path><path d="M251.79 1.63 C248.62 3.08, 245.44 4.54, 238.16 7.88 M251.79 1.63 C247.43 3.63, 243.06 5.63, 238.16 7.88 M238.16 7.88 C238.18 4.91, 238.19 1.95, 238.24 -4.8 M238.16 7.88 C238.18 3.93, 238.21 -0.02, 238.24 -4.8 M238.24 -4.8 C241.97 -3.03, 245.69 -1.26, 251.79 1.63 M238.24 -4.8 C242.33 -2.86, 246.41 -0.92, 251.79 1.63 M251.79 1.63 C251.79 1.63, 251.79 1.63, 251.79 1.63 M251.79 1.63 C251.79 1.63, 251.79 1.63, 251.79 1.63" stroke="#158bc2" stroke-width="1" fill="none"></path></g></g><mask></mask><g transform="translate(506.8106484181932 648.7098503575953) rotate(0 95.13333129882812 10.5)"><text x="95.13333129882812" y="16.400390625" font-family="Helvetica, Segoe UI Emoji" font-size="20px" fill="black" text-anchor="middle" style="white-space: pre;" direction="ltr" dominant-baseline="alphabetic">Get cached response</text></g><g stroke-linecap="round"><g transform="translate(731.0202066606033 770.3689308426017) rotate(0 -125.21149120035938 -0.4944348149671214)"><path d="M0 0 C-41.74 -0.16, -208.69 -0.82, -250.42 -0.99 M0 0 C-41.74 -0.16, -208.69 -0.82, -250.42 -0.99" stroke="#158bc2" stroke-width="1" fill="none"></path></g><g transform="translate(731.0202066606033 770.3689308426017) rotate(0 -125.21149120035938 -0.4944348149671214)"><path d="M-250.42 -0.99 L-236.8 -7.27 L-236.85 5.4 L-250.42 -0.99" stroke="none" stroke-width="0" fill="#158bc2" fill-rule="evenodd"></path><path d="M-250.42 -0.99 C-246.59 -2.76, -242.76 -4.53, -236.8 -7.27 M-250.42 -0.99 C-246.24 -2.92, -242.05 -4.85, -236.8 -7.27 M-236.8 -7.27 C-236.82 -3.37, -236.83 0.54, -236.85 5.4 M-236.8 -7.27 C-236.82 -2.84, -236.84 1.59, -236.85 5.4 M-236.85 5.4 C-240.61 3.63, -244.37 1.86, -250.42 -0.99 M-236.85 5.4 C-241.29 3.31, -245.73 1.22, -250.42 -0.99 M-250.42 -0.99 C-250.42 -0.99, -250.42 -0.99, -250.42 -0.99 M-250.42 -0.99 C-250.42 -0.99, -250.42 -0.99, -250.42 -0.99" stroke="#158bc2" stroke-width="1" fill="none"></path></g></g><mask></mask><g transform="translate(56.06935231433931 72.67919362856321) rotate(0 80.11666870117188 31)"><text x="80.11666870117188" y="16.067057291666668" font-family="Helvetica, Segoe UI Emoji" font-size="20px" fill="black" text-anchor="middle" style="white-space: pre;" direction="ltr" dominant-baseline="alphabetic">Initial request</text><text x="80.11666870117188" y="36.733723958333336" font-family="Helvetica, Segoe UI Emoji" font-size="20px" fill="black" text-anchor="middle" style="white-space: pre;" direction="ltr" dominant-baseline="alphabetic">or request outside</text><text x="80.11666870117188" y="57.400390625" font-family="Helvetica, Segoe UI Emoji" font-size="20px" fill="black" text-anchor="middle" style="white-space: pre;" direction="ltr" dominant-baseline="alphabetic">cache timeframe</text></g><g transform="translate(493.2078479369486 711.3441948730203) rotate(0 109.03333282470703 20.5)"><text x="109.03333282470703" y="15.900390625" font-family="Helvetica, Segoe UI Emoji" font-size="20px" fill="black" text-anchor="middle" style="white-space: pre;" direction="ltr" dominant-baseline="alphabetic">Return cached response</text><text x="109.03333282470703" y="36.400390625" font-family="Helvetica, Segoe UI Emoji" font-size="20px" fill="black" text-anchor="middle" style="white-space: pre;" direction="ltr" dominant-baseline="alphabetic">with age header</text></g><g stroke-linecap="round" transform="translate(26.467509480969937 624.1205987141864) rotate(0 14.569823253966476 14.569823253966433)"><path d="M29.14 14.57 C29.14 15.41, 29.06 16.27, 28.92 17.1 C28.77 17.93, 28.55 18.76, 28.26 19.55 C27.97 20.35, 27.61 21.12, 27.19 21.85 C26.77 22.59, 26.27 23.29, 25.73 23.94 C25.19 24.58, 24.58 25.19, 23.94 25.73 C23.29 26.27, 22.59 26.77, 21.85 27.19 C21.12 27.61, 20.35 27.97, 19.55 28.26 C18.76 28.55, 17.93 28.77, 17.1 28.92 C16.27 29.06, 15.41 29.14, 14.57 29.14 C13.73 29.14, 12.87 29.06, 12.04 28.92 C11.21 28.77, 10.38 28.55, 9.59 28.26 C8.79 27.97, 8.02 27.61, 7.28 27.19 C6.55 26.77, 5.85 26.27, 5.2 25.73 C4.56 25.19, 3.95 24.58, 3.41 23.94 C2.87 23.29, 2.37 22.59, 1.95 21.85 C1.53 21.12, 1.17 20.35, 0.88 19.55 C0.59 18.76, 0.37 17.93, 0.22 17.1 C0.07 16.27, 0 15.41, 0 14.57 C0 13.73, 0.07 12.87, 0.22 12.04 C0.37 11.21, 0.59 10.38, 0.88 9.59 C1.17 8.79, 1.53 8.02, 1.95 7.28 C2.37 6.55, 2.87 5.85, 3.41 5.2 C3.95 4.56, 4.56 3.95, 5.2 3.41 C5.85 2.87, 6.55 2.37, 7.28 1.95 C8.02 1.53, 8.79 1.17, 9.59 0.88 C10.38 0.59, 11.21 0.37, 12.04 0.22 C12.87 0.07, 13.73 0, 14.57 0 C15.41 0, 16.27 0.07, 17.1 0.22 C17.93 0.37, 18.76 0.59, 19.55 0.88 C20.35 1.17, 21.12 1.53, 21.85 1.95 C22.59 2.37, 23.29 2.87, 23.94 3.41 C24.58 3.95, 25.19 4.56, 25.73 5.2 C26.27 5.85, 26.77 6.55, 27.19 7.28 C27.61 8.02, 27.97 8.79, 28.26 9.59 C28.55 10.38, 28.77 11.21, 28.92 12.04 C29.06 12.87, 29.1 14.15, 29.14 14.57 C29.18 14.99, 29.18 14.15, 29.14 14.57" stroke="none" stroke-width="0" fill="#158bc2"></path><path d="M29.14 14.57 C29.14 15.41, 29.06 16.27, 28.92 17.1 C28.77 17.93, 28.55 18.76, 28.26 19.55 C27.97 20.35, 27.61 21.12, 27.19 21.85 C26.77 22.59, 26.27 23.29, 25.73 23.94 C25.19 24.58, 24.58 25.19, 23.94 25.73 C23.29 26.27, 22.59 26.77, 21.85 27.19 C21.12 27.61, 20.35 27.97, 19.55 28.26 C18.76 28.55, 17.93 28.77, 17.1 28.92 C16.27 29.06, 15.41 29.14, 14.57 29.14 C13.73 29.14, 12.87 29.06, 12.04 28.92 C11.21 28.77, 10.38 28.55, 9.59 28.26 C8.79 27.97, 8.02 27.61, 7.28 27.19 C6.55 26.77, 5.85 26.27, 5.2 25.73 C4.56 25.19, 3.95 24.58, 3.41 23.94 C2.87 23.29, 2.37 22.59, 1.95 21.85 C1.53 21.12, 1.17 20.35, 0.88 19.55 C0.59 18.76, 0.37 17.93, 0.22 17.1 C0.07 16.27, 0 15.41, 0 14.57 C0 13.73, 0.07 12.87, 0.22 12.04 C0.37 11.21, 0.59 10.38, 0.88 9.59 C1.17 8.79, 1.53 8.02, 1.95 7.28 C2.37 6.55, 2.87 5.85, 3.41 5.2 C3.95 4.56, 4.56 3.95, 5.2 3.41 C5.85 2.87, 6.55 2.37, 7.28 1.95 C8.02 1.53, 8.79 1.17, 9.59 0.88 C10.38 0.59, 11.21 0.37, 12.04 0.22 C12.87 0.07, 13.73 0, 14.57 0 C15.41 0, 16.27 0.07, 17.1 0.22 C17.93 0.37, 18.76 0.59, 19.55 0.88 C20.35 1.17, 21.12 1.53, 21.85 1.95 C22.59 2.37, 23.29 2.87, 23.94 3.41 C24.58 3.95, 25.19 4.56, 25.73 5.2 C26.27 5.85, 26.77 6.55, 27.19 7.28 C27.61 8.02, 27.97 8.79, 28.26 9.59 C28.55 10.38, 28.77 11.21, 28.92 12.04 C29.06 12.87, 29.1 14.15, 29.14 14.57 C29.18 14.99, 29.18 14.15, 29.14 14.57" stroke="#158bc2" stroke-width="1" fill="none"></path></g><g transform="translate(35.423667743039374 628.9409684499744) rotate(0 5.566666603088379 10.5)"><text x="0" y="16.400390625" font-family="Helvetica, Segoe UI Emoji" font-size="20px" fill="white" text-anchor="start" style="white-space: pre;" direction="ltr" dominant-baseline="alphabetic">2</text></g><g transform="translate(73.09400503964395 618.8200241818911) rotate(0 73.96666717529297 20.5)"><text x="73.96666717529297" y="15.900390625" font-family="Helvetica, Segoe UI Emoji" font-size="20px" fill="black" text-anchor="middle" style="white-space: pre;" direction="ltr" dominant-baseline="alphabetic">Request within</text><text x="73.96666717529297" y="36.400390625" font-family="Helvetica, Segoe UI Emoji" font-size="20px" fill="black" text-anchor="middle" style="white-space: pre;" direction="ltr" dominant-baseline="alphabetic">cache timeframe</text></g><g stroke-linecap="round"><g transform="translate(478.604605579392 822.260069025438) rotate(0 -110.97987225664636 -0.6009892673364448)"><path d="M0 0 C-36.99 -0.2, -184.97 -1, -221.96 -1.2 M0 0 C-36.99 -0.2, -184.97 -1, -221.96 -1.2" stroke="#158bc2" stroke-width="1" fill="none"></path></g><g transform="translate(478.604605579392 822.260069025438) rotate(0 -110.97987225664636 -0.6009892673364448)"><path d="M-221.96 -1.2 L-208.33 -7.47 L-208.4 5.21 L-221.96 -1.2" stroke="none" stroke-width="0" fill="#158bc2" fill-rule="evenodd"></path><path d="M-221.96 -1.2 C-216.57 -3.68, -211.19 -6.16, -208.33 -7.47 M-221.96 -1.2 C-216.9 -3.53, -211.84 -5.85, -208.33 -7.47 M-208.33 -7.47 C-208.35 -3.95, -208.37 -0.43, -208.4 5.21 M-208.33 -7.47 C-208.36 -2.61, -208.38 2.26, -208.4 5.21 M-208.4 5.21 C-213.8 2.66, -219.2 0.1, -221.96 -1.2 M-208.4 5.21 C-212.28 3.37, -216.17 1.54, -221.96 -1.2 M-221.96 -1.2 C-221.96 -1.2, -221.96 -1.2, -221.96 -1.2 M-221.96 -1.2 C-221.96 -1.2, -221.96 -1.2, -221.96 -1.2" stroke="#158bc2" stroke-width="1" fill="none"></path></g></g><mask></mask><g transform="translate(540.7484606890845 363.94980650619345) rotate(0 72.86666870117188 10.5)"><text x="72.86666870117188" y="16.400390625" font-family="Helvetica, Segoe UI Emoji" font-size="20px" fill="black" text-anchor="middle" style="white-space: pre;" direction="ltr" dominant-baseline="alphabetic">Forward request</text></g><g transform="translate(664.9469174786217 10) rotate(0 67.28333282470703 10.5)"><text x="67.28333282470703" y="16.400390625" font-family="Helvetica, Segoe UI Emoji" font-size="20px" fill="black" text-anchor="middle" style="white-space: pre;" direction="ltr" dominant-baseline="alphabetic">Caching server</text></g><g stroke-linecap="round"><g transform="translate(733.157330483133 40.97567398344677) rotate(0 -0.8242142677237325 391.97190807129687)"><path d="M0 0 C-0.27 130.66, -1.37 653.29, -1.65 783.94" stroke="black" stroke-width="1.5" fill="none" stroke-dasharray="8 9"></path></g></g><mask></mask><g stroke-linecap="round"><g transform="translate(737.1984244463039 557.5465641140963) rotate(0 104.76714364449714 0.2268179603919407)"><path d="M0 0 C34.92 0.08, 174.61 0.38, 209.53 0.45 M0 0 C34.92 0.08, 174.61 0.38, 209.53 0.45" stroke="#596979" stroke-width="1" fill="none"></path></g><g transform="translate(737.1984244463039 557.5465641140963) rotate(0 104.76714364449714 0.2268179603919407)"><path d="M209.53 0.45 L195.93 6.76 L195.95 -5.92 L209.53 0.45" stroke="none" stroke-width="0" fill="#596979" fill-rule="evenodd"></path><path d="M209.53 0.45 C205.05 2.53, 200.57 4.61, 195.93 6.76 M209.53 0.45 C204.77 2.66, 200 4.87, 195.93 6.76 M195.93 6.76 C195.94 2.29, 195.95 -2.19, 195.95 -5.92 M195.93 6.76 C195.93 3.15, 195.94 -0.45, 195.95 -5.92 M195.95 -5.92 C200.73 -3.68, 205.5 -1.44, 209.53 0.45 M195.95 -5.92 C201.25 -3.43, 206.54 -0.95, 209.53 0.45 M209.53 0.45 C209.53 0.45, 209.53 0.45, 209.53 0.45 M209.53 0.45 C209.53 0.45, 209.53 0.45, 209.53 0.45" stroke="#596979" stroke-width="1" fill="none"></path></g></g><mask></mask><g transform="translate(763.816592315922 526.8148080439742) rotate(0 67.86666870117188 10.5)"><text x="67.86666870117188" y="16.400390625" font-family="Helvetica, Segoe UI Emoji" font-size="20px" fill="black" text-anchor="middle" style="white-space: pre;" direction="ltr" dominant-baseline="alphabetic">Store response</text></g><g stroke-linecap="round"><g transform="translate(740.0950936116022 719.5106551519741) rotate(0 103.49479618529875 1.3240158065865444)"><path d="M0 0 C34.5 0.44, 172.49 2.21, 206.99 2.65 M0 0 C34.5 0.44, 172.49 2.21, 206.99 2.65" stroke="#158bc2" stroke-width="1" fill="none"></path></g><g transform="translate(740.0950936116022 719.5106551519741) rotate(0 103.49479618529875 1.3240158065865444)"><path d="M206.99 2.65 L193.31 8.81 L193.48 -3.86 L206.99 2.65" stroke="none" stroke-width="0" fill="#158bc2" fill-rule="evenodd"></path><path d="M206.99 2.65 C202.14 4.83, 197.29 7.02, 193.31 8.81 M206.99 2.65 C202.86 4.51, 198.72 6.37, 193.31 8.81 M193.31 8.81 C193.35 5.96, 193.39 3.12, 193.48 -3.86 M193.31 8.81 C193.36 5.17, 193.41 1.54, 193.48 -3.86 M193.48 -3.86 C196.71 -2.31, 199.94 -0.75, 206.99 2.65 M193.48 -3.86 C198.48 -1.45, 203.48 0.96, 206.99 2.65 M206.99 2.65 C206.99 2.65, 206.99 2.65, 206.99 2.65 M206.99 2.65 C206.99 2.65, 206.99 2.65, 206.99 2.65" stroke="#158bc2" stroke-width="1" fill="none"></path></g></g><mask></mask><g transform="translate(746.550885984273 682.5398804623376) rotate(0 95.13333129882812 10.5)"><text x="95.13333129882812" y="16.400390625" font-family="Helvetica, Segoe UI Emoji" font-size="20px" fill="black" text-anchor="middle" style="white-space: pre;" direction="ltr" dominant-baseline="alphabetic">Get cached response</text></g><g transform="translate(952.8030654200254 414.0167092957445) rotate(0 94.01667022705078 20.5)"><text x="94.01667022705078" y="15.900390625" font-family="Helvetica, Segoe UI Emoji" font-size="20px" fill="black" text-anchor="middle" style="white-space: pre;" direction="ltr" dominant-baseline="alphabetic">Send response with </text><text x="94.01667022705078" y="36.400390625" font-family="Helvetica, Segoe UI Emoji" font-size="20px" fill="black" text-anchor="middle" style="white-space: pre;" direction="ltr" dominant-baseline="alphabetic">cache-control header</text></g><g stroke-linecap="round"><g transform="translate(480.32124062758714 156.3494394012273) rotate(0 124.69565942418666 0.16626665910246174)"><path d="M0 0 C41.57 0.06, 207.83 0.28, 249.39 0.33 M0 0 C41.57 0.06, 207.83 0.28, 249.39 0.33" stroke="#596979" stroke-width="1" fill="none"></path></g><g transform="translate(480.32124062758714 156.3494394012273) rotate(0 124.69565942418666 0.16626665910246174)"><path d="M249.39 0.33 L235.79 6.65 L235.81 -6.02 L249.39 0.33" stroke="none" stroke-width="0" fill="#596979" fill-rule="evenodd"></path><path d="M249.39 0.33 C245.62 2.08, 241.86 3.83, 235.79 6.65 M249.39 0.33 C244.94 2.4, 240.49 4.47, 235.79 6.65 M235.79 6.65 C235.79 3.13, 235.8 -0.39, 235.81 -6.02 M235.79 6.65 C235.79 1.88, 235.8 -2.89, 235.81 -6.02 M235.81 -6.02 C240.69 -3.74, 245.57 -1.46, 249.39 0.33 M235.81 -6.02 C239.4 -4.34, 242.99 -2.66, 249.39 0.33 M249.39 0.33 C249.39 0.33, 249.39 0.33, 249.39 0.33 M249.39 0.33 C249.39 0.33, 249.39 0.33, 249.39 0.33" stroke="#596979" stroke-width="1" fill="none"></path></g></g><mask></mask><g transform="translate(512.0418302109167 120.46345034815238) rotate(0 95.13333129882812 10.5)"><text x="95.13333129882812" y="16.400390625" font-family="Helvetica, Segoe UI Emoji" font-size="20px" fill="black" text-anchor="middle" style="white-space: pre;" direction="ltr" dominant-baseline="alphabetic">Get cached response</text></g><g stroke-linecap="round"><g transform="translate(733.1663166731457 201.2950700285976) rotate(0 104.91749445199241 -0.9697744114419038)"><path d="M0 0 C34.97 -0.32, 174.86 -1.62, 209.83 -1.94 M0 0 C34.97 -0.32, 174.86 -1.62, 209.83 -1.94" stroke="#596979" stroke-width="1" fill="none"></path></g><g transform="translate(733.1663166731457 201.2950700285976) rotate(0 104.91749445199241 -0.9697744114419038)"><path d="M209.83 -1.94 L196.3 4.53 L196.18 -8.15 L209.83 -1.94" stroke="none" stroke-width="0" fill="#596979" fill-rule="evenodd"></path><path d="M209.83 -1.94 C205.05 0.34, 200.27 2.63, 196.3 4.53 M209.83 -1.94 C205.98 -0.1, 202.13 1.74, 196.3 4.53 M196.3 4.53 C196.26 0.07, 196.22 -4.39, 196.18 -8.15 M196.3 4.53 C196.25 -0.42, 196.21 -5.36, 196.18 -8.15 M196.18 -8.15 C201.02 -5.95, 205.86 -3.75, 209.83 -1.94 M196.18 -8.15 C200.25 -6.3, 204.32 -4.45, 209.83 -1.94 M209.83 -1.94 C209.83 -1.94, 209.83 -1.94, 209.83 -1.94 M209.83 -1.94 C209.83 -1.94, 209.83 -1.94, 209.83 -1.94" stroke="#596979" stroke-width="1" fill="none"></path></g></g><mask></mask><g transform="translate(749.2956556265209 159.34681277800405) rotate(0 95.13333129882818 10.5)"><text x="95.13333129882812" y="16.400390625" font-family="Helvetica, Segoe UI Emoji" font-size="20px" fill="black" text-anchor="middle" style="white-space: pre;" direction="ltr" dominant-baseline="alphabetic">Get cached response</text></g><g stroke-linecap="round"><g transform="translate(941.9446484339112 289.8249051571793) rotate(0 -103.86776270350475 0.04229421182526494)"><path d="M0 0 C-34.62 0.01, -173.11 0.07, -207.74 0.08 M0 0 C-34.62 0.01, -173.11 0.07, -207.74 0.08" stroke="#596979" stroke-width="1" fill="none"></path></g><g transform="translate(941.9446484339112 289.8249051571793) rotate(0 -103.86776270350475 0.04229421182526494)"><path d="M-207.74 0.08 L-194.14 -6.26 L-194.14 6.42 L-207.74 0.08" stroke="none" stroke-width="0" fill="#596979" fill-rule="evenodd"></path><path d="M-207.74 0.08 C-204.68 -1.34, -201.63 -2.77, -194.14 -6.26 M-207.74 0.08 C-203.83 -1.74, -199.93 -3.56, -194.14 -6.26 M-194.14 -6.26 C-194.14 -3.23, -194.14 -0.19, -194.14 6.42 M-194.14 -6.26 C-194.14 -1.57, -194.14 3.13, -194.14 6.42 M-194.14 6.42 C-199.54 3.9, -204.94 1.38, -207.74 0.08 M-194.14 6.42 C-197.7 4.76, -201.26 3.1, -207.74 0.08 M-207.74 0.08 C-207.74 0.08, -207.74 0.08, -207.74 0.08 M-207.74 0.08 C-207.74 0.08, -207.74 0.08, -207.74 0.08" stroke="#596979" stroke-width="1" fill="none"></path></g></g><mask></mask><g transform="translate(747.1815068808287 232.72203662421566) rotate(0 91.78333282470703 20.5)"><text x="91.78333282470703" y="15.900390625" font-family="Helvetica, Segoe UI Emoji" font-size="20px" fill="black" text-anchor="middle" style="white-space: pre;" direction="ltr" dominant-baseline="alphabetic">No cached response</text><text x="91.78333282470703" y="36.400390625" font-family="Helvetica, Segoe UI Emoji" font-size="20px" fill="black" text-anchor="middle" style="white-space: pre;" direction="ltr" dominant-baseline="alphabetic"> available </text></g><g stroke-linecap="round"><g transform="translate(729.477238359216 335.58170034990303) rotate(0 -123.29633291854117 0.6071470152068059)"><path d="M0 0 C-41.1 0.2, -205.49 1.01, -246.59 1.21 M0 0 C-41.1 0.2, -205.49 1.01, -246.59 1.21" stroke="#596979" stroke-width="1" fill="none"></path></g><g transform="translate(729.477238359216 335.58170034990303) rotate(0 -123.29633291854117 0.6071470152068059)"><path d="M-246.59 1.21 L-233.03 -5.19 L-232.97 7.49 L-246.59 1.21" stroke="none" stroke-width="0" fill="#596979" fill-rule="evenodd"></path><path d="M-246.59 1.21 C-241.19 -1.34, -235.79 -3.89, -233.03 -5.19 M-246.59 1.21 C-242.71 -0.62, -238.82 -2.46, -233.03 -5.19 M-233.03 -5.19 C-233.01 -1.56, -232.99 2.07, -232.97 7.49 M-233.03 -5.19 C-233.02 -2.42, -233 0.36, -232.97 7.49 M-232.97 7.49 C-237.01 5.63, -241.05 3.76, -246.59 1.21 M-232.97 7.49 C-238.16 5.1, -243.36 2.7, -246.59 1.21 M-246.59 1.21 C-246.59 1.21, -246.59 1.21, -246.59 1.21 M-246.59 1.21 C-246.59 1.21, -246.59 1.21, -246.59 1.21" stroke="#596979" stroke-width="1" fill="none"></path></g></g><mask></mask><g transform="translate(513.2328470345323 276.1122199697461) rotate(0 91.78333282470703 20.5)"><text x="91.78333282470703" y="15.900390625" font-family="Helvetica, Segoe UI Emoji" font-size="20px" fill="black" text-anchor="middle" style="white-space: pre;" direction="ltr" dominant-baseline="alphabetic">No cached response</text><text x="91.78333282470703" y="36.400390625" font-family="Helvetica, Segoe UI Emoji" font-size="20px" fill="black" text-anchor="middle" style="white-space: pre;" direction="ltr" dominant-baseline="alphabetic"> available </text></g><g transform="translate(257.16226875874327 761.9450532138455) rotate(0 109.03333282470703 20.5)"><text x="109.03333282470703" y="15.900390625" font-family="Helvetica, Segoe UI Emoji" font-size="20px" fill="black" text-anchor="middle" style="white-space: pre;" direction="ltr" dominant-baseline="alphabetic">Return cached response</text><text x="109.03333282470703" y="36.400390625" font-family="Helvetica, Segoe UI Emoji" font-size="20px" fill="black" text-anchor="middle" style="white-space: pre;" direction="ltr" dominant-baseline="alphabetic">with age header</text></g></svg>