<svg version="1.1" xmlns="http://www.w3.org/2000/svg" viewBox="0 0 2133.71826565989 1302.8005314989764" width="4267.43653131978" height="2605.601062997953">
  <!-- svg-source:excalidraw -->
  
  <defs>
    <style class="style-fonts">
      @font-face {
        font-family: "Virgil";
        src: url("https://excalidraw.com/Virgil.woff2");
      }
      @font-face {
        font-family: "Cascadia";
        src: url("https://excalidraw.com/Cascadia.woff2");
      }
    </style>
  </defs>
  <rect x="0" y="0" width="2133.71826565989" height="1302.8005314989764" fill="#ffffff"></rect><g stroke-linecap="round"><g transform="translate(409.2681630053253 89.23530319744214) rotate(0 78.21110282420045 -0.3565195836490602)"><path d="M0 0 C61.78 -0.28, 123.56 -0.56, 156.42 -0.71 M0 0 C49.39 -0.23, 98.77 -0.45, 156.42 -0.71" stroke="black" stroke-width="1" fill="none"></path></g><g transform="translate(409.2681630053253 89.23530319744214) rotate(0 78.21110282420045 -0.3565195836490602)"><path d="M156.42 -0.71 L142.86 5.69 L142.8 -6.99 L156.42 -0.71" stroke="none" stroke-width="0" fill="black" fill-rule="evenodd"></path><path d="M156.42 -0.71 C151.06 1.82, 145.71 4.34, 142.86 5.69 M156.42 -0.71 C152.14 1.31, 147.86 3.33, 142.86 5.69 M142.86 5.69 C142.84 1.56, 142.82 -2.56, 142.8 -6.99 M142.86 5.69 C142.84 1.82, 142.82 -2.05, 142.8 -6.99 M142.8 -6.99 C147.2 -4.96, 151.6 -2.93, 156.42 -0.71 M142.8 -6.99 C146.84 -5.13, 150.89 -3.26, 156.42 -0.71 M156.42 -0.71 C156.42 -0.71, 156.42 -0.71, 156.42 -0.71 M156.42 -0.71 C156.42 -0.71, 156.42 -0.71, 156.42 -0.71" stroke="black" stroke-width="1" fill="none"></path></g></g><mask></mask><g transform="translate(909.6783040370979 27.837671262996082) rotate(0 28 16)"><text x="28" y="26" font-family="Helvetica, Segoe UI Emoji" font-size="28px" fill="black" text-anchor="middle" style="white-space: pre;" direction="ltr">TCP</text></g><g stroke-linecap="round"><g transform="translate(266.30634580929564 138.98158977807907) rotate(0 2.80683274387809 253.6919267073415)"><path d="M0 0 C1.88 170.09, 3.76 340.19, 5.61 507.38 M0 0 C2.1 190.25, 4.21 380.49, 5.61 507.38" stroke="black" stroke-width="1" fill="none"></path></g><g transform="translate(266.30634580929564 138.98158977807907) rotate(0 2.80683274387809 253.6919267073415)"><path d="M5.61 507.38 L-0.88 493.86 L11.8 493.72 L5.61 507.38" stroke="none" stroke-width="0" fill="black" fill-rule="evenodd"></path><path d="M5.61 507.38 C3.44 502.85, 1.26 498.32, -0.88 493.86 M5.61 507.38 C3.18 502.31, 0.75 497.24, -0.88 493.86 M-0.88 493.86 C1.88 493.83, 4.63 493.8, 11.8 493.72 M-0.88 493.86 C1.97 493.83, 4.81 493.8, 11.8 493.72 M11.8 493.72 C9.85 498.03, 7.9 502.35, 5.61 507.38 M11.8 493.72 C9.88 497.96, 7.96 502.21, 5.61 507.38 M5.61 507.38 C5.61 507.38, 5.61 507.38, 5.61 507.38 M5.61 507.38 C5.61 507.38, 5.61 507.38, 5.61 507.38" stroke="black" stroke-width="1" fill="none"></path></g></g><mask></mask><g transform="translate(180.24133905118674 373.4470877021304) rotate(0 22.8388671875 16)"><text x="22.8388671875" y="26" font-family="Helvetica, Segoe UI Emoji" font-size="28px" fill="black" text-anchor="middle" style="white-space: pre;" direction="ltr">Yes</text></g><g stroke-linecap="round" transform="translate(150.72320477075345 10) rotate(0 127.60021870396864 66.05520191255187)"><path d="M0 0 L255.2 0 L255.2 132.11 L0 132.11" stroke="none" stroke-width="0" fill="white"></path><path d="M0 0 C99.88 0, 199.76 0, 255.2 0 M0 0 C91.41 0, 182.83 0, 255.2 0 M255.2 0 C255.2 38, 255.2 76, 255.2 132.11 M255.2 0 C255.2 40.26, 255.2 80.51, 255.2 132.11 M255.2 132.11 C196.18 132.11, 137.17 132.11, 0 132.11 M255.2 132.11 C158.79 132.11, 62.38 132.11, 0 132.11 M0 132.11 C0 102.03, 0 71.95, 0 0 M0 132.11 C0 82.6, 0 33.09, 0 0" stroke="#158bc2" stroke-width="1" fill="none"></path></g><g transform="translate(159.2680140808393 30.525376982176567) rotate(0 117.509765625 48)"><text x="117.509765625" y="26" font-family="Helvetica, Segoe UI Emoji" font-size="28px" fill="black" text-anchor="middle" style="white-space: pre;" direction="ltr">Require encryption</text><text x="117.509765625" y="58" font-family="Helvetica, Segoe UI Emoji" font-size="28px" fill="black" text-anchor="middle" style="white-space: pre;" direction="ltr">from client to </text><text x="117.509765625" y="90" font-family="Helvetica, Segoe UI Emoji" font-size="28px" fill="black" text-anchor="middle" style="white-space: pre;" direction="ltr">the gateway? </text></g><g stroke-linecap="round"><g transform="translate(789.2023412054125 79.22718968288973) rotate(0 121.9217334425582 -0.7918244904863059)"><path d="M0 0 C97.08 -0.63, 194.16 -1.26, 243.84 -1.58 M0 0 C92.55 -0.6, 185.11 -1.2, 243.84 -1.58" stroke="black" stroke-width="1" fill="none"></path></g><g transform="translate(789.2023412054125 79.22718968288973) rotate(0 121.9217334425582 -0.7918244904863059)"><path d="M243.84 -1.58 L230.29 4.84 L230.21 -7.83 L243.84 -1.58" stroke="none" stroke-width="0" fill="black" fill-rule="evenodd"></path><path d="M243.84 -1.58 C238.45 0.98, 233.05 3.53, 230.29 4.84 M243.84 -1.58 C238.7 0.86, 233.55 3.3, 230.29 4.84 M230.29 4.84 C230.26 0.82, 230.24 -3.2, 230.21 -7.83 M230.29 4.84 C230.26 0.7, 230.24 -3.44, 230.21 -7.83 M230.21 -7.83 C235.28 -5.51, 240.35 -3.18, 243.84 -1.58 M230.21 -7.83 C235.26 -5.52, 240.31 -3.21, 243.84 -1.58 M243.84 -1.58 C243.84 -1.58, 243.84 -1.58, 243.84 -1.58 M243.84 -1.58 C243.84 -1.58, 243.84 -1.58, 243.84 -1.58" stroke="black" stroke-width="1" fill="none"></path></g></g><mask></mask><g transform="translate(462.81981265839386 39.75911013116729) rotate(0 19 16)"><text x="19" y="26" font-family="Helvetica, Segoe UI Emoji" font-size="28px" fill="black" text-anchor="middle" style="white-space: pre;" direction="ltr">No</text></g><g stroke-opacity="0.6" fill-opacity="0.6" stroke-linecap="round" transform="translate(1038.681102289469 38.083190542714874) rotate(0 91.29932856148332 41.95571091050215)"><path d="M0 0 L182.6 0 L182.6 83.91 L0 83.91" stroke="none" stroke-width="0" fill="#158bc2"></path><path d="M0 0 C59.98 0, 119.96 0, 182.6 0 M0 0 C46.08 0, 92.15 0, 182.6 0 M182.6 0 C182.6 29.4, 182.6 58.81, 182.6 83.91 M182.6 0 C182.6 20.53, 182.6 41.06, 182.6 83.91 M182.6 83.91 C140.98 83.91, 99.36 83.91, 0 83.91 M182.6 83.91 C144.38 83.91, 106.17 83.91, 0 83.91 M0 83.91 C0 63.27, 0 42.62, 0 0 M0 83.91 C0 59.67, 0 35.43, 0 0" stroke="#158bc2" stroke-width="1" fill="none"></path></g><g transform="translate(1054.144985239393 64.56274987094002) rotate(0 77.0205078125 16)"><text x="77.0205078125" y="26" font-family="Helvetica, Segoe UI Emoji" font-size="28px" fill="black" text-anchor="middle" style="white-space: pre;" direction="ltr">TCP listener</text></g><g stroke-linecap="round"><g stroke-opacity="0.6" fill-opacity="0.6" transform="translate(704.8093543328096 152.55295213861882) rotate(0 1.1010488805632122 71.01359381663474)"><path d="M0 0 C0.7 44.84, 1.39 89.68, 2.2 142.03 M0 0 C0.72 46.21, 1.43 92.42, 2.2 142.03" stroke="black" stroke-width="1" fill="none"></path></g><g stroke-opacity="0.6" fill-opacity="0.6" transform="translate(704.8093543328096 152.55295213861882) rotate(0 1.1010488805632122 71.01359381663474)"><path d="M2.2 142.03 L-4.35 128.53 L8.33 128.34 L2.2 142.03" stroke="none" stroke-width="0" fill="black" fill-rule="evenodd"></path><path d="M2.2 142.03 C0.13 137.77, -1.93 133.51, -4.35 128.53 M2.2 142.03 C0.07 137.64, -2.06 133.25, -4.35 128.53 M-4.35 128.53 C-0.48 128.47, 3.39 128.41, 8.33 128.34 M-4.35 128.53 C-0.25 128.47, 3.85 128.41, 8.33 128.34 M8.33 128.34 C6.51 132.4, 4.69 136.47, 2.2 142.03 M8.33 128.34 C7.02 131.27, 5.71 134.2, 2.2 142.03 M2.2 142.03 C2.2 142.03, 2.2 142.03, 2.2 142.03 M2.2 142.03 C2.2 142.03, 2.2 142.03, 2.2 142.03" stroke="black" stroke-width="1" fill="none"></path></g></g><mask></mask><g transform="translate(611.8611810454242 203.0394181640395) rotate(0 37.5 16)"><text x="37.5" y="26" font-family="Helvetica, Segoe UI Emoji" font-size="28px" fill="black" text-anchor="middle" style="white-space: pre;" direction="ltr">HTTP</text></g><g stroke-linecap="round" transform="translate(1114.4639370605814 648.5823994924076) rotate(0 120.52237498301207 75.43600053277407)"><path d="M0 0 L241.04 0 L241.04 150.87 L0 150.87" stroke="none" stroke-width="0" fill="white"></path><path d="M0 0 C69.33 0, 138.66 0, 241.04 0 M0 0 C73.45 0, 146.9 0, 241.04 0 M241.04 0 C241.04 34.89, 241.04 69.78, 241.04 150.87 M241.04 0 C241.04 57, 241.04 114, 241.04 150.87 M241.04 150.87 C186.16 150.87, 131.28 150.87, 0 150.87 M241.04 150.87 C150.71 150.87, 60.37 150.87, 0 150.87 M0 150.87 C0 104.39, 0 57.91, 0 0 M0 150.87 C0 104.9, 0 58.93, 0 0" stroke="#158bc2" stroke-width="1" fill="none"></path></g><g transform="translate(1133.3565263482517 661.5879201113157) rotate(0 103.55359649658203 64)"><text x="103.55359649658203" y="26" font-family="Helvetica, Segoe UI Emoji" font-size="28.231799708339754px" fill="black" text-anchor="middle" style="white-space: pre;" direction="ltr">TLS termination </text><text x="103.55359649658203" y="58" font-family="Helvetica, Segoe UI Emoji" font-size="28.231799708339754px" fill="black" text-anchor="middle" style="white-space: pre;" direction="ltr">and </text><text x="103.55359649658203" y="90" font-family="Helvetica, Segoe UI Emoji" font-size="28.231799708339754px" fill="black" text-anchor="middle" style="white-space: pre;" direction="ltr">origination at</text><text x="103.55359649658203" y="122" font-family="Helvetica, Segoe UI Emoji" font-size="28.231799708339754px" fill="black" text-anchor="middle" style="white-space: pre;" direction="ltr">the gateway?</text></g><g stroke-linecap="round"><g stroke-opacity="0.6" fill-opacity="0.6" transform="translate(1237.4215870071466 800.8564211794501) rotate(0 1.5150171451704182 72.94969682794795)"><path d="M0 0 C0.96 46.29, 1.92 92.59, 3.03 145.9 M0 0 C0.99 47.65, 1.98 95.29, 3.03 145.9" stroke="black" stroke-width="1" fill="none"></path></g><g stroke-opacity="0.6" fill-opacity="0.6" transform="translate(1237.4215870071466 800.8564211794501) rotate(0 1.5150171451704182 72.94969682794795)"><path d="M3.03 145.9 L-3.59 132.44 L9.09 132.18 L3.03 145.9" stroke="none" stroke-width="0" fill="black" fill-rule="evenodd"></path><path d="M3.03 145.9 C0.93 141.63, -1.17 137.36, -3.59 132.44 M3.03 145.9 C0.87 141.5, -1.29 137.11, -3.59 132.44 M-3.59 132.44 C1.12 132.34, 5.84 132.24, 9.09 132.18 M-3.59 132.44 C1.1 132.34, 5.8 132.24, 9.09 132.18 M9.09 132.18 C7 136.91, 4.91 141.64, 3.03 145.9 M9.09 132.18 C7.61 135.51, 6.14 138.85, 3.03 145.9 M3.03 145.9 C3.03 145.9, 3.03 145.9, 3.03 145.9 M3.03 145.9 C3.03 145.9, 3.03 145.9, 3.03 145.9" stroke="black" stroke-width="1" fill="none"></path></g></g><mask></mask><g transform="translate(1261.0860109024657 842.1147650264725) rotate(0 98.8203125 32)"><text x="98.8203125" y="26" font-family="Helvetica, Segoe UI Emoji" font-size="28px" fill="black" text-anchor="middle" style="white-space: pre;" direction="ltr">TLS termination</text><text x="98.8203125" y="58" font-family="Helvetica, Segoe UI Emoji" font-size="28px" fill="black" text-anchor="middle" style="white-space: pre;" direction="ltr"> only</text></g><g transform="translate(1243.2469539092394 510.74531706203516) rotate(0 73.14453125 48)"><text x="73.14453125" y="26" font-family="Helvetica, Segoe UI Emoji" font-size="28px" fill="black" text-anchor="middle" style="white-space: pre;" direction="ltr">No TLS</text><text x="73.14453125" y="58" font-family="Helvetica, Segoe UI Emoji" font-size="28px" fill="black" text-anchor="middle" style="white-space: pre;" direction="ltr"> termination</text><text x="73.14453125" y="90" font-family="Helvetica, Segoe UI Emoji" font-size="28px" fill="black" text-anchor="middle" style="white-space: pre;" direction="ltr"> required</text></g><g stroke-opacity="0.6" fill-opacity="0.6" stroke-linecap="round" transform="translate(1118.9644063741825 383.216428407849) rotate(0 118.36662369681062 41.95571091050215)"><path d="M0 0 L236.73 0 L236.73 83.91 L0 83.91" stroke="none" stroke-width="0" fill="#158bc2"></path><path d="M0 0 C72.14 0, 144.27 0, 236.73 0 M0 0 C54.75 0, 109.49 0, 236.73 0 M236.73 0 C236.73 31.7, 236.73 63.4, 236.73 83.91 M236.73 0 C236.73 19.11, 236.73 38.21, 236.73 83.91 M236.73 83.91 C148.01 83.91, 59.29 83.91, 0 83.91 M236.73 83.91 C163.8 83.91, 90.87 83.91, 0 83.91 M0 83.91 C0 58.34, 0 32.77, 0 0 M0 83.91 C0 62.56, 0 41.22, 0 0" stroke="#158bc2" stroke-width="1" fill="none"></path></g><g transform="translate(1131.4065400048862 393.9924816820012) rotate(0 106.6201171875 32)"><text x="106.6201171875" y="26" font-family="Helvetica, Segoe UI Emoji" font-size="28px" fill="black" text-anchor="middle" style="white-space: pre;" direction="ltr">TLS passthrough</text><text x="106.6201171875" y="58" font-family="Helvetica, Segoe UI Emoji" font-size="28px" fill="black" text-anchor="middle" style="white-space: pre;" direction="ltr">listener</text></g><g stroke-linecap="round"><g transform="translate(1229.9272411942918 644.3255919315952) rotate(0 0.4304918846825103 -86.18032636067096)"><path d="M0 0 C0.28 -56.29, 0.56 -112.58, 0.86 -172.36 M0 0 C0.32 -64.11, 0.64 -128.22, 0.86 -172.36" stroke="black" stroke-width="1" fill="none"></path></g><g transform="translate(1229.9272411942918 644.3255919315952) rotate(0 0.4304918846825103 -86.18032636067096)"><path d="M0.86 -172.36 L7.13 -158.73 L-5.55 -158.8 L0.86 -172.36" stroke="none" stroke-width="0" fill="black" fill-rule="evenodd"></path><path d="M0.86 -172.36 C2.91 -167.91, 4.96 -163.46, 7.13 -158.73 M0.86 -172.36 C3.19 -167.29, 5.53 -162.22, 7.13 -158.73 M7.13 -158.73 C2.44 -158.76, -2.26 -158.78, -5.55 -158.8 M7.13 -158.73 C2.76 -158.76, -1.61 -158.78, -5.55 -158.8 M-5.55 -158.8 C-3.99 -162.1, -2.43 -165.4, 0.86 -172.36 M-5.55 -158.8 C-4.14 -161.77, -2.74 -164.75, 0.86 -172.36 M0.86 -172.36 C0.86 -172.36, 0.86 -172.36, 0.86 -172.36 M0.86 -172.36 C0.86 -172.36, 0.86 -172.36, 0.86 -172.36" stroke="black" stroke-width="1" fill="none"></path></g></g><mask></mask><g stroke-linecap="round"><g transform="translate(1356.0229203640001 1052.8069407936455) rotate(0 -4.8638161630401555 -3.188842778226899)"><path d="M0 0 C-2.38 -1.56, -4.76 -3.12, -9.73 -6.38 M0 0 C-2.22 -1.45, -4.43 -2.91, -9.73 -6.38" stroke="black" stroke-width="1" fill="none"></path></g><g transform="translate(1356.0229203640001 1052.8069407936455) rotate(0 -4.8638161630401555 -3.188842778226899)"><path d="M-9.73 -6.38 L-3.97 -5.54 L-6.67 -1.43 L-9.73 -6.38" stroke="none" stroke-width="0" fill="black" fill-rule="evenodd"></path><path d="M-9.73 -6.38 C-8.32 -6.17, -6.91 -5.97, -3.97 -5.54 M-9.73 -6.38 C-8.42 -6.19, -7.1 -6, -3.97 -5.54 M-3.97 -5.54 C-4.54 -4.68, -5.1 -3.82, -6.67 -1.43 M-3.97 -5.54 C-4.64 -4.53, -5.3 -3.52, -6.67 -1.43 M-6.67 -1.43 C-7.55 -2.86, -8.44 -4.29, -9.73 -6.38 M-6.67 -1.43 C-7.48 -2.75, -8.29 -4.06, -9.73 -6.38 M-9.73 -6.38 C-9.73 -6.38, -9.73 -6.38, -9.73 -6.38 M-9.73 -6.38 C-9.73 -6.38, -9.73 -6.38, -9.73 -6.38" stroke="black" stroke-width="1" fill="none"></path></g></g><mask></mask><g stroke-opacity="0.6" fill-opacity="0.6" stroke-linecap="round" transform="translate(1887.6760981420643 655.2593403853898) rotate(0 118.02108375891294 67.57941697194553)"><path d="M0 0 L236.04 0 L236.04 135.16 L0 135.16" stroke="none" stroke-width="0" fill="#158bc2"></path><path d="M0 0 C54.59 0, 109.17 0, 236.04 0 M0 0 C89.17 0, 178.35 0, 236.04 0 M236.04 0 C236.04 30.77, 236.04 61.55, 236.04 135.16 M236.04 0 C236.04 50.65, 236.04 101.31, 236.04 135.16 M236.04 135.16 C163.32 135.16, 90.6 135.16, 0 135.16 M236.04 135.16 C164.12 135.16, 92.19 135.16, 0 135.16 M0 135.16 C0 100.77, 0 66.39, 0 0 M0 135.16 C0 99.56, 0 63.96, 0 0" stroke="#158bc2" stroke-width="1" fill="none"></path></g><g transform="translate(1911.0957130041147 675.0200751069087) rotate(0 98.7998046875 48)"><text x="98.7998046875" y="26" font-family="Helvetica, Segoe UI Emoji" font-size="28px" fill="black" text-anchor="middle" style="white-space: pre;" direction="ltr">HTTPS listener </text><text x="98.7998046875" y="58" font-family="Helvetica, Segoe UI Emoji" font-size="28px" fill="black" text-anchor="middle" style="white-space: pre;" direction="ltr">with client TLS</text><text x="98.7998046875" y="90" font-family="Helvetica, Segoe UI Emoji" font-size="28px" fill="black" text-anchor="middle" style="white-space: pre;" direction="ltr">policy</text></g><g stroke-opacity="0.6" fill-opacity="0.6" stroke-linecap="round" transform="translate(1131.2198105968862 957.9156452694137) rotate(0 109.57071261099026 41.95571091050215)"><path d="M0 0 L219.14 0 L219.14 83.91 L0 83.91" stroke="none" stroke-width="0" fill="#158bc2"></path><path d="M0 0 C81.51 0, 163.02 0, 219.14 0 M0 0 C81.15 0, 162.29 0, 219.14 0 M219.14 0 C219.14 28.93, 219.14 57.86, 219.14 83.91 M219.14 0 C219.14 20.41, 219.14 40.82, 219.14 83.91 M219.14 83.91 C171.07 83.91, 123.01 83.91, 0 83.91 M219.14 83.91 C150.21 83.91, 81.27 83.91, 0 83.91 M0 83.91 C0 58.33, 0 32.74, 0 0 M0 83.91 C0 61.65, 0 39.39, 0 0" stroke="#158bc2" stroke-width="1" fill="none"></path></g><g transform="translate(1146.1724507775587 985.743281935986) rotate(0 94.91015625 16)"><text x="94.91015625" y="26" font-family="Helvetica, Segoe UI Emoji" font-size="28px" fill="black" text-anchor="middle" style="white-space: pre;" direction="ltr">HTTPS listener</text></g><g stroke-linecap="round"><g transform="translate(1356.391818995527 720.4204238037591) rotate(0 257.90704000370374 1.1334997404117075)"><path d="M0 0 C148.94 0.65, 297.89 1.31, 515.81 2.27 M0 0 C144.24 0.63, 288.48 1.27, 515.81 2.27" stroke="black" stroke-width="1" fill="none"></path></g><g transform="translate(1356.391818995527 720.4204238037591) rotate(0 257.90704000370374 1.1334997404117075)"><path d="M515.81 2.27 L502.19 8.55 L502.25 -4.13 L515.81 2.27" stroke="none" stroke-width="0" fill="black" fill-rule="evenodd"></path><path d="M515.81 2.27 C511.88 4.08, 507.95 5.89, 502.19 8.55 M515.81 2.27 C512 4.02, 508.2 5.78, 502.19 8.55 M502.19 8.55 C502.21 4.21, 502.23 -0.12, 502.25 -4.13 M502.19 8.55 C502.2 5.98, 502.21 3.4, 502.25 -4.13 M502.25 -4.13 C506.83 -1.97, 511.42 0.19, 515.81 2.27 M502.25 -4.13 C507.55 -1.63, 512.85 0.87, 515.81 2.27 M515.81 2.27 C515.81 2.27, 515.81 2.27, 515.81 2.27 M515.81 2.27 C515.81 2.27, 515.81 2.27, 515.81 2.27" stroke="black" stroke-width="1" fill="none"></path></g></g><mask></mask><g stroke-opacity="0.6" fill-opacity="0.6" stroke-linecap="round" transform="translate(20.362700190324176 65.82040666589) rotate(0 24.584469574461764 24.584469574461764)"><path d="M49.17 24.58 C49.17 26.01, 49.04 27.45, 48.8 28.85 C48.55 30.25, 48.17 31.66, 47.69 32.99 C47.2 34.33, 46.59 35.64, 45.88 36.88 C45.16 38.11, 44.33 39.3, 43.42 40.39 C42.5 41.48, 41.48 42.5, 40.39 43.42 C39.3 44.33, 38.11 45.16, 36.88 45.88 C35.64 46.59, 34.33 47.2, 32.99 47.69 C31.66 48.17, 30.25 48.55, 28.85 48.8 C27.45 49.04, 26.01 49.17, 24.58 49.17 C23.16 49.17, 21.72 49.04, 20.32 48.8 C18.91 48.55, 17.51 48.17, 16.18 47.69 C14.84 47.2, 13.52 46.59, 12.29 45.88 C11.06 45.16, 9.87 44.33, 8.78 43.42 C7.69 42.5, 6.67 41.48, 5.75 40.39 C4.84 39.3, 4.01 38.11, 3.29 36.88 C2.58 35.64, 1.97 34.33, 1.48 32.99 C1 31.66, 0.62 30.25, 0.37 28.85 C0.13 27.45, 0 26.01, 0 24.58 C0 23.16, 0.13 21.72, 0.37 20.32 C0.62 18.91, 1 17.51, 1.48 16.18 C1.97 14.84, 2.58 13.52, 3.29 12.29 C4.01 11.06, 4.84 9.87, 5.75 8.78 C6.67 7.69, 7.69 6.67, 8.78 5.75 C9.87 4.84, 11.06 4.01, 12.29 3.29 C13.52 2.58, 14.84 1.97, 16.18 1.48 C17.51 1, 18.91 0.62, 20.32 0.37 C21.72 0.13, 23.16 0, 24.58 0 C26.01 0, 27.45 0.13, 28.85 0.37 C30.25 0.62, 31.66 1, 32.99 1.48 C34.33 1.97, 35.64 2.58, 36.88 3.29 C38.11 4.01, 39.3 4.84, 40.39 5.75 C41.48 6.67, 42.5 7.69, 43.42 8.78 C44.33 9.87, 45.16 11.06, 45.88 12.29 C46.59 13.52, 47.2 14.84, 47.69 16.18 C48.17 17.51, 48.55 18.91, 48.8 20.32 C49.04 21.72, 49.11 23.87, 49.17 24.58 C49.23 25.3, 49.23 23.87, 49.17 24.58" stroke="none" stroke-width="0" fill="#158bc2"></path><path d="M49.17 24.58 C49.17 26.01, 49.04 27.45, 48.8 28.85 C48.55 30.25, 48.17 31.66, 47.69 32.99 C47.2 34.33, 46.59 35.64, 45.88 36.88 C45.16 38.11, 44.33 39.3, 43.42 40.39 C42.5 41.48, 41.48 42.5, 40.39 43.42 C39.3 44.33, 38.11 45.16, 36.88 45.88 C35.64 46.59, 34.33 47.2, 32.99 47.69 C31.66 48.17, 30.25 48.55, 28.85 48.8 C27.45 49.04, 26.01 49.17, 24.58 49.17 C23.16 49.17, 21.72 49.04, 20.32 48.8 C18.91 48.55, 17.51 48.17, 16.18 47.69 C14.84 47.2, 13.52 46.59, 12.29 45.88 C11.06 45.16, 9.87 44.33, 8.78 43.42 C7.69 42.5, 6.67 41.48, 5.75 40.39 C4.84 39.3, 4.01 38.11, 3.29 36.88 C2.58 35.64, 1.97 34.33, 1.48 32.99 C1 31.66, 0.62 30.25, 0.37 28.85 C0.13 27.45, 0 26.01, 0 24.58 C0 23.16, 0.13 21.72, 0.37 20.32 C0.62 18.91, 1 17.51, 1.48 16.18 C1.97 14.84, 2.58 13.52, 3.29 12.29 C4.01 11.06, 4.84 9.87, 5.75 8.78 C6.67 7.69, 7.69 6.67, 8.78 5.75 C9.87 4.84, 11.06 4.01, 12.29 3.29 C13.52 2.58, 14.84 1.97, 16.18 1.48 C17.51 1, 18.91 0.62, 20.32 0.37 C21.72 0.13, 23.16 0, 24.58 0 C26.01 0, 27.45 0.13, 28.85 0.37 C30.25 0.62, 31.66 1, 32.99 1.48 C34.33 1.97, 35.64 2.58, 36.88 3.29 C38.11 4.01, 39.3 4.84, 40.39 5.75 C41.48 6.67, 42.5 7.69, 43.42 8.78 C44.33 9.87, 45.16 11.06, 45.88 12.29 C46.59 13.52, 47.2 14.84, 47.69 16.18 C48.17 17.51, 48.55 18.91, 48.8 20.32 C49.04 21.72, 49.11 23.87, 49.17 24.58 C49.23 25.3, 49.23 23.87, 49.17 24.58" stroke="black" stroke-width="1" fill="none"></path></g><g stroke-linecap="round"><g transform="translate(73.95132158175034 92.28366021274314) rotate(0 37.88594159450156 -0.3337042011282847)"><path d="M0 0 C30.2 -0.27, 60.4 -0.53, 75.77 -0.67 M0 0 C28.42 -0.25, 56.85 -0.5, 75.77 -0.67" stroke="black" stroke-width="1" fill="none"></path></g><g transform="translate(73.95132158175034 92.28366021274314) rotate(0 37.88594159450156 -0.3337042011282847)"><path d="M75.77 -0.67 L62.23 5.79 L62.12 -6.89 L75.77 -0.67" stroke="none" stroke-width="0" fill="black" fill-rule="evenodd"></path><path d="M75.77 -0.67 C70.38 1.91, 64.98 4.48, 62.23 5.79 M75.77 -0.67 C70.69 1.76, 65.61 4.18, 62.23 5.79 M62.23 5.79 C62.2 2.2, 62.17 -1.39, 62.12 -6.89 M62.23 5.79 C62.21 2.72, 62.18 -0.34, 62.12 -6.89 M62.12 -6.89 C66.07 -5.09, 70.02 -3.29, 75.77 -0.67 M62.12 -6.89 C67.12 -4.61, 72.13 -2.33, 75.77 -0.67 M75.77 -0.67 C75.77 -0.67, 75.77 -0.67, 75.77 -0.67 M75.77 -0.67 C75.77 -0.67, 75.77 -0.67, 75.77 -0.67" stroke="black" stroke-width="1" fill="none"></path></g></g><mask></mask><g transform="translate(10 20.004780982242664) rotate(0 29.5654296875 16)"><text x="29.5654296875" y="26" font-family="Helvetica, Segoe UI Emoji" font-size="28px" fill="black" text-anchor="middle" style="white-space: pre;" direction="ltr">Start</text></g><g stroke-linecap="round" transform="translate(137.43156048874243 651.7917676636562) rotate(0 124.45769094240357 73.5516650005593)"><path d="M0 0 L248.92 0 L248.92 147.1 L0 147.1" stroke="none" stroke-width="0" fill="white"></path><path d="M0 0 C55.72 0, 111.44 0, 248.92 0 M0 0 C83.63 0, 167.25 0, 248.92 0 M248.92 0 C248.92 57.33, 248.92 114.67, 248.92 147.1 M248.92 0 C248.92 52.85, 248.92 105.69, 248.92 147.1 M248.92 147.1 C196.26 147.1, 143.61 147.1, 0 147.1 M248.92 147.1 C195.77 147.1, 142.62 147.1, 0 147.1 M0 147.1 C0 90.1, 0 33.09, 0 0 M0 147.1 C0 108.02, 0 68.94, 0 0" stroke="#158bc2" stroke-width="1" fill="none"></path></g><g transform="translate(146.81148265897014 661.4033182258809) rotate(0 112.84765625 64)"><text x="112.84765625" y="26" font-family="Helvetica, Segoe UI Emoji" font-size="28px" fill="black" text-anchor="middle" style="white-space: pre;" direction="ltr">Require client and</text><text x="112.84765625" y="58" font-family="Helvetica, Segoe UI Emoji" font-size="28px" fill="black" text-anchor="middle" style="white-space: pre;" direction="ltr">server to do</text><text x="112.84765625" y="90" font-family="Helvetica, Segoe UI Emoji" font-size="28px" fill="black" text-anchor="middle" style="white-space: pre;" direction="ltr">mutual </text><text x="112.84765625" y="122" font-family="Helvetica, Segoe UI Emoji" font-size="28px" fill="black" text-anchor="middle" style="white-space: pre;" direction="ltr">authentication?</text></g><g stroke-opacity="0.6" fill-opacity="0.6" stroke-linecap="round" transform="translate(168.8711159903446 1208.889109677972) rotate(0 91.29932856148334 41.95571091050215)"><path d="M0 0 L182.6 0 L182.6 83.91 L0 83.91" stroke="none" stroke-width="0" fill="#158bc2"></path><path d="M0 0 C47.4 0, 94.81 0, 182.6 0 M0 0 C55.43 0, 110.87 0, 182.6 0 M182.6 0 C182.6 27.44, 182.6 54.88, 182.6 83.91 M182.6 0 C182.6 28.32, 182.6 56.64, 182.6 83.91 M182.6 83.91 C124.67 83.91, 66.75 83.91, 0 83.91 M182.6 83.91 C113 83.91, 43.4 83.91, 0 83.91 M0 83.91 C0 56.14, 0 28.36, 0 0 M0 83.91 C0 57.77, 0 31.63, 0 0" stroke="#158bc2" stroke-width="1" fill="none"></path></g><g transform="translate(174.81005949228984 1233.8732468516505) rotate(0 86.3583984375 16)"><text x="86.3583984375" y="26" font-family="Helvetica, Segoe UI Emoji" font-size="28px" fill="black" text-anchor="middle" style="white-space: pre;" direction="ltr">mTLS listener</text></g><g stroke-linecap="round"><g stroke-opacity="0.6" fill-opacity="0.6" transform="translate(264.66275344451174 801.5430786726165) rotate(0 -0.25963463200974957 70.14844672589606)"><path d="M0 0 C-0.16 43.11, -0.32 86.22, -0.52 140.3 M0 0 C-0.14 36.84, -0.27 73.68, -0.52 140.3" stroke="black" stroke-width="1" fill="none"></path></g><g stroke-opacity="0.6" fill-opacity="0.6" transform="translate(264.66275344451174 801.5430786726165) rotate(0 -0.25963463200974957 70.14844672589606)"><path d="M-0.52 140.3 L-6.81 126.68 L5.87 126.73 L-0.52 140.3" stroke="none" stroke-width="0" fill="black" fill-rule="evenodd"></path><path d="M-0.52 140.3 C-2.45 136.11, -4.38 131.93, -6.81 126.68 M-0.52 140.3 C-2.17 136.72, -3.82 133.15, -6.81 126.68 M-6.81 126.68 C-2.59 126.69, 1.64 126.71, 5.87 126.73 M-6.81 126.68 C-3.84 126.69, -0.86 126.7, 5.87 126.73 M5.87 126.73 C3.4 131.97, 0.93 137.22, -0.52 140.3 M5.87 126.73 C3.35 132.08, 0.83 137.44, -0.52 140.3 M-0.52 140.3 C-0.52 140.3, -0.52 140.3, -0.52 140.3 M-0.52 140.3 C-0.52 140.3, -0.52 140.3, -0.52 140.3" stroke="black" stroke-width="1" fill="none"></path></g></g><mask></mask><g transform="translate(201.47753101404237 857.0544884868887) rotate(0 22.8388671875 16)"><text x="22.8388671875" y="26" font-family="Helvetica, Segoe UI Emoji" font-size="28px" fill="black" text-anchor="middle" style="white-space: pre;" direction="ltr">Yes</text></g><g stroke-linecap="round"><g stroke-opacity="0.6" fill-opacity="0.6" transform="translate(387.0482245332289 726.4162599707256) rotate(0 356.74365095803 -0.7320919416799825)"><path d="M0 0 C199.52 -0.41, 399.03 -0.82, 713.49 -1.46 M0 0 C243.94 -0.5, 487.89 -1, 713.49 -1.46" stroke="black" stroke-width="1" fill="none"></path></g><g stroke-opacity="0.6" fill-opacity="0.6" transform="translate(387.0482245332289 726.4162599707256) rotate(0 356.74365095803 -0.7320919416799825)"><path d="M713.49 -1.46 L699.91 4.9 L699.88 -7.78 L713.49 -1.46" stroke="none" stroke-width="0" fill="black" fill-rule="evenodd"></path><path d="M713.49 -1.46 C709.69 0.32, 705.89 2.1, 699.91 4.9 M713.49 -1.46 C708.84 0.71, 704.2 2.89, 699.91 4.9 M699.91 4.9 C699.9 2.33, 699.9 -0.24, 699.88 -7.78 M699.91 4.9 C699.9 0.62, 699.89 -3.67, 699.88 -7.78 M699.88 -7.78 C705.2 -5.31, 710.52 -2.84, 713.49 -1.46 M699.88 -7.78 C704.59 -5.59, 709.29 -3.41, 713.49 -1.46 M713.49 -1.46 C713.49 -1.46, 713.49 -1.46, 713.49 -1.46 M713.49 -1.46 C713.49 -1.46, 713.49 -1.46, 713.49 -1.46" stroke="black" stroke-width="1" fill="none"></path></g></g><mask></mask><g stroke-linecap="round" transform="translate(148.05001059795336 948.6347981460226) rotate(0 118.49520734734494 64.22898854695563)"><path d="M0 0 L236.99 0 L236.99 128.46 L0 128.46" stroke="none" stroke-width="0" fill="white"></path><path d="M0 0 C53.96 0, 107.92 0, 236.99 0 M0 0 C88.82 0, 177.63 0, 236.99 0 M236.99 0 C236.99 39.58, 236.99 79.15, 236.99 128.46 M236.99 0 C236.99 39.14, 236.99 78.29, 236.99 128.46 M236.99 128.46 C176.7 128.46, 116.41 128.46, 0 128.46 M236.99 128.46 C174.57 128.46, 112.14 128.46, 0 128.46 M0 128.46 C0 86.79, 0 45.12, 0 0 M0 128.46 C0 88.85, 0 49.24, 0 0" stroke="#158bc2" stroke-width="1" fill="none"></path></g><g transform="translate(168.41982465373735 964.4452994348576) rotate(0 98.8203125 48)"><text x="98.8203125" y="26" font-family="Helvetica, Segoe UI Emoji" font-size="28px" fill="black" text-anchor="middle" style="white-space: pre;" direction="ltr">TLS termination</text><text x="98.8203125" y="58" font-family="Helvetica, Segoe UI Emoji" font-size="28px" fill="black" text-anchor="middle" style="white-space: pre;" direction="ltr">and </text><text x="98.8203125" y="90" font-family="Helvetica, Segoe UI Emoji" font-size="28px" fill="black" text-anchor="middle" style="white-space: pre;" direction="ltr">origination? </text></g><g stroke-linecap="round"><g stroke-opacity="0.6" fill-opacity="0.6" transform="translate(267.52759112572505 1068.0772294364) rotate(0 0.4218554971387789 64.95766899214232)"><path d="M0 0 C0.29 44.79, 0.58 89.59, 0.84 129.92 M0 0 C0.21 31.6, 0.41 63.2, 0.84 129.92" stroke="black" stroke-width="1" fill="none"></path></g><g stroke-opacity="0.6" fill-opacity="0.6" transform="translate(267.52759112572505 1068.0772294364) rotate(0 0.4218554971387789 64.95766899214232)"><path d="M0.84 129.92 L-5.58 116.36 L7.09 116.28 L0.84 129.92" stroke="none" stroke-width="0" fill="black" fill-rule="evenodd"></path><path d="M0.84 129.92 C-1.37 125.24, -3.59 120.57, -5.58 116.36 M0.84 129.92 C-0.72 126.62, -2.28 123.32, -5.58 116.36 M-5.58 116.36 C-2.8 116.34, -0.02 116.33, 7.09 116.28 M-5.58 116.36 C-1.6 116.34, 2.39 116.31, 7.09 116.28 M7.09 116.28 C5.19 120.44, 3.28 124.6, 0.84 129.92 M7.09 116.28 C5.44 119.9, 3.78 123.51, 0.84 129.92 M0.84 129.92 C0.84 129.92, 0.84 129.92, 0.84 129.92 M0.84 129.92 C0.84 129.92, 0.84 129.92, 0.84 129.92" stroke="black" stroke-width="1" fill="none"></path></g></g><mask></mask><g transform="translate(50.84318700717904 1101.9114650045071) rotate(0 98.8203125 32)"><text x="98.8203125" y="26" font-family="Helvetica, Segoe UI Emoji" font-size="28px" fill="black" text-anchor="middle" style="white-space: pre;" direction="ltr">TLS termination</text><text x="98.8203125" y="58" font-family="Helvetica, Segoe UI Emoji" font-size="28px" fill="black" text-anchor="middle" style="white-space: pre;" direction="ltr">only </text></g><g transform="translate(735.019232157307 674.8474399007364) rotate(0 17.896484375 16)"><text x="17.896484375" y="26" font-family="Helvetica, Segoe UI Emoji" font-size="28px" fill="black" text-anchor="middle" style="white-space: pre;" direction="ltr">No</text></g><g stroke-linecap="round"><g transform="translate(389.10546956271423 1023.0807785586094) rotate(0 134.31078311820363 -0.6707318388353087)"><path d="M0 0 C81.55 -0.41, 163.1 -0.81, 268.62 -1.34 M0 0 C87.84 -0.44, 175.68 -0.88, 268.62 -1.34" stroke="black" stroke-width="1" fill="none"></path></g><g transform="translate(389.10546956271423 1023.0807785586094) rotate(0 134.31078311820363 -0.6707318388353087)"><path d="M268.62 -1.34 L255.06 5.07 L255 -7.61 L268.62 -1.34" stroke="none" stroke-width="0" fill="black" fill-rule="evenodd"></path><path d="M268.62 -1.34 C264.5 0.6, 260.39 2.55, 255.06 5.07 M268.62 -1.34 C264.19 0.75, 259.75 2.85, 255.06 5.07 M255.06 5.07 C255.04 0.79, 255.02 -3.49, 255 -7.61 M255.06 5.07 C255.04 1.04, 255.02 -2.98, 255 -7.61 M255 -7.61 C260.19 -5.22, 265.38 -2.83, 268.62 -1.34 M255 -7.61 C259.51 -5.54, 264.02 -3.46, 268.62 -1.34 M268.62 -1.34 C268.62 -1.34, 268.62 -1.34, 268.62 -1.34 M268.62 -1.34 C268.62 -1.34, 268.62 -1.34, 268.62 -1.34" stroke="black" stroke-width="1" fill="none"></path></g></g><mask></mask><g transform="translate(424.0517002584877 935.5539374021932) rotate(0 98.8203125 32)"><text x="98.8203125" y="26" font-family="Helvetica, Segoe UI Emoji" font-size="28px" fill="black" text-anchor="middle" style="white-space: pre;" direction="ltr">TLS termination</text><text x="98.8203125" y="58" font-family="Helvetica, Segoe UI Emoji" font-size="28px" fill="black" text-anchor="middle" style="white-space: pre;" direction="ltr">and origination </text></g><g stroke-opacity="0.6" fill-opacity="0.6" stroke-linecap="round" transform="translate(667.7746775306912 956.285119935998) rotate(0 138.41945809281304 55.938560397432866)"><path d="M0 0 L276.84 0 L276.84 111.88 L0 111.88" stroke="none" stroke-width="0" fill="#158bc2"></path><path d="M0 0 C67.45 0, 134.9 0, 276.84 0 M0 0 C82.88 0, 165.76 0, 276.84 0 M276.84 0 C276.84 28.95, 276.84 57.91, 276.84 111.88 M276.84 0 C276.84 31.51, 276.84 63.01, 276.84 111.88 M276.84 111.88 C195.76 111.88, 114.69 111.88, 0 111.88 M276.84 111.88 C169.22 111.88, 61.6 111.88, 0 111.88 M0 111.88 C0 88.6, 0 65.33, 0 0 M0 111.88 C0 78.36, 0 44.84, 0 0" stroke="#158bc2" stroke-width="1" fill="none"></path></g><g transform="translate(688.6421296968513 979.3953606376976) rotate(0 115.14453125 32)"><text x="115.14453125" y="26" font-family="Helvetica, Segoe UI Emoji" font-size="28px" fill="black" text-anchor="middle" style="white-space: pre;" direction="ltr">mTLS listener with</text><text x="115.14453125" y="58" font-family="Helvetica, Segoe UI Emoji" font-size="28px" fill="black" text-anchor="middle" style="white-space: pre;" direction="ltr">client TLS policy</text></g><g transform="translate(1481.4973505068037 602.0575160015896) rotate(0 129.9580078125 48)"><text x="129.9580078125" y="26" font-family="Helvetica, Segoe UI Emoji" font-size="28px" fill="black" text-anchor="middle" style="white-space: pre;" direction="ltr">TLS termination and </text><text x="129.9580078125" y="58" font-family="Helvetica, Segoe UI Emoji" font-size="28px" fill="black" text-anchor="middle" style="white-space: pre;" direction="ltr">origination</text><text x="129.9580078125" y="90" font-family="Helvetica, Segoe UI Emoji" font-size="28px" fill="black" text-anchor="middle" style="white-space: pre;" direction="ltr">to destination</text></g><g stroke-linecap="round" transform="translate(572.7892293477441 12.922833640879162) rotate(0 127.60021870396864 66.05520191255187)"><path d="M0 0 L255.2 0 L255.2 132.11 L0 132.11" stroke="none" stroke-width="0" fill="white"></path><path d="M0 0 C81.05 0, 162.11 0, 255.2 0 M0 0 C56.03 0, 112.06 0, 255.2 0 M255.2 0 C255.2 45.67, 255.2 91.33, 255.2 132.11 M255.2 0 C255.2 40.03, 255.2 80.06, 255.2 132.11 M255.2 132.11 C200.73 132.11, 146.26 132.11, 0 132.11 M255.2 132.11 C192.59 132.11, 129.97 132.11, 0 132.11 M0 132.11 C0 84.77, 0 37.43, 0 0 M0 132.11 C0 85.96, 0 39.8, 0 0" stroke="#158bc2" stroke-width="1" fill="none"></path></g><g transform="translate(619.2371207268709 61.462336741303716) rotate(0 82.49609375 16)"><text x="82.49609375" y="26" font-family="Helvetica, Segoe UI Emoji" font-size="28px" fill="black" text-anchor="middle" style="white-space: pre;" direction="ltr">Type of client</text></g><g stroke-opacity="0.6" fill-opacity="0.6" stroke-linecap="round" transform="translate(604.9589975660297 296.5765686611917) rotate(0 91.29932856148334 41.95571091050215)"><path d="M0 0 L182.6 0 L182.6 83.91 L0 83.91" stroke="none" stroke-width="0" fill="#158bc2"></path><path d="M0 0 C49.09 0, 98.19 0, 182.6 0 M0 0 C70.21 0, 140.42 0, 182.6 0 M182.6 0 C182.6 25.09, 182.6 50.18, 182.6 83.91 M182.6 0 C182.6 32.41, 182.6 64.83, 182.6 83.91 M182.6 83.91 C137.21 83.91, 91.83 83.91, 0 83.91 M182.6 83.91 C144.09 83.91, 105.59 83.91, 0 83.91 M0 83.91 C0 58.08, 0 32.25, 0 0 M0 83.91 C0 53.79, 0 23.66, 0 0" stroke="#158bc2" stroke-width="1" fill="none"></path></g><g transform="translate(611.6763952151882 321.4455258555695) rotate(0 85.572265625 16)"><text x="85.572265625" y="26" font-family="Helvetica, Segoe UI Emoji" font-size="28px" fill="black" text-anchor="middle" style="white-space: pre;" direction="ltr">HTTP listener</text></g></svg>