<svg version="1.1" xmlns="http://www.w3.org/2000/svg" viewBox="0 0 1069.3213214341795 685.4255751572036" width="1069.3213214341795" height="685.4255751572036">
  <!-- svg-source:excalidraw -->
  
  <defs>
    <style class="style-fonts">
      
    </style>
    
  </defs>
  <rect x="0" y="0" width="1069.3213214341795" height="685.4255751572036" fill="#ffffff"></rect><g stroke-linecap="round" transform="translate(457.0920348257914 169.29920581547958) rotate(0 113.44054308978048 40.788186343538655)"><path d="M20.39 0 C83.8 0, 147.21 0, 206.49 0 C220.08 0, 226.88 6.8, 226.88 20.39 C226.88 34.52, 226.88 48.66, 226.88 61.18 C226.88 74.78, 220.08 81.58, 206.49 81.58 C133.06 81.58, 59.62 81.58, 20.39 81.58 C6.8 81.58, 0 74.78, 0 61.18 C0 45.2, 0 29.22, 0 20.39 C0 6.8, 6.8 0, 20.39 0" stroke="none" stroke-width="0" fill="#ffffff"></path><path d="M20.39 0 C75.38 0, 130.36 0, 206.49 0 M20.39 0 C93.6 0, 166.8 0, 206.49 0 M206.49 0 C220.08 0, 226.88 6.8, 226.88 20.39 M206.49 0 C220.08 0, 226.88 6.8, 226.88 20.39 M226.88 20.39 C226.88 36.31, 226.88 52.23, 226.88 61.18 M226.88 20.39 C226.88 32.16, 226.88 43.92, 226.88 61.18 M226.88 61.18 C226.88 74.78, 220.08 81.58, 206.49 81.58 M226.88 61.18 C226.88 74.78, 220.08 81.58, 206.49 81.58 M206.49 81.58 C137.92 81.58, 69.35 81.58, 20.39 81.58 M206.49 81.58 C134.28 81.58, 62.06 81.58, 20.39 81.58 M20.39 81.58 C6.8 81.58, 0 74.78, 0 61.18 M20.39 81.58 C6.8 81.58, 0 74.78, 0 61.18 M0 61.18 C0 48.14, 0 35.1, 0 20.39 M0 61.18 C0 51.83, 0 42.49, 0 20.39 M0 20.39 C0 6.8, 6.8 0, 20.39 0 M0 20.39 C0 6.8, 6.8 0, 20.39 0" stroke="#a5d8ff" stroke-width="4" fill="none"></path></g><g transform="translate(484.41481082642713 192.55272342894932) rotate(0 84.85006543479903 18.360793284825377)"><text x="0" y="26.98300684334125" font-family="Helvetica, Segoe UI Emoji" font-size="31.931814408391823px" fill="#1e1e1e" text-anchor="start" style="white-space: pre;" direction="ltr" dominant-baseline="alphabetic">HTTPRoute</text></g><g stroke-linecap="round"><g transform="translate(390.90485282514055 63.877471271034665) rotate(0 -0.4925567728232636 305.7740519430845)"><path d="M0 0 C-0.25 157.57, -0.51 315.14, -0.99 611.55" stroke="#1e1e1e" stroke-width="1.5" fill="none" stroke-dasharray="8 9"></path></g></g><mask></mask><g stroke-linecap="round" transform="translate(10 351.25155395523325) rotate(0 113.44054308978048 40.788186343538655)"><path d="M20.39 0 C66.03 0, 111.66 0, 206.49 0 C220.08 0, 226.88 6.8, 226.88 20.39 C226.88 34.55, 226.88 48.7, 226.88 61.18 C226.88 74.78, 220.08 81.58, 206.49 81.58 C163.94 81.58, 121.39 81.58, 20.39 81.58 C6.8 81.58, 0 74.78, 0 61.18 C0 50.19, 0 39.19, 0 20.39 C0 6.8, 6.8 0, 20.39 0" stroke="none" stroke-width="0" fill="#a5d8ff"></path><path d="M20.39 0 C73.5 0, 126.6 0, 206.49 0 M20.39 0 C80.27 0, 140.16 0, 206.49 0 M206.49 0 C220.08 0, 226.88 6.8, 226.88 20.39 M206.49 0 C220.08 0, 226.88 6.8, 226.88 20.39 M226.88 20.39 C226.88 31.41, 226.88 42.43, 226.88 61.18 M226.88 20.39 C226.88 30.74, 226.88 41.08, 226.88 61.18 M226.88 61.18 C226.88 74.78, 220.08 81.58, 206.49 81.58 M226.88 61.18 C226.88 74.78, 220.08 81.58, 206.49 81.58 M206.49 81.58 C161.45 81.58, 116.42 81.58, 20.39 81.58 M206.49 81.58 C146.48 81.58, 86.48 81.58, 20.39 81.58 M20.39 81.58 C6.8 81.58, 0 74.78, 0 61.18 M20.39 81.58 C6.8 81.58, 0 74.78, 0 61.18 M0 61.18 C0 50.94, 0 40.69, 0 20.39 M0 61.18 C0 52.37, 0 43.56, 0 20.39 M0 20.39 C0 6.8, 6.8 0, 20.39 0 M0 20.39 C0 6.8, 6.8 0, 20.39 0" stroke="#ffffff" stroke-width="1" fill="none"></path></g><g transform="translate(22.64049717650414 376.8544049171396) rotate(0 99.08384647098592 18.523755771429023)"><text x="0" y="27.222496380804696" font-family="Helvetica, Segoe UI Emoji" font-size="32.21522742857276px" fill="#1e1e1e" text-anchor="start" style="white-space: pre;" direction="ltr" dominant-baseline="alphabetic">VirtualService</text></g><g stroke-linecap="round" transform="translate(459.32031192307477 528.8818263867524) rotate(0 113.36361079453036 40.7605249033777)"><path d="M20.38 0 C80.4 0, 140.42 0, 206.35 0 C219.93 0, 226.73 6.79, 226.73 20.38 C226.73 35.54, 226.73 50.7, 226.73 61.14 C226.73 74.73, 219.93 81.52, 206.35 81.52 C144.61 81.52, 82.88 81.52, 20.38 81.52 C6.79 81.52, 0 74.73, 0 61.14 C0 51.6, 0 42.05, 0 20.38 C0 6.79, 6.79 0, 20.38 0" stroke="none" stroke-width="0" fill="#ffffff"></path><path d="M20.38 0 C85.42 0, 150.45 0, 206.35 0 M20.38 0 C84.23 0, 148.07 0, 206.35 0 M206.35 0 C219.93 0, 226.73 6.79, 226.73 20.38 M206.35 0 C219.93 0, 226.73 6.79, 226.73 20.38 M226.73 20.38 C226.73 35.95, 226.73 51.52, 226.73 61.14 M226.73 20.38 C226.73 35.23, 226.73 50.08, 226.73 61.14 M226.73 61.14 C226.73 74.73, 219.93 81.52, 206.35 81.52 M226.73 61.14 C226.73 74.73, 219.93 81.52, 206.35 81.52 M206.35 81.52 C138.43 81.52, 70.5 81.52, 20.38 81.52 M206.35 81.52 C139.73 81.52, 73.12 81.52, 20.38 81.52 M20.38 81.52 C6.79 81.52, 0 74.73, 0 61.14 M20.38 81.52 C6.79 81.52, 0 74.73, 0 61.14 M0 61.14 C0 46.74, 0 32.34, 0 20.38 M0 61.14 C0 47.02, 0 32.9, 0 20.38 M0 20.38 C0 6.79, 6.79 0, 20.38 0 M0 20.38 C0 6.79, 6.79 0, 20.38 0" stroke="#a5d8ff" stroke-width="4" fill="none"></path></g><g transform="translate(467.53452291279973 557.3274551822833) rotate(0 105.6407264113841 15.536720297495776)"><text x="0" y="22.832751483394695" font-family="Helvetica, Segoe UI Emoji" font-size="27.02038312607901px" fill="#1e1e1e" text-anchor="start" style="white-space: pre;" direction="ltr" dominant-baseline="alphabetic">VirtualHostOption</text></g><g stroke-linecap="round"><g transform="translate(686.4446718549898 573.1059271514914) rotate(0 71.85608226167187 -0.11803236171090248)"><path d="M0 0 C36.89 -0.06, 73.79 -0.12, 143.71 -0.24 M0 0 C42.27 -0.07, 84.53 -0.14, 143.71 -0.24" stroke="#1e1e1e" stroke-width="1" fill="none"></path></g><g transform="translate(686.4446718549898 573.1059271514914) rotate(0 71.85608226167187 -0.11803236171090248)"><path d="M143.71 -0.24 L130.13 6.13 L130.11 -6.55 L143.71 -0.24" stroke="none" stroke-width="0" fill="#1e1e1e" fill-rule="evenodd"></path><path d="M143.71 -0.24 C140.22 1.4, 136.74 3.03, 130.13 6.13 M143.71 -0.24 C139.72 1.63, 135.72 3.51, 130.13 6.13 M130.13 6.13 C130.12 1.45, 130.11 -3.22, 130.11 -6.55 M130.13 6.13 C130.12 1.21, 130.11 -3.71, 130.11 -6.55 M130.11 -6.55 C133.63 -4.92, 137.15 -3.28, 143.71 -0.24 M130.11 -6.55 C135.14 -4.22, 140.17 -1.88, 143.71 -0.24 M143.71 -0.24 C143.71 -0.24, 143.71 -0.24, 143.71 -0.24 M143.71 -0.24 C143.71 -0.24, 143.71 -0.24, 143.71 -0.24" stroke="#1e1e1e" stroke-width="1" fill="none"></path></g></g><mask></mask><g transform="translate(533.6891838473839 12.118440966100025) rotate(0 202.11328125 20.699999999999818)"><text x="0" y="30.420703125" font-family="Helvetica, Segoe UI Emoji" font-size="36px" fill="#1e1e1e" text-anchor="start" style="white-space: pre;" direction="ltr" dominant-baseline="alphabetic">Kubernetes Gateway API</text></g><g transform="translate(54.411170180343106 10) rotate(0 119.07421875 20.699999999999818)"><text x="0" y="30.420703125" font-family="Helvetica, Segoe UI Emoji" font-size="36px" fill="#1e1e1e" text-anchor="start" style="white-space: pre;" direction="ltr" dominant-baseline="alphabetic">Gloo Edge API</text></g><g stroke-linecap="round" transform="translate(459.6686156099895 347.4020340669649) rotate(0 113.44054308978048 40.788186343538655)"><path d="M20.39 0 C90.84 0, 161.29 0, 206.49 0 C220.08 0, 226.88 6.8, 226.88 20.39 C226.88 36.2, 226.88 52.01, 226.88 61.18 C226.88 74.78, 220.08 81.58, 206.49 81.58 C142.11 81.58, 77.73 81.58, 20.39 81.58 C6.8 81.58, 0 74.78, 0 61.18 C0 49.49, 0 37.81, 0 20.39 C0 6.8, 6.8 0, 20.39 0" stroke="none" stroke-width="0" fill="#ffffff"></path><path d="M20.39 0 C66.88 0, 113.36 0, 206.49 0 M20.39 0 C80.01 0, 139.63 0, 206.49 0 M206.49 0 C220.08 0, 226.88 6.8, 226.88 20.39 M206.49 0 C220.08 0, 226.88 6.8, 226.88 20.39 M226.88 20.39 C226.88 34.13, 226.88 47.86, 226.88 61.18 M226.88 20.39 C226.88 35.18, 226.88 49.96, 226.88 61.18 M226.88 61.18 C226.88 74.78, 220.08 81.58, 206.49 81.58 M226.88 61.18 C226.88 74.78, 220.08 81.58, 206.49 81.58 M206.49 81.58 C139.66 81.58, 72.84 81.58, 20.39 81.58 M206.49 81.58 C152 81.58, 97.51 81.58, 20.39 81.58 M20.39 81.58 C6.8 81.58, 0 74.78, 0 61.18 M20.39 81.58 C6.8 81.58, 0 74.78, 0 61.18 M0 61.18 C0 45.02, 0 28.85, 0 20.39 M0 61.18 C0 49.98, 0 38.78, 0 20.39 M0 20.39 C0 6.8, 6.8 0, 20.39 0 M0 20.39 C0 6.8, 6.8 0, 20.39 0" stroke="#a5d8ff" stroke-width="4" fill="none"></path></g><g transform="translate(486.58753458426327 371.8671227595187) rotate(0 88.98335247349769 18.1527580550528)"><text x="0" y="26.677278439261094" font-family="Helvetica, Segoe UI Emoji" font-size="31.570014008786966px" fill="#1e1e1e" text-anchor="start" style="white-space: pre;" direction="ltr" dominant-baseline="alphabetic">RouteOption</text></g><g stroke-linecap="round"><g transform="translate(124.14185572286078 352.72272183513815) rotate(0 167.11935688107133 -71.40800777748973)"><path d="M0 0 C0.06 -32.1, 0.13 -64.19, 0.29 -142.82 M0 0 C0.07 -36.1, 0.15 -72.2, 0.29 -142.82 M0.29 -142.82 C125.56 -142.78, 250.84 -142.74, 334.24 -142.71 M0.29 -142.82 C97.27 -142.79, 194.26 -142.75, 334.24 -142.71" stroke="#1e1e1e" stroke-width="1" fill="none"></path></g><g transform="translate(124.14185572286078 352.72272183513815) rotate(0 167.11935688107133 -71.40800777748973)"><path d="M334.24 -142.71 L320.64 -136.38 L320.65 -149.05 L334.24 -142.71" stroke="none" stroke-width="0" fill="#1e1e1e" fill-rule="evenodd"></path><path d="M334.24 -142.71 C331.18 -141.29, 328.13 -139.86, 320.64 -136.38 M334.24 -142.71 C330.8 -141.11, 327.37 -139.51, 320.64 -136.38 M320.64 -136.38 C320.64 -141.13, 320.65 -145.89, 320.65 -149.05 M320.64 -136.38 C320.64 -140.06, 320.64 -143.74, 320.65 -149.05 M320.65 -149.05 C323.71 -147.62, 326.78 -146.19, 334.24 -142.71 M320.65 -149.05 C324.41 -147.3, 328.17 -145.54, 334.24 -142.71 M334.24 -142.71 C334.24 -142.71, 334.24 -142.71, 334.24 -142.71 M334.24 -142.71 C334.24 -142.71, 334.24 -142.71, 334.24 -142.71" stroke="#1e1e1e" stroke-width="1" fill="none"></path></g></g><mask></mask><g transform="translate(208.1478238077416 182.03780816253857) rotate(0 39.253113090991974 10.906903010449241)"><text x="0" y="16.02877577265912" font-family="Helvetica, Segoe UI Emoji" font-size="18.968526974694257px" fill="#1e1e1e" text-anchor="start" style="white-space: pre;" direction="ltr" dominant-baseline="alphabetic">matchers</text></g><g stroke-linecap="round"><g transform="translate(240.41948558668264 395.5481634935204) rotate(0 109.54760147247634 -0.4398168985717348)"><path d="M0 0 C62.21 -0.25, 124.42 -0.5, 219.1 -0.88 M0 0 C81.93 -0.33, 163.86 -0.66, 219.1 -0.88" stroke="#1e1e1e" stroke-width="1" fill="none"></path></g><g transform="translate(240.41948558668264 395.5481634935204) rotate(0 109.54760147247634 -0.4398168985717348)"><path d="M219.1 -0.88 L205.53 5.51 L205.48 -7.16 L219.1 -0.88" stroke="none" stroke-width="0" fill="#1e1e1e" fill-rule="evenodd"></path><path d="M219.1 -0.88 C215.24 0.94, 211.39 2.75, 205.53 5.51 M219.1 -0.88 C214.02 1.51, 208.95 3.9, 205.53 5.51 M205.53 5.51 C205.51 2.09, 205.5 -1.33, 205.48 -7.16 M205.53 5.51 C205.51 1.92, 205.5 -1.67, 205.48 -7.16 M205.48 -7.16 C209.68 -5.22, 213.89 -3.28, 219.1 -0.88 M205.48 -7.16 C209.85 -5.14, 214.23 -3.12, 219.1 -0.88 M219.1 -0.88 C219.1 -0.88, 219.1 -0.88, 219.1 -0.88 M219.1 -0.88 C219.1 -0.88, 219.1 -0.88, 219.1 -0.88" stroke="#1e1e1e" stroke-width="1" fill="none"></path></g></g><mask></mask><g transform="translate(259.2332676831793 340.21145529530986) rotate(0 44.26158142089844 21.813806020898483)"><text x="44.26158142089844" y="16.02877577265912" font-family="Helvetica, Segoe UI Emoji" font-size="18.968526974694257px" fill="#1e1e1e" text-anchor="middle" style="white-space: pre;" direction="ltr" dominant-baseline="alphabetic">route-level</text><text x="44.26158142089844" y="37.842581793557514" font-family="Helvetica, Segoe UI Emoji" font-size="18.968526974694257px" fill="#1e1e1e" text-anchor="middle" style="white-space: pre;" direction="ltr" dominant-baseline="alphabetic">policies</text></g><g stroke-linecap="round"><g transform="translate(124.39080868431483 432.1331842514155) rotate(0 167.84132046929335 72.28764157463411)"><path d="M0 0 C0.04 35.3, 0.08 70.6, 0.16 144.58 M0 0 C0.04 32.56, 0.07 65.12, 0.16 144.58 M0.16 144.58 C128.74 144.49, 257.31 144.41, 335.68 144.35 M0.16 144.58 C121.69 144.5, 243.22 144.41, 335.68 144.35" stroke="#1e1e1e" stroke-width="1" fill="none"></path></g><g transform="translate(124.39080868431483 432.1331842514155) rotate(0 167.84132046929335 72.28764157463411)"><path d="M335.68 144.35 L322.09 150.7 L322.08 138.02 L335.68 144.35" stroke="none" stroke-width="0" fill="#1e1e1e" fill-rule="evenodd"></path><path d="M335.68 144.35 C332.36 145.9, 329.05 147.45, 322.09 150.7 M335.68 144.35 C332.62 145.78, 329.56 147.21, 322.09 150.7 M322.09 150.7 C322.09 145.84, 322.09 140.99, 322.08 138.02 M322.09 150.7 C322.09 146.11, 322.09 141.52, 322.08 138.02 M322.08 138.02 C325.62 139.67, 329.15 141.31, 335.68 144.35 M322.08 138.02 C326.29 139.98, 330.5 141.94, 335.68 144.35 M335.68 144.35 C335.68 144.35, 335.68 144.35, 335.68 144.35 M335.68 144.35 C335.68 144.35, 335.68 144.35, 335.68 144.35" stroke="#1e1e1e" stroke-width="1" fill="none"></path></g></g><mask></mask><g transform="translate(138.37490332858033 547.0968985528762) rotate(0 102.74313354492188 10.906903010449241)"><text x="0" y="16.02877577265912" font-family="Helvetica, Segoe UI Emoji" font-size="18.968526974694257px" fill="#1e1e1e" text-anchor="start" style="white-space: pre;" direction="ltr" dominant-baseline="alphabetic">virtual host-level policies</text></g><g stroke-linecap="round"><g transform="translate(690.9137000605206 392.488808211634) rotate(0 34.676381386737376 -91.545536215227)"><path d="M0 0 C18.27 0.03, 36.54 0.07, 73.08 0.13 M0 0 C18.76 0.03, 37.52 0.07, 73.08 0.13 M73.08 0.13 C72.92 -45.76, 72.76 -91.64, 72.43 -182.93 M73.08 0.13 C72.93 -43.96, 72.77 -88.06, 72.43 -182.93 M72.43 -182.93 C43.01 -183.04, 13.59 -183.16, -3.73 -183.22 M72.43 -182.93 C44.83 -183.03, 17.23 -183.14, -3.73 -183.22" stroke="#1e1e1e" stroke-width="1" fill="none"></path></g><g transform="translate(690.9137000605206 392.488808211634) rotate(0 34.676381386737376 -91.545536215227)"><path d="M-3.73 -183.22 L9.89 -189.51 L9.84 -176.83 L-3.73 -183.22" stroke="none" stroke-width="0" fill="#1e1e1e" fill-rule="evenodd"></path><path d="M-3.73 -183.22 C-0.32 -184.8, 3.08 -186.37, 9.89 -189.51 M-3.73 -183.22 C-0.23 -184.84, 3.26 -186.45, 9.89 -189.51 M9.89 -189.51 C9.88 -186.33, 9.87 -183.15, 9.84 -176.83 M9.89 -189.51 C9.88 -186.46, 9.87 -183.4, 9.84 -176.83 M9.84 -176.83 C4.6 -179.3, -0.64 -181.77, -3.73 -183.22 M9.84 -176.83 C4.92 -179.15, 0.01 -181.46, -3.73 -183.22 M-3.73 -183.22 C-3.73 -183.22, -3.73 -183.22, -3.73 -183.22 M-3.73 -183.22 C-3.73 -183.22, -3.73 -183.22, -3.73 -183.22" stroke="#1e1e1e" stroke-width="1" fill="none"></path></g></g><mask></mask><g transform="translate(773.5866829143779 290.4595890204291) rotate(0 118.5601043701181 21.813806020898483)"><text x="118.56010437011719" y="16.02877577265912" font-family="Helvetica, Segoe UI Emoji" font-size="18.968526974694257px" fill="#1e1e1e" text-anchor="middle" style="white-space: pre;" direction="ltr" dominant-baseline="alphabetic"> targetRefs</text><text x="118.56010437011719" y="37.842581793557514" font-family="Helvetica, Segoe UI Emoji" font-size="18.968526974694257px" fill="#1e1e1e" text-anchor="middle" style="white-space: pre;" direction="ltr" dominant-baseline="alphabetic">(alternative to extensionRef)</text></g><g stroke-linecap="round"><g transform="translate(571.6375700831668 250.7737179750893) rotate(0 0.4868413468466315 47.66066139865052)"><path d="M0 0 C0.3 29.41, 0.6 58.83, 0.97 95.32 M0 0 C0.38 37.65, 0.77 75.3, 0.97 95.32" stroke="#1e1e1e" stroke-width="1" fill="none"></path></g><g transform="translate(571.6375700831668 250.7737179750893) rotate(0 0.4868413468466315 47.66066139865052)"><path d="M0.97 95.32 L-5.5 81.79 L7.17 81.66 L0.97 95.32" stroke="none" stroke-width="0" fill="#1e1e1e" fill-rule="evenodd"></path><path d="M0.97 95.32 C-1.03 91.15, -3.02 86.97, -5.5 81.79 M0.97 95.32 C-1.59 89.98, -4.14 84.63, -5.5 81.79 M-5.5 81.79 C-2.54 81.76, 0.43 81.73, 7.17 81.66 M-5.5 81.79 C-2.07 81.76, 1.36 81.72, 7.17 81.66 M7.17 81.66 C4.98 86.5, 2.79 91.33, 0.97 95.32 M7.17 81.66 C4.93 86.61, 2.68 91.55, 0.97 95.32 M0.97 95.32 C0.97 95.32, 0.97 95.32, 0.97 95.32 M0.97 95.32 C0.97 95.32, 0.97 95.32, 0.97 95.32" stroke="#1e1e1e" stroke-width="1" fill="none"></path></g></g><mask></mask><g stroke-linecap="round" transform="translate(542.1172811425749 269.7494659260301) rotate(0 32.026415419244586 21.85807001579451)"><path d="M10.93 0 C19.7 0, 28.46 0, 53.12 0 C60.41 0, 64.05 3.64, 64.05 10.93 C64.05 18.58, 64.05 26.23, 64.05 32.79 C64.05 40.07, 60.41 43.72, 53.12 43.72 C41.65 43.72, 30.17 43.72, 10.93 43.72 C3.64 43.72, 0 40.07, 0 32.79 C0 24.5, 0 16.21, 0 10.93 C0 3.64, 3.64 0, 10.93 0" stroke="none" stroke-width="0" fill="#ffffff"></path><path d="M10.93 0 C20.19 0, 29.45 0, 53.12 0 M10.93 0 C20.2 0, 29.48 0, 53.12 0 M53.12 0 C60.41 0, 64.05 3.64, 64.05 10.93 M53.12 0 C60.41 0, 64.05 3.64, 64.05 10.93 M64.05 10.93 C64.05 17.87, 64.05 24.82, 64.05 32.79 M64.05 10.93 C64.05 17.97, 64.05 25.01, 64.05 32.79 M64.05 32.79 C64.05 40.07, 60.41 43.72, 53.12 43.72 M64.05 32.79 C64.05 40.07, 60.41 43.72, 53.12 43.72 M53.12 43.72 C39.33 43.72, 25.53 43.72, 10.93 43.72 M53.12 43.72 C36.55 43.72, 19.97 43.72, 10.93 43.72 M10.93 43.72 C3.64 43.72, 0 40.07, 0 32.79 M10.93 43.72 C3.64 43.72, 0 40.07, 0 32.79 M0 32.79 C0 25.3, 0 17.81, 0 10.93 M0 32.79 C0 25.14, 0 17.5, 0 10.93 M0 10.93 C0 3.64, 3.64 0, 10.93 0 M0 10.93 C0 3.64, 3.64 0, 10.93 0" stroke="#ffffff" stroke-width="1" fill="none"></path></g><g transform="translate(475.73428893669734 276.3079962336942) rotate(0 106.96006774902344 21.813806020898483)"><text x="106.96006774902344" y="16.02877577265912" font-family="Helvetica, Segoe UI Emoji" font-size="18.968526974694257px" fill="#1e1e1e" text-anchor="middle" style="white-space: pre;" direction="ltr" dominant-baseline="alphabetic">extensionRef </text><text x="106.96006774902344" y="37.842581793557514" font-family="Helvetica, Segoe UI Emoji" font-size="18.968526974694257px" fill="#1e1e1e" text-anchor="middle" style="white-space: pre;" direction="ltr" dominant-baseline="alphabetic">(alternative to targetRefs)</text></g><g stroke-linecap="round" transform="translate(832.5940998451206 527.2290565583298) rotate(0 113.36361079452945 40.7605249033777)"><path d="M20.38 0 C60.16 0, 99.93 0, 206.35 0 C219.93 0, 226.73 6.79, 226.73 20.38 C226.73 33.77, 226.73 47.15, 226.73 61.14 C226.73 74.73, 219.93 81.52, 206.35 81.52 C145.05 81.52, 83.76 81.52, 20.38 81.52 C6.79 81.52, 0 74.73, 0 61.14 C0 48.2, 0 35.26, 0 20.38 C0 6.79, 6.79 0, 20.38 0" stroke="none" stroke-width="0" fill="#ffffff"></path><path d="M20.38 0 C72.36 0, 124.35 0, 206.35 0 M20.38 0 C87.69 0, 154.99 0, 206.35 0 M206.35 0 C219.93 0, 226.73 6.79, 226.73 20.38 M206.35 0 C219.93 0, 226.73 6.79, 226.73 20.38 M226.73 20.38 C226.73 30.42, 226.73 40.47, 226.73 61.14 M226.73 20.38 C226.73 34.81, 226.73 49.24, 226.73 61.14 M226.73 61.14 C226.73 74.73, 219.93 81.52, 206.35 81.52 M226.73 61.14 C226.73 74.73, 219.93 81.52, 206.35 81.52 M206.35 81.52 C136.99 81.52, 67.63 81.52, 20.38 81.52 M206.35 81.52 C154.49 81.52, 102.64 81.52, 20.38 81.52 M20.38 81.52 C6.79 81.52, 0 74.73, 0 61.14 M20.38 81.52 C6.79 81.52, 0 74.73, 0 61.14 M0 61.14 C0 47.79, 0 34.43, 0 20.38 M0 61.14 C0 52.5, 0 43.86, 0 20.38 M0 20.38 C0 6.79, 6.79 0, 20.38 0 M0 20.38 C0 6.79, 6.79 0, 20.38 0" stroke="#a5d8ff" stroke-width="4" fill="none"></path></g><g transform="translate(895.5005103226049 555.2597637514318) rotate(0 53.80910766124725 15.536720297495776)"><text x="0" y="22.832751483394695" font-family="Helvetica, Segoe UI Emoji" font-size="27.02038312607901px" fill="#1e1e1e" text-anchor="start" style="white-space: pre;" direction="ltr" dominant-baseline="alphabetic">Gateway</text></g><g transform="translate(712.5161426331597 536.7044983294381) rotate(0 43.73387908935547 10.906903010449241)"><text x="43.73387908935547" y="16.02877577265912" font-family="Helvetica, Segoe UI Emoji" font-size="18.968526974694257px" fill="#1e1e1e" text-anchor="middle" style="white-space: pre;" direction="ltr" dominant-baseline="alphabetic">targetRefs</text></g></svg>