<svg version="1.1" xmlns="http://www.w3.org/2000/svg" viewBox="0 0 1002.3054528127959 709.5644297182971" width="1002.3054528127959" height="709.5644297182971">
  <!-- svg-source:excalidraw -->
  
  <defs>
    <style class="style-fonts">
      
    </style>
    
  </defs>
  <rect x="0" y="0" width="1002.3054528127959" height="709.5644297182971" fill="#ffffff"></rect><g stroke-linecap="round" transform="translate(12.183462849705393 287.2548554049263) rotate(0 113.44054308978048 40.788186343538655)"><path d="M20.39 0 C85.81 0, 151.22 0, 206.49 0 C220.08 0, 226.88 6.8, 226.88 20.39 C226.88 29.06, 226.88 37.73, 226.88 61.18 C226.88 74.78, 220.08 81.58, 206.49 81.58 C137.74 81.58, 68.99 81.58, 20.39 81.58 C6.8 81.58, 0 74.78, 0 61.18 C0 45.63, 0 30.08, 0 20.39 C0 6.8, 6.8 0, 20.39 0" stroke="none" stroke-width="0" fill="#a5d8ff"></path><path d="M20.39 0 C92.96 0, 165.53 0, 206.49 0 M20.39 0 C71.18 0, 121.96 0, 206.49 0 M206.49 0 C220.08 0, 226.88 6.8, 226.88 20.39 M206.49 0 C220.08 0, 226.88 6.8, 226.88 20.39 M226.88 20.39 C226.88 29.13, 226.88 37.86, 226.88 61.18 M226.88 20.39 C226.88 35.44, 226.88 50.49, 226.88 61.18 M226.88 61.18 C226.88 74.78, 220.08 81.58, 206.49 81.58 M226.88 61.18 C226.88 74.78, 220.08 81.58, 206.49 81.58 M206.49 81.58 C142.41 81.58, 78.33 81.58, 20.39 81.58 M206.49 81.58 C139.95 81.58, 73.4 81.58, 20.39 81.58 M20.39 81.58 C6.8 81.58, 0 74.78, 0 61.18 M20.39 81.58 C6.8 81.58, 0 74.78, 0 61.18 M0 61.18 C0 46.46, 0 31.73, 0 20.39 M0 61.18 C0 51.58, 0 41.98, 0 20.39 M0 20.39 C0 6.8, 6.8 0, 20.39 0 M0 20.39 C0 6.8, 6.8 0, 20.39 0" stroke="#ffffff" stroke-width="1" fill="none"></path></g><g transform="translate(54.68826329267176 308.94331493088066) rotate(0 71.65197997907035 18.9314273330383)"><text x="0" y="27.821610175404814" font-family="Helvetica, Segoe UI Emoji" font-size="32.92422144876289px" fill="#1e1e1e" text-anchor="start" style="white-space: pre;" direction="ltr" dominant-baseline="alphabetic">Upstream</text></g><g stroke-linecap="round" transform="translate(399.7559178696556 289.1678846179366) rotate(0 113.44054308978048 40.788186343538655)"><path d="M20.39 0 C59.5 0, 98.6 0, 206.49 0 C220.08 0, 226.88 6.8, 226.88 20.39 C226.88 34.76, 226.88 49.12, 226.88 61.18 C226.88 74.78, 220.08 81.58, 206.49 81.58 C135.29 81.58, 64.09 81.58, 20.39 81.58 C6.8 81.58, 0 74.78, 0 61.18 C0 49.04, 0 36.91, 0 20.39 C0 6.8, 6.8 0, 20.39 0" stroke="none" stroke-width="0" fill="#ffffff"></path><path d="M20.39 0 C92.89 0, 165.38 0, 206.49 0 M20.39 0 C83.41 0, 146.43 0, 206.49 0 M206.49 0 C220.08 0, 226.88 6.8, 226.88 20.39 M206.49 0 C220.08 0, 226.88 6.8, 226.88 20.39 M226.88 20.39 C226.88 28.82, 226.88 37.25, 226.88 61.18 M226.88 20.39 C226.88 30.03, 226.88 39.67, 226.88 61.18 M226.88 61.18 C226.88 74.78, 220.08 81.58, 206.49 81.58 M226.88 61.18 C226.88 74.78, 220.08 81.58, 206.49 81.58 M206.49 81.58 C154.8 81.58, 103.11 81.58, 20.39 81.58 M206.49 81.58 C146.16 81.58, 85.83 81.58, 20.39 81.58 M20.39 81.58 C6.8 81.58, 0 74.78, 0 61.18 M20.39 81.58 C6.8 81.58, 0 74.78, 0 61.18 M0 61.18 C0 51.83, 0 42.48, 0 20.39 M0 61.18 C0 46.65, 0 32.12, 0 20.39 M0 20.39 C0 6.8, 6.8 0, 20.39 0 M0 20.39 C0 6.8, 6.8 0, 20.39 0" stroke="#a5d8ff" stroke-width="4" fill="none"></path></g><g stroke-linecap="round" transform="translate(404.37690030889826 513.6081656724618) rotate(0 113.44054308978048 40.788186343538655)"><path d="M20.39 0 C63.11 0, 105.83 0, 206.49 0 C220.08 0, 226.88 6.8, 226.88 20.39 C226.88 28.58, 226.88 36.76, 226.88 61.18 C226.88 74.78, 220.08 81.58, 206.49 81.58 C165.74 81.58, 125 81.58, 20.39 81.58 C6.8 81.58, 0 74.78, 0 61.18 C0 47.19, 0 33.19, 0 20.39 C0 6.8, 6.8 0, 20.39 0" stroke="none" stroke-width="0" fill="#ffffff"></path><path d="M20.39 0 C75.58 0, 130.77 0, 206.49 0 M20.39 0 C93.44 0, 166.48 0, 206.49 0 M206.49 0 C220.08 0, 226.88 6.8, 226.88 20.39 M206.49 0 C220.08 0, 226.88 6.8, 226.88 20.39 M226.88 20.39 C226.88 31.4, 226.88 42.41, 226.88 61.18 M226.88 20.39 C226.88 31.17, 226.88 41.94, 226.88 61.18 M226.88 61.18 C226.88 74.78, 220.08 81.58, 206.49 81.58 M226.88 61.18 C226.88 74.78, 220.08 81.58, 206.49 81.58 M206.49 81.58 C135 81.58, 63.51 81.58, 20.39 81.58 M206.49 81.58 C135.97 81.58, 65.45 81.58, 20.39 81.58 M20.39 81.58 C6.8 81.58, 0 74.78, 0 61.18 M20.39 81.58 C6.8 81.58, 0 74.78, 0 61.18 M0 61.18 C0 45.24, 0 29.3, 0 20.39 M0 61.18 C0 51.42, 0 41.65, 0 20.39 M0 20.39 C0 6.8, 6.8 0, 20.39 0 M0 20.39 C0 6.8, 6.8 0, 20.39 0" stroke="#a5d8ff" stroke-width="4" fill="none"></path></g><g transform="translate(422.08455970931936 537.5310901378489) rotate(0 95.66015625 20.699999999999818)"><text x="0" y="30.420703125" font-family="Helvetica, Segoe UI Emoji" font-size="36px" fill="#1e1e1e" text-anchor="start" style="white-space: pre;" direction="ltr" dominant-baseline="alphabetic">HTTPRoute</text></g><g stroke-linecap="round"><g transform="translate(511.80026933600493 511.8324964760941) rotate(0 -0.19725956570800918 -69.55161582557412)"><path d="M0 0 C-0.11 -38.38, -0.22 -76.77, -0.39 -139.1 M0 0 C-0.14 -50.55, -0.29 -101.11, -0.39 -139.1" stroke="#1e1e1e" stroke-width="1" fill="none"></path></g><g transform="translate(511.80026933600493 511.8324964760941) rotate(0 -0.19725956570800918 -69.55161582557412)"><path d="M-0.39 -139.1 L5.98 -125.53 L-6.7 -125.49 L-0.39 -139.1" stroke="none" stroke-width="0" fill="#1e1e1e" fill-rule="evenodd"></path><path d="M-0.39 -139.1 C1.37 -135.36, 3.13 -131.61, 5.98 -125.53 M-0.39 -139.1 C1.92 -134.17, 4.24 -129.23, 5.98 -125.53 M5.98 -125.53 C0.93 -125.51, -4.11 -125.5, -6.7 -125.49 M5.98 -125.53 C1.48 -125.51, -3.02 -125.5, -6.7 -125.49 M-6.7 -125.49 C-4.25 -130.77, -1.81 -136.05, -0.39 -139.1 M-6.7 -125.49 C-5.19 -128.75, -3.68 -132.01, -0.39 -139.1 M-0.39 -139.1 C-0.39 -139.1, -0.39 -139.1, -0.39 -139.1 M-0.39 -139.1 C-0.39 -139.1, -0.39 -139.1, -0.39 -139.1" stroke="#1e1e1e" stroke-width="1" fill="none"></path></g></g><mask></mask><g transform="translate(435.3969519882867 311.3384361730441) rotate(0 78.345703125 20.699999999999818)"><text x="0" y="30.420703125" font-family="Helvetica, Segoe UI Emoji" font-size="36px" fill="#1e1e1e" text-anchor="start" style="white-space: pre;" direction="ltr" dominant-baseline="alphabetic">Upstream</text></g><g stroke-linecap="round"><g transform="translate(311.62920346495594 10) rotate(0 1.7950443285517395 344.78221485914855)"><path d="M0 0 C0.88 169.85, 1.77 339.69, 3.59 689.56" stroke="#1e1e1e" stroke-width="1.5" fill="none" stroke-dasharray="8 9"></path></g></g><mask></mask><g stroke-linecap="round" transform="translate(13.022667408980851 512.0877135075334) rotate(0 113.44054308978048 40.788186343538655)"><path d="M20.39 0 C60.51 0, 100.62 0, 206.49 0 C220.08 0, 226.88 6.8, 226.88 20.39 C226.88 29.01, 226.88 37.63, 226.88 61.18 C226.88 74.78, 220.08 81.58, 206.49 81.58 C143.2 81.58, 79.9 81.58, 20.39 81.58 C6.8 81.58, 0 74.78, 0 61.18 C0 51.84, 0 42.49, 0 20.39 C0 6.8, 6.8 0, 20.39 0" stroke="none" stroke-width="0" fill="#a5d8ff"></path><path d="M20.39 0 C66.54 0, 112.68 0, 206.49 0 M20.39 0 C87.23 0, 154.07 0, 206.49 0 M206.49 0 C220.08 0, 226.88 6.8, 226.88 20.39 M206.49 0 C220.08 0, 226.88 6.8, 226.88 20.39 M226.88 20.39 C226.88 35.57, 226.88 50.74, 226.88 61.18 M226.88 20.39 C226.88 35.58, 226.88 50.76, 226.88 61.18 M226.88 61.18 C226.88 74.78, 220.08 81.58, 206.49 81.58 M226.88 61.18 C226.88 74.78, 220.08 81.58, 206.49 81.58 M206.49 81.58 C154.09 81.58, 101.69 81.58, 20.39 81.58 M206.49 81.58 C147.2 81.58, 87.91 81.58, 20.39 81.58 M20.39 81.58 C6.8 81.58, 0 74.78, 0 61.18 M20.39 81.58 C6.8 81.58, 0 74.78, 0 61.18 M0 61.18 C0 47.59, 0 34, 0 20.39 M0 61.18 C0 50.54, 0 39.89, 0 20.39 M0 20.39 C0 6.8, 6.8 0, 20.39 0 M0 20.39 C0 6.8, 6.8 0, 20.39 0" stroke="#ffffff" stroke-width="1" fill="none"></path></g><g transform="translate(25.66316458548681 537.6905644694398) rotate(0 99.08384647098592 18.523755771429023)"><text x="0" y="27.222496380804696" font-family="Helvetica, Segoe UI Emoji" font-size="32.21522742857276px" fill="#1e1e1e" text-anchor="start" style="white-space: pre;" direction="ltr" dominant-baseline="alphabetic">VirtualService</text></g><g stroke-linecap="round"><g transform="translate(118.97579897301148 511.39928129277905) rotate(0 0.10525616506583901 -71.22144185359411)"><path d="M0 0 C0.05 -36.95, 0.11 -73.9, 0.21 -142.44 M0 0 C0.05 -37, 0.11 -73.99, 0.21 -142.44" stroke="#1e1e1e" stroke-width="1" fill="none"></path></g><g transform="translate(118.97579897301148 511.39928129277905) rotate(0 0.10525616506583901 -71.22144185359411)"><path d="M0.21 -142.44 L6.53 -128.84 L-6.15 -128.86 L0.21 -142.44" stroke="none" stroke-width="0" fill="#1e1e1e" fill-rule="evenodd"></path><path d="M0.21 -142.44 C1.85 -138.91, 3.49 -135.39, 6.53 -128.84 M0.21 -142.44 C1.85 -138.91, 3.49 -135.38, 6.53 -128.84 M6.53 -128.84 C3.33 -128.84, 0.12 -128.85, -6.15 -128.86 M6.53 -128.84 C3.79 -128.84, 1.06 -128.85, -6.15 -128.86 M-6.15 -128.86 C-4.66 -132.03, -3.18 -135.21, 0.21 -142.44 M-6.15 -128.86 C-4.01 -133.42, -1.88 -137.98, 0.21 -142.44 M0.21 -142.44 C0.21 -142.44, 0.21 -142.44, 0.21 -142.44 M0.21 -142.44 C0.21 -142.44, 0.21 -142.44, 0.21 -142.44" stroke="#1e1e1e" stroke-width="1" fill="none"></path></g></g><mask></mask><g stroke-linecap="round" transform="translate(64.094665555549 434.3688370320506) rotate(0 56.457131132226095 11.125861123558025)"><path d="M5.56 0 C31.41 0, 57.26 0, 107.35 0 C111.06 0, 112.91 1.85, 112.91 5.56 C112.91 9.63, 112.91 13.69, 112.91 16.69 C112.91 20.4, 111.06 22.25, 107.35 22.25 C79.58 22.25, 51.8 22.25, 5.56 22.25 C1.85 22.25, 0 20.4, 0 16.69 C0 13.45, 0 10.22, 0 5.56 C0 1.85, 1.85 0, 5.56 0" stroke="none" stroke-width="0" fill="#ffffff"></path><path d="M5.56 0 C45.31 0, 85.06 0, 107.35 0 M5.56 0 C44.31 0, 83.06 0, 107.35 0 M107.35 0 C111.06 0, 112.91 1.85, 112.91 5.56 M107.35 0 C111.06 0, 112.91 1.85, 112.91 5.56 M112.91 5.56 C112.91 7.97, 112.91 10.37, 112.91 16.69 M112.91 5.56 C112.91 8.89, 112.91 12.22, 112.91 16.69 M112.91 16.69 C112.91 20.4, 111.06 22.25, 107.35 22.25 M112.91 16.69 C112.91 20.4, 111.06 22.25, 107.35 22.25 M107.35 22.25 C77.55 22.25, 47.76 22.25, 5.56 22.25 M107.35 22.25 C68.5 22.25, 29.65 22.25, 5.56 22.25 M5.56 22.25 C1.85 22.25, 0 20.4, 0 16.69 M5.56 22.25 C1.85 22.25, 0 20.4, 0 16.69 M0 16.69 C0 13.43, 0 10.18, 0 5.56 M0 16.69 C0 13.89, 0 11.09, 0 5.56 M0 5.56 C0 1.85, 1.85 0, 5.56 0 M0 5.56 C0 1.85, 1.85 0, 5.56 0" stroke="#ffffff" stroke-width="1" fill="none"></path></g><g transform="translate(73.1764250780434 435.40993113716104) rotate(0 47.969330847263336 10.906903010449241)"><text x="0" y="16.02877577265912" font-family="Helvetica, Segoe UI Emoji" font-size="18.968526974694257px" fill="#1e1e1e" text-anchor="start" style="white-space: pre;" direction="ltr" dominant-baseline="alphabetic">routeAction</text></g><g stroke-linecap="round" transform="translate(455.8859014617792 440.4608204742817) rotate(0 56.457131132226095 11.125861123558025)"><path d="M5.56 0 C39.09 0, 72.61 0, 107.35 0 C111.06 0, 112.91 1.85, 112.91 5.56 C112.91 9.83, 112.91 14.09, 112.91 16.69 C112.91 20.4, 111.06 22.25, 107.35 22.25 C83.43 22.25, 59.51 22.25, 5.56 22.25 C1.85 22.25, 0 20.4, 0 16.69 C0 13.84, 0 10.98, 0 5.56 C0 1.85, 1.85 0, 5.56 0" stroke="none" stroke-width="0" fill="#ffffff"></path><path d="M5.56 0 C28.87 0, 52.18 0, 107.35 0 M5.56 0 C30.66 0, 55.76 0, 107.35 0 M107.35 0 C111.06 0, 112.91 1.85, 112.91 5.56 M107.35 0 C111.06 0, 112.91 1.85, 112.91 5.56 M112.91 5.56 C112.91 8.8, 112.91 12.05, 112.91 16.69 M112.91 5.56 C112.91 8.37, 112.91 11.18, 112.91 16.69 M112.91 16.69 C112.91 20.4, 111.06 22.25, 107.35 22.25 M112.91 16.69 C112.91 20.4, 111.06 22.25, 107.35 22.25 M107.35 22.25 C71.96 22.25, 36.58 22.25, 5.56 22.25 M107.35 22.25 C85.44 22.25, 63.52 22.25, 5.56 22.25 M5.56 22.25 C1.85 22.25, 0 20.4, 0 16.69 M5.56 22.25 C1.85 22.25, 0 20.4, 0 16.69 M0 16.69 C0 13.52, 0 10.34, 0 5.56 M0 16.69 C0 13.06, 0 9.43, 0 5.56 M0 5.56 C0 1.85, 1.85 0, 5.56 0 M0 5.56 C0 1.85, 1.85 0, 5.56 0" stroke="#ffffff" stroke-width="1" fill="none"></path></g><g transform="translate(458.63296161682956 440.137845078747) rotate(0 55.56259439511268 10.906903010449241)"><text x="0" y="16.02877577265912" font-family="Helvetica, Segoe UI Emoji" font-size="18.968526974694257px" fill="#1e1e1e" text-anchor="start" style="white-space: pre;" direction="ltr" dominant-baseline="alphabetic">backendRefs</text></g><g stroke-linecap="round" transform="translate(760.8033841939923 288.57089284339963) rotate(0 113.44054308978048 40.788186343538655)"><path d="M20.39 0 C87.65 0, 154.9 0, 206.49 0 C220.08 0, 226.88 6.8, 226.88 20.39 C226.88 34.16, 226.88 47.93, 226.88 61.18 C226.88 74.78, 220.08 81.58, 206.49 81.58 C164.66 81.58, 122.82 81.58, 20.39 81.58 C6.8 81.58, 0 74.78, 0 61.18 C0 48.27, 0 35.36, 0 20.39 C0 6.8, 6.8 0, 20.39 0" stroke="none" stroke-width="0" fill="#ffffff"></path><path d="M20.39 0 C65.41 0, 110.42 0, 206.49 0 M20.39 0 C73.51 0, 126.63 0, 206.49 0 M206.49 0 C220.08 0, 226.88 6.8, 226.88 20.39 M206.49 0 C220.08 0, 226.88 6.8, 226.88 20.39 M226.88 20.39 C226.88 30.31, 226.88 40.24, 226.88 61.18 M226.88 20.39 C226.88 35.86, 226.88 51.32, 226.88 61.18 M226.88 61.18 C226.88 74.78, 220.08 81.58, 206.49 81.58 M226.88 61.18 C226.88 74.78, 220.08 81.58, 206.49 81.58 M206.49 81.58 C134.32 81.58, 62.16 81.58, 20.39 81.58 M206.49 81.58 C156.36 81.58, 106.24 81.58, 20.39 81.58 M20.39 81.58 C6.8 81.58, 0 74.78, 0 61.18 M20.39 81.58 C6.8 81.58, 0 74.78, 0 61.18 M0 61.18 C0 49.04, 0 36.9, 0 20.39 M0 61.18 C0 51.81, 0 42.43, 0 20.39 M0 20.39 C0 6.8, 6.8 0, 20.39 0 M0 20.39 C0 6.8, 6.8 0, 20.39 0" stroke="#a5d8ff" stroke-width="4" fill="none"></path></g><g stroke-linecap="round" transform="translate(765.424366633235 513.0111738979285) rotate(0 113.44054308978048 40.788186343538655)"><path d="M20.39 0 C67.4 0, 114.4 0, 206.49 0 C220.08 0, 226.88 6.8, 226.88 20.39 C226.88 31.1, 226.88 41.8, 226.88 61.18 C226.88 74.78, 220.08 81.58, 206.49 81.58 C139.87 81.58, 73.26 81.58, 20.39 81.58 C6.8 81.58, 0 74.78, 0 61.18 C0 47.56, 0 33.94, 0 20.39 C0 6.8, 6.8 0, 20.39 0" stroke="none" stroke-width="0" fill="#ffffff"></path><path d="M20.39 0 C77.07 0, 133.75 0, 206.49 0 M20.39 0 C88.52 0, 156.65 0, 206.49 0 M206.49 0 C220.08 0, 226.88 6.8, 226.88 20.39 M206.49 0 C220.08 0, 226.88 6.8, 226.88 20.39 M226.88 20.39 C226.88 30.59, 226.88 40.78, 226.88 61.18 M226.88 20.39 C226.88 34.04, 226.88 47.68, 226.88 61.18 M226.88 61.18 C226.88 74.78, 220.08 81.58, 206.49 81.58 M226.88 61.18 C226.88 74.78, 220.08 81.58, 206.49 81.58 M206.49 81.58 C148.7 81.58, 90.92 81.58, 20.39 81.58 M206.49 81.58 C165.35 81.58, 124.22 81.58, 20.39 81.58 M20.39 81.58 C6.8 81.58, 0 74.78, 0 61.18 M20.39 81.58 C6.8 81.58, 0 74.78, 0 61.18 M0 61.18 C0 47.09, 0 32.99, 0 20.39 M0 61.18 C0 49.13, 0 37.09, 0 20.39 M0 20.39 C0 6.8, 6.8 0, 20.39 0 M0 20.39 C0 6.8, 6.8 0, 20.39 0" stroke="#a5d8ff" stroke-width="4" fill="none"></path></g><g transform="translate(783.1320260336561 536.9340983633119) rotate(0 95.66015625 20.699999999999818)"><text x="0" y="30.420703125" font-family="Helvetica, Segoe UI Emoji" font-size="36px" fill="#1e1e1e" text-anchor="start" style="white-space: pre;" direction="ltr" dominant-baseline="alphabetic">HTTPRoute</text></g><g stroke-linecap="round"><g transform="translate(872.8477356603416 511.23550470155897) rotate(0 -0.19725956570800918 -69.55161582557412)"><path d="M0 0 C-0.09 -31.44, -0.18 -62.88, -0.39 -139.1 M0 0 C-0.15 -52.24, -0.3 -104.49, -0.39 -139.1" stroke="#1e1e1e" stroke-width="1" fill="none"></path></g><g transform="translate(872.8477356603416 511.23550470155897) rotate(0 -0.19725956570800918 -69.55161582557412)"><path d="M-0.39 -139.1 L5.98 -125.53 L-6.7 -125.49 L-0.39 -139.1" stroke="none" stroke-width="0" fill="#1e1e1e" fill-rule="evenodd"></path><path d="M-0.39 -139.1 C1.05 -136.03, 2.49 -132.97, 5.98 -125.53 M-0.39 -139.1 C2 -134, 4.4 -128.9, 5.98 -125.53 M5.98 -125.53 C3.1 -125.52, 0.22 -125.51, -6.7 -125.49 M5.98 -125.53 C2.23 -125.52, -1.53 -125.51, -6.7 -125.49 M-6.7 -125.49 C-5.15 -128.83, -3.61 -132.16, -0.39 -139.1 M-6.7 -125.49 C-4.37 -130.51, -2.05 -135.52, -0.39 -139.1 M-0.39 -139.1 C-0.39 -139.1, -0.39 -139.1, -0.39 -139.1 M-0.39 -139.1 C-0.39 -139.1, -0.39 -139.1, -0.39 -139.1" stroke="#1e1e1e" stroke-width="1" fill="none"></path></g></g><mask></mask><g transform="translate(773.4530581488289 311.75417939211184) rotate(0 104.642578125 20.699999999999818)"><text x="0" y="30.420703125" font-family="Helvetica, Segoe UI Emoji" font-size="36px" fill="#1e1e1e" text-anchor="start" style="white-space: pre;" direction="ltr" dominant-baseline="alphabetic">Kube service</text></g><g stroke-linecap="round" transform="translate(816.9333677861159 439.8638286997484) rotate(0 56.457131132226095 11.125861123558025)"><path d="M5.56 0 C41.21 0, 76.85 0, 107.35 0 C111.06 0, 112.91 1.85, 112.91 5.56 C112.91 9.44, 112.91 13.31, 112.91 16.69 C112.91 20.4, 111.06 22.25, 107.35 22.25 C76.72 22.25, 46.1 22.25, 5.56 22.25 C1.85 22.25, 0 20.4, 0 16.69 C0 14.13, 0 11.57, 0 5.56 C0 1.85, 1.85 0, 5.56 0" stroke="none" stroke-width="0" fill="#ffffff"></path><path d="M5.56 0 C40.67 0, 75.77 0, 107.35 0 M5.56 0 C29.75 0, 53.93 0, 107.35 0 M107.35 0 C111.06 0, 112.91 1.85, 112.91 5.56 M107.35 0 C111.06 0, 112.91 1.85, 112.91 5.56 M112.91 5.56 C112.91 9.9, 112.91 14.23, 112.91 16.69 M112.91 5.56 C112.91 8.74, 112.91 11.92, 112.91 16.69 M112.91 16.69 C112.91 20.4, 111.06 22.25, 107.35 22.25 M112.91 16.69 C112.91 20.4, 111.06 22.25, 107.35 22.25 M107.35 22.25 C82.72 22.25, 58.09 22.25, 5.56 22.25 M107.35 22.25 C85.03 22.25, 62.71 22.25, 5.56 22.25 M5.56 22.25 C1.85 22.25, 0 20.4, 0 16.69 M5.56 22.25 C1.85 22.25, 0 20.4, 0 16.69 M0 16.69 C0 13.73, 0 10.77, 0 5.56 M0 16.69 C0 14.08, 0 11.47, 0 5.56 M0 5.56 C0 1.85, 1.85 0, 5.56 0 M0 5.56 C0 1.85, 1.85 0, 5.56 0" stroke="#ffffff" stroke-width="1" fill="none"></path></g><g transform="translate(819.6804279411681 439.54085330421003) rotate(0 55.56259439511268 10.906903010449241)"><text x="0" y="16.02877577265912" font-family="Helvetica, Segoe UI Emoji" font-size="18.968526974694257px" fill="#1e1e1e" text-anchor="start" style="white-space: pre;" direction="ltr" dominant-baseline="alphabetic">backendRefs</text></g><g transform="translate(446.9182349211187 186.40790252379338) rotate(0 54.11697095172167 16.462966931735536)"><text x="0" y="24.19396278198129" font-family="Helvetica, Segoe UI Emoji" font-size="28.63124683780058px" fill="#1e1e1e" text-anchor="start" style="white-space: pre;" direction="ltr" dominant-baseline="alphabetic">Option 1</text></g><g transform="translate(821.1402364362693 183.29045231012606) rotate(0 52.95061885234554 16.10815002855088)"><text x="0" y="23.672524150314946" font-family="Helvetica, Segoe UI Emoji" font-size="28.014173962697917px" fill="#1e1e1e" text-anchor="start" style="white-space: pre;" direction="ltr" dominant-baseline="alphabetic">Option 2</text></g><g transform="translate(494.0468459509193 42.30408634654668) rotate(0 202.11328125 20.699999999999818)"><text x="0" y="30.420703125" font-family="Helvetica, Segoe UI Emoji" font-size="36px" fill="#1e1e1e" text-anchor="start" style="white-space: pre;" direction="ltr" dominant-baseline="alphabetic">Kubernetes Gateway API</text></g><g transform="translate(10 40.45672749403093) rotate(0 119.07421875 20.699999999999818)"><text x="0" y="30.420703125" font-family="Helvetica, Segoe UI Emoji" font-size="36px" fill="#1e1e1e" text-anchor="start" style="white-space: pre;" direction="ltr" dominant-baseline="alphabetic">Gloo Edge API</text></g></svg>