<svg version="1.1" xmlns="http://www.w3.org/2000/svg" viewBox="0 0 1088.457505738057 635.8506241775904" width="1088.457505738057" height="635.8506241775904">
  <!-- svg-source:excalidraw -->
  
  <defs>
    <style class="style-fonts">
      
    </style>
    
  </defs>
  <rect x="0" y="0" width="1088.457505738057" height="635.8506241775904" fill="#ffffff"></rect><g stroke-linecap="round" transform="translate(10 310.03047582623185) rotate(0 113.44054308978048 40.788186343538655)"><path d="M20.39 0 C88.11 0, 155.82 0, 206.49 0 C220.08 0, 226.88 6.8, 226.88 20.39 C226.88 35.56, 226.88 50.72, 226.88 61.18 C226.88 74.78, 220.08 81.58, 206.49 81.58 C136.12 81.58, 65.75 81.58, 20.39 81.58 C6.8 81.58, 0 74.78, 0 61.18 C0 49.46, 0 37.73, 0 20.39 C0 6.8, 6.8 0, 20.39 0" stroke="none" stroke-width="0" fill="#a5d8ff"></path><path d="M20.39 0 C93.26 0, 166.13 0, 206.49 0 M20.39 0 C84.29 0, 148.19 0, 206.49 0 M206.49 0 C220.08 0, 226.88 6.8, 226.88 20.39 M206.49 0 C220.08 0, 226.88 6.8, 226.88 20.39 M226.88 20.39 C226.88 33.74, 226.88 47.08, 226.88 61.18 M226.88 20.39 C226.88 31.71, 226.88 43.03, 226.88 61.18 M226.88 61.18 C226.88 74.78, 220.08 81.58, 206.49 81.58 M226.88 61.18 C226.88 74.78, 220.08 81.58, 206.49 81.58 M206.49 81.58 C164.02 81.58, 121.56 81.58, 20.39 81.58 M206.49 81.58 C159.59 81.58, 112.69 81.58, 20.39 81.58 M20.39 81.58 C6.8 81.58, 0 74.78, 0 61.18 M20.39 81.58 C6.8 81.58, 0 74.78, 0 61.18 M0 61.18 C0 46.75, 0 32.32, 0 20.39 M0 61.18 C0 45.88, 0 30.57, 0 20.39 M0 20.39 C0 6.8, 6.8 0, 20.39 0 M0 20.39 C0 6.8, 6.8 0, 20.39 0" stroke="#ffffff" stroke-width="1" fill="none"></path></g><g transform="translate(61.10649586539512 337.1547059970326) rotate(0 64.14474695920944 18.523755771429023)"><text x="0" y="27.222496380804696" font-family="Helvetica, Segoe UI Emoji" font-size="32.21522742857276px" fill="#1e1e1e" text-anchor="start" style="white-space: pre;" direction="ltr" dominant-baseline="alphabetic">Gateway</text></g><g stroke-linecap="round" transform="translate(459.32031192307477 487.6607482577492) rotate(0 113.36361079452945 40.7605249033777)"><path d="M20.38 0 C92.52 0, 164.67 0, 206.35 0 C219.93 0, 226.73 6.79, 226.73 20.38 C226.73 28.83, 226.73 37.28, 226.73 61.14 C226.73 74.73, 219.93 81.52, 206.35 81.52 C149.31 81.52, 92.26 81.52, 20.38 81.52 C6.79 81.52, 0 74.73, 0 61.14 C0 45.81, 0 30.48, 0 20.38 C0 6.79, 6.79 0, 20.38 0" stroke="none" stroke-width="0" fill="#ffffff"></path><path d="M20.38 0 C90.52 0, 160.65 0, 206.35 0 M20.38 0 C83.01 0, 145.65 0, 206.35 0 M206.35 0 C219.93 0, 226.73 6.79, 226.73 20.38 M206.35 0 C219.93 0, 226.73 6.79, 226.73 20.38 M226.73 20.38 C226.73 31.18, 226.73 41.97, 226.73 61.14 M226.73 20.38 C226.73 31.32, 226.73 42.26, 226.73 61.14 M226.73 61.14 C226.73 74.73, 219.93 81.52, 206.35 81.52 M226.73 61.14 C226.73 74.73, 219.93 81.52, 206.35 81.52 M206.35 81.52 C168.28 81.52, 130.21 81.52, 20.38 81.52 M206.35 81.52 C137.09 81.52, 67.84 81.52, 20.38 81.52 M20.38 81.52 C6.79 81.52, 0 74.73, 0 61.14 M20.38 81.52 C6.79 81.52, 0 74.73, 0 61.14 M0 61.14 C0 48.13, 0 35.12, 0 20.38 M0 61.14 C0 51.84, 0 42.55, 0 20.38 M0 20.38 C0 6.79, 6.79 0, 20.38 0 M0 20.38 C0 6.79, 6.79 0, 20.38 0" stroke="#a5d8ff" stroke-width="4" fill="none"></path></g><g transform="translate(461.44900607721866 516.1063770532819) rotate(0 110.99733572443438 15.285311504951096)"><text x="0" y="22.46328132682409" font-family="Helvetica, Segoe UI Emoji" font-size="26.583150443392896px" fill="#1e1e1e" text-anchor="start" style="white-space: pre;" direction="ltr" dominant-baseline="alphabetic">HttpListenerOption</text></g><g stroke-linecap="round"><g transform="translate(691.0723736455075 535.3261469452082) rotate(0 134.1186748039563 -70.25017085926993)"><path d="M0 0 C78.88 0.14, 157.76 0.27, 267.72 0.47 M0 0 C79.22 0.14, 158.45 0.28, 267.72 0.47 M267.72 0.47 C267.89 -45.8, 268.06 -92.07, 268.24 -140.97 M267.72 0.47 C267.86 -38.78, 268.01 -78.02, 268.24 -140.97" stroke="#1e1e1e" stroke-width="1" fill="none"></path></g><g transform="translate(691.0723736455075 535.3261469452082) rotate(0 134.1186748039563 -70.25017085926993)"><path d="M268.24 -140.97 L274.53 -127.35 L261.85 -127.39 L268.24 -140.97" stroke="none" stroke-width="0" fill="#1e1e1e" fill-rule="evenodd"></path><path d="M268.24 -140.97 C270.09 -136.95, 271.94 -132.94, 274.53 -127.35 M268.24 -140.97 C270.1 -136.94, 271.96 -132.91, 274.53 -127.35 M274.53 -127.35 C270.38 -127.36, 266.23 -127.38, 261.85 -127.39 M274.53 -127.35 C271.01 -127.36, 267.49 -127.37, 261.85 -127.39 M261.85 -127.39 C263.82 -131.59, 265.8 -135.78, 268.24 -140.97 M261.85 -127.39 C264.12 -132.22, 266.39 -137.05, 268.24 -140.97 M268.24 -140.97 C268.24 -140.97, 268.24 -140.97, 268.24 -140.97 M268.24 -140.97 C268.24 -140.97, 268.24 -140.97, 268.24 -140.97" stroke="#1e1e1e" stroke-width="1" fill="none"></path></g></g><mask></mask><g transform="translate(503.1786153489993 10.010639225778505) rotate(0 202.11328125 20.699999999999818)"><text x="0" y="30.420703125" font-family="Helvetica, Segoe UI Emoji" font-size="36px" fill="#1e1e1e" text-anchor="start" style="white-space: pre;" direction="ltr" dominant-baseline="alphabetic">Kubernetes Gateway API</text></g><g transform="translate(47.202598874195246 10) rotate(0 119.07421875 20.699999999999818)"><text x="0" y="30.420703125" font-family="Helvetica, Segoe UI Emoji" font-size="36px" fill="#1e1e1e" text-anchor="start" style="white-space: pre;" direction="ltr" dominant-baseline="alphabetic">Gloo Edge API</text></g><g stroke-linecap="round" transform="translate(459.6686156099895 306.18095593796534) rotate(0 113.44054308978048 40.788186343538655)"><path d="M20.39 0 C66.26 0, 112.12 0, 206.49 0 C220.08 0, 226.88 6.8, 226.88 20.39 C226.88 34.45, 226.88 48.51, 226.88 61.18 C226.88 74.78, 220.08 81.58, 206.49 81.58 C161.38 81.58, 116.27 81.58, 20.39 81.58 C6.8 81.58, 0 74.78, 0 61.18 C0 49.32, 0 37.46, 0 20.39 C0 6.8, 6.8 0, 20.39 0" stroke="none" stroke-width="0" fill="#ffffff"></path><path d="M20.39 0 C67.39 0, 114.39 0, 206.49 0 M20.39 0 C88.43 0, 156.47 0, 206.49 0 M206.49 0 C220.08 0, 226.88 6.8, 226.88 20.39 M206.49 0 C220.08 0, 226.88 6.8, 226.88 20.39 M226.88 20.39 C226.88 33, 226.88 45.6, 226.88 61.18 M226.88 20.39 C226.88 34.91, 226.88 49.42, 226.88 61.18 M226.88 61.18 C226.88 74.78, 220.08 81.58, 206.49 81.58 M226.88 61.18 C226.88 74.78, 220.08 81.58, 206.49 81.58 M206.49 81.58 C148.13 81.58, 89.77 81.58, 20.39 81.58 M206.49 81.58 C135.06 81.58, 63.63 81.58, 20.39 81.58 M20.39 81.58 C6.8 81.58, 0 74.78, 0 61.18 M20.39 81.58 C6.8 81.58, 0 74.78, 0 61.18 M0 61.18 C0 48.97, 0 36.77, 0 20.39 M0 61.18 C0 51.82, 0 42.45, 0 20.39 M0 20.39 C0 6.8, 6.8 0, 20.39 0 M0 20.39 C0 6.8, 6.8 0, 20.39 0" stroke="#a5d8ff" stroke-width="4" fill="none"></path></g><g transform="translate(474.1841448157429 332.3278601923503) rotate(0 102.83369016647339 18.1527580550528)"><text x="0" y="26.677278439261094" font-family="Helvetica, Segoe UI Emoji" font-size="31.570014008786966px" fill="#1e1e1e" text-anchor="start" style="white-space: pre;" direction="ltr" dominant-baseline="alphabetic">ListenerOption</text></g><g transform="translate(208.14782380773977 140.81673003353717) rotate(0 35.59164148569107 10.906903010449241)"><text x="0" y="16.02877577265912" font-family="Helvetica, Segoe UI Emoji" font-size="18.968526974694257px" fill="#1e1e1e" text-anchor="start" style="white-space: pre;" direction="ltr" dominant-baseline="alphabetic">listeners</text></g><g stroke-linecap="round"><g transform="translate(240.41948558668082 354.327085364519) rotate(0 109.54760147247725 -0.4398168985717348)"><path d="M0 0 C71.68 -0.29, 143.35 -0.58, 219.1 -0.88 M0 0 C60.79 -0.24, 121.59 -0.49, 219.1 -0.88" stroke="#1e1e1e" stroke-width="1" fill="none"></path></g><g transform="translate(240.41948558668082 354.327085364519) rotate(0 109.54760147247725 -0.4398168985717348)"><path d="M219.1 -0.88 L205.53 5.51 L205.48 -7.16 L219.1 -0.88" stroke="none" stroke-width="0" fill="#1e1e1e" fill-rule="evenodd"></path><path d="M219.1 -0.88 C214.66 1.21, 210.22 3.3, 205.53 5.51 M219.1 -0.88 C215.33 0.89, 211.56 2.67, 205.53 5.51 M205.53 5.51 C205.51 1.6, 205.49 -2.32, 205.48 -7.16 M205.53 5.51 C205.51 1, 205.49 -3.51, 205.48 -7.16 M205.48 -7.16 C208.74 -5.66, 212 -4.15, 219.1 -0.88 M205.48 -7.16 C209.76 -5.19, 214.04 -3.21, 219.1 -0.88 M219.1 -0.88 C219.1 -0.88, 219.1 -0.88, 219.1 -0.88 M219.1 -0.88 C219.1 -0.88, 219.1 -0.88, 219.1 -0.88" stroke="#1e1e1e" stroke-width="1" fill="none"></path></g></g><mask></mask><g transform="translate(248.17136845853747 303.4936596246371) rotate(0 60.06465148925781 21.813806020898483)"><text x="60.06465148925781" y="16.02877577265912" font-family="Helvetica, Segoe UI Emoji" font-size="18.968526974694257px" fill="#1e1e1e" text-anchor="middle" style="white-space: pre;" direction="ltr" dominant-baseline="alphabetic">Gateway-level</text><text x="60.06465148925781" y="37.842581793557514" font-family="Helvetica, Segoe UI Emoji" font-size="18.968526974694257px" fill="#1e1e1e" text-anchor="middle" style="white-space: pre;" direction="ltr" dominant-baseline="alphabetic">policies</text></g><g stroke-linecap="round"><g transform="translate(124.39080868431483 390.9121061224141) rotate(0 164.7985620515028 72.28764157463411)"><path d="M0 0 C0.04 38.29, 0.08 76.59, 0.16 144.58 M0 0 C0.04 38.8, 0.09 77.6, 0.16 144.58 M0.16 144.58 C71.41 144.48, 142.66 144.39, 329.6 144.14 M0.16 144.58 C75.76 144.48, 151.36 144.38, 329.6 144.14" stroke="#1e1e1e" stroke-width="1" fill="none"></path></g><g transform="translate(124.39080868431483 390.9121061224141) rotate(0 164.7985620515028 72.28764157463411)"><path d="M329.6 144.14 L316.01 150.5 L315.99 137.82 L329.6 144.14" stroke="none" stroke-width="0" fill="#1e1e1e" fill-rule="evenodd"></path><path d="M329.6 144.14 C326 145.83, 322.4 147.51, 316.01 150.5 M329.6 144.14 C325.95 145.85, 322.3 147.56, 316.01 150.5 M316.01 150.5 C316.01 147.76, 316 145.02, 315.99 137.82 M316.01 150.5 C316.01 147.59, 316 144.68, 315.99 137.82 M315.99 137.82 C319.18 139.3, 322.37 140.79, 329.6 144.14 M315.99 137.82 C321.19 140.23, 326.38 142.65, 329.6 144.14 M329.6 144.14 C329.6 144.14, 329.6 144.14, 329.6 144.14 M329.6 144.14 C329.6 144.14, 329.6 144.14, 329.6 144.14" stroke="#1e1e1e" stroke-width="1" fill="none"></path></g></g><mask></mask><g transform="translate(141.95429368550685 498.17487548284953) rotate(0 97.34583216905594 10.906903010449241)"><text x="0" y="16.02877577265912" font-family="Helvetica, Segoe UI Emoji" font-size="18.968526974694257px" fill="#1e1e1e" text-anchor="start" style="white-space: pre;" direction="ltr" dominant-baseline="alphabetic">HTTP gateway policies</text></g><g stroke-linecap="round" transform="translate(851.7302841489982 305.6221948466955) rotate(0 113.36361079452945 40.7605249033777)"><path d="M20.38 0 C85.7 0, 151.03 0, 206.35 0 C219.93 0, 226.73 6.79, 226.73 20.38 C226.73 31.18, 226.73 41.98, 226.73 61.14 C226.73 74.73, 219.93 81.52, 206.35 81.52 C165.92 81.52, 125.49 81.52, 20.38 81.52 C6.79 81.52, 0 74.73, 0 61.14 C0 45.11, 0 29.08, 0 20.38 C0 6.79, 6.79 0, 20.38 0" stroke="none" stroke-width="0" fill="#ffffff"></path><path d="M20.38 0 C60.6 0, 100.82 0, 206.35 0 M20.38 0 C63.06 0, 105.73 0, 206.35 0 M206.35 0 C219.93 0, 226.73 6.79, 226.73 20.38 M206.35 0 C219.93 0, 226.73 6.79, 226.73 20.38 M226.73 20.38 C226.73 31.6, 226.73 42.83, 226.73 61.14 M226.73 20.38 C226.73 33.39, 226.73 46.41, 226.73 61.14 M226.73 61.14 C226.73 74.73, 219.93 81.52, 206.35 81.52 M226.73 61.14 C226.73 74.73, 219.93 81.52, 206.35 81.52 M206.35 81.52 C162.44 81.52, 118.54 81.52, 20.38 81.52 M206.35 81.52 C154.07 81.52, 101.8 81.52, 20.38 81.52 M20.38 81.52 C6.79 81.52, 0 74.73, 0 61.14 M20.38 81.52 C6.79 81.52, 0 74.73, 0 61.14 M0 61.14 C0 45.66, 0 30.17, 0 20.38 M0 61.14 C0 47.09, 0 33.04, 0 20.38 M0 20.38 C0 6.79, 6.79 0, 20.38 0 M0 20.38 C0 6.79, 6.79 0, 20.38 0" stroke="#a5d8ff" stroke-width="4" fill="none"></path></g><g transform="translate(913.2646871944635 333.6584343278282) rotate(0 53.80910766124725 15.536720297495776)"><text x="0" y="22.832751483394695" font-family="Helvetica, Segoe UI Emoji" font-size="27.02038312607901px" fill="#1e1e1e" text-anchor="start" style="white-space: pre;" direction="ltr" dominant-baseline="alphabetic">Gateway</text></g><g transform="translate(714.3252008197305 500.02542867499324) rotate(0 43.73387908935547 10.906903010449241)"><text x="43.73387908935547" y="16.02877577265912" font-family="Helvetica, Segoe UI Emoji" font-size="18.968526974694257px" fill="#1e1e1e" text-anchor="middle" style="white-space: pre;" direction="ltr" dominant-baseline="alphabetic">targetRefs</text></g><g stroke-linecap="round"><g transform="translate(399.6896127299078 76.57395438349522) rotate(0 0.06067203041129687 274.63833489704757)"><path d="M0 0 C0.04 163.53, 0.07 327.05, 0.12 549.28" stroke="#1e1e1e" stroke-width="1.5" fill="none" stroke-dasharray="8 9"></path></g></g><mask></mask><g stroke-linecap="round"><g transform="translate(124.3861802383617 308.8570921049122) rotate(0 418.75722606465206 -67.13154912848768)"><path d="M0 0 C-0.18 -37.64, -0.35 -75.28, -0.63 -133.84 M0 0 C-0.18 -38.74, -0.36 -77.47, -0.63 -133.84 M-0.63 -133.84 C296.93 -133.99, 594.48 -134.14, 836.76 -134.26 M-0.63 -133.84 C211.17 -133.94, 422.96 -134.05, 836.76 -134.26 M836.76 -134.26 C837.28 -87.83, 837.81 -41.4, 838.14 -12.27 M836.76 -134.26 C837.2 -95.66, 837.63 -57.05, 838.14 -12.27" stroke="#1e1e1e" stroke-width="1" fill="none"></path></g><g transform="translate(124.3861802383617 308.8570921049122) rotate(0 418.75722606465206 -67.13154912848768)"><path d="M838.14 -12.27 L831.65 -25.79 L844.32 -25.93 L838.14 -12.27" stroke="none" stroke-width="0" fill="#1e1e1e" fill-rule="evenodd"></path><path d="M838.14 -12.27 C836.31 -16.07, 834.49 -19.87, 831.65 -25.79 M838.14 -12.27 C836.26 -16.18, 834.38 -20.09, 831.65 -25.79 M831.65 -25.79 C836.15 -25.84, 840.66 -25.89, 844.32 -25.93 M831.65 -25.79 C834.85 -25.82, 838.06 -25.86, 844.32 -25.93 M844.32 -25.93 C841.97 -20.73, 839.62 -15.53, 838.14 -12.27 M844.32 -25.93 C842.37 -21.61, 840.41 -17.28, 838.14 -12.27 M838.14 -12.27 C838.14 -12.27, 838.14 -12.27, 838.14 -12.27 M838.14 -12.27 C838.14 -12.27, 838.14 -12.27, 838.14 -12.27" stroke="#1e1e1e" stroke-width="1" fill="none"></path></g></g><mask></mask><g transform="translate(723.2662821220802 321.18026654227833) rotate(0 43.73387908935547 10.906903010449241)"><text x="43.73387908935547" y="16.02877577265912" font-family="Helvetica, Segoe UI Emoji" font-size="18.968526974694257px" fill="#1e1e1e" text-anchor="middle" style="white-space: pre;" direction="ltr" dominant-baseline="alphabetic">targetRefs</text></g><g stroke-linecap="round"><g transform="translate(689.3932246937038 350.5484147166644) rotate(0 82.63855248315122 0.13277491277585796)"><path d="M0 0 C47.66 0.08, 95.32 0.15, 165.28 0.27 M0 0 C59.53 0.1, 119.06 0.19, 165.28 0.27" stroke="#1e1e1e" stroke-width="1" fill="none"></path></g><g transform="translate(689.3932246937038 350.5484147166644) rotate(0 82.63855248315122 0.13277491277585796)"><path d="M165.28 0.27 L151.67 6.58 L151.69 -6.1 L165.28 0.27" stroke="none" stroke-width="0" fill="#1e1e1e" fill-rule="evenodd"></path><path d="M165.28 0.27 C161.35 2.09, 157.43 3.91, 151.67 6.58 M165.28 0.27 C160.38 2.54, 155.48 4.82, 151.67 6.58 M151.67 6.58 C151.68 2.73, 151.68 -1.13, 151.69 -6.1 M151.67 6.58 C151.68 2.89, 151.68 -0.8, 151.69 -6.1 M151.69 -6.1 C154.53 -4.77, 157.36 -3.44, 165.28 0.27 M151.69 -6.1 C155.86 -4.14, 160.03 -2.19, 165.28 0.27 M165.28 0.27 C165.28 0.27, 165.28 0.27, 165.28 0.27 M165.28 0.27 C165.28 0.27, 165.28 0.27, 165.28 0.27" stroke="#1e1e1e" stroke-width="1" fill="none"></path></g></g><mask></mask></svg>