<svg version="1.1" xmlns="http://www.w3.org/2000/svg" viewBox="0 0 1560.5041417295602 704.5651676574837" width="4681.512425188681" height="2113.6955029724513">
  <!-- svg-source:excalidraw -->
  
  <defs>
    <style class="style-fonts">
      
    </style>
    
  </defs>
  <rect x="0" y="0" width="1560.5041417295602" height="704.5651676574837" fill="#ffffff"></rect><g transform="translate(707.048482246724 180.9280572275611) rotate(0 35.0146484375 11.5)"><text x="35.0146484375" y="16.900390625" font-family="Helvetica, Segoe UI Emoji" font-size="20px" fill="white" text-anchor="middle" style="white-space: pre;" direction="ltr" dominant-baseline="alphabetic">Policy 1</text></g><g stroke-linecap="round" transform="translate(455.664995071568 206.0698068914744) rotate(0 117.48716581554646 19.274144472894648)"><path d="M9.64 0 C72.29 0, 134.94 0, 225.34 0 C231.76 0, 234.97 3.21, 234.97 9.64 C234.97 15.91, 234.97 22.19, 234.97 28.91 C234.97 35.34, 231.76 38.55, 225.34 38.55 C168.4 38.55, 111.47 38.55, 9.64 38.55 C3.21 38.55, 0 35.34, 0 28.91 C0 24.42, 0 19.93, 0 9.64 C0 3.21, 3.21 0, 9.64 0" stroke="none" stroke-width="0" fill="#158bc2"></path><path d="M9.64 0 C68.81 0, 127.99 0, 225.34 0 M9.64 0 C89.55 0, 169.47 0, 225.34 0 M225.34 0 C231.76 0, 234.97 3.21, 234.97 9.64 M225.34 0 C231.76 0, 234.97 3.21, 234.97 9.64 M234.97 9.64 C234.97 16.19, 234.97 22.75, 234.97 28.91 M234.97 9.64 C234.97 17.3, 234.97 24.96, 234.97 28.91 M234.97 28.91 C234.97 35.34, 231.76 38.55, 225.34 38.55 M234.97 28.91 C234.97 35.34, 231.76 38.55, 225.34 38.55 M225.34 38.55 C177.76 38.55, 130.19 38.55, 9.64 38.55 M225.34 38.55 C143.67 38.55, 62.01 38.55, 9.64 38.55 M9.64 38.55 C3.21 38.55, 0 35.34, 0 28.91 M9.64 38.55 C3.21 38.55, 0 35.34, 0 28.91 M0 28.91 C0 22.58, 0 16.26, 0 9.64 M0 28.91 C0 24.82, 0 20.73, 0 9.64 M0 9.64 C0 3.21, 3.21 0, 9.64 0 M0 9.64 C0 3.21, 3.21 0, 9.64 0" stroke="#158bc2" stroke-width="2" fill="none"></path></g><g transform="translate(496.983147810693 210.057418441761) rotate(0 76.26171875 16.099999999999994)"><text x="76.26171875" y="23.660546874999998" font-family="Helvetica, Segoe UI Emoji" font-size="28px" fill="white" text-anchor="middle" style="white-space: pre;" direction="ltr" dominant-baseline="alphabetic">listener: http</text></g><g stroke-linecap="round" transform="translate(400.23970051177275 136.37046513317364) rotate(359.93787961041494 174.2997195481492 204.2087067483355)"><path d="M0 0 C90.22 0, 180.44 0, 348.6 0 M0 0 C102.19 0, 204.39 0, 348.6 0 M348.6 0 C348.6 140.8, 348.6 281.61, 348.6 408.42 M348.6 0 C348.6 141.47, 348.6 282.95, 348.6 408.42 M348.6 408.42 C256.48 408.42, 164.35 408.42, 0 408.42 M348.6 408.42 C217.77 408.42, 86.94 408.42, 0 408.42 M0 408.42 C0 298.62, 0 188.83, 0 0 M0 408.42 C0 290.75, 0 173.09, 0 0" stroke="#158bc2" stroke-width="1" fill="none"></path></g><g stroke-linecap="round" transform="translate(399.67827014226896 129.11019934707474) rotate(0 174.89483667878696 20.508975348572648)"><path d="M0 0 L349.79 0 L349.79 41.02 L0 41.02" stroke="none" stroke-width="0" fill="#158bc2"></path><path d="M0 0 C97.51 0, 195.03 0, 349.79 0 M0 0 C85.58 0, 171.16 0, 349.79 0 M349.79 0 C349.79 9.08, 349.79 18.15, 349.79 41.02 M349.79 0 C349.79 9.85, 349.79 19.7, 349.79 41.02 M349.79 41.02 C228.23 41.02, 106.67 41.02, 0 41.02 M349.79 41.02 C268.79 41.02, 187.8 41.02, 0 41.02 M0 41.02 C0 29.54, 0 18.05, 0 0 M0 41.02 C0 26.86, 0 12.71, 0 0" stroke="#158bc2" stroke-width="1" fill="none"></path></g><g transform="translate(520.475528587658 134.58761727927413) rotate(0 55.248046875 16.099999999999994)"><text x="55.248046875" y="23.660546874999998" font-family="Helvetica, Segoe UI Emoji" font-size="28px" fill="white" text-anchor="middle" style="white-space: pre;" direction="ltr" dominant-baseline="alphabetic">Gateway</text></g><g stroke-linecap="round" transform="translate(454.313919488805 452.2435136390586) rotate(0 117.4492894822059 19.652907806300107)"><path d="M9.83 0 C74.16 0, 138.5 0, 225.07 0 C231.62 0, 234.9 3.28, 234.9 9.83 C234.9 16.83, 234.9 23.84, 234.9 29.48 C234.9 36.03, 231.62 39.31, 225.07 39.31 C146.46 39.31, 67.85 39.31, 9.83 39.31 C3.28 39.31, 0 36.03, 0 29.48 C0 23.37, 0 17.26, 0 9.83 C0 3.28, 3.28 0, 9.83 0" stroke="none" stroke-width="0" fill="#158bc2"></path><path d="M9.83 0 C81.53 0, 153.24 0, 225.07 0 M9.83 0 C58.54 0, 107.25 0, 225.07 0 M225.07 0 C231.62 0, 234.9 3.28, 234.9 9.83 M225.07 0 C231.62 0, 234.9 3.28, 234.9 9.83 M234.9 9.83 C234.9 15.02, 234.9 20.21, 234.9 29.48 M234.9 9.83 C234.9 17.2, 234.9 24.58, 234.9 29.48 M234.9 29.48 C234.9 36.03, 231.62 39.31, 225.07 39.31 M234.9 29.48 C234.9 36.03, 231.62 39.31, 225.07 39.31 M225.07 39.31 C139.38 39.31, 53.69 39.31, 9.83 39.31 M225.07 39.31 C161.1 39.31, 97.12 39.31, 9.83 39.31 M9.83 39.31 C3.28 39.31, 0 36.03, 0 29.48 M9.83 39.31 C3.28 39.31, 0 36.03, 0 29.48 M0 29.48 C0 22.53, 0 15.57, 0 9.83 M0 29.48 C0 23.37, 0 17.27, 0 9.83 M0 9.83 C0 3.28, 3.28 0, 9.83 0 M0 9.83 C0 3.28, 3.28 0, 9.83 0" stroke="#158bc2" stroke-width="2" fill="none"></path></g><g transform="translate(488.4581880851772 455.20168904621005) rotate(0 83.26171875 16.100000000000023)"><text x="83.26171875" y="23.660546874999998" font-family="Helvetica, Segoe UI Emoji" font-size="28px" fill="white" text-anchor="middle" style="white-space: pre;" direction="ltr" dominant-baseline="alphabetic">listener: https</text></g><g stroke-linecap="round" transform="translate(1256.9173036863226 201.6061917369816) rotate(0 117.48716581554652 19.274144472894648)"><path d="M9.64 0 C68.73 0, 127.82 0, 225.34 0 C231.76 0, 234.97 3.21, 234.97 9.64 C234.97 14.86, 234.97 20.08, 234.97 28.91 C234.97 35.34, 231.76 38.55, 225.34 38.55 C175.13 38.55, 124.92 38.55, 9.64 38.55 C3.21 38.55, 0 35.34, 0 28.91 C0 22.53, 0 16.15, 0 9.64 C0 3.21, 3.21 0, 9.64 0" stroke="none" stroke-width="0" fill="#158bc2"></path><path d="M9.64 0 C95.71 0, 181.78 0, 225.34 0 M9.64 0 C78.74 0, 147.84 0, 225.34 0 M225.34 0 C231.76 0, 234.97 3.21, 234.97 9.64 M225.34 0 C231.76 0, 234.97 3.21, 234.97 9.64 M234.97 9.64 C234.97 15.02, 234.97 20.41, 234.97 28.91 M234.97 9.64 C234.97 16.19, 234.97 22.74, 234.97 28.91 M234.97 28.91 C234.97 35.34, 231.76 38.55, 225.34 38.55 M234.97 28.91 C234.97 35.34, 231.76 38.55, 225.34 38.55 M225.34 38.55 C151.03 38.55, 76.73 38.55, 9.64 38.55 M225.34 38.55 C144.51 38.55, 63.69 38.55, 9.64 38.55 M9.64 38.55 C3.21 38.55, 0 35.34, 0 28.91 M9.64 38.55 C3.21 38.55, 0 35.34, 0 28.91 M0 28.91 C0 22.75, 0 16.58, 0 9.64 M0 28.91 C0 21.64, 0 14.36, 0 9.64 M0 9.64 C0 3.21, 3.21 0, 9.64 0 M0 9.64 C0 3.21, 3.21 0, 9.64 0" stroke="#158bc2" stroke-width="2" fill="none"></path></g><g transform="translate(1298.2354564254479 205.35191492135073) rotate(0 76.26171875 16.099999999999994)"><text x="76.26171875" y="23.660546874999998" font-family="Helvetica, Segoe UI Emoji" font-size="28px" fill="white" text-anchor="middle" style="white-space: pre;" direction="ltr" dominant-baseline="alphabetic">listener: http</text></g><g stroke-linecap="round" transform="translate(1201.7342664871103 131.96151527967322) rotate(0 174.30690956491992 281.30182618890524)"><path d="M0 0 C120.19 0, 240.37 0, 348.61 0 M0 0 C120.76 0, 241.52 0, 348.61 0 M348.61 0 C348.61 148.68, 348.61 297.35, 348.61 562.6 M348.61 0 C348.61 211.14, 348.61 422.29, 348.61 562.6 M348.61 562.6 C254.9 562.6, 161.18 562.6, 0 562.6 M348.61 562.6 C248.18 562.6, 147.74 562.6, 0 562.6 M0 562.6 C0 338.96, 0 115.31, 0 0 M0 562.6 C0 405.72, 0 248.83, 0 0" stroke="#158bc2" stroke-width="1" fill="none"></path></g><g stroke-linecap="round" transform="translate(1200.7144683719862 121.49516145128291) rotate(0 174.894836678787 20.508975348572648)"><path d="M0 0 L349.79 0 L349.79 41.02 L0 41.02" stroke="none" stroke-width="0" fill="#158bc2"></path><path d="M0 0 C77.41 0, 154.82 0, 349.79 0 M0 0 C84.01 0, 168.01 0, 349.79 0 M349.79 0 C349.79 14.25, 349.79 28.51, 349.79 41.02 M349.79 0 C349.79 9.5, 349.79 19, 349.79 41.02 M349.79 41.02 C251.87 41.02, 153.95 41.02, 0 41.02 M349.79 41.02 C229.07 41.02, 108.35 41.02, 0 41.02 M0 41.02 C0 31.77, 0 22.52, 0 0 M0 41.02 C0 30.92, 0 20.83, 0 0" stroke="#158bc2" stroke-width="1" fill="none"></path></g><g transform="translate(1321.5432490189696 127.0131483273417) rotate(0 55.248046875 16.099999999999994)"><text x="55.248046875" y="23.660546874999998" font-family="Helvetica, Segoe UI Emoji" font-size="28px" fill="white" text-anchor="middle" style="white-space: pre;" direction="ltr" dominant-baseline="alphabetic">Gateway</text></g><g stroke-linecap="round" transform="translate(1255.5662281035598 447.7798984845658) rotate(0 117.44928948220593 19.652907806300107)"><path d="M9.83 0 C94.69 0, 179.56 0, 225.07 0 C231.62 0, 234.9 3.28, 234.9 9.83 C234.9 16.35, 234.9 22.88, 234.9 29.48 C234.9 36.03, 231.62 39.31, 225.07 39.31 C169.69 39.31, 114.31 39.31, 9.83 39.31 C3.28 39.31, 0 36.03, 0 29.48 C0 22.62, 0 15.77, 0 9.83 C0 3.28, 3.28 0, 9.83 0" stroke="none" stroke-width="0" fill="#158bc2"></path><path d="M9.83 0 C73.81 0, 137.79 0, 225.07 0 M9.83 0 C63.91 0, 118 0, 225.07 0 M225.07 0 C231.62 0, 234.9 3.28, 234.9 9.83 M225.07 0 C231.62 0, 234.9 3.28, 234.9 9.83 M234.9 9.83 C234.9 15.11, 234.9 20.39, 234.9 29.48 M234.9 9.83 C234.9 15.49, 234.9 21.15, 234.9 29.48 M234.9 29.48 C234.9 36.03, 231.62 39.31, 225.07 39.31 M234.9 29.48 C234.9 36.03, 231.62 39.31, 225.07 39.31 M225.07 39.31 C143.97 39.31, 62.87 39.31, 9.83 39.31 M225.07 39.31 C181.33 39.31, 137.59 39.31, 9.83 39.31 M9.83 39.31 C3.28 39.31, 0 36.03, 0 29.48 M9.83 39.31 C3.28 39.31, 0 36.03, 0 29.48 M0 29.48 C0 24.07, 0 18.67, 0 9.83 M0 29.48 C0 23.63, 0 17.79, 0 9.83 M0 9.83 C0 3.28, 3.28 0, 9.83 0 M0 9.83 C0 3.28, 3.28 0, 9.83 0" stroke="#158bc2" stroke-width="2" fill="none"></path></g><g transform="translate(1289.7104966999318 450.73807389171725) rotate(0 83.26171875 16.100000000000023)"><text x="83.26171875" y="23.660546874999998" font-family="Helvetica, Segoe UI Emoji" font-size="28px" fill="white" text-anchor="middle" style="white-space: pre;" direction="ltr" dominant-baseline="alphabetic">listener: https</text></g><g stroke-linecap="round"><g transform="translate(1278.1692899981026 241.46164771034546) rotate(0 0.15288642533892016 39.26066643763696)"><path d="M0 0 C0.08 19.59, 0.15 39.18, 0.31 78.52 M0 0 C0.11 28.13, 0.22 56.27, 0.31 78.52" stroke="#1e1e1e" stroke-width="1" fill="none"></path></g></g><mask></mask><g transform="translate(476.40293738511286 11.16996333917632) rotate(0 100.26045652836191 24.119859776874165)"><text x="0" y="35.446526265165105" font-family="Helvetica, Segoe UI Emoji" font-size="41.947582220650716px" fill="#1e1e1e" text-anchor="start" style="white-space: pre;" direction="ltr" dominant-baseline="alphabetic">Initial state</text></g><g transform="translate(1244.4651338198655 10) rotate(0 149.59552001953125 24.119859776874165)"><text x="0" y="35.446526265165105" font-family="Helvetica, Segoe UI Emoji" font-size="41.947582220650716px" fill="#1e1e1e" text-anchor="start" style="white-space: pre;" direction="ltr" dominant-baseline="alphabetic">Translated state</text></g><g stroke-linecap="round"><g transform="translate(787.1498369369434 39.83666439939407) rotate(0 196.04622347722704 -0.13301207336348853)"><path d="M0 0 C136.26 -0.09, 272.52 -0.18, 392.09 -0.27 M0 0 C90.79 -0.06, 181.58 -0.12, 392.09 -0.27" stroke="#1e1e1e" stroke-width="1" fill="none"></path></g><g transform="translate(787.1498369369434 39.83666439939407) rotate(0 196.04622347722704 -0.13301207336348853)"><path d="M392.09 -0.27 L378.5 6.08 L378.49 -6.6 L392.09 -0.27" stroke="none" stroke-width="0" fill="#1e1e1e" fill-rule="evenodd"></path><path d="M392.09 -0.27 C387.37 1.94, 382.65 4.15, 378.5 6.08 M392.09 -0.27 C388.95 1.2, 385.8 2.67, 378.5 6.08 M378.5 6.08 C378.5 2.53, 378.5 -1.02, 378.49 -6.6 M378.5 6.08 C378.5 1.71, 378.5 -2.67, 378.49 -6.6 M378.49 -6.6 C381.56 -5.17, 384.63 -3.74, 392.09 -0.27 M378.49 -6.6 C381.84 -5.04, 385.19 -3.48, 392.09 -0.27 M392.09 -0.27 C392.09 -0.27, 392.09 -0.27, 392.09 -0.27 M392.09 -0.27 C392.09 -0.27, 392.09 -0.27, 392.09 -0.27" stroke="#1e1e1e" stroke-width="1" fill="none"></path></g></g><mask></mask><g stroke-linecap="round"><g transform="translate(1265.3287229506564 270.92661494335607) rotate(0 45.53585024310007 60.71446699080008)" fill-rule="evenodd"><path d="M0 0 L60.71 0 L91.07 30.36 L91.07 121.43 L0 121.43 L0 0" stroke="none" stroke-width="0" fill="#fff" fill-rule="evenodd"></path><path d="M0 0 C16.97 0, 33.94 0, 60.71 0 M0 0 C20.63 0, 41.26 0, 60.71 0 M60.71 0 C69.85 9.13, 78.98 18.27, 91.07 30.36 M60.71 0 C69.41 8.69, 78.1 17.38, 91.07 30.36 M91.07 30.36 C91.07 49.24, 91.07 68.12, 91.07 121.43 M91.07 30.36 C91.07 57.25, 91.07 84.15, 91.07 121.43 M91.07 121.43 C58.17 121.43, 25.26 121.43, 0 121.43 M91.07 121.43 C55.64 121.43, 20.22 121.43, 0 121.43 M0 121.43 C0 89.52, 0 57.61, 0 0 M0 121.43 C0 81.9, 0 42.37, 0 0 M0 0 C0 0, 0 0, 0 0 M0 0 C0 0, 0 0, 0 0" stroke="#0fac7c" stroke-width="2" fill="none"></path></g></g><mask></mask><g stroke-linecap="round"><g transform="translate(1326.0431899414552 270.7625660482199) rotate(0 0 15.178616747700033)"><path d="M0 0 C0 11.3, 0 22.6, 0 30.36 M0 0 C0 8.53, 0 17.06, 0 30.36" stroke="#0fac7c" stroke-width="2" fill="none"></path></g></g><mask></mask><g stroke-linecap="round"><g transform="translate(1326.0431899414552 301.1197995436187) rotate(0 15.178616747700062 0)"><path d="M0 0 C8.64 0, 17.28 0, 30.36 0 M0 0 C6.46 0, 12.92 0, 30.36 0" stroke="#0fac7c" stroke-width="2" fill="none"></path></g></g><mask></mask><g stroke-linecap="round" transform="translate(1264.852783970065 387.0873255005672) rotate(0 46.378538196917134 12.960217825567156)"><path d="M0 0 L92.76 0 L92.76 25.92 L0 25.92" stroke="none" stroke-width="0" fill="#0fac7c"></path><path d="M0 0 C29.64 0, 59.28 0, 92.76 0 M0 0 C20.59 0, 41.19 0, 92.76 0 M92.76 0 C92.76 10.29, 92.76 20.58, 92.76 25.92 M92.76 0 C92.76 8.52, 92.76 17.05, 92.76 25.92 M92.76 25.92 C70.36 25.92, 47.97 25.92, 0 25.92 M92.76 25.92 C69.8 25.92, 46.85 25.92, 0 25.92 M0 25.92 C0 16.52, 0 7.12, 0 0 M0 25.92 C0 18.92, 0 11.92, 0 0" stroke="#0fac7c" stroke-width="1" fill="none"></path></g><g transform="translate(1275.473969656462 389.7282563962135) rotate(0 35.0146484375 11.5)"><text x="35.0146484375" y="16.900390625" font-family="Helvetica, Segoe UI Emoji" font-size="20px" fill="white" text-anchor="middle" style="white-space: pre;" direction="ltr" dominant-baseline="alphabetic">Policy 1</text></g><g stroke-linecap="round"><g transform="translate(1284.921050479511 488.9129634945648) rotate(0 0.15288642533892016 39.26066643763693)"><path d="M0 0 C0.09 21.98, 0.17 43.96, 0.31 78.52 M0 0 C0.11 27.1, 0.21 54.2, 0.31 78.52" stroke="#1e1e1e" stroke-width="1" fill="none"></path></g></g><mask></mask><g stroke-linecap="round"><g transform="translate(1272.0804834320643 518.3779307275754) rotate(0 45.53585024310007 60.71446699080008)" fill-rule="evenodd"><path d="M0 0 L60.71 0 L91.07 30.36 L91.07 121.43 L0 121.43 L0 0" stroke="none" stroke-width="0" fill="#fff" fill-rule="evenodd"></path><path d="M0 0 C18.27 0, 36.54 0, 60.71 0 M0 0 C17.38 0, 34.77 0, 60.71 0 M60.71 0 C67.01 6.29, 73.3 12.59, 91.07 30.36 M60.71 0 C69.68 8.96, 78.64 17.93, 91.07 30.36 M91.07 30.36 C91.07 63.26, 91.07 96.17, 91.07 121.43 M91.07 30.36 C91.07 65.78, 91.07 101.21, 91.07 121.43 M91.07 121.43 C67.14 121.43, 43.21 121.43, 0 121.43 M91.07 121.43 C61.42 121.43, 31.77 121.43, 0 121.43 M0 121.43 C0 93.8, 0 66.16, 0 0 M0 121.43 C0 88.55, 0 55.67, 0 0 M0 0 C0 0, 0 0, 0 0 M0 0 C0 0, 0 0, 0 0" stroke="#0fac7c" stroke-width="2" fill="none"></path></g></g><mask></mask><g stroke-linecap="round"><g transform="translate(1332.7949504228636 518.2138818324393) rotate(0 0 15.178616747700005)"><path d="M0 0 C0 6.28, 0 12.56, 0 30.36 M0 0 C0 7.4, 0 14.79, 0 30.36" stroke="#0fac7c" stroke-width="2" fill="none"></path></g></g><mask></mask><g stroke-linecap="round"><g transform="translate(1332.7949504228636 548.571115327838) rotate(0 15.178616747700062 0)"><path d="M0 0 C12.09 0, 24.17 0, 30.36 0 M0 0 C9.02 0, 18.05 0, 30.36 0" stroke="#0fac7c" stroke-width="2" fill="none"></path></g></g><mask></mask><g stroke-linecap="round" transform="translate(1271.604544451473 634.5386412847865) rotate(0 46.378538196917134 12.960217825567156)"><path d="M0 0 L92.76 0 L92.76 25.92 L0 25.92" stroke="none" stroke-width="0" fill="#0fac7c"></path><path d="M0 0 C36.82 0, 73.64 0, 92.76 0 M0 0 C30.5 0, 61 0, 92.76 0 M92.76 0 C92.76 6.26, 92.76 12.52, 92.76 25.92 M92.76 0 C92.76 6.41, 92.76 12.83, 92.76 25.92 M92.76 25.92 C59.11 25.92, 25.47 25.92, 0 25.92 M92.76 25.92 C67.7 25.92, 42.65 25.92, 0 25.92 M0 25.92 C0 18.17, 0 10.43, 0 0 M0 25.92 C0 18.56, 0 11.2, 0 0" stroke="#0fac7c" stroke-width="1" fill="none"></path></g><g transform="translate(1282.22573013787 637.1795721804328) rotate(0 35.0146484375 11.5)"><text x="35.0146484375" y="16.900390625" font-family="Helvetica, Segoe UI Emoji" font-size="20px" fill="white" text-anchor="middle" style="white-space: pre;" direction="ltr" dominant-baseline="alphabetic">Policy 1</text></g><g transform="translate(10 161.3716950833168) rotate(0 35.0146484375 11.5)"><text x="35.0146484375" y="16.900390625" font-family="Helvetica, Segoe UI Emoji" font-size="20px" fill="white" text-anchor="middle" style="white-space: pre;" direction="ltr" dominant-baseline="alphabetic">Policy 1</text></g><g stroke-linecap="round"><g transform="translate(21.25801853935002 269.52692058277717) rotate(0 45.53585024310006 60.71446699080008)" fill-rule="evenodd"><path d="M0 0 L60.71 0 L91.07 30.36 L91.07 121.43 L0 121.43 L0 0" stroke="none" stroke-width="0" fill="#fff" fill-rule="evenodd"></path><path d="M0 0 C12.59 0, 25.18 0, 60.71 0 M0 0 C17.93 0, 35.86 0, 60.71 0 M60.71 0 C71.68 10.97, 82.65 21.94, 91.07 30.36 M60.71 0 C72.52 11.81, 84.33 23.62, 91.07 30.36 M91.07 30.36 C91.07 54.29, 91.07 78.22, 91.07 121.43 M91.07 30.36 C91.07 60.01, 91.07 89.65, 91.07 121.43 M91.07 121.43 C70.35 121.43, 49.62 121.43, 0 121.43 M91.07 121.43 C66.41 121.43, 41.75 121.43, 0 121.43 M0 121.43 C0 77.08, 0 32.74, 0 0 M0 121.43 C0 76.48, 0 31.54, 0 0 M0 0 C0 0, 0 0, 0 0 M0 0 C0 0, 0 0, 0 0" stroke="#0fac7c" stroke-width="2" fill="none"></path></g></g><mask></mask><g stroke-linecap="round"><g transform="translate(81.97248553014936 269.3628716876401) rotate(0 0 15.178616747700033)"><path d="M0 0 C0 9.97, 0 19.93, 0 30.36 M0 0 C0 6.44, 0 12.89, 0 30.36" stroke="#0fac7c" stroke-width="2" fill="none"></path></g></g><mask></mask><g stroke-linecap="round"><g transform="translate(81.97248553014936 299.7201051830398) rotate(0 15.17861674770002 0)"><path d="M0 0 C11.44 0, 22.88 0, 30.36 0 M0 0 C6.17 0, 12.34 0, 30.36 0" stroke="#0fac7c" stroke-width="2" fill="none"></path></g></g><mask></mask><g stroke-linecap="round" transform="translate(20.78207955875871 385.6876311399883) rotate(0 46.37853819691716 12.960217825567156)"><path d="M0 0 L92.76 0 L92.76 25.92 L0 25.92" stroke="none" stroke-width="0" fill="#0fac7c"></path><path d="M0 0 C22.39 0, 44.79 0, 92.76 0 M0 0 C22.96 0, 45.91 0, 92.76 0 M92.76 0 C92.76 9.4, 92.76 18.8, 92.76 25.92 M92.76 0 C92.76 7, 92.76 14, 92.76 25.92 M92.76 25.92 C65.03 25.92, 37.31 25.92, 0 25.92 M92.76 25.92 C66.41 25.92, 40.06 25.92, 0 25.92 M0 25.92 C0 15.7, 0 5.48, 0 0 M0 25.92 C0 17.01, 0 8.1, 0 0" stroke="#0fac7c" stroke-width="1" fill="none"></path></g><g transform="translate(40.53347677316276 304.9892612413014) rotate(0 23.994140625 34.5)"><text x="23.994140625" y="16.900390625" font-family="Helvetica, Segoe UI Emoji" font-size="20px" fill="#1e1e1e" text-anchor="middle" style="white-space: pre;" direction="ltr" dominant-baseline="alphabetic">Local</text><text x="23.994140625" y="39.900390625" font-family="Helvetica, Segoe UI Emoji" font-size="20px" fill="#1e1e1e" text-anchor="middle" style="white-space: pre;" direction="ltr" dominant-baseline="alphabetic">rate</text><text x="23.994140625" y="62.900390625" font-family="Helvetica, Segoe UI Emoji" font-size="20px" fill="#1e1e1e" text-anchor="middle" style="white-space: pre;" direction="ltr" dominant-baseline="alphabetic">limit</text></g><g transform="translate(31.403265245155694 388.3285620356346) rotate(0 35.0146484375 11.5)"><text x="35.0146484375" y="16.900390625" font-family="Helvetica, Segoe UI Emoji" font-size="20px" fill="white" text-anchor="middle" style="white-space: pre;" direction="ltr" dominant-baseline="alphabetic">Policy 1</text></g><g stroke-linecap="round"><g transform="translate(110.57502351058378 328.00273720252306) rotate(0 143.46437089573922 0.2543346019588455)"><path d="M0 0 C101.51 0.18, 203.02 0.36, 286.93 0.51 M0 0 C89.14 0.16, 178.27 0.32, 286.93 0.51" stroke="#1e1e1e" stroke-width="1" fill="none"></path></g><g transform="translate(110.57502351058378 328.00273720252306) rotate(0 143.46437089573922 0.2543346019588455)"><path d="M286.93 0.51 L273.32 6.82 L273.35 -5.85 L286.93 0.51" stroke="none" stroke-width="0" fill="#1e1e1e" fill-rule="evenodd"></path><path d="M286.93 0.51 C282.12 2.74, 277.3 4.98, 273.32 6.82 M286.93 0.51 C282.7 2.47, 278.48 4.43, 273.32 6.82 M273.32 6.82 C273.33 3.34, 273.34 -0.15, 273.35 -5.85 M273.32 6.82 C273.33 3.05, 273.34 -0.72, 273.35 -5.85 M273.35 -5.85 C276.31 -4.46, 279.28 -3.07, 286.93 0.51 M273.35 -5.85 C277.69 -3.82, 282.04 -1.78, 286.93 0.51 M286.93 0.51 C286.93 0.51, 286.93 0.51, 286.93 0.51 M286.93 0.51 C286.93 0.51, 286.93 0.51, 286.93 0.51" stroke="#1e1e1e" stroke-width="1" fill="none"></path></g></g><mask></mask><g stroke-linecap="round"><g transform="translate(233.65625267699363 361.1612227611813) rotate(0 81.89785189199819 -0.27188199817146597)"><path d="M0 0 C59.18 -0.2, 118.36 -0.39, 163.8 -0.54 M0 0 C63.72 -0.21, 127.44 -0.42, 163.8 -0.54" stroke="#1e1e1e" stroke-width="1" fill="none"></path></g><g transform="translate(233.65625267699363 361.1612227611813) rotate(0 81.89785189199819 -0.27188199817146597)"><path d="M163.8 -0.54 L150.22 5.84 L150.18 -6.84 L163.8 -0.54" stroke="none" stroke-width="0" fill="#1e1e1e" fill-rule="evenodd"></path><path d="M163.8 -0.54 C158.89 1.76, 153.99 4.07, 150.22 5.84 M163.8 -0.54 C158.52 1.94, 153.24 4.42, 150.22 5.84 M150.22 5.84 C150.21 2.51, 150.2 -0.82, 150.18 -6.84 M150.22 5.84 C150.21 1.71, 150.19 -2.41, 150.18 -6.84 M150.18 -6.84 C153.28 -5.41, 156.38 -3.97, 163.8 -0.54 M150.18 -6.84 C153.87 -5.13, 157.55 -3.43, 163.8 -0.54 M163.8 -0.54 C163.8 -0.54, 163.8 -0.54, 163.8 -0.54 M163.8 -0.54 C163.8 -0.54, 163.8 -0.54, 163.8 -0.54" stroke="#1e1e1e" stroke-width="1" fill="none"></path></g></g><mask></mask><g transform="translate(274.0985073606197 335.2551956387979) rotate(359.27908722660004 43.61964252712051 12.200211655751303)"><text x="0" y="17.92942110346739" font-family="Helvetica, Segoe UI Emoji" font-size="21.21775940130661px" fill="#1e1e1e" text-anchor="start" style="white-space: pre;" direction="ltr" dominant-baseline="alphabetic">targetRef</text></g><g stroke-linecap="round"><g transform="translate(147.04320110936715 270.7128004978282) rotate(0 45.53585024310006 60.71446699080008)" fill-rule="evenodd"><path d="M0 0 L60.71 0 L91.07 30.36 L91.07 121.43 L0 121.43 L0 0" stroke="none" stroke-width="0" fill="#fff" fill-rule="evenodd"></path><path d="M0 0 C21.44 0, 42.88 0, 60.71 0 M0 0 C18.88 0, 37.77 0, 60.71 0 M60.71 0 C69.55 8.84, 78.39 17.67, 91.07 30.36 M60.71 0 C71.13 10.41, 81.54 20.83, 91.07 30.36 M91.07 30.36 C91.07 54.4, 91.07 78.44, 91.07 121.43 M91.07 30.36 C91.07 51.81, 91.07 73.27, 91.07 121.43 M91.07 121.43 C69.87 121.43, 48.67 121.43, 0 121.43 M91.07 121.43 C62.76 121.43, 34.44 121.43, 0 121.43 M0 121.43 C0 82.06, 0 42.7, 0 0 M0 121.43 C0 79.07, 0 36.71, 0 0 M0 0 C0 0, 0 0, 0 0 M0 0 C0 0, 0 0, 0 0" stroke="#e005a3" stroke-width="2" fill="none"></path></g></g><mask></mask><g stroke-linecap="round"><g transform="translate(207.75766810016694 270.54875160269114) rotate(0 0 15.178616747700033)"><path d="M0 0 C0 11.01, 0 22.02, 0 30.36 M0 0 C0 8.2, 0 16.4, 0 30.36" stroke="#e005a3" stroke-width="2" fill="none"></path></g></g><mask></mask><g stroke-linecap="round"><g transform="translate(207.75766810016694 300.9059850980908) rotate(0 15.178616747700023 0)"><path d="M0 0 C9.88 0, 19.77 0, 30.36 0 M0 0 C10.12 0, 20.24 0, 30.36 0" stroke="#e005a3" stroke-width="2" fill="none"></path></g></g><mask></mask><g stroke-linecap="round" transform="translate(146.56726212877584 386.87351105503933) rotate(0 46.378538196917155 12.960217825567156)"><path d="M0 0 L92.76 0 L92.76 25.92 L0 25.92" stroke="none" stroke-width="0" fill="#e005a3"></path><path d="M0 0 C26.94 0, 53.88 0, 92.76 0 M0 0 C21.42 0, 42.84 0, 92.76 0 M92.76 0 C92.76 7.1, 92.76 14.2, 92.76 25.92 M92.76 0 C92.76 9.24, 92.76 18.48, 92.76 25.92 M92.76 25.92 C67.11 25.92, 41.47 25.92, 0 25.92 M92.76 25.92 C61.95 25.92, 31.14 25.92, 0 25.92 M0 25.92 C0 19.52, 0 13.12, 0 0 M0 25.92 C0 19.2, 0 12.48, 0 0" stroke="#e005a3" stroke-width="1" fill="none"></path></g><g transform="translate(158.8639296893383 388.4709540522117) rotate(0 35.0146484375 11.5)"><text x="35.0146484375" y="16.900390625" font-family="Helvetica, Segoe UI Emoji" font-size="20px" fill="white" text-anchor="middle" style="white-space: pre;" direction="ltr" dominant-baseline="alphabetic">Policy 2</text></g><g transform="translate(164.36476022181898 317.742684450655) rotate(0 27.3828125 11.5)"><text x="27.3828125" y="16.900390625" font-family="Helvetica, Segoe UI Emoji" font-size="20px" fill="#1e1e1e" text-anchor="middle" style="white-space: pre;" direction="ltr" dominant-baseline="alphabetic">CSRF</text></g><g transform="translate(1281.6656830400204 305.65557028470465) rotate(0 23.994140625 34.5)"><text x="23.994140625" y="16.900390625" font-family="Helvetica, Segoe UI Emoji" font-size="20px" fill="#1e1e1e" text-anchor="middle" style="white-space: pre;" direction="ltr" dominant-baseline="alphabetic">Local</text><text x="23.994140625" y="39.900390625" font-family="Helvetica, Segoe UI Emoji" font-size="20px" fill="#1e1e1e" text-anchor="middle" style="white-space: pre;" direction="ltr" dominant-baseline="alphabetic">rate</text><text x="23.994140625" y="62.900390625" font-family="Helvetica, Segoe UI Emoji" font-size="20px" fill="#1e1e1e" text-anchor="middle" style="white-space: pre;" direction="ltr" dominant-baseline="alphabetic">limit</text></g><g transform="translate(1286.2770363562497 553.1334339625082) rotate(0 23.994140625 34.5)"><text x="23.994140625" y="16.900390625" font-family="Helvetica, Segoe UI Emoji" font-size="20px" fill="#1e1e1e" text-anchor="middle" style="white-space: pre;" direction="ltr" dominant-baseline="alphabetic">Local</text><text x="23.994140625" y="39.900390625" font-family="Helvetica, Segoe UI Emoji" font-size="20px" fill="#1e1e1e" text-anchor="middle" style="white-space: pre;" direction="ltr" dominant-baseline="alphabetic">rate</text><text x="23.994140625" y="62.900390625" font-family="Helvetica, Segoe UI Emoji" font-size="20px" fill="#1e1e1e" text-anchor="middle" style="white-space: pre;" direction="ltr" dominant-baseline="alphabetic">limit</text></g></svg>