<svg version="1.1" xmlns="http://www.w3.org/2000/svg" viewBox="0 0 1170.825871587291 734.6197202339939" width="1170.825871587291" height="734.6197202339939">
  <!-- svg-source:excalidraw -->
  
  <defs>
    <style class="style-fonts">
      
    </style>
    
  </defs>
  <rect x="0" y="0" width="1170.825871587291" height="734.6197202339939" fill="#ffffff"></rect><g stroke-linecap="round" transform="translate(65.98672492929927 206.06980689147395) rotate(0 117.48716581554652 19.274144472894662)"><path d="M9.64 0 C69.79 0, 129.95 0, 225.34 0 C231.76 0, 234.97 3.21, 234.97 9.64 C234.97 15.6, 234.97 21.55, 234.97 28.91 C234.97 35.34, 231.76 38.55, 225.34 38.55 C165.11 38.55, 104.88 38.55, 9.64 38.55 C3.21 38.55, 0 35.34, 0 28.91 C0 21.3, 0 13.68, 0 9.64 C0 3.21, 3.21 0, 9.64 0" stroke="none" stroke-width="0" fill="#158bc2"></path><path d="M9.64 0 C88.72 0, 167.81 0, 225.34 0 M9.64 0 C76.07 0, 142.5 0, 225.34 0 M225.34 0 C231.76 0, 234.97 3.21, 234.97 9.64 M225.34 0 C231.76 0, 234.97 3.21, 234.97 9.64 M234.97 9.64 C234.97 16.99, 234.97 24.34, 234.97 28.91 M234.97 9.64 C234.97 14.13, 234.97 18.62, 234.97 28.91 M234.97 28.91 C234.97 35.34, 231.76 38.55, 225.34 38.55 M234.97 28.91 C234.97 35.34, 231.76 38.55, 225.34 38.55 M225.34 38.55 C179.14 38.55, 132.94 38.55, 9.64 38.55 M225.34 38.55 C168 38.55, 110.67 38.55, 9.64 38.55 M9.64 38.55 C3.21 38.55, 0 35.34, 0 28.91 M9.64 38.55 C3.21 38.55, 0 35.34, 0 28.91 M0 28.91 C0 23.56, 0 18.21, 0 9.64 M0 28.91 C0 22.14, 0 15.36, 0 9.64 M0 9.64 C0 3.21, 3.21 0, 9.64 0 M0 9.64 C0 3.21, 3.21 0, 9.64 0" stroke="#158bc2" stroke-width="2" fill="none"></path></g><g transform="translate(132.98065891842407 210.05741844176168) rotate(0 50.5859375 16.099999999999994)"><text x="50.5859375" y="23.660546874999998" font-family="Helvetica, Segoe UI Emoji" font-size="28px" fill="white" text-anchor="middle" style="white-space: pre;" direction="ltr" dominant-baseline="alphabetic">Route A</text></g><g stroke-linecap="round" transform="translate(10.6586883180305 136.60474176385992) rotate(359.93787961041494 174.29971954814914 293.9130872848145)"><path d="M0 0 C83.09 0, 166.18 0, 348.6 0 M0 0 C113.31 0, 226.61 0, 348.6 0 M348.6 0 C348.6 191.17, 348.6 382.34, 348.6 587.83 M348.6 0 C348.6 159.65, 348.6 319.3, 348.6 587.83 M348.6 587.83 C257.53 587.83, 166.46 587.83, 0 587.83 M348.6 587.83 C228.07 587.83, 107.53 587.83, 0 587.83 M0 587.83 C0 444.48, 0 301.14, 0 0 M0 587.83 C0 432.5, 0 277.17, 0 0" stroke="#158bc2" stroke-width="1" fill="none"></path></g><g stroke-linecap="round" transform="translate(10 129.11019934707633) rotate(0 174.894836678787 20.508975348572648)"><path d="M0 0 L349.79 0 L349.79 41.02 L0 41.02" stroke="none" stroke-width="0" fill="#158bc2"></path><path d="M0 0 C108.75 0, 217.5 0, 349.79 0 M0 0 C93.48 0, 186.96 0, 349.79 0 M349.79 0 C349.79 10.14, 349.79 20.27, 349.79 41.02 M349.79 0 C349.79 12.46, 349.79 24.92, 349.79 41.02 M349.79 41.02 C236.38 41.02, 122.96 41.02, 0 41.02 M349.79 41.02 C269.76 41.02, 189.74 41.02, 0 41.02 M0 41.02 C0 30.6, 0 20.19, 0 0 M0 41.02 C0 28.99, 0 16.96, 0 0" stroke="#158bc2" stroke-width="1" fill="none"></path></g><g transform="translate(112.13514907038916 134.5876172792748) rotate(0 73.91015625 16.099999999999994)"><text x="73.91015625" y="23.660546874999998" font-family="Helvetica, Segoe UI Emoji" font-size="28px" fill="white" text-anchor="middle" style="white-space: pre;" direction="ltr" dominant-baseline="alphabetic">HTTPRoute</text></g><g stroke-linecap="round" transform="translate(64.60049309653596 452.1732011390577) rotate(0 117.44928948220593 19.652907806300107)"><path d="M9.83 0 C88.4 0, 166.98 0, 225.07 0 C231.62 0, 234.9 3.28, 234.9 9.83 C234.9 16.23, 234.9 22.63, 234.9 29.48 C234.9 36.03, 231.62 39.31, 225.07 39.31 C177.31 39.31, 129.54 39.31, 9.83 39.31 C3.28 39.31, 0 36.03, 0 29.48 C0 22.29, 0 15.11, 0 9.83 C0 3.28, 3.28 0, 9.83 0" stroke="none" stroke-width="0" fill="#158bc2"></path><path d="M9.83 0 C93.22 0, 176.6 0, 225.07 0 M9.83 0 C52.92 0, 96.01 0, 225.07 0 M225.07 0 C231.62 0, 234.9 3.28, 234.9 9.83 M225.07 0 C231.62 0, 234.9 3.28, 234.9 9.83 M234.9 9.83 C234.9 14.96, 234.9 20.1, 234.9 29.48 M234.9 9.83 C234.9 16.62, 234.9 23.42, 234.9 29.48 M234.9 29.48 C234.9 36.03, 231.62 39.31, 225.07 39.31 M234.9 29.48 C234.9 36.03, 231.62 39.31, 225.07 39.31 M225.07 39.31 C176.09 39.31, 127.1 39.31, 9.83 39.31 M225.07 39.31 C154.13 39.31, 83.19 39.31, 9.83 39.31 M9.83 39.31 C3.28 39.31, 0 36.03, 0 29.48 M9.83 39.31 C3.28 39.31, 0 36.03, 0 29.48 M0 29.48 C0 22.17, 0 14.86, 0 9.83 M0 29.48 C0 22.89, 0 16.31, 0 9.83 M0 9.83 C0 3.28, 3.28 0, 9.83 0 M0 9.83 C0 3.28, 3.28 0, 9.83 0" stroke="#158bc2" stroke-width="2" fill="none"></path></g><g transform="translate(126.26265833709385 455.20168904620937) rotate(0 50.5859375 16.099999999999994)"><text x="50.5859375" y="23.660546874999998" font-family="Helvetica, Segoe UI Emoji" font-size="28px" fill="white" text-anchor="middle" style="white-space: pre;" direction="ltr" dominant-baseline="alphabetic">Route B</text></g><g transform="translate(91.52757214008216 393.7661312507) rotate(0 35.0146484375 11.5)"><text x="35.0146484375" y="16.900390625" font-family="Helvetica, Segoe UI Emoji" font-size="20px" fill="white" text-anchor="middle" style="white-space: pre;" direction="ltr" dominant-baseline="alphabetic">Policy 1</text></g><g stroke-linecap="round" transform="translate(867.2390335440539 201.60619173698126) rotate(0 117.4871658155464 19.274144472894662)"><path d="M9.64 0 C57.85 0, 106.06 0, 225.34 0 C231.76 0, 234.97 3.21, 234.97 9.64 C234.97 13.88, 234.97 18.12, 234.97 28.91 C234.97 35.34, 231.76 38.55, 225.34 38.55 C143.29 38.55, 61.24 38.55, 9.64 38.55 C3.21 38.55, 0 35.34, 0 28.91 C0 21.72, 0 14.53, 0 9.64 C0 3.21, 3.21 0, 9.64 0" stroke="none" stroke-width="0" fill="#158bc2"></path><path d="M9.64 0 C64.4 0, 119.16 0, 225.34 0 M9.64 0 C72.9 0, 136.17 0, 225.34 0 M225.34 0 C231.76 0, 234.97 3.21, 234.97 9.64 M225.34 0 C231.76 0, 234.97 3.21, 234.97 9.64 M234.97 9.64 C234.97 15.06, 234.97 20.48, 234.97 28.91 M234.97 9.64 C234.97 16.04, 234.97 22.44, 234.97 28.91 M234.97 28.91 C234.97 35.34, 231.76 38.55, 225.34 38.55 M234.97 28.91 C234.97 35.34, 231.76 38.55, 225.34 38.55 M225.34 38.55 C169.84 38.55, 114.34 38.55, 9.64 38.55 M225.34 38.55 C158.66 38.55, 91.98 38.55, 9.64 38.55 M9.64 38.55 C3.21 38.55, 0 35.34, 0 28.91 M9.64 38.55 C3.21 38.55, 0 35.34, 0 28.91 M0 28.91 C0 21.55, 0 14.2, 0 9.64 M0 28.91 C0 21.3, 0 13.68, 0 9.64 M0 9.64 C0 3.21, 3.21 0, 9.64 0 M0 9.64 C0 3.21, 3.21 0, 9.64 0" stroke="#158bc2" stroke-width="2" fill="none"></path></g><g transform="translate(934.2329675331791 205.593803287269) rotate(0 50.5859375 16.099999999999994)"><text x="50.5859375" y="23.660546874999998" font-family="Helvetica, Segoe UI Emoji" font-size="28px" fill="white" text-anchor="middle" style="white-space: pre;" direction="ltr" dominant-baseline="alphabetic">Route A</text></g><g stroke-linecap="round" transform="translate(811.806548967488 132.42261497720642) rotate(0 174.3069095649198 291.3590909031143)"><path d="M0 0 C94.29 0, 188.58 0, 348.61 0 M0 0 C90.47 0, 180.93 0, 348.61 0 M348.61 0 C348.61 161.74, 348.61 323.48, 348.61 582.72 M348.61 0 C348.61 204.78, 348.61 409.56, 348.61 582.72 M348.61 582.72 C252.71 582.72, 156.8 582.72, 0 582.72 M348.61 582.72 C217.76 582.72, 86.9 582.72, 0 582.72 M0 582.72 C0 385.85, 0 188.98, 0 0 M0 582.72 C0 388.56, 0 194.4, 0 0" stroke="#158bc2" stroke-width="1" fill="none"></path></g><g stroke-linecap="round" transform="translate(811.036198229717 121.49516145128348) rotate(0 174.894836678787 20.508975348572655)"><path d="M0 0 L349.79 0 L349.79 41.02 L0 41.02" stroke="none" stroke-width="0" fill="#158bc2"></path><path d="M0 0 C79.6 0, 159.2 0, 349.79 0 M0 0 C115.29 0, 230.57 0, 349.79 0 M349.79 0 C349.79 10.8, 349.79 21.59, 349.79 41.02 M349.79 0 C349.79 8.55, 349.79 17.1, 349.79 41.02 M349.79 41.02 C241.35 41.02, 132.92 41.02, 0 41.02 M349.79 41.02 C213.81 41.02, 77.83 41.02, 0 41.02 M0 41.02 C0 29.46, 0 17.9, 0 0 M0 41.02 C0 29.46, 0 17.9, 0 0" stroke="#158bc2" stroke-width="1" fill="none"></path></g><g transform="translate(913.2028695017004 127.01314832734215) rotate(0 73.91015625 16.099999999999994)"><text x="73.91015625" y="23.660546874999998" font-family="Helvetica, Segoe UI Emoji" font-size="28px" fill="white" text-anchor="middle" style="white-space: pre;" direction="ltr" dominant-baseline="alphabetic">HTTPRoute</text></g><g stroke-linecap="round" transform="translate(865.887957961291 447.7798984845649) rotate(0 117.44928948220581 19.652907806300107)"><path d="M9.83 0 C65.02 0, 120.21 0, 225.07 0 C231.62 0, 234.9 3.28, 234.9 9.83 C234.9 16.23, 234.9 22.64, 234.9 29.48 C234.9 36.03, 231.62 39.31, 225.07 39.31 C175.09 39.31, 125.1 39.31, 9.83 39.31 C3.28 39.31, 0 36.03, 0 29.48 C0 25.34, 0 21.2, 0 9.83 C0 3.28, 3.28 0, 9.83 0" stroke="none" stroke-width="0" fill="#158bc2"></path><path d="M9.83 0 C91.51 0, 173.19 0, 225.07 0 M9.83 0 C59.41 0, 109 0, 225.07 0 M225.07 0 C231.62 0, 234.9 3.28, 234.9 9.83 M225.07 0 C231.62 0, 234.9 3.28, 234.9 9.83 M234.9 9.83 C234.9 15.23, 234.9 20.64, 234.9 29.48 M234.9 9.83 C234.9 17.2, 234.9 24.58, 234.9 29.48 M234.9 29.48 C234.9 36.03, 231.62 39.31, 225.07 39.31 M234.9 29.48 C234.9 36.03, 231.62 39.31, 225.07 39.31 M225.07 39.31 C172.35 39.31, 119.63 39.31, 9.83 39.31 M225.07 39.31 C154.96 39.31, 84.85 39.31, 9.83 39.31 M9.83 39.31 C3.28 39.31, 0 36.03, 0 29.48 M9.83 39.31 C3.28 39.31, 0 36.03, 0 29.48 M0 29.48 C0 23.85, 0 18.23, 0 9.83 M0 29.48 C0 22.29, 0 15.11, 0 9.83 M0 9.83 C0 3.28, 3.28 0, 9.83 0 M0 9.83 C0 3.28, 3.28 0, 9.83 0" stroke="#158bc2" stroke-width="2" fill="none"></path></g><g transform="translate(932.7080078076631 450.73807389171634) rotate(0 50.5859375 16.099999999999994)"><text x="50.5859375" y="23.660546874999998" font-family="Helvetica, Segoe UI Emoji" font-size="28px" fill="white" text-anchor="middle" style="white-space: pre;" direction="ltr" dominant-baseline="alphabetic">Route B</text></g><g transform="translate(86.72466724284413 11.169963339176888) rotate(0 100.26045652836194 24.11985977687416)"><text x="0" y="35.446526265165105" font-family="Helvetica, Segoe UI Emoji" font-size="41.947582220650716px" fill="#1e1e1e" text-anchor="start" style="white-space: pre;" direction="ltr" dominant-baseline="alphabetic">Initial state</text></g><g transform="translate(854.7868636775963 10) rotate(0 149.59552001953125 24.11985977687416)"><text x="0" y="35.446526265165105" font-family="Helvetica, Segoe UI Emoji" font-size="41.947582220650716px" fill="#1e1e1e" text-anchor="start" style="white-space: pre;" direction="ltr" dominant-baseline="alphabetic">Translated state</text></g><g stroke-linecap="round"><g transform="translate(397.47156679467435 39.83666439939452) rotate(0 196.04622347722704 -0.13301207336348853)"><path d="M0 0 C109.48 -0.07, 218.97 -0.15, 392.09 -0.27 M0 0 C98.42 -0.07, 196.84 -0.13, 392.09 -0.27" stroke="#1e1e1e" stroke-width="1" fill="none"></path></g><g transform="translate(397.47156679467435 39.83666439939452) rotate(0 196.04622347722704 -0.13301207336348853)"><path d="M392.09 -0.27 L378.5 6.08 L378.49 -6.6 L392.09 -0.27" stroke="none" stroke-width="0" fill="#1e1e1e" fill-rule="evenodd"></path><path d="M392.09 -0.27 C388.3 1.51, 384.5 3.28, 378.5 6.08 M392.09 -0.27 C388.68 1.33, 385.27 2.92, 378.5 6.08 M378.5 6.08 C378.5 2.45, 378.5 -1.18, 378.49 -6.6 M378.5 6.08 C378.5 1.45, 378.5 -3.19, 378.49 -6.6 M378.49 -6.6 C383.49 -4.27, 388.48 -1.95, 392.09 -0.27 M378.49 -6.6 C381.94 -4.99, 385.39 -3.39, 392.09 -0.27 M392.09 -0.27 C392.09 -0.27, 392.09 -0.27, 392.09 -0.27 M392.09 -0.27 C392.09 -0.27, 392.09 -0.27, 392.09 -0.27" stroke="#1e1e1e" stroke-width="1" fill="none"></path></g></g><mask></mask><g stroke-linecap="round"><g transform="translate(90.96360852797875 493.5356480103476) rotate(0 0.15272832747450593 39.220067493004194)"><path d="M0 0 C0.11 28.24, 0.22 56.48, 0.31 78.44 M0 0 C0.11 28.33, 0.22 56.65, 0.31 78.44" stroke="#1e1e1e" stroke-width="1" fill="none"></path></g></g><mask></mask><g stroke-linecap="round"><g transform="translate(225.38030382980878 493.3334437899766) rotate(0 0.15272832747450593 39.966090605784814)"><path d="M0 0 C0.1 25.82, 0.2 51.65, 0.31 79.93 M0 0 C0.09 24.57, 0.19 49.13, 0.31 79.93" stroke="#1e1e1e" stroke-width="1" fill="none"></path></g></g><mask></mask><g stroke-linecap="round"><g transform="translate(82.9690872074159 538.1967722039507) rotate(0 45.488762212494066 60.65168294999211)" fill-rule="evenodd"><path d="M0 0 L60.65 0 L90.98 30.33 L90.98 121.3 L0 121.3 L0 0" stroke="none" stroke-width="0" fill="#fff" fill-rule="evenodd"></path><path d="M0 0 C17.15 0, 34.3 0, 60.65 0 M0 0 C24.18 0, 48.36 0, 60.65 0 M60.65 0 C71.28 10.63, 81.91 21.26, 90.98 30.33 M60.65 0 C71.78 11.13, 82.91 22.26, 90.98 30.33 M90.98 30.33 C90.98 60.33, 90.98 90.33, 90.98 121.3 M90.98 30.33 C90.98 52.15, 90.98 73.97, 90.98 121.3 M90.98 121.3 C69.93 121.3, 48.88 121.3, 0 121.3 M90.98 121.3 C63.87 121.3, 36.76 121.3, 0 121.3 M0 121.3 C0 74.69, 0 28.08, 0 0 M0 121.3 C0 86.17, 0 51.04, 0 0 M0 0 C0 0, 0 0, 0 0 M0 0 C0 0, 0 0, 0 0" stroke="#7e4bc6" stroke-width="2" fill="none"></path></g></g><mask></mask><g stroke-linecap="round"><g transform="translate(143.6207701574076 538.0328929496429) rotate(0 0 15.162920737498013)"><path d="M0 0 C0 6.85, 0 13.7, 0 30.33 M0 0 C0 9.12, 0 18.25, 0 30.33" stroke="#7e4bc6" stroke-width="2" fill="none"></path></g></g><mask></mask><g stroke-linecap="round"><g transform="translate(143.6207701574076 568.3587344246386) rotate(0 15.162920737497984 0)"><path d="M0 0 C7.76 0, 15.51 0, 30.33 0 M0 0 C11.7 0, 23.41 0, 30.33 0" stroke="#7e4bc6" stroke-width="2" fill="none"></path></g></g><mask></mask><g stroke-linecap="round" transform="translate(82.49364038913563 654.2373624808831) rotate(0 46.33057875365614 12.946815832843356)"><path d="M0 0 L92.66 0 L92.66 25.89 L0 25.89" stroke="none" stroke-width="0" fill="#7e4bc6"></path><path d="M0 0 C23.17 0, 46.34 0, 92.66 0 M0 0 C31.29 0, 62.58 0, 92.66 0 M92.66 0 C92.66 6.46, 92.66 12.92, 92.66 25.89 M92.66 0 C92.66 8.59, 92.66 17.19, 92.66 25.89 M92.66 25.89 C72.31 25.89, 51.96 25.89, 0 25.89 M92.66 25.89 C58.03 25.89, 23.4 25.89, 0 25.89 M0 25.89 C0 16.93, 0 7.97, 0 0 M0 25.89 C0 16.87, 0 7.84, 0 0" stroke="#7e4bc6" stroke-width="1" fill="none"></path></g><g transform="translate(95.11474760872557 656.0155925840436) rotate(0 34.978440244867556 11.488107999541512)"><text x="34.9784402448676" y="16.882914150820767" font-family="Helvetica, Segoe UI Emoji" font-size="19.97931826007219px" fill="white" text-anchor="middle" style="white-space: pre;" direction="ltr" dominant-baseline="alphabetic">Policy 3</text></g><g transform="translate(91.31858361927243 583.545525639468) rotate(0 36.65151303861876 22.976215999083024)"><text x="36.65151303861876" y="16.882914150820767" font-family="Helvetica, Segoe UI Emoji" font-size="19.97931826007219px" fill="#1e1e1e" text-anchor="middle" style="white-space: pre;" direction="ltr" dominant-baseline="alphabetic">Fault</text><text x="36.65151303861876" y="39.859130149903784" font-family="Helvetica, Segoe UI Emoji" font-size="19.97931826007219px" fill="#1e1e1e" text-anchor="middle" style="white-space: pre;" direction="ltr" dominant-baseline="alphabetic">injection</text></g><g transform="translate(101.70621368830325 503.02528892967524) rotate(0 51.94793697429827 9.769845976352912)"><text x="0" y="14.357757682299868" font-family="Helvetica, Segoe UI Emoji" font-size="16.991036480613737px" fill="#1e1e1e" text-anchor="start" style="white-space: pre;" direction="ltr" dominant-baseline="alphabetic">extensionRef </text></g><g transform="translate(233.62185299775365 501.2037347736307) rotate(0 51.94793697429827 9.769845976352912)"><text x="0" y="14.357757682299868" font-family="Helvetica, Segoe UI Emoji" font-size="16.991036480613737px" fill="#1e1e1e" text-anchor="start" style="white-space: pre;" direction="ltr" dominant-baseline="alphabetic">extensionRef </text></g><g stroke-linecap="round"><g transform="translate(87.17517950642741 245.92227547396465) rotate(0 0.15272832747450593 39.220067493004166)"><path d="M0 0 C0.07 18.25, 0.14 36.49, 0.31 78.44 M0 0 C0.11 27.54, 0.21 55.08, 0.31 78.44" stroke="#1e1e1e" stroke-width="1" fill="none"></path></g></g><mask></mask><g transform="translate(95.55937309904584 252.07839235047675) rotate(0 51.94793697429827 9.769845976352897)"><text x="0" y="14.357757682299868" font-family="Helvetica, Segoe UI Emoji" font-size="16.991036480613737px" fill="#1e1e1e" text-anchor="start" style="white-space: pre;" direction="ltr" dominant-baseline="alphabetic">extensionRef </text></g><g stroke-linecap="round"><g transform="translate(79.21446243010496 275.8253498422084) rotate(0 45.53585024310007 60.71446699080008)" fill-rule="evenodd"><path d="M0 0 L60.71 0 L91.07 30.36 L91.07 121.43 L0 121.43 L0 0" stroke="none" stroke-width="0" fill="#fff" fill-rule="evenodd"></path><path d="M0 0 C13.87 0, 27.75 0, 60.71 0 M0 0 C12.91 0, 25.82 0, 60.71 0 M60.71 0 C70.6 9.89, 80.49 19.77, 91.07 30.36 M60.71 0 C69.3 8.59, 77.89 17.18, 91.07 30.36 M91.07 30.36 C91.07 49.86, 91.07 69.37, 91.07 121.43 M91.07 30.36 C91.07 54.56, 91.07 78.77, 91.07 121.43 M91.07 121.43 C56.51 121.43, 21.95 121.43, 0 121.43 M91.07 121.43 C70.09 121.43, 49.11 121.43, 0 121.43 M0 121.43 C0 77.79, 0 34.16, 0 0 M0 121.43 C0 87.1, 0 52.76, 0 0 M0 0 C0 0, 0 0, 0 0 M0 0 C0 0, 0 0, 0 0" stroke="#0fac7c" stroke-width="2" fill="none"></path></g></g><mask></mask><g stroke-linecap="round"><g transform="translate(139.9289294209043 275.66130094707137) rotate(0 0 15.178616747700033)"><path d="M0 0 C0 9.87, 0 19.75, 0 30.36 M0 0 C0 8.24, 0 16.49, 0 30.36" stroke="#0fac7c" stroke-width="2" fill="none"></path></g></g><mask></mask><g stroke-linecap="round"><g transform="translate(139.9289294209043 306.01853444247104) rotate(0 15.178616747700062 0)"><path d="M0 0 C7.5 0, 15 0, 30.36 0 M0 0 C9.22 0, 18.44 0, 30.36 0" stroke="#0fac7c" stroke-width="2" fill="none"></path></g></g><mask></mask><g stroke-linecap="round" transform="translate(78.73852344951365 391.98606039941956) rotate(0 46.378538196917134 12.960217825567156)"><path d="M0 0 L92.76 0 L92.76 25.92 L0 25.92" stroke="none" stroke-width="0" fill="#0fac7c"></path><path d="M0 0 C35.39 0, 70.77 0, 92.76 0 M0 0 C21.62 0, 43.24 0, 92.76 0 M92.76 0 C92.76 9.37, 92.76 18.74, 92.76 25.92 M92.76 0 C92.76 8.29, 92.76 16.59, 92.76 25.92 M92.76 25.92 C62.27 25.92, 31.79 25.92, 0 25.92 M92.76 25.92 C57.81 25.92, 22.87 25.92, 0 25.92 M0 25.92 C0 15.67, 0 5.42, 0 0 M0 25.92 C0 19.67, 0 13.42, 0 0" stroke="#0fac7c" stroke-width="1" fill="none"></path></g><g transform="translate(86.59705662903389 315.37597087535346) rotate(0 37.890625 34.5)"><text x="37.890625" y="16.900390625" font-family="Helvetica, Segoe UI Emoji" font-size="20px" fill="#1e1e1e" text-anchor="middle" style="white-space: pre;" direction="ltr" dominant-baseline="alphabetic">Request</text><text x="37.890625" y="39.900390625" font-family="Helvetica, Segoe UI Emoji" font-size="20px" fill="#1e1e1e" text-anchor="middle" style="white-space: pre;" direction="ltr" dominant-baseline="alphabetic">header</text><text x="37.890625" y="62.900390625" font-family="Helvetica, Segoe UI Emoji" font-size="20px" fill="#1e1e1e" text-anchor="middle" style="white-space: pre;" direction="ltr" dominant-baseline="alphabetic">foo</text></g><g stroke-linecap="round"><g transform="translate(228.97684176266534 245.68906802317724) rotate(0 0.15272832747450593 39.220067493004166)"><path d="M0 0 C0.12 30.6, 0.24 61.2, 0.31 78.44 M0 0 C0.07 17.56, 0.14 35.11, 0.31 78.44" stroke="#1e1e1e" stroke-width="1" fill="none"></path></g></g><mask></mask><g transform="translate(237.36103535528378 251.84518489968934) rotate(0 51.94793697429827 9.769845976352897)"><text x="0" y="14.357757682299868" font-family="Helvetica, Segoe UI Emoji" font-size="16.991036480613737px" fill="#1e1e1e" text-anchor="start" style="white-space: pre;" direction="ltr" dominant-baseline="alphabetic">extensionRef </text></g><g transform="translate(91.39051854020886 394.73936093476425) rotate(0 34.96208953857422 11.488107999541512)"><text x="34.96208953857422" y="16.882914150820767" font-family="Helvetica, Segoe UI Emoji" font-size="19.97931826007219px" fill="white" text-anchor="middle" style="white-space: pre;" direction="ltr" dominant-baseline="alphabetic">Policy 1</text></g><g stroke-linecap="round"><g transform="translate(220.89099552484436 276.5180706033229) rotate(0 45.488762212494066 60.651682949992136)" fill-rule="evenodd"><path d="M0 0 L60.65 0 L90.98 30.33 L90.98 121.3 L0 121.3 L0 0" stroke="none" stroke-width="0" fill="#fff" fill-rule="evenodd"></path><path d="M0 0 C17.26 0, 34.52 0, 60.65 0 M0 0 C12.85 0, 25.7 0, 60.65 0 M60.65 0 C68.48 7.82, 76.3 15.65, 90.98 30.33 M60.65 0 C72.01 11.36, 83.37 22.72, 90.98 30.33 M90.98 30.33 C90.98 55.28, 90.98 80.24, 90.98 121.3 M90.98 30.33 C90.98 48.93, 90.98 67.53, 90.98 121.3 M90.98 121.3 C60.96 121.3, 30.93 121.3, 0 121.3 M90.98 121.3 C66.01 121.3, 41.05 121.3, 0 121.3 M0 121.3 C0 80.84, 0 40.39, 0 0 M0 121.3 C0 81.1, 0 40.89, 0 0 M0 0 C0 0, 0 0, 0 0 M0 0 C0 0, 0 0, 0 0" stroke="#e005a3" stroke-width="2" fill="none"></path></g></g><mask></mask><g stroke-linecap="round"><g transform="translate(281.54267847483675 276.354191349015) rotate(0 0 15.162920737498041)"><path d="M0 0 C0 7.95, 0 15.89, 0 30.33 M0 0 C0 10.94, 0 21.89, 0 30.33" stroke="#e005a3" stroke-width="2" fill="none"></path></g></g><mask></mask><g stroke-linecap="round"><g transform="translate(281.54267847483675 306.68003282401077) rotate(0 15.162920737497984 0)"><path d="M0 0 C7.03 0, 14.06 0, 30.33 0 M0 0 C6.68 0, 13.36 0, 30.33 0" stroke="#e005a3" stroke-width="2" fill="none"></path></g></g><mask></mask><g stroke-linecap="round" transform="translate(220.41554870656432 392.5586608802553) rotate(0 46.33057875365614 12.946815832843356)"><path d="M0 0 L92.66 0 L92.66 25.89 L0 25.89" stroke="none" stroke-width="0" fill="#e005a3"></path><path d="M0 0 C33.26 0, 66.53 0, 92.66 0 M0 0 C30.85 0, 61.7 0, 92.66 0 M92.66 0 C92.66 9.1, 92.66 18.2, 92.66 25.89 M92.66 0 C92.66 9.4, 92.66 18.79, 92.66 25.89 M92.66 25.89 C64.31 25.89, 35.96 25.89, 0 25.89 M92.66 25.89 C71.02 25.89, 49.38 25.89, 0 25.89 M0 25.89 C0 16.51, 0 7.12, 0 0 M0 25.89 C0 19.31, 0 12.73, 0 0" stroke="#e005a3" stroke-width="1" fill="none"></path></g><g transform="translate(232.88193944412228 394.33689098341597) rotate(0 34.978440244867556 11.488107999541512)"><text x="34.9784402448676" y="16.882914150820767" font-family="Helvetica, Segoe UI Emoji" font-size="19.97931826007219px" fill="white" text-anchor="middle" style="white-space: pre;" direction="ltr" dominant-baseline="alphabetic">Policy 2</text></g><g transform="translate(229.5680968931099 317.5257364197258) rotate(0 37.83376461267471 34.46432399862451)"><text x="37.83376461267471" y="16.882914150820767" font-family="Helvetica, Segoe UI Emoji" font-size="19.97931826007219px" fill="#1e1e1e" text-anchor="middle" style="white-space: pre;" direction="ltr" dominant-baseline="alphabetic">Request</text><text x="37.83376461267471" y="39.859130149903784" font-family="Helvetica, Segoe UI Emoji" font-size="19.97931826007219px" fill="#1e1e1e" text-anchor="middle" style="white-space: pre;" direction="ltr" dominant-baseline="alphabetic">header</text><text x="37.83376461267471" y="62.8353461489868" font-family="Helvetica, Segoe UI Emoji" font-size="19.97931826007219px" fill="#1e1e1e" text-anchor="middle" style="white-space: pre;" direction="ltr" dominant-baseline="alphabetic">bar</text></g><g stroke-linecap="round"><g transform="translate(218.9627046190394 538.0771550751176) rotate(0 45.488762212494066 60.65168294999211)" fill-rule="evenodd"><path d="M0 0 L60.65 0 L90.98 30.33 L90.98 121.3 L0 121.3 L0 0" stroke="none" stroke-width="0" fill="#fff" fill-rule="evenodd"></path><path d="M0 0 C17.02 0, 34.04 0, 60.65 0 M0 0 C19.75 0, 39.5 0, 60.65 0 M60.65 0 C69.23 8.58, 77.8 17.15, 90.98 30.33 M60.65 0 C72.74 12.09, 84.83 24.18, 90.98 30.33 M90.98 30.33 C90.98 62.22, 90.98 94.11, 90.98 121.3 M90.98 30.33 C90.98 63.71, 90.98 97.09, 90.98 121.3 M90.98 121.3 C60.97 121.3, 30.97 121.3, 0 121.3 M90.98 121.3 C69.16 121.3, 47.33 121.3, 0 121.3 M0 121.3 C0 93.24, 0 65.17, 0 0 M0 121.3 C0 85.16, 0 49.02, 0 0 M0 0 C0 0, 0 0, 0 0 M0 0 C0 0, 0 0, 0 0" stroke="#f08c00" stroke-width="2" fill="none"></path></g></g><mask></mask><g stroke-linecap="round"><g transform="translate(279.6143875690316 537.9132758208098) rotate(0 0 15.162920737498041)"><path d="M0 0 C0 9.24, 0 18.47, 0 30.33 M0 0 C0 7.86, 0 15.71, 0 30.33" stroke="#f08c00" stroke-width="2" fill="none"></path></g></g><mask></mask><g stroke-linecap="round"><g transform="translate(279.6143875690316 568.2391172958055) rotate(0 15.162920737497984 0)"><path d="M0 0 C9.93 0, 19.87 0, 30.33 0 M0 0 C10.31 0, 20.61 0, 30.33 0" stroke="#f08c00" stroke-width="2" fill="none"></path></g></g><mask></mask><g stroke-linecap="round" transform="translate(218.48725780075893 654.11774535205) rotate(0 46.33057875365614 12.946815832843356)"><path d="M0 0 L92.66 0 L92.66 25.89 L0 25.89" stroke="none" stroke-width="0" fill="#f08c00"></path><path d="M0 0 C24.68 0, 49.36 0, 92.66 0 M0 0 C24.17 0, 48.35 0, 92.66 0 M92.66 0 C92.66 6.47, 92.66 12.95, 92.66 25.89 M92.66 0 C92.66 8.74, 92.66 17.49, 92.66 25.89 M92.66 25.89 C69.54 25.89, 46.42 25.89, 0 25.89 M92.66 25.89 C61.91 25.89, 31.15 25.89, 0 25.89 M0 25.89 C0 20.21, 0 14.52, 0 0 M0 25.89 C0 16.22, 0 6.54, 0 0" stroke="#f08c00" stroke-width="1" fill="none"></path></g><g transform="translate(227.2659726912368 656.2966030612633) rotate(0 35.48377227783203 11.488107999541512)"><text x="35.48377227783203" y="16.882914150820767" font-family="Helvetica, Segoe UI Emoji" font-size="19.97931826007219px" fill="white" text-anchor="middle" style="white-space: pre;" direction="ltr" dominant-baseline="alphabetic">Policy 4</text></g><g transform="translate(235.19075131718864 592.7817496116606) rotate(0 28.861725133019377 11.488107999541512)"><text x="28.861725133019323" y="16.882914150820767" font-family="Helvetica, Segoe UI Emoji" font-size="19.97931826007219px" fill="#1e1e1e" text-anchor="middle" style="white-space: pre;" direction="ltr" dominant-baseline="alphabetic">CORS</text></g><g stroke-linecap="round"><g transform="translate(886.4991529387446 485.4032790032368) rotate(0 0.15272832747450593 39.220067493004194)"><path d="M0 0 C0.08 21, 0.16 41.99, 0.31 78.44 M0 0 C0.08 21.52, 0.17 43.04, 0.31 78.44" stroke="#1e1e1e" stroke-width="1" fill="none"></path></g></g><mask></mask><g stroke-linecap="round"><g transform="translate(1020.9158482405744 485.2010747828658) rotate(0 0.15272832747450593 39.966090605784814)"><path d="M0 0 C0.09 22.94, 0.18 45.88, 0.31 79.93 M0 0 C0.11 29.63, 0.23 59.25, 0.31 79.93" stroke="#1e1e1e" stroke-width="1" fill="none"></path></g></g><mask></mask><g stroke-linecap="round"><g transform="translate(878.5046316181817 530.0644031968397) rotate(0 45.488762212494066 60.65168294999211)" fill-rule="evenodd"><path d="M0 0 L60.65 0 L90.98 30.33 L90.98 121.3 L0 121.3 L0 0" stroke="none" stroke-width="0" fill="#fff" fill-rule="evenodd"></path><path d="M0 0 C23.21 0, 46.42 0, 60.65 0 M0 0 C16.39 0, 32.78 0, 60.65 0 M60.65 0 C71.54 10.89, 82.44 21.78, 90.98 30.33 M60.65 0 C68.52 7.87, 76.38 15.73, 90.98 30.33 M90.98 30.33 C90.98 66.31, 90.98 102.3, 90.98 121.3 M90.98 30.33 C90.98 63.24, 90.98 96.16, 90.98 121.3 M90.98 121.3 C67.99 121.3, 45.01 121.3, 0 121.3 M90.98 121.3 C62 121.3, 33.01 121.3, 0 121.3 M0 121.3 C0 84.98, 0 48.65, 0 0 M0 121.3 C0 90.85, 0 60.41, 0 0 M0 0 C0 0, 0 0, 0 0 M0 0 C0 0, 0 0, 0 0" stroke="#7e4bc6" stroke-width="2" fill="none"></path></g></g><mask></mask><g stroke-linecap="round"><g transform="translate(939.1563145681732 529.900523942532) rotate(0 0 15.162920737498041)"><path d="M0 0 C0 9.23, 0 18.47, 0 30.33 M0 0 C0 10.14, 0 20.29, 0 30.33" stroke="#7e4bc6" stroke-width="2" fill="none"></path></g></g><mask></mask><g stroke-linecap="round"><g transform="translate(939.1563145681732 560.2263654175276) rotate(0 15.162920737498098 0)"><path d="M0 0 C6.87 0, 13.74 0, 30.33 0 M0 0 C7.28 0, 14.55 0, 30.33 0" stroke="#7e4bc6" stroke-width="2" fill="none"></path></g></g><mask></mask><g stroke-linecap="round" transform="translate(878.0291847999013 646.1049934737723) rotate(0 46.33057875365603 12.946815832843356)"><path d="M0 0 L92.66 0 L92.66 25.89 L0 25.89" stroke="none" stroke-width="0" fill="#7e4bc6"></path><path d="M0 0 C34.73 0, 69.47 0, 92.66 0 M0 0 C27.77 0, 55.53 0, 92.66 0 M92.66 0 C92.66 8.2, 92.66 16.41, 92.66 25.89 M92.66 0 C92.66 9.98, 92.66 19.96, 92.66 25.89 M92.66 25.89 C73.26 25.89, 53.86 25.89, 0 25.89 M92.66 25.89 C57.3 25.89, 21.94 25.89, 0 25.89 M0 25.89 C0 20.16, 0 14.43, 0 0 M0 25.89 C0 17.7, 0 9.51, 0 0" stroke="#7e4bc6" stroke-width="1" fill="none"></path></g><g transform="translate(890.650292019491 647.8832235769328) rotate(0 34.97844024486767 11.488107999541512)"><text x="34.9784402448676" y="16.882914150820767" font-family="Helvetica, Segoe UI Emoji" font-size="19.97931826007219px" fill="white" text-anchor="middle" style="white-space: pre;" direction="ltr" dominant-baseline="alphabetic">Policy 3</text></g><g transform="translate(886.854128030038 575.4131566323572) rotate(0 36.65151303861876 22.976215999083024)"><text x="36.65151303861876" y="16.882914150820767" font-family="Helvetica, Segoe UI Emoji" font-size="19.97931826007219px" fill="#1e1e1e" text-anchor="middle" style="white-space: pre;" direction="ltr" dominant-baseline="alphabetic">Fault</text><text x="36.65151303861876" y="39.859130149903784" font-family="Helvetica, Segoe UI Emoji" font-size="19.97931826007219px" fill="#1e1e1e" text-anchor="middle" style="white-space: pre;" direction="ltr" dominant-baseline="alphabetic">injection</text></g><g stroke-linecap="round"><g transform="translate(1014.498249029805 529.9447860680068) rotate(0 45.488762212494066 60.65168294999211)" fill-rule="evenodd"><path d="M0 0 L60.65 0 L90.98 30.33 L90.98 121.3 L0 121.3 L0 0" stroke="none" stroke-width="0" fill="#fff" fill-rule="evenodd"></path><path d="M0 0 C13.92 0, 27.84 0, 60.65 0 M0 0 C12.65 0, 25.3 0, 60.65 0 M60.65 0 C70.11 9.45, 79.56 18.91, 90.98 30.33 M60.65 0 C68.65 8, 76.66 16, 90.98 30.33 M90.98 30.33 C90.98 48.61, 90.98 66.89, 90.98 121.3 M90.98 30.33 C90.98 48.58, 90.98 66.83, 90.98 121.3 M90.98 121.3 C65.17 121.3, 39.36 121.3, 0 121.3 M90.98 121.3 C61.73 121.3, 32.47 121.3, 0 121.3 M0 121.3 C0 75.23, 0 29.15, 0 0 M0 121.3 C0 86.77, 0 52.23, 0 0 M0 0 C0 0, 0 0, 0 0 M0 0 C0 0, 0 0, 0 0" stroke="#f08c00" stroke-width="2" fill="none"></path></g></g><mask></mask><g stroke-linecap="round"><g transform="translate(1075.149931979797 529.780906813699) rotate(0 0 15.162920737498041)"><path d="M0 0 C0 10.78, 0 21.57, 0 30.33 M0 0 C0 11.81, 0 23.62, 0 30.33" stroke="#f08c00" stroke-width="2" fill="none"></path></g></g><mask></mask><g stroke-linecap="round"><g transform="translate(1075.149931979797 560.1067482886947) rotate(0 15.162920737498098 0)"><path d="M0 0 C9.61 0, 19.22 0, 30.33 0 M0 0 C11.69 0, 23.38 0, 30.33 0" stroke="#f08c00" stroke-width="2" fill="none"></path></g></g><mask></mask><g stroke-linecap="round" transform="translate(1014.0228022115245 645.9853763449391) rotate(0 46.33057875365603 12.946815832843356)"><path d="M0 0 L92.66 0 L92.66 25.89 L0 25.89" stroke="none" stroke-width="0" fill="#f08c00"></path><path d="M0 0 C34.27 0, 68.54 0, 92.66 0 M0 0 C36.3 0, 72.6 0, 92.66 0 M92.66 0 C92.66 7.42, 92.66 14.84, 92.66 25.89 M92.66 0 C92.66 8.11, 92.66 16.23, 92.66 25.89 M92.66 25.89 C64.41 25.89, 36.15 25.89, 0 25.89 M92.66 25.89 C69.77 25.89, 46.88 25.89, 0 25.89 M0 25.89 C0 16.98, 0 8.06, 0 0 M0 25.89 C0 19.22, 0 12.55, 0 0" stroke="#f08c00" stroke-width="1" fill="none"></path></g><g transform="translate(1022.8015171020027 648.1642340541525) rotate(0 35.48377227783203 11.488107999541512)"><text x="35.48377227783203" y="16.882914150820767" font-family="Helvetica, Segoe UI Emoji" font-size="19.97931826007219px" fill="white" text-anchor="middle" style="white-space: pre;" direction="ltr" dominant-baseline="alphabetic">Policy 4</text></g><g transform="translate(1030.7262957279543 584.6493806045498) rotate(0 28.861725133019263 11.488107999541512)"><text x="28.861725133019323" y="16.882914150820767" font-family="Helvetica, Segoe UI Emoji" font-size="19.97931826007219px" fill="#1e1e1e" text-anchor="middle" style="white-space: pre;" direction="ltr" dominant-baseline="alphabetic">CORS</text></g><g transform="translate(900.410042892823 388.76122448484557) rotate(0 35.0146484375 11.5)"><text x="35.0146484375" y="16.900390625" font-family="Helvetica, Segoe UI Emoji" font-size="20px" fill="white" text-anchor="middle" style="white-space: pre;" direction="ltr" dominant-baseline="alphabetic">Policy 1</text></g><g stroke-linecap="round"><g transform="translate(896.0576502591682 240.91736870811016) rotate(0 0.15272832747450593 39.22006749300418)"><path d="M0 0 C0.09 22.62, 0.18 45.23, 0.31 78.44 M0 0 C0.11 29.25, 0.23 58.51, 0.31 78.44" stroke="#1e1e1e" stroke-width="1" fill="none"></path></g></g><mask></mask><g stroke-linecap="round"><g transform="translate(888.0969331828462 270.82044307635397) rotate(0 45.53585024309996 60.71446699080009)" fill-rule="evenodd"><path d="M0 0 L60.71 0 L91.07 30.36 L91.07 121.43 L0 121.43 L0 0" stroke="none" stroke-width="0" fill="#fff" fill-rule="evenodd"></path><path d="M0 0 C22.77 0, 45.54 0, 60.71 0 M0 0 C14.44 0, 28.88 0, 60.71 0 M60.71 0 C69.99 9.28, 79.27 18.55, 91.07 30.36 M60.71 0 C71.1 10.39, 81.49 20.77, 91.07 30.36 M91.07 30.36 C91.07 60.41, 91.07 90.46, 91.07 121.43 M91.07 30.36 C91.07 63.29, 91.07 96.22, 91.07 121.43 M91.07 121.43 C64.76 121.43, 38.45 121.43, 0 121.43 M91.07 121.43 C70.2 121.43, 49.33 121.43, 0 121.43 M0 121.43 C0 80.43, 0 39.43, 0 0 M0 121.43 C0 90.83, 0 60.22, 0 0 M0 0 C0 0, 0 0, 0 0 M0 0 C0 0, 0 0, 0 0" stroke="#0fac7c" stroke-width="2" fill="none"></path></g></g><mask></mask><g stroke-linecap="round"><g transform="translate(948.8114001736456 270.6563941812169) rotate(0 0 15.17861674770002)"><path d="M0 0 C0 8.93, 0 17.85, 0 30.36 M0 0 C0 9.92, 0 19.84, 0 30.36" stroke="#0fac7c" stroke-width="2" fill="none"></path></g></g><mask></mask><g stroke-linecap="round"><g transform="translate(948.8114001736456 301.0136276766166) rotate(0 15.178616747700062 0)"><path d="M0 0 C6.25 0, 12.5 0, 30.36 0 M0 0 C7.16 0, 14.32 0, 30.36 0" stroke="#0fac7c" stroke-width="2" fill="none"></path></g></g><mask></mask><g stroke-linecap="round" transform="translate(887.6209942022549 386.9811536335651) rotate(0 46.378538196917134 12.960217825567156)"><path d="M0 0 L92.76 0 L92.76 25.92 L0 25.92" stroke="none" stroke-width="0" fill="#0fac7c"></path><path d="M0 0 C28.61 0, 57.22 0, 92.76 0 M0 0 C19.46 0, 38.93 0, 92.76 0 M92.76 0 C92.76 6.88, 92.76 13.77, 92.76 25.92 M92.76 0 C92.76 8.28, 92.76 16.56, 92.76 25.92 M92.76 25.92 C57.93 25.92, 23.09 25.92, 0 25.92 M92.76 25.92 C71.19 25.92, 49.63 25.92, 0 25.92 M0 25.92 C0 20.27, 0 14.61, 0 0 M0 25.92 C0 17.16, 0 8.4, 0 0" stroke="#0fac7c" stroke-width="1" fill="none"></path></g><g transform="translate(895.4795273817751 310.371064109499) rotate(0 37.890625 34.5)"><text x="37.890625" y="16.900390625" font-family="Helvetica, Segoe UI Emoji" font-size="20px" fill="#1e1e1e" text-anchor="middle" style="white-space: pre;" direction="ltr" dominant-baseline="alphabetic">Request</text><text x="37.890625" y="39.900390625" font-family="Helvetica, Segoe UI Emoji" font-size="20px" fill="#1e1e1e" text-anchor="middle" style="white-space: pre;" direction="ltr" dominant-baseline="alphabetic">header</text><text x="37.890625" y="62.900390625" font-family="Helvetica, Segoe UI Emoji" font-size="20px" fill="#1e1e1e" text-anchor="middle" style="white-space: pre;" direction="ltr" dominant-baseline="alphabetic">foo</text></g><g transform="translate(900.2729892929499 389.7344541689098) rotate(0 34.96208953857422 11.488107999541512)"><text x="34.96208953857422" y="16.882914150820767" font-family="Helvetica, Segoe UI Emoji" font-size="19.97931826007219px" fill="white" text-anchor="middle" style="white-space: pre;" direction="ltr" dominant-baseline="alphabetic">Policy 1</text></g></svg>