<svg version="1.1" xmlns="http://www.w3.org/2000/svg" viewBox="0 0 1462.6219575394362 695.9403356102002" width="2925.2439150788723" height="1391.8806712204005">
  <!-- svg-source:excalidraw -->
  
  <defs>
    <style class="style-fonts">
      
    </style>
    
  </defs>
  <rect x="0" y="0" width="1462.6219575394362" height="695.9403356102002" fill="#ffffff"></rect><g stroke-linecap="round" transform="translate(357.7828108814441 206.069806891474) rotate(0 117.48716581554648 19.274144472894648)"><path d="M9.64 0 C81.2 0, 152.76 0, 225.34 0 C231.76 0, 234.97 3.21, 234.97 9.64 C234.97 16.02, 234.97 22.4, 234.97 28.91 C234.97 35.34, 231.76 38.55, 225.34 38.55 C179.76 38.55, 134.19 38.55, 9.64 38.55 C3.21 38.55, 0 35.34, 0 28.91 C0 23.12, 0 17.34, 0 9.64 C0 3.21, 3.21 0, 9.64 0" stroke="none" stroke-width="0" fill="#158bc2"></path><path d="M9.64 0 C55.58 0, 101.52 0, 225.34 0 M9.64 0 C78.85 0, 148.06 0, 225.34 0 M225.34 0 C231.76 0, 234.97 3.21, 234.97 9.64 M225.34 0 C231.76 0, 234.97 3.21, 234.97 9.64 M234.97 9.64 C234.97 14, 234.97 18.36, 234.97 28.91 M234.97 9.64 C234.97 15.28, 234.97 20.93, 234.97 28.91 M234.97 28.91 C234.97 35.34, 231.76 38.55, 225.34 38.55 M234.97 28.91 C234.97 35.34, 231.76 38.55, 225.34 38.55 M225.34 38.55 C152.23 38.55, 79.13 38.55, 9.64 38.55 M225.34 38.55 C141.16 38.55, 56.98 38.55, 9.64 38.55 M9.64 38.55 C3.21 38.55, 0 35.34, 0 28.91 M9.64 38.55 C3.21 38.55, 0 35.34, 0 28.91 M0 28.91 C0 22.15, 0 15.38, 0 9.64 M0 28.91 C0 24.32, 0 19.73, 0 9.64 M0 9.64 C0 3.21, 3.21 0, 9.64 0 M0 9.64 C0 3.21, 3.21 0, 9.64 0" stroke="#158bc2" stroke-width="2" fill="none"></path></g><g transform="translate(424.77674487056913 210.05741844176174) rotate(0 50.5859375 16.099999999999994)"><text x="50.5859375" y="23.660546874999998" font-family="Helvetica, Segoe UI Emoji" font-size="28px" fill="white" text-anchor="middle" style="white-space: pre;" direction="ltr" dominant-baseline="alphabetic">Route A</text></g><g stroke-linecap="round" transform="translate(302.35751632164886 136.3704651331745) rotate(359.93787961041494 174.2997195481492 204.20870674833546)"><path d="M0 0 C127.76 0, 255.52 0, 348.6 0 M0 0 C131.06 0, 262.12 0, 348.6 0 M348.6 0 C348.6 117.88, 348.6 235.76, 348.6 408.42 M348.6 0 C348.6 142.11, 348.6 284.23, 348.6 408.42 M348.6 408.42 C244.28 408.42, 139.96 408.42, 0 408.42 M348.6 408.42 C211.27 408.42, 73.95 408.42, 0 408.42 M0 408.42 C0 275.27, 0 142.12, 0 0 M0 408.42 C0 282.28, 0 156.15, 0 0" stroke="#158bc2" stroke-width="1" fill="none"></path></g><g stroke-linecap="round" transform="translate(301.79608595214506 129.11019934707633) rotate(0 174.89483667878696 20.508975348572648)"><path d="M0 0 L349.79 0 L349.79 41.02 L0 41.02" stroke="none" stroke-width="0" fill="#158bc2"></path><path d="M0 0 C78.12 0, 156.23 0, 349.79 0 M0 0 C122.55 0, 245.11 0, 349.79 0 M349.79 0 C349.79 12.62, 349.79 25.24, 349.79 41.02 M349.79 0 C349.79 15.24, 349.79 30.49, 349.79 41.02 M349.79 41.02 C212.29 41.02, 74.8 41.02, 0 41.02 M349.79 41.02 C246.17 41.02, 142.55 41.02, 0 41.02 M0 41.02 C0 24.97, 0 8.91, 0 0 M0 41.02 C0 28.24, 0 15.47, 0 0" stroke="#158bc2" stroke-width="1" fill="none"></path></g><g transform="translate(403.9312350225341 134.5876172792748) rotate(0 73.91015625 16.099999999999994)"><text x="73.91015625" y="23.660546874999998" font-family="Helvetica, Segoe UI Emoji" font-size="28px" fill="white" text-anchor="middle" style="white-space: pre;" direction="ltr" dominant-baseline="alphabetic">HTTPRoute</text></g><g stroke-linecap="round" transform="translate(356.39657904868113 452.1732011390578) rotate(0 117.4492894822059 19.652907806300107)"><path d="M9.83 0 C84.48 0, 159.14 0, 225.07 0 C231.62 0, 234.9 3.28, 234.9 9.83 C234.9 16.79, 234.9 23.76, 234.9 29.48 C234.9 36.03, 231.62 39.31, 225.07 39.31 C145.12 39.31, 65.17 39.31, 9.83 39.31 C3.28 39.31, 0 36.03, 0 29.48 C0 23.94, 0 18.41, 0 9.83 C0 3.28, 3.28 0, 9.83 0" stroke="none" stroke-width="0" fill="#158bc2"></path><path d="M9.83 0 C55.28 0, 100.73 0, 225.07 0 M9.83 0 C95.9 0, 181.98 0, 225.07 0 M225.07 0 C231.62 0, 234.9 3.28, 234.9 9.83 M225.07 0 C231.62 0, 234.9 3.28, 234.9 9.83 M234.9 9.83 C234.9 15.71, 234.9 21.59, 234.9 29.48 M234.9 9.83 C234.9 17.57, 234.9 25.31, 234.9 29.48 M234.9 29.48 C234.9 36.03, 231.62 39.31, 225.07 39.31 M234.9 29.48 C234.9 36.03, 231.62 39.31, 225.07 39.31 M225.07 39.31 C152.39 39.31, 79.71 39.31, 9.83 39.31 M225.07 39.31 C168.94 39.31, 112.8 39.31, 9.83 39.31 M9.83 39.31 C3.28 39.31, 0 36.03, 0 29.48 M9.83 39.31 C3.28 39.31, 0 36.03, 0 29.48 M0 29.48 C0 25.26, 0 21.05, 0 9.83 M0 29.48 C0 24.53, 0 19.58, 0 9.83 M0 9.83 C0 3.28, 3.28 0, 9.83 0 M0 9.83 C0 3.28, 3.28 0, 9.83 0" stroke="#158bc2" stroke-width="2" fill="none"></path></g><g transform="translate(423.2517851450533 455.20168904620937) rotate(0 50.5859375 16.100000000000023)"><text x="50.5859375" y="23.660546874999998" font-family="Helvetica, Segoe UI Emoji" font-size="28px" fill="white" text-anchor="middle" style="white-space: pre;" direction="ltr" dominant-baseline="alphabetic">Route B</text></g><g transform="translate(144.366654460223 308.0251796459608) rotate(0.21456337434430317 48.82460021972656 13.656014175672084)"><text x="0" y="20.068867299947403" font-family="Helvetica, Segoe UI Emoji" font-size="23.749589870734013px" fill="#1e1e1e" text-anchor="start" style="white-space: pre;" direction="ltr" dominant-baseline="alphabetic">targetRef</text></g><g stroke-linecap="round"><g transform="translate(10.475938980591309 262.4610176252063) rotate(0 45.53585024310007 60.71446699080008)" fill-rule="evenodd"><path d="M0 0 L60.71 0 L91.07 30.36 L91.07 121.43 L0 121.43 L0 0" stroke="none" stroke-width="0" fill="#fff" fill-rule="evenodd"></path><path d="M0 0 C23.84 0, 47.69 0, 60.71 0 M0 0 C18.54 0, 37.08 0, 60.71 0 M60.71 0 C67.86 7.14, 75 14.28, 91.07 30.36 M60.71 0 C67.24 6.53, 73.77 13.05, 91.07 30.36 M91.07 30.36 C91.07 52.31, 91.07 74.26, 91.07 121.43 M91.07 30.36 C91.07 56.23, 91.07 82.11, 91.07 121.43 M91.07 121.43 C57.86 121.43, 24.64 121.43, 0 121.43 M91.07 121.43 C70.77 121.43, 50.46 121.43, 0 121.43 M0 121.43 C0 78.06, 0 34.7, 0 0 M0 121.43 C0 87.27, 0 53.11, 0 0 M0 0 C0 0, 0 0, 0 0 M0 0 C0 0, 0 0, 0 0" stroke="#0fac7c" stroke-width="2" fill="none"></path></g></g><mask></mask><g stroke-linecap="round"><g transform="translate(71.19040597139065 262.29696873006924) rotate(0 0 15.178616747700033)"><path d="M0 0 C0 6.77, 0 13.55, 0 30.36 M0 0 C0 11.3, 0 22.6, 0 30.36" stroke="#0fac7c" stroke-width="2" fill="none"></path></g></g><mask></mask><g stroke-linecap="round"><g transform="translate(71.19040597139065 292.6542022254689) rotate(0 15.178616747700005 0)"><path d="M0 0 C12.09 0, 24.19 0, 30.36 0 M0 0 C6.3 0, 12.59 0, 30.36 0" stroke="#0fac7c" stroke-width="2" fill="none"></path></g></g><mask></mask><g stroke-linecap="round" transform="translate(10 378.6217281824174) rotate(0 46.378538196917134 12.960217825567156)"><path d="M0 0 L92.76 0 L92.76 25.92 L0 25.92" stroke="none" stroke-width="0" fill="#0fac7c"></path><path d="M0 0 C24.03 0, 48.07 0, 92.76 0 M0 0 C32.04 0, 64.08 0, 92.76 0 M92.76 0 C92.76 5.97, 92.76 11.94, 92.76 25.92 M92.76 0 C92.76 5.83, 92.76 11.65, 92.76 25.92 M92.76 25.92 C73.96 25.92, 55.16 25.92, 0 25.92 M92.76 25.92 C60.74 25.92, 28.73 25.92, 0 25.92 M0 25.92 C0 15.66, 0 5.39, 0 0 M0 25.92 C0 18.64, 0 11.35, 0 0" stroke="#0fac7c" stroke-width="1" fill="none"></path></g><g transform="translate(22.789048690568507 380.4017990336979) rotate(0 35.0146484375 11.5)"><text x="35.0146484375" y="16.900390625" font-family="Helvetica, Segoe UI Emoji" font-size="20px" fill="white" text-anchor="middle" style="white-space: pre;" direction="ltr" dominant-baseline="alphabetic">Policy 1</text></g><g transform="translate(26.536278306849567 320.44050853677396) rotate(0 28.8916015625 11.499999999999972)"><text x="0" y="16.900390625" font-family="Helvetica, Segoe UI Emoji" font-size="20px" fill="#1e1e1e" text-anchor="start" style="white-space: pre;" direction="ltr" dominant-baseline="alphabetic">CORS</text></g><g stroke-linecap="round"><g transform="translate(379.0347971932239 245.92526286483837) rotate(0 0.15288642533892016 39.26066643763696)"><path d="M0 0 C0.1 25.98, 0.2 51.96, 0.31 78.52 M0 0 C0.12 30.63, 0.24 61.26, 0.31 78.52" stroke="#1e1e1e" stroke-width="1" fill="none"></path></g></g><mask></mask><g stroke-linecap="round"><g transform="translate(370.7782397404475 288.1293239984103) rotate(0 45.53585024310006 60.71446699080008)" fill-rule="evenodd"><path d="M0 0 L60.71 0 L91.07 30.36 L91.07 121.43 L0 121.43 L0 0" stroke="none" stroke-width="0" fill="#fff" fill-rule="evenodd"></path><path d="M0 0 C12.57 0, 25.15 0, 60.71 0 M0 0 C14.43 0, 28.86 0, 60.71 0 M60.71 0 C69.33 8.62, 77.95 17.23, 91.07 30.36 M60.71 0 C69.34 8.63, 77.97 17.25, 91.07 30.36 M91.07 30.36 C91.07 58.36, 91.07 86.35, 91.07 121.43 M91.07 30.36 C91.07 53.12, 91.07 75.89, 91.07 121.43 M91.07 121.43 C72.69 121.43, 54.3 121.43, 0 121.43 M91.07 121.43 C70.4 121.43, 49.73 121.43, 0 121.43 M0 121.43 C0 91.51, 0 61.6, 0 0 M0 121.43 C0 74, 0 26.58, 0 0 M0 0 C0 0, 0 0, 0 0 M0 0 C0 0, 0 0, 0 0" stroke="#e005a3" stroke-width="2" fill="none"></path></g></g><mask></mask><g stroke-linecap="round"><g transform="translate(431.49270673124727 287.96527510327326) rotate(0 0 15.178616747700033)"><path d="M0 0 C0 10.01, 0 20.01, 0 30.36 M0 0 C0 11.58, 0 23.16, 0 30.36" stroke="#e005a3" stroke-width="2" fill="none"></path></g></g><mask></mask><g stroke-linecap="round"><g transform="translate(431.49270673124727 318.3225085986729) rotate(0 15.17861674770002 0)"><path d="M0 0 C7.94 0, 15.88 0, 30.36 0 M0 0 C10.84 0, 21.69 0, 30.36 0" stroke="#e005a3" stroke-width="2" fill="none"></path></g></g><mask></mask><g stroke-linecap="round" transform="translate(370.30230075985617 404.29003455562145) rotate(0 46.37853819691716 12.960217825567156)"><path d="M0 0 L92.76 0 L92.76 25.92 L0 25.92" stroke="none" stroke-width="0" fill="#e005a3"></path><path d="M0 0 C33.85 0, 67.71 0, 92.76 0 M0 0 C22.31 0, 44.61 0, 92.76 0 M92.76 0 C92.76 8.58, 92.76 17.16, 92.76 25.92 M92.76 0 C92.76 7.25, 92.76 14.49, 92.76 25.92 M92.76 25.92 C58.8 25.92, 24.84 25.92, 0 25.92 M92.76 25.92 C62.71 25.92, 32.67 25.92, 0 25.92 M0 25.92 C0 19.78, 0 13.65, 0 0 M0 25.92 C0 16.38, 0 6.84, 0 0" stroke="#e005a3" stroke-width="1" fill="none"></path></g><g transform="translate(382.7815961745267 406.0701054069019) rotate(0 35.0146484375 11.5)"><text x="35.0146484375" y="16.900390625" font-family="Helvetica, Segoe UI Emoji" font-size="20px" fill="white" text-anchor="middle" style="white-space: pre;" direction="ltr" dominant-baseline="alphabetic">Policy 2</text></g><g transform="translate(387.023085021861 342.6559744806899) rotate(0 28.8916015625 11.5)"><text x="28.8916015625" y="16.900390625" font-family="Helvetica, Segoe UI Emoji" font-size="20px" fill="#1e1e1e" text-anchor="middle" style="white-space: pre;" direction="ltr" dominant-baseline="alphabetic">CORS</text></g><g stroke-linecap="round"><g transform="translate(101.9745213306461 342.51082812265247) rotate(0 100.42716449914087 -0.04780479534809956)"><path d="M0 0 C77.99 -0.04, 155.98 -0.07, 200.85 -0.1 M0 0 C53.36 -0.03, 106.72 -0.05, 200.85 -0.1" stroke="#1e1e1e" stroke-width="1" fill="none"></path></g><g transform="translate(101.9745213306461 342.51082812265247) rotate(0 100.42716449914087 -0.04780479534809956)"><path d="M200.85 -0.1 L187.26 6.25 L187.26 -6.43 L200.85 -0.1" stroke="none" stroke-width="0" fill="#1e1e1e" fill-rule="evenodd"></path><path d="M200.85 -0.1 C195.58 2.37, 190.3 4.83, 187.26 6.25 M200.85 -0.1 C197.24 1.59, 193.63 3.28, 187.26 6.25 M187.26 6.25 C187.26 1.95, 187.26 -2.36, 187.26 -6.43 M187.26 6.25 C187.26 3.37, 187.26 0.48, 187.26 -6.43 M187.26 -6.43 C190.57 -4.89, 193.88 -3.34, 200.85 -0.1 M187.26 -6.43 C191.83 -4.3, 196.41 -2.17, 200.85 -0.1 M200.85 -0.1 C200.85 -0.1, 200.85 -0.1, 200.85 -0.1 M200.85 -0.1 C200.85 -0.1, 200.85 -0.1, 200.85 -0.1" stroke="#1e1e1e" stroke-width="1" fill="none"></path></g></g><mask></mask><g stroke-linecap="round" transform="translate(1159.035119496199 201.60619173698126) rotate(0 117.48716581554646 19.274144472894648)"><path d="M9.64 0 C54.92 0, 100.21 0, 225.34 0 C231.76 0, 234.97 3.21, 234.97 9.64 C234.97 15.14, 234.97 20.64, 234.97 28.91 C234.97 35.34, 231.76 38.55, 225.34 38.55 C168.7 38.55, 112.07 38.55, 9.64 38.55 C3.21 38.55, 0 35.34, 0 28.91 C0 24.45, 0 20, 0 9.64 C0 3.21, 3.21 0, 9.64 0" stroke="none" stroke-width="0" fill="#158bc2"></path><path d="M9.64 0 C80.81 0, 151.98 0, 225.34 0 M9.64 0 C60.92 0, 112.2 0, 225.34 0 M225.34 0 C231.76 0, 234.97 3.21, 234.97 9.64 M225.34 0 C231.76 0, 234.97 3.21, 234.97 9.64 M234.97 9.64 C234.97 13.77, 234.97 17.91, 234.97 28.91 M234.97 9.64 C234.97 16.13, 234.97 22.62, 234.97 28.91 M234.97 28.91 C234.97 35.34, 231.76 38.55, 225.34 38.55 M234.97 28.91 C234.97 35.34, 231.76 38.55, 225.34 38.55 M225.34 38.55 C161.55 38.55, 97.77 38.55, 9.64 38.55 M225.34 38.55 C147.28 38.55, 69.22 38.55, 9.64 38.55 M9.64 38.55 C3.21 38.55, 0 35.34, 0 28.91 M9.64 38.55 C3.21 38.55, 0 35.34, 0 28.91 M0 28.91 C0 23.72, 0 18.53, 0 9.64 M0 28.91 C0 24.45, 0 19.99, 0 9.64 M0 9.64 C0 3.21, 3.21 0, 9.64 0 M0 9.64 C0 3.21, 3.21 0, 9.64 0" stroke="#158bc2" stroke-width="2" fill="none"></path></g><g transform="translate(1226.029053485324 205.593803287269) rotate(0 50.5859375 16.099999999999994)"><text x="50.5859375" y="23.660546874999998" font-family="Helvetica, Segoe UI Emoji" font-size="28px" fill="white" text-anchor="middle" style="white-space: pre;" direction="ltr" dominant-baseline="alphabetic">Route A</text></g><g stroke-linecap="round" transform="translate(1103.6026349196331 132.42261497720642) rotate(0 174.30690956491986 276.7588603164969)"><path d="M0 0 C137.14 0, 274.28 0, 348.61 0 M0 0 C93.32 0, 186.65 0, 348.61 0 M348.61 0 C348.61 129.21, 348.61 258.43, 348.61 553.52 M348.61 0 C348.61 158.27, 348.61 316.54, 348.61 553.52 M348.61 553.52 C239.41 553.52, 130.2 553.52, 0 553.52 M348.61 553.52 C278.57 553.52, 208.52 553.52, 0 553.52 M0 553.52 C0 379.33, 0 205.13, 0 0 M0 553.52 C0 436.58, 0 319.65, 0 0" stroke="#158bc2" stroke-width="1" fill="none"></path></g><g stroke-linecap="round" transform="translate(1102.8322841818624 121.49516145128348) rotate(0 174.89483667878693 20.508975348572648)"><path d="M0 0 L349.79 0 L349.79 41.02 L0 41.02" stroke="none" stroke-width="0" fill="#158bc2"></path><path d="M0 0 C110.92 0, 221.84 0, 349.79 0 M0 0 C135.63 0, 271.25 0, 349.79 0 M349.79 0 C349.79 12.47, 349.79 24.95, 349.79 41.02 M349.79 0 C349.79 9.84, 349.79 19.68, 349.79 41.02 M349.79 41.02 C276.8 41.02, 203.8 41.02, 0 41.02 M349.79 41.02 C216.02 41.02, 82.26 41.02, 0 41.02 M0 41.02 C0 26.15, 0 11.27, 0 0 M0 41.02 C0 29.09, 0 17.17, 0 0" stroke="#158bc2" stroke-width="1" fill="none"></path></g><g transform="translate(1204.9989554538456 127.01314832734215) rotate(0 73.91015625 16.099999999999994)"><text x="73.91015625" y="23.660546874999998" font-family="Helvetica, Segoe UI Emoji" font-size="28px" fill="white" text-anchor="middle" style="white-space: pre;" direction="ltr" dominant-baseline="alphabetic">HTTPRoute</text></g><g stroke-linecap="round" transform="translate(1157.6840439134362 447.779898484565) rotate(0 117.44928948220593 19.652907806300107)"><path d="M9.83 0 C92.19 0, 174.55 0, 225.07 0 C231.62 0, 234.9 3.28, 234.9 9.83 C234.9 14.68, 234.9 19.53, 234.9 29.48 C234.9 36.03, 231.62 39.31, 225.07 39.31 C159.15 39.31, 93.22 39.31, 9.83 39.31 C3.28 39.31, 0 36.03, 0 29.48 C0 21.73, 0 13.98, 0 9.83 C0 3.28, 3.28 0, 9.83 0" stroke="none" stroke-width="0" fill="#158bc2"></path><path d="M9.83 0 C65.01 0, 120.18 0, 225.07 0 M9.83 0 C58.15 0, 106.46 0, 225.07 0 M225.07 0 C231.62 0, 234.9 3.28, 234.9 9.83 M225.07 0 C231.62 0, 234.9 3.28, 234.9 9.83 M234.9 9.83 C234.9 15.98, 234.9 22.14, 234.9 29.48 M234.9 9.83 C234.9 13.78, 234.9 17.72, 234.9 29.48 M234.9 29.48 C234.9 36.03, 231.62 39.31, 225.07 39.31 M234.9 29.48 C234.9 36.03, 231.62 39.31, 225.07 39.31 M225.07 39.31 C179.07 39.31, 133.06 39.31, 9.83 39.31 M225.07 39.31 C140.96 39.31, 56.84 39.31, 9.83 39.31 M9.83 39.31 C3.28 39.31, 0 36.03, 0 29.48 M9.83 39.31 C3.28 39.31, 0 36.03, 0 29.48 M0 29.48 C0 21.96, 0 14.45, 0 9.83 M0 29.48 C0 24.61, 0 19.73, 0 9.83 M0 9.83 C0 3.28, 3.28 0, 9.83 0 M0 9.83 C0 3.28, 3.28 0, 9.83 0" stroke="#158bc2" stroke-width="2" fill="none"></path></g><g transform="translate(1224.5040937598083 450.73807389171645) rotate(0 50.5859375 16.100000000000023)"><text x="50.5859375" y="23.660546874999998" font-family="Helvetica, Segoe UI Emoji" font-size="28px" fill="white" text-anchor="middle" style="white-space: pre;" direction="ltr" dominant-baseline="alphabetic">Route B</text></g><g stroke-linecap="round"><g transform="translate(1180.2871058079788 241.46164771034557) rotate(0 0.15288642533892016 39.26066643763696)"><path d="M0 0 C0.08 19.45, 0.15 38.9, 0.31 78.52 M0 0 C0.12 29.81, 0.23 59.62, 0.31 78.52" stroke="#1e1e1e" stroke-width="1" fill="none"></path></g></g><mask></mask><g stroke-linecap="round"><g transform="translate(506.5833888350779 245.72284933126429) rotate(0 0.15288642533892016 40.00746180179266)"><path d="M0 0 C0.07 19.35, 0.15 38.7, 0.31 80.01 M0 0 C0.1 25.17, 0.19 50.34, 0.31 80.01" stroke="#1e1e1e" stroke-width="1" fill="none"></path></g></g><mask></mask><g stroke-linecap="round"><g transform="translate(498.7072275186986 285.21383513302453) rotate(0 45.53585024310006 60.71446699080008)" fill-rule="evenodd"><path d="M0 0 L60.71 0 L91.07 30.36 L91.07 121.43 L0 121.43 L0 0" stroke="none" stroke-width="0" fill="#fff" fill-rule="evenodd"></path><path d="M0 0 C16.49 0, 32.99 0, 60.71 0 M0 0 C14.2 0, 28.4 0, 60.71 0 M60.71 0 C72.39 11.67, 84.06 23.34, 91.07 30.36 M60.71 0 C67.81 7.1, 74.91 14.2, 91.07 30.36 M91.07 30.36 C91.07 48.75, 91.07 67.15, 91.07 121.43 M91.07 30.36 C91.07 65.27, 91.07 100.18, 91.07 121.43 M91.07 121.43 C55.59 121.43, 20.1 121.43, 0 121.43 M91.07 121.43 C58.32 121.43, 25.56 121.43, 0 121.43 M0 121.43 C0 96.81, 0 72.19, 0 0 M0 121.43 C0 86.65, 0 51.88, 0 0 M0 0 C0 0, 0 0, 0 0 M0 0 C0 0, 0 0, 0 0" stroke="#7e4bc6" stroke-width="2" fill="none"></path></g></g><mask></mask><g stroke-linecap="round"><g transform="translate(559.4216945094979 285.0497862378875) rotate(0 0 15.178616747700033)"><path d="M0 0 C0 11.14, 0 22.28, 0 30.36 M0 0 C0 11.68, 0 23.36, 0 30.36" stroke="#7e4bc6" stroke-width="2" fill="none"></path></g></g><mask></mask><g stroke-linecap="round"><g transform="translate(559.4216945094979 315.40701973328714) rotate(0 15.17861674770002 0)"><path d="M0 0 C11.69 0, 23.39 0, 30.36 0 M0 0 C12.02 0, 24.04 0, 30.36 0" stroke="#7e4bc6" stroke-width="2" fill="none"></path></g></g><mask></mask><g stroke-linecap="round" transform="translate(498.23128853810726 401.37454569023566) rotate(0 46.378538196917155 12.960217825567156)"><path d="M0 0 L92.76 0 L92.76 25.92 L0 25.92" stroke="none" stroke-width="0" fill="#7e4bc6"></path><path d="M0 0 C21.31 0, 42.62 0, 92.76 0 M0 0 C35.86 0, 71.73 0, 92.76 0 M92.76 0 C92.76 9.96, 92.76 19.93, 92.76 25.92 M92.76 0 C92.76 9.31, 92.76 18.63, 92.76 25.92 M92.76 25.92 C58.76 25.92, 24.75 25.92, 0 25.92 M92.76 25.92 C58.56 25.92, 24.37 25.92, 0 25.92 M0 25.92 C0 18.77, 0 11.63, 0 0 M0 25.92 C0 18.47, 0 11.01, 0 0" stroke="#7e4bc6" stroke-width="1" fill="none"></path></g><g transform="translate(510.865460590727 403.15461654151613) rotate(0 35.0146484375 11.5)"><text x="35.0146484375" y="16.900390625" font-family="Helvetica, Segoe UI Emoji" font-size="20px" fill="white" text-anchor="middle" style="white-space: pre;" direction="ltr" dominant-baseline="alphabetic">Policy 3</text></g><g transform="translate(507.06536697387935 330.60953166802074) rotate(0 36.689453125 23)"><text x="36.689453125" y="16.900390625" font-family="Helvetica, Segoe UI Emoji" font-size="20px" fill="#1e1e1e" text-anchor="middle" style="white-space: pre;" direction="ltr" dominant-baseline="alphabetic">Fault</text><text x="36.689453125" y="39.900390625" font-family="Helvetica, Segoe UI Emoji" font-size="20px" fill="#1e1e1e" text-anchor="middle" style="white-space: pre;" direction="ltr" dominant-baseline="alphabetic">injection</text></g><g stroke-linecap="round"><g transform="translate(1320.170148179357 241.37199896565699) rotate(0 0.15288642533892016 39.26066643763696)"><path d="M0 0 C0.07 18.33, 0.14 36.65, 0.31 78.52 M0 0 C0.09 24.32, 0.19 48.65, 0.31 78.52" stroke="#1e1e1e" stroke-width="1" fill="none"></path></g></g><mask></mask><g stroke-linecap="round"><g transform="translate(1183.352419431422 488.34927097847174) rotate(0 0.15288642533892016 39.260666437636985)"><path d="M0 0 C0.08 20.56, 0.16 41.12, 0.31 78.52 M0 0 C0.08 19.38, 0.15 38.76, 0.31 78.52" stroke="#1e1e1e" stroke-width="1" fill="none"></path></g></g><mask></mask><g stroke-linecap="round"><g transform="translate(1174.9713830558649 512.1310572643625) rotate(0 45.53585024310007 60.71446699080008)" fill-rule="evenodd"><path d="M0 0 L60.71 0 L91.07 30.36 L91.07 121.43 L0 121.43 L0 0" stroke="none" stroke-width="0" fill="#fff" fill-rule="evenodd"></path><path d="M0 0 C15.33 0, 30.65 0, 60.71 0 M0 0 C16.46 0, 32.91 0, 60.71 0 M60.71 0 C71.56 10.85, 82.41 21.7, 91.07 30.36 M60.71 0 C68.78 8.07, 76.85 16.14, 91.07 30.36 M91.07 30.36 C91.07 64.34, 91.07 98.32, 91.07 121.43 M91.07 30.36 C91.07 53.16, 91.07 75.96, 91.07 121.43 M91.07 121.43 C60.89 121.43, 30.7 121.43, 0 121.43 M91.07 121.43 C70.09 121.43, 49.1 121.43, 0 121.43 M0 121.43 C0 94.01, 0 66.58, 0 0 M0 121.43 C0 74.18, 0 26.93, 0 0 M0 0 C0 0, 0 0, 0 0 M0 0 C0 0, 0 0, 0 0" stroke="#0fac7c" stroke-width="2" fill="none"></path></g></g><mask></mask><g stroke-linecap="round"><g transform="translate(1235.6858500466642 511.9670083692255) rotate(0 0 15.178616747700005)"><path d="M0 0 C0 8.53, 0 17.07, 0 30.36 M0 0 C0 10.53, 0 21.06, 0 30.36" stroke="#0fac7c" stroke-width="2" fill="none"></path></g></g><mask></mask><g stroke-linecap="round"><g transform="translate(1235.6858500466642 542.3242418646253) rotate(0 15.178616747700005 0)"><path d="M0 0 C10.8 0, 21.59 0, 30.36 0 M0 0 C11.03 0, 22.07 0, 30.36 0" stroke="#0fac7c" stroke-width="2" fill="none"></path></g></g><mask></mask><g stroke-linecap="round" transform="translate(1174.4954440752736 628.2917678215738) rotate(0 46.378538196917134 12.960217825567156)"><path d="M0 0 L92.76 0 L92.76 25.92 L0 25.92" stroke="none" stroke-width="0" fill="#0fac7c"></path><path d="M0 0 C19.19 0, 38.38 0, 92.76 0 M0 0 C35.32 0, 70.64 0, 92.76 0 M92.76 0 C92.76 5.72, 92.76 11.44, 92.76 25.92 M92.76 0 C92.76 9.35, 92.76 18.7, 92.76 25.92 M92.76 25.92 C67.15 25.92, 41.54 25.92, 0 25.92 M92.76 25.92 C72.64 25.92, 52.53 25.92, 0 25.92 M0 25.92 C0 18.69, 0 11.46, 0 0 M0 25.92 C0 17.46, 0 8.99, 0 0" stroke="#0fac7c" stroke-width="1" fill="none"></path></g><g transform="translate(1187.284492765842 630.0718386728543) rotate(0 35.0146484375 11.5)"><text x="35.0146484375" y="16.900390625" font-family="Helvetica, Segoe UI Emoji" font-size="20px" fill="white" text-anchor="middle" style="white-space: pre;" direction="ltr" dominant-baseline="alphabetic">Policy 1</text></g><g transform="translate(1191.031722382123 570.1105481759303) rotate(0 28.8916015625 11.5)"><text x="0" y="16.900390625" font-family="Helvetica, Segoe UI Emoji" font-size="20px" fill="#1e1e1e" text-anchor="start" style="white-space: pre;" direction="ltr" dominant-baseline="alphabetic">CORS</text></g><g stroke-linecap="round"><g transform="translate(1309.7944454763142 263.96854873811424) rotate(0 45.53585024310007 60.71446699080008)" fill-rule="evenodd"><path d="M0 0 L60.71 0 L91.07 30.36 L91.07 121.43 L0 121.43 L0 0" stroke="none" stroke-width="0" fill="#fff" fill-rule="evenodd"></path><path d="M0 0 C18.73 0, 37.47 0, 60.71 0 M0 0 C21.46 0, 42.92 0, 60.71 0 M60.71 0 C68.27 7.55, 75.82 15.11, 91.07 30.36 M60.71 0 C67.78 7.06, 74.84 14.13, 91.07 30.36 M91.07 30.36 C91.07 57.79, 91.07 85.23, 91.07 121.43 M91.07 30.36 C91.07 60.97, 91.07 91.59, 91.07 121.43 M91.07 121.43 C69.42 121.43, 47.77 121.43, 0 121.43 M91.07 121.43 C58.72 121.43, 26.37 121.43, 0 121.43 M0 121.43 C0 90.52, 0 59.61, 0 0 M0 121.43 C0 91.96, 0 62.48, 0 0 M0 0 C0 0, 0 0, 0 0 M0 0 C0 0, 0 0, 0 0" stroke="#7e4bc6" stroke-width="2" fill="none"></path></g></g><mask></mask><g stroke-linecap="round"><g transform="translate(1370.5089124671135 263.8044998429772) rotate(0 0 15.178616747700033)"><path d="M0 0 C0 9.55, 0 19.1, 0 30.36 M0 0 C0 9.51, 0 19.03, 0 30.36" stroke="#7e4bc6" stroke-width="2" fill="none"></path></g></g><mask></mask><g stroke-linecap="round"><g transform="translate(1370.5089124671135 294.16173333837685) rotate(0 15.178616747700005 0)"><path d="M0 0 C6.3 0, 12.59 0, 30.36 0 M0 0 C7.97 0, 15.93 0, 30.36 0" stroke="#7e4bc6" stroke-width="2" fill="none"></path></g></g><mask></mask><g stroke-linecap="round" transform="translate(1309.3185064957229 380.12925929532537) rotate(0 46.378538196917134 12.960217825567156)"><path d="M0 0 L92.76 0 L92.76 25.92 L0 25.92" stroke="none" stroke-width="0" fill="#7e4bc6"></path><path d="M0 0 C19 0, 38 0, 92.76 0 M0 0 C32.2 0, 64.39 0, 92.76 0 M92.76 0 C92.76 6.86, 92.76 13.73, 92.76 25.92 M92.76 0 C92.76 9.23, 92.76 18.46, 92.76 25.92 M92.76 25.92 C67.68 25.92, 42.6 25.92, 0 25.92 M92.76 25.92 C63.33 25.92, 33.91 25.92, 0 25.92 M0 25.92 C0 18.15, 0 10.39, 0 0 M0 25.92 C0 18.26, 0 10.6, 0 0" stroke="#7e4bc6" stroke-width="1" fill="none"></path></g><g transform="translate(1321.9526785483426 381.90933014660584) rotate(0 35.0146484375 11.5)"><text x="35.0146484375" y="16.900390625" font-family="Helvetica, Segoe UI Emoji" font-size="20px" fill="white" text-anchor="middle" style="white-space: pre;" direction="ltr" dominant-baseline="alphabetic">Policy 3</text></g><g transform="translate(1318.1525849314949 309.36424527311044) rotate(0 36.689453125 23)"><text x="36.689453125" y="16.900390625" font-family="Helvetica, Segoe UI Emoji" font-size="20px" fill="#1e1e1e" text-anchor="middle" style="white-space: pre;" direction="ltr" dominant-baseline="alphabetic">Fault</text><text x="36.689453125" y="39.900390625" font-family="Helvetica, Segoe UI Emoji" font-size="20px" fill="#1e1e1e" text-anchor="middle" style="white-space: pre;" direction="ltr" dominant-baseline="alphabetic">injection</text></g><g transform="translate(378.52075319498897 11.169963339176888) rotate(0 100.26045652836191 24.119859776874165)"><text x="0" y="35.446526265165105" font-family="Helvetica, Segoe UI Emoji" font-size="41.947582220650716px" fill="#1e1e1e" text-anchor="start" style="white-space: pre;" direction="ltr" dominant-baseline="alphabetic">Initial state</text></g><g transform="translate(1146.5829496297415 10) rotate(0 149.59552001953125 24.119859776874165)"><text x="0" y="35.446526265165105" font-family="Helvetica, Segoe UI Emoji" font-size="41.947582220650716px" fill="#1e1e1e" text-anchor="start" style="white-space: pre;" direction="ltr" dominant-baseline="alphabetic">Translated state</text></g><g stroke-linecap="round"><g transform="translate(689.2676527468195 39.83666439939458) rotate(0 196.04622347722704 -0.13301207336348853)"><path d="M0 0 C138.27 -0.09, 276.55 -0.19, 392.09 -0.27 M0 0 C112.2 -0.08, 224.41 -0.15, 392.09 -0.27" stroke="#1e1e1e" stroke-width="1" fill="none"></path></g><g transform="translate(689.2676527468195 39.83666439939458) rotate(0 196.04622347722704 -0.13301207336348853)"><path d="M392.09 -0.27 L378.5 6.08 L378.49 -6.6 L392.09 -0.27" stroke="none" stroke-width="0" fill="#1e1e1e" fill-rule="evenodd"></path><path d="M392.09 -0.27 C387.3 1.97, 382.51 4.21, 378.5 6.08 M392.09 -0.27 C388.2 1.55, 384.31 3.37, 378.5 6.08 M378.5 6.08 C378.5 1.09, 378.5 -3.91, 378.49 -6.6 M378.5 6.08 C378.5 1.37, 378.5 -3.33, 378.49 -6.6 M378.49 -6.6 C382.34 -4.8, 386.2 -3.01, 392.09 -0.27 M378.49 -6.6 C382.06 -4.94, 385.62 -3.28, 392.09 -0.27 M392.09 -0.27 C392.09 -0.27, 392.09 -0.27, 392.09 -0.27 M392.09 -0.27 C392.09 -0.27, 392.09 -0.27, 392.09 -0.27" stroke="#1e1e1e" stroke-width="1" fill="none"></path></g></g><mask></mask><g transform="translate(389.78852264119655 255.4247270565594) rotate(0 52.00171126771028 9.779959305095531)"><text x="0" y="14.372620221975474" font-family="Helvetica, Segoe UI Emoji" font-size="17.008624878427003px" fill="#1e1e1e" text-anchor="start" style="white-space: pre;" direction="ltr" dominant-baseline="alphabetic">extensionRef </text></g><g transform="translate(514.8334693039552 253.6012873051792) rotate(0 52.00171126771027 9.779959305095531)"><text x="0" y="14.372620221975474" font-family="Helvetica, Segoe UI Emoji" font-size="17.008624878427003px" fill="#1e1e1e" text-anchor="start" style="white-space: pre;" direction="ltr" dominant-baseline="alphabetic">extensionRef </text></g><g stroke-linecap="round"><g transform="translate(1168.4148238393605 265.2008600494264) rotate(0 45.53585024310007 60.71446699080008)" fill-rule="evenodd"><path d="M0 0 L60.71 0 L91.07 30.36 L91.07 121.43 L0 121.43 L0 0" stroke="none" stroke-width="0" fill="#fff" fill-rule="evenodd"></path><path d="M0 0 C23.04 0, 46.08 0, 60.71 0 M0 0 C16.76 0, 33.52 0, 60.71 0 M60.71 0 C68.33 7.62, 75.95 15.23, 91.07 30.36 M60.71 0 C66.98 6.27, 73.25 12.53, 91.07 30.36 M91.07 30.36 C91.07 65.51, 91.07 100.66, 91.07 121.43 M91.07 30.36 C91.07 50.5, 91.07 70.64, 91.07 121.43 M91.07 121.43 C59.58 121.43, 28.09 121.43, 0 121.43 M91.07 121.43 C54.87 121.43, 18.67 121.43, 0 121.43 M0 121.43 C0 77.02, 0 32.61, 0 0 M0 121.43 C0 94.2, 0 66.97, 0 0 M0 0 C0 0, 0 0, 0 0 M0 0 C0 0, 0 0, 0 0" stroke="#e005a3" stroke-width="2" fill="none"></path></g></g><mask></mask><g stroke-linecap="round"><g transform="translate(1229.1292908301602 265.03681115428935) rotate(0 0 15.178616747700033)"><path d="M0 0 C0 10.59, 0 21.17, 0 30.36 M0 0 C0 10.99, 0 21.98, 0 30.36" stroke="#e005a3" stroke-width="2" fill="none"></path></g></g><mask></mask><g stroke-linecap="round"><g transform="translate(1229.1292908301602 295.39404464968914) rotate(0 15.178616747700005 0)"><path d="M0 0 C9.13 0, 18.26 0, 30.36 0 M0 0 C7.29 0, 14.58 0, 30.36 0" stroke="#e005a3" stroke-width="2" fill="none"></path></g></g><mask></mask><g stroke-linecap="round" transform="translate(1167.9388848587691 381.36157060663766) rotate(0 46.378538196917134 12.960217825567156)"><path d="M0 0 L92.76 0 L92.76 25.92 L0 25.92" stroke="none" stroke-width="0" fill="#e005a3"></path><path d="M0 0 C25.69 0, 51.39 0, 92.76 0 M0 0 C23.97 0, 47.94 0, 92.76 0 M92.76 0 C92.76 5.33, 92.76 10.66, 92.76 25.92 M92.76 0 C92.76 9.45, 92.76 18.89, 92.76 25.92 M92.76 25.92 C62.42 25.92, 32.08 25.92, 0 25.92 M92.76 25.92 C68.43 25.92, 44.1 25.92, 0 25.92 M0 25.92 C0 16.64, 0 7.36, 0 0 M0 25.92 C0 16.77, 0 7.62, 0 0" stroke="#e005a3" stroke-width="1" fill="none"></path></g><g transform="translate(1180.4181802734397 383.1416414579181) rotate(0 35.0146484375 11.5)"><text x="35.0146484375" y="16.900390625" font-family="Helvetica, Segoe UI Emoji" font-size="20px" fill="white" text-anchor="middle" style="white-space: pre;" direction="ltr" dominant-baseline="alphabetic">Policy 2</text></g><g transform="translate(1184.659669120774 319.7275105317059) rotate(0 28.8916015625 11.5)"><text x="28.8916015625" y="16.900390625" font-family="Helvetica, Segoe UI Emoji" font-size="20px" fill="#1e1e1e" text-anchor="middle" style="white-space: pre;" direction="ltr" dominant-baseline="alphabetic">CORS</text></g></svg>