<svg version="1.1" xmlns="http://www.w3.org/2000/svg" viewBox="0 0 1684.8161684976994 673.2475885807905" width="3369.632336995399" height="1346.495177161581">
  <!-- svg-source:excalidraw -->
  
  <defs>
    <style class="style-fonts">
      
    </style>
    
  </defs>
  <rect x="0" y="0" width="1684.8161684976994" height="673.2475885807905" fill="#ffffff"></rect><g transform="translate(800.2463470079265 180.9280572275602) rotate(0 35.0146484375 11.5)"><text x="35.0146484375" y="16.900390625" font-family="Helvetica, Segoe UI Emoji" font-size="20px" fill="white" text-anchor="middle" style="white-space: pre;" direction="ltr" dominant-baseline="alphabetic">Policy 1</text></g><g stroke-linecap="round" transform="translate(548.8628598327696 206.0698068914735) rotate(0 117.48716581554663 19.274144472894704)"><path d="M9.64 0 C88.71 0, 167.79 0, 225.34 0 C231.76 0, 234.97 3.21, 234.97 9.64 C234.97 16.49, 234.97 23.34, 234.97 28.91 C234.97 35.34, 231.76 38.55, 225.34 38.55 C154.31 38.55, 83.28 38.55, 9.64 38.55 C3.21 38.55, 0 35.34, 0 28.91 C0 24.2, 0 19.48, 0 9.64 C0 3.21, 3.21 0, 9.64 0" stroke="none" stroke-width="0" fill="#158bc2"></path><path d="M9.64 0 C86.55 0, 163.47 0, 225.34 0 M9.64 0 C62.6 0, 115.56 0, 225.34 0 M225.34 0 C231.76 0, 234.97 3.21, 234.97 9.64 M225.34 0 C231.76 0, 234.97 3.21, 234.97 9.64 M234.97 9.64 C234.97 13.86, 234.97 18.09, 234.97 28.91 M234.97 9.64 C234.97 16.62, 234.97 23.61, 234.97 28.91 M234.97 28.91 C234.97 35.34, 231.76 38.55, 225.34 38.55 M234.97 28.91 C234.97 35.34, 231.76 38.55, 225.34 38.55 M225.34 38.55 C180.23 38.55, 135.12 38.55, 9.64 38.55 M225.34 38.55 C141.19 38.55, 57.03 38.55, 9.64 38.55 M9.64 38.55 C3.21 38.55, 0 35.34, 0 28.91 M9.64 38.55 C3.21 38.55, 0 35.34, 0 28.91 M0 28.91 C0 22.33, 0 15.75, 0 9.64 M0 28.91 C0 22.99, 0 17.08, 0 9.64 M0 9.64 C0 3.21, 3.21 0, 9.64 0 M0 9.64 C0 3.21, 3.21 0, 9.64 0" stroke="#158bc2" stroke-width="2" fill="none"></path></g><g transform="translate(590.1810125718939 210.0574184417619) rotate(0 76.26171875 16.100000000000023)"><text x="76.26171875" y="23.660546874999998" font-family="Helvetica, Segoe UI Emoji" font-size="28px" fill="white" text-anchor="middle" style="white-space: pre;" direction="ltr" dominant-baseline="alphabetic">listener: http</text></g><g stroke-linecap="round" transform="translate(493.437565272975 136.37046513317546) rotate(359.93787961041494 174.29971954814937 204.20870674833543)"><path d="M0 0 C93.5 0, 186.99 0, 348.6 0 M0 0 C113.88 0, 227.76 0, 348.6 0 M348.6 0 C348.6 107.25, 348.6 214.5, 348.6 408.42 M348.6 0 C348.6 139.57, 348.6 279.13, 348.6 408.42 M348.6 408.42 C217.62 408.42, 86.64 408.42, 0 408.42 M348.6 408.42 C237.17 408.42, 125.74 408.42, 0 408.42 M0 408.42 C0 314.28, 0 220.15, 0 0 M0 408.42 C0 278.2, 0 147.98, 0 0" stroke="#158bc2" stroke-width="1" fill="none"></path></g><g stroke-linecap="round" transform="translate(492.8761349034712 129.11019934707656) rotate(0 174.89483667878676 20.508975348572676)"><path d="M0 0 L349.79 0 L349.79 41.02 L0 41.02" stroke="none" stroke-width="0" fill="#158bc2"></path><path d="M0 0 C104.66 0, 209.33 0, 349.79 0 M0 0 C106.49 0, 212.97 0, 349.79 0 M349.79 0 C349.79 14.24, 349.79 28.48, 349.79 41.02 M349.79 0 C349.79 12.34, 349.79 24.67, 349.79 41.02 M349.79 41.02 C254.25 41.02, 158.72 41.02, 0 41.02 M349.79 41.02 C245.31 41.02, 140.83 41.02, 0 41.02 M0 41.02 C0 24.67, 0 8.33, 0 0 M0 41.02 C0 26.39, 0 11.77, 0 0" stroke="#158bc2" stroke-width="1" fill="none"></path></g><g transform="translate(613.6733933488604 134.58761727927595) rotate(0 55.248046875 16.100000000000023)"><text x="55.248046875" y="23.660546874999998" font-family="Helvetica, Segoe UI Emoji" font-size="28px" fill="white" text-anchor="middle" style="white-space: pre;" direction="ltr" dominant-baseline="alphabetic">Gateway</text></g><g stroke-linecap="round" transform="translate(547.5117842500067 452.2435136390577) rotate(0 117.44928948220604 19.652907806300163)"><path d="M9.83 0 C67.22 0, 124.61 0, 225.07 0 C231.62 0, 234.9 3.28, 234.9 9.83 C234.9 17.39, 234.9 24.96, 234.9 29.48 C234.9 36.03, 231.62 39.31, 225.07 39.31 C159.91 39.31, 94.75 39.31, 9.83 39.31 C3.28 39.31, 0 36.03, 0 29.48 C0 21.92, 0 14.36, 0 9.83 C0 3.28, 3.28 0, 9.83 0" stroke="none" stroke-width="0" fill="#158bc2"></path><path d="M9.83 0 C56.08 0, 102.34 0, 225.07 0 M9.83 0 C68.33 0, 126.84 0, 225.07 0 M225.07 0 C231.62 0, 234.9 3.28, 234.9 9.83 M225.07 0 C231.62 0, 234.9 3.28, 234.9 9.83 M234.9 9.83 C234.9 17.21, 234.9 24.59, 234.9 29.48 M234.9 9.83 C234.9 16.11, 234.9 22.39, 234.9 29.48 M234.9 29.48 C234.9 36.03, 231.62 39.31, 225.07 39.31 M234.9 29.48 C234.9 36.03, 231.62 39.31, 225.07 39.31 M225.07 39.31 C156.46 39.31, 87.86 39.31, 9.83 39.31 M225.07 39.31 C167.53 39.31, 109.99 39.31, 9.83 39.31 M9.83 39.31 C3.28 39.31, 0 36.03, 0 29.48 M9.83 39.31 C3.28 39.31, 0 36.03, 0 29.48 M0 29.48 C0 22.77, 0 16.06, 0 9.83 M0 29.48 C0 22.16, 0 14.84, 0 9.83 M0 9.83 C0 3.28, 3.28 0, 9.83 0 M0 9.83 C0 3.28, 3.28 0, 9.83 0" stroke="#158bc2" stroke-width="2" fill="none"></path></g><g transform="translate(581.656052846377 455.20168904620914) rotate(0 83.26171875 16.100000000000023)"><text x="83.26171875" y="23.660546874999998" font-family="Helvetica, Segoe UI Emoji" font-size="28px" fill="white" text-anchor="middle" style="white-space: pre;" direction="ltr" dominant-baseline="alphabetic">listener: https</text></g><g transform="translate(569.600802146314 11.169963339178139) rotate(0 100.26045652836183 24.119859776874137)"><text x="0" y="35.446526265165105" font-family="Helvetica, Segoe UI Emoji" font-size="41.947582220650716px" fill="#1e1e1e" text-anchor="start" style="white-space: pre;" direction="ltr" dominant-baseline="alphabetic">Initial state</text></g><g transform="translate(1337.6629985810678 10) rotate(0 149.59552001953125 24.119859776874137)"><text x="0" y="35.446526265165105" font-family="Helvetica, Segoe UI Emoji" font-size="41.947582220650716px" fill="#1e1e1e" text-anchor="start" style="white-space: pre;" direction="ltr" dominant-baseline="alphabetic">Translated state</text></g><g stroke-linecap="round"><g transform="translate(880.3477016981442 39.83666439939407) rotate(0 196.04622347722716 -0.13301207336348853)"><path d="M0 0 C107.09 -0.07, 214.18 -0.15, 392.09 -0.27 M0 0 C117.11 -0.08, 234.23 -0.16, 392.09 -0.27" stroke="#1e1e1e" stroke-width="1" fill="none"></path></g><g transform="translate(880.3477016981442 39.83666439939407) rotate(0 196.04622347722716 -0.13301207336348853)"><path d="M392.09 -0.27 L378.5 6.08 L378.49 -6.6 L392.09 -0.27" stroke="none" stroke-width="0" fill="#1e1e1e" fill-rule="evenodd"></path><path d="M392.09 -0.27 C388.38 1.47, 384.67 3.2, 378.5 6.08 M392.09 -0.27 C388.03 1.63, 383.97 3.53, 378.5 6.08 M378.5 6.08 C378.5 1.03, 378.5 -4.02, 378.49 -6.6 M378.5 6.08 C378.5 1.56, 378.5 -2.96, 378.49 -6.6 M378.49 -6.6 C381.85 -5.03, 385.21 -3.47, 392.09 -0.27 M378.49 -6.6 C381.48 -5.21, 384.46 -3.82, 392.09 -0.27 M392.09 -0.27 C392.09 -0.27, 392.09 -0.27, 392.09 -0.27 M392.09 -0.27 C392.09 -0.27, 392.09 -0.27, 392.09 -0.27" stroke="#1e1e1e" stroke-width="1" fill="none"></path></g></g><mask></mask><g stroke-linecap="round"><g transform="translate(141.96530747449106 160.91646987344757) rotate(0 45.53585024309996 60.71446699080013)" fill-rule="evenodd"><path d="M0 0 L60.71 0 L91.07 30.36 L91.07 121.43 L0 121.43 L0 0" stroke="none" stroke-width="0" fill="#fff" fill-rule="evenodd"></path><path d="M0 0 C23.14 0, 46.28 0, 60.71 0 M0 0 C13.49 0, 26.99 0, 60.71 0 M60.71 0 C68.9 8.19, 77.09 16.38, 91.07 30.36 M60.71 0 C70.58 9.87, 80.46 19.74, 91.07 30.36 M91.07 30.36 C91.07 56.05, 91.07 81.75, 91.07 121.43 M91.07 30.36 C91.07 52.33, 91.07 74.3, 91.07 121.43 M91.07 121.43 C68.95 121.43, 46.83 121.43, 0 121.43 M91.07 121.43 C72.64 121.43, 54.21 121.43, 0 121.43 M0 121.43 C0 97.08, 0 72.73, 0 0 M0 121.43 C0 78.28, 0 35.12, 0 0 M0 0 C0 0, 0 0, 0 0 M0 0 C0 0, 0 0, 0 0" stroke="#0fac7c" stroke-width="2" fill="none"></path></g></g><mask></mask><g stroke-linecap="round"><g transform="translate(202.6797744652904 160.7524209783105) rotate(0 0 15.178616747700062)"><path d="M0 0 C0 8.99, 0 17.98, 0 30.36 M0 0 C0 8.75, 0 17.5, 0 30.36" stroke="#0fac7c" stroke-width="2" fill="none"></path></g></g><mask></mask><g stroke-linecap="round"><g transform="translate(202.6797744652904 191.10965447371018) rotate(0 15.178616747700062 0)"><path d="M0 0 C10.74 0, 21.48 0, 30.36 0 M0 0 C7.4 0, 14.8 0, 30.36 0" stroke="#0fac7c" stroke-width="2" fill="none"></path></g></g><mask></mask><g stroke-linecap="round" transform="translate(141.48936849389975 277.0771804306587) rotate(0 46.378538196917134 12.960217825567156)"><path d="M0 0 L92.76 0 L92.76 25.92 L0 25.92" stroke="none" stroke-width="0" fill="#0fac7c"></path><path d="M0 0 C33.23 0, 66.46 0, 92.76 0 M0 0 C19.22 0, 38.44 0, 92.76 0 M92.76 0 C92.76 6.86, 92.76 13.72, 92.76 25.92 M92.76 0 C92.76 9.72, 92.76 19.44, 92.76 25.92 M92.76 25.92 C67.13 25.92, 41.5 25.92, 0 25.92 M92.76 25.92 C66.24 25.92, 39.72 25.92, 0 25.92 M0 25.92 C0 20.63, 0 15.35, 0 0 M0 25.92 C0 19.94, 0 13.96, 0 0" stroke="#0fac7c" stroke-width="1" fill="none"></path></g><g transform="translate(157.30932526630204 214.4210260155205) rotate(0 28.8916015625 11.5)"><text x="28.8916015625" y="16.900390625" font-family="Helvetica, Segoe UI Emoji" font-size="20px" fill="#1e1e1e" text-anchor="middle" style="white-space: pre;" direction="ltr" dominant-baseline="alphabetic">CORS</text></g><g transform="translate(153.49513949139327 281.04518279533113) rotate(0 35.0146484375 11.5)"><text x="35.0146484375" y="16.900390625" font-family="Helvetica, Segoe UI Emoji" font-size="20px" fill="white" text-anchor="middle" style="white-space: pre;" direction="ltr" dominant-baseline="alphabetic">Policy 1</text></g><g transform="translate(315.43720542042047 435.7818971968936) rotate(359.4817649676382 44.18152455738186 12.357367452947301)"><text x="0" y="18.160377134910437" font-family="Helvetica, Segoe UI Emoji" font-size="21.491073831212628px" fill="#1e1e1e" text-anchor="start" style="white-space: pre;" direction="ltr" dominant-baseline="alphabetic">targetRef</text></g><g stroke-linecap="round"><g transform="translate(100.72134083618676 430.8136583279211) rotate(0 195.70221461550886 0.12741582617445601)"><path d="M0 0 C143.49 0.09, 286.98 0.19, 391.4 0.25 M0 0 C125.61 0.08, 251.22 0.16, 391.4 0.25" stroke="#1e1e1e" stroke-width="1" fill="none"></path></g><g transform="translate(100.72134083618676 430.8136583279211) rotate(0 195.70221461550886 0.12741582617445601)"><path d="M391.4 0.25 L377.81 6.59 L377.81 -6.09 L391.4 0.25" stroke="none" stroke-width="0" fill="#1e1e1e" fill-rule="evenodd"></path><path d="M391.4 0.25 C386.42 2.58, 381.43 4.9, 377.81 6.59 M391.4 0.25 C387.04 2.29, 382.68 4.32, 377.81 6.59 M377.81 6.59 C377.81 2.12, 377.81 -2.35, 377.81 -6.09 M377.81 6.59 C377.81 1.71, 377.81 -3.18, 377.81 -6.09 M377.81 -6.09 C381.13 -4.55, 384.44 -3, 391.4 0.25 M377.81 -6.09 C383.23 -3.56, 388.65 -1.03, 391.4 0.25 M391.4 0.25 C391.4 0.25, 391.4 0.25, 391.4 0.25 M391.4 0.25 C391.4 0.25, 391.4 0.25, 391.4 0.25" stroke="#1e1e1e" stroke-width="1" fill="none"></path></g></g><mask></mask><g stroke-linecap="round"><g transform="translate(234.4145200468074 461.7841984767183) rotate(0 129.4899300782697 0)"><path d="M0 0 C51.94 0, 103.87 0, 258.98 0 M0 0 C92.04 0, 184.07 0, 258.98 0" stroke="#1e1e1e" stroke-width="1" fill="none"></path></g><g transform="translate(234.4145200468074 461.7841984767183) rotate(0 129.4899300782697 0)"><path d="M258.98 0 L245.39 6.34 L245.39 -6.34 L258.98 0" stroke="none" stroke-width="0" fill="#1e1e1e" fill-rule="evenodd"></path><path d="M258.98 0 C256.25 1.27, 253.53 2.54, 245.39 6.34 M258.98 0 C254.15 2.25, 249.32 4.51, 245.39 6.34 M245.39 6.34 C245.39 2.22, 245.39 -1.89, 245.39 -6.34 M245.39 6.34 C245.39 2.35, 245.39 -1.65, 245.39 -6.34 M245.39 -6.34 C249.5 -4.42, 253.62 -2.5, 258.98 0 M245.39 -6.34 C248.34 -4.96, 251.3 -3.58, 258.98 0 M258.98 0 C258.98 0, 258.98 0, 258.98 0 M258.98 0 C258.98 0, 258.98 0, 258.98 0" stroke="#1e1e1e" stroke-width="1" fill="none"></path></g></g><mask></mask><g stroke-linecap="round"><g transform="translate(10.475938980591309 370.9198319993254) rotate(0 45.53585024309996 60.71446699080013)" fill-rule="evenodd"><path d="M0 0 L60.71 0 L91.07 30.36 L91.07 121.43 L0 121.43 L0 0" stroke="none" stroke-width="0" fill="#fff" fill-rule="evenodd"></path><path d="M0 0 C12.59 0, 25.17 0, 60.71 0 M0 0 C15.4 0, 30.8 0, 60.71 0 M60.71 0 C68.02 7.3, 75.32 14.6, 91.07 30.36 M60.71 0 C68.23 7.51, 75.74 15.03, 91.07 30.36 M91.07 30.36 C91.07 65.49, 91.07 100.62, 91.07 121.43 M91.07 30.36 C91.07 52.46, 91.07 74.56, 91.07 121.43 M91.07 121.43 C63.18 121.43, 35.29 121.43, 0 121.43 M91.07 121.43 C55.83 121.43, 20.58 121.43, 0 121.43 M0 121.43 C0 84.4, 0 47.37, 0 0 M0 121.43 C0 87.73, 0 54.03, 0 0 M0 0 C0 0, 0 0, 0 0 M0 0 C0 0, 0 0, 0 0" stroke="#f41cb4" stroke-width="2" fill="none"></path></g></g><mask></mask><g stroke-linecap="round"><g transform="translate(71.19040597139065 370.75578310418746) rotate(0 0 15.178616747700062)"><path d="M0 0 C0 11.79, 0 23.58, 0 30.36 M0 0 C0 9.04, 0 18.08, 0 30.36" stroke="#f41cb4" stroke-width="2" fill="none"></path></g></g><mask></mask><g stroke-linecap="round"><g transform="translate(71.19040597139065 401.11301659958804) rotate(0 15.178616747700062 0)"><path d="M0 0 C8.09 0, 16.19 0, 30.36 0 M0 0 C8.52 0, 17.05 0, 30.36 0" stroke="#f41cb4" stroke-width="2" fill="none"></path></g></g><mask></mask><g stroke-linecap="round" transform="translate(10 487.08054255653656) rotate(0 46.378538196917134 12.960217825567156)"><path d="M0 0 L92.76 0 L92.76 25.92 L0 25.92" stroke="none" stroke-width="0" fill="#f41cb4"></path><path d="M0 0 C23.06 0, 46.12 0, 92.76 0 M0 0 C27.94 0, 55.87 0, 92.76 0 M92.76 0 C92.76 7.73, 92.76 15.46, 92.76 25.92 M92.76 0 C92.76 6.34, 92.76 12.68, 92.76 25.92 M92.76 25.92 C73.57 25.92, 54.39 25.92, 0 25.92 M92.76 25.92 C57.8 25.92, 22.84 25.92, 0 25.92 M0 25.92 C0 20.68, 0 15.44, 0 0 M0 25.92 C0 18.75, 0 11.57, 0 0" stroke="#f41cb4" stroke-width="1" fill="none"></path></g><g transform="translate(24.407521584111237 491.91586444767086) rotate(0 35.0146484375 11.5)"><text x="35.0146484375" y="16.900390625" font-family="Helvetica, Segoe UI Emoji" font-size="20px" fill="white" text-anchor="middle" style="white-space: pre;" direction="ltr" dominant-baseline="alphabetic">Policy 2</text></g><g transform="translate(27.2184396572502 427.50018203558716) rotate(0 28.8916015625 11.5)"><text x="28.8916015625" y="16.900390625" font-family="Helvetica, Segoe UI Emoji" font-size="20px" fill="#1e1e1e" text-anchor="middle" style="white-space: pre;" direction="ltr" dominant-baseline="alphabetic">CORS</text></g><g stroke-linecap="round"><g transform="translate(235.95495061212296 239.73051427086466) rotate(0 155.66391483729785 -0.1911237392619114)"><path d="M0 0 C101.08 -0.12, 202.16 -0.25, 311.33 -0.38 M0 0 C98.08 -0.12, 196.16 -0.24, 311.33 -0.38" stroke="#1e1e1e" stroke-width="1" fill="none"></path></g><g transform="translate(235.95495061212296 239.73051427086466) rotate(0 155.66391483729785 -0.1911237392619114)"><path d="M311.33 -0.38 L297.74 5.97 L297.73 -6.7 L311.33 -0.38" stroke="none" stroke-width="0" fill="#1e1e1e" fill-rule="evenodd"></path><path d="M311.33 -0.38 C306.92 1.68, 302.51 3.74, 297.74 5.97 M311.33 -0.38 C307.05 1.62, 302.77 3.62, 297.74 5.97 M297.74 5.97 C297.74 2.14, 297.73 -1.7, 297.73 -6.7 M297.74 5.97 C297.74 3.22, 297.73 0.46, 297.73 -6.7 M297.73 -6.7 C300.95 -5.21, 304.17 -3.71, 311.33 -0.38 M297.73 -6.7 C301.44 -4.98, 305.15 -3.25, 311.33 -0.38 M311.33 -0.38 C311.33 -0.38, 311.33 -0.38, 311.33 -0.38 M311.33 -0.38 C311.33 -0.38, 311.33 -0.38, 311.33 -0.38" stroke="#1e1e1e" stroke-width="1" fill="none"></path></g></g><mask></mask><g stroke-linecap="round" transform="translate(333.81030511408335 197.55587580712927) rotate(0 46.22646173608223 9.343827252791243)"><path d="M4.67 0 C31.27 0, 57.87 0, 87.78 0 C90.9 0, 92.45 1.56, 92.45 4.67 C92.45 8.1, 92.45 11.52, 92.45 14.02 C92.45 17.13, 90.9 18.69, 87.78 18.69 C65.71 18.69, 43.63 18.69, 4.67 18.69 C1.56 18.69, 0 17.13, 0 14.02 C0 10.95, 0 7.87, 0 4.67 C0 1.56, 1.56 0, 4.67 0" stroke="none" stroke-width="0" fill="#fff"></path><path d="M4.67 0 C29.83 0, 54.99 0, 87.78 0 M4.67 0 C22.74 0, 40.81 0, 87.78 0 M87.78 0 C90.9 0, 92.45 1.56, 92.45 4.67 M87.78 0 C90.9 0, 92.45 1.56, 92.45 4.67 M92.45 4.67 C92.45 6.56, 92.45 8.45, 92.45 14.02 M92.45 4.67 C92.45 7.26, 92.45 9.84, 92.45 14.02 M92.45 14.02 C92.45 17.13, 90.9 18.69, 87.78 18.69 M92.45 14.02 C92.45 17.13, 90.9 18.69, 87.78 18.69 M87.78 18.69 C61.07 18.69, 34.35 18.69, 4.67 18.69 M87.78 18.69 C70.01 18.69, 52.25 18.69, 4.67 18.69 M4.67 18.69 C1.56 18.69, 0 17.13, 0 14.02 M4.67 18.69 C1.56 18.69, 0 17.13, 0 14.02 M0 14.02 C0 10.46, 0 6.91, 0 4.67 M0 14.02 C0 10.89, 0 7.77, 0 4.67 M0 4.67 C0 1.56, 1.56 0, 4.67 0 M0 4.67 C0 1.56, 1.56 0, 4.67 0" stroke="#ffffff" stroke-width="1" fill="none"></path></g><g stroke-linecap="round" transform="translate(293.058476709296 232.7566213849177) rotate(0 87.5346725818315 8.715242510330881)"><path d="M4.36 0 C48.24 0, 92.13 0, 170.71 0 C173.62 0, 175.07 1.45, 175.07 4.36 C175.07 7.02, 175.07 9.69, 175.07 13.07 C175.07 15.98, 173.62 17.43, 170.71 17.43 C106.69 17.43, 42.68 17.43, 4.36 17.43 C1.45 17.43, 0 15.98, 0 13.07 C0 11.11, 0 9.14, 0 4.36 C0 1.45, 1.45 0, 4.36 0" stroke="none" stroke-width="0" fill="#fff"></path><path d="M4.36 0 C68.53 0, 132.71 0, 170.71 0 M4.36 0 C44.73 0, 85.09 0, 170.71 0 M170.71 0 C173.62 0, 175.07 1.45, 175.07 4.36 M170.71 0 C173.62 0, 175.07 1.45, 175.07 4.36 M175.07 4.36 C175.07 6.81, 175.07 9.25, 175.07 13.07 M175.07 4.36 C175.07 6.45, 175.07 8.54, 175.07 13.07 M175.07 13.07 C175.07 15.98, 173.62 17.43, 170.71 17.43 M175.07 13.07 C175.07 15.98, 173.62 17.43, 170.71 17.43 M170.71 17.43 C130.41 17.43, 90.11 17.43, 4.36 17.43 M170.71 17.43 C131.25 17.43, 91.79 17.43, 4.36 17.43 M4.36 17.43 C1.45 17.43, 0 15.98, 0 13.07 M4.36 17.43 C1.45 17.43, 0 15.98, 0 13.07 M0 13.07 C0 10.29, 0 7.5, 0 4.36 M0 13.07 C0 10.43, 0 7.79, 0 4.36 M0 4.36 C0 1.45, 1.45 0, 4.36 0 M0 4.36 C0 1.45, 1.45 0, 4.36 0" stroke="#ffffff" stroke-width="1" fill="none"></path></g><g transform="translate(296.53970062950884 203.5907905178483) rotate(359.69832334439906 84.60486427350156 24.1445322996683)"><text x="84.60486427350162" y="17.74139249227497" font-family="Helvetica, Segoe UI Emoji" font-size="20.995245477972457px" fill="#1e1e1e" text-anchor="middle" style="white-space: pre;" direction="ltr" dominant-baseline="alphabetic">targetRef</text><text x="84.60486427350162" y="41.885924791943296" font-family="Helvetica, Segoe UI Emoji" font-size="20.995245477972457px" fill="#1e1e1e" text-anchor="middle" style="white-space: pre;" direction="ltr" dominant-baseline="alphabetic">sectionName: http</text></g><g stroke-linecap="round" transform="translate(272.32792179071566 10.203645000250617) rotate(0 46.22646173608223 9.343827252791243)"><path d="M4.67 0 C34.64 0, 64.6 0, 87.78 0 C90.9 0, 92.45 1.56, 92.45 4.67 C92.45 7.95, 92.45 11.24, 92.45 14.02 C92.45 17.13, 90.9 18.69, 87.78 18.69 C58.11 18.69, 28.45 18.69, 4.67 18.69 C1.56 18.69, 0 17.13, 0 14.02 C0 12.09, 0 10.16, 0 4.67 C0 1.56, 1.56 0, 4.67 0" stroke="none" stroke-width="0" fill="#fff"></path><path d="M4.67 0 C37.74 0, 70.81 0, 87.78 0 M4.67 0 C30.02 0, 55.36 0, 87.78 0 M87.78 0 C90.9 0, 92.45 1.56, 92.45 4.67 M87.78 0 C90.9 0, 92.45 1.56, 92.45 4.67 M92.45 4.67 C92.45 6.92, 92.45 9.18, 92.45 14.02 M92.45 4.67 C92.45 6.72, 92.45 8.77, 92.45 14.02 M92.45 14.02 C92.45 17.13, 90.9 18.69, 87.78 18.69 M92.45 14.02 C92.45 17.13, 90.9 18.69, 87.78 18.69 M87.78 18.69 C64.44 18.69, 41.1 18.69, 4.67 18.69 M87.78 18.69 C61.01 18.69, 34.23 18.69, 4.67 18.69 M4.67 18.69 C1.56 18.69, 0 17.13, 0 14.02 M4.67 18.69 C1.56 18.69, 0 17.13, 0 14.02 M0 14.02 C0 11.86, 0 9.71, 0 4.67 M0 14.02 C0 10.72, 0 7.43, 0 4.67 M0 4.67 C0 1.56, 1.56 0, 4.67 0 M0 4.67 C0 1.56, 1.56 0, 4.67 0" stroke="#ffffff" stroke-width="1" fill="none"></path></g><g stroke-linecap="round" transform="translate(1381.229330454462 175.23220613874855) rotate(0 117.48716581554663 19.274144472894704)"><path d="M9.64 0 C89.03 0, 168.43 0, 225.34 0 C231.76 0, 234.97 3.21, 234.97 9.64 C234.97 16.5, 234.97 23.36, 234.97 28.91 C234.97 35.34, 231.76 38.55, 225.34 38.55 C159.47 38.55, 93.61 38.55, 9.64 38.55 C3.21 38.55, 0 35.34, 0 28.91 C0 22.3, 0 15.69, 0 9.64 C0 3.21, 3.21 0, 9.64 0" stroke="none" stroke-width="0" fill="#158bc2"></path><path d="M9.64 0 C81.72 0, 153.8 0, 225.34 0 M9.64 0 C59.67 0, 109.71 0, 225.34 0 M225.34 0 C231.76 0, 234.97 3.21, 234.97 9.64 M225.34 0 C231.76 0, 234.97 3.21, 234.97 9.64 M234.97 9.64 C234.97 13.56, 234.97 17.48, 234.97 28.91 M234.97 9.64 C234.97 15.15, 234.97 20.67, 234.97 28.91 M234.97 28.91 C234.97 35.34, 231.76 38.55, 225.34 38.55 M234.97 28.91 C234.97 35.34, 231.76 38.55, 225.34 38.55 M225.34 38.55 C177.82 38.55, 130.31 38.55, 9.64 38.55 M225.34 38.55 C162.54 38.55, 99.74 38.55, 9.64 38.55 M9.64 38.55 C3.21 38.55, 0 35.34, 0 28.91 M9.64 38.55 C3.21 38.55, 0 35.34, 0 28.91 M0 28.91 C0 22.27, 0 15.63, 0 9.64 M0 28.91 C0 23.97, 0 19.02, 0 9.64 M0 9.64 C0 3.21, 3.21 0, 9.64 0 M0 9.64 C0 3.21, 3.21 0, 9.64 0" stroke="#158bc2" stroke-width="2" fill="none"></path></g><g transform="translate(1422.5474831935862 178.97792932311768) rotate(0 76.26171875 16.100000000000023)"><text x="76.26171875" y="23.660546874999998" font-family="Helvetica, Segoe UI Emoji" font-size="28px" fill="white" text-anchor="middle" style="white-space: pre;" direction="ltr" dominant-baseline="alphabetic">listener: http</text></g><g stroke-linecap="round" transform="translate(1325.796845877896 106.27539972202248) rotate(0 174.3069095649198 278.486094429384)"><path d="M0 0 C120.57 0, 241.13 0, 348.61 0 M0 0 C119.67 0, 239.34 0, 348.61 0 M348.61 0 C348.61 191.46, 348.61 382.91, 348.61 556.97 M348.61 0 C348.61 153.51, 348.61 307.03, 348.61 556.97 M348.61 556.97 C232.92 556.97, 117.23 556.97, 0 556.97 M348.61 556.97 C270.33 556.97, 192.05 556.97, 0 556.97 M0 556.97 C0 395.57, 0 234.17, 0 0 M0 556.97 C0 444.57, 0 332.16, 0 0" stroke="#158bc2" stroke-width="1" fill="none"></path></g><g stroke-linecap="round" transform="translate(1325.026495140126 95.12117585305077) rotate(0 174.89483667878676 20.508975348572676)"><path d="M0 0 L349.79 0 L349.79 41.02 L0 41.02" stroke="none" stroke-width="0" fill="#158bc2"></path><path d="M0 0 C99.16 0, 198.32 0, 349.79 0 M0 0 C104.82 0, 209.64 0, 349.79 0 M349.79 0 C349.79 12.29, 349.79 24.58, 349.79 41.02 M349.79 0 C349.79 15.69, 349.79 31.38, 349.79 41.02 M349.79 41.02 C231.42 41.02, 113.05 41.02, 0 41.02 M349.79 41.02 C219.45 41.02, 89.11 41.02, 0 41.02 M0 41.02 C0 28.67, 0 16.31, 0 0 M0 41.02 C0 27.21, 0 13.41, 0 0" stroke="#158bc2" stroke-width="1" fill="none"></path></g><g transform="translate(1445.8552757871093 100.63916272910865) rotate(0 55.248046875 16.100000000000023)"><text x="55.248046875" y="23.660546874999998" font-family="Helvetica, Segoe UI Emoji" font-size="28px" fill="white" text-anchor="middle" style="white-space: pre;" direction="ltr" dominant-baseline="alphabetic">Gateway</text></g><g stroke-linecap="round" transform="translate(1379.878254871699 421.40591288633186) rotate(0 117.44928948220604 19.652907806300163)"><path d="M9.83 0 C69.99 0, 130.15 0, 225.07 0 C231.62 0, 234.9 3.28, 234.9 9.83 C234.9 16.5, 234.9 23.17, 234.9 29.48 C234.9 36.03, 231.62 39.31, 225.07 39.31 C161.91 39.31, 98.75 39.31, 9.83 39.31 C3.28 39.31, 0 36.03, 0 29.48 C0 23.16, 0 16.83, 0 9.83 C0 3.28, 3.28 0, 9.83 0" stroke="none" stroke-width="0" fill="#158bc2"></path><path d="M9.83 0 C88.86 0, 167.89 0, 225.07 0 M9.83 0 C95.12 0, 180.42 0, 225.07 0 M225.07 0 C231.62 0, 234.9 3.28, 234.9 9.83 M225.07 0 C231.62 0, 234.9 3.28, 234.9 9.83 M234.9 9.83 C234.9 16.35, 234.9 22.87, 234.9 29.48 M234.9 9.83 C234.9 14.24, 234.9 18.65, 234.9 29.48 M234.9 29.48 C234.9 36.03, 231.62 39.31, 225.07 39.31 M234.9 29.48 C234.9 36.03, 231.62 39.31, 225.07 39.31 M225.07 39.31 C167.68 39.31, 110.28 39.31, 9.83 39.31 M225.07 39.31 C152.72 39.31, 80.37 39.31, 9.83 39.31 M9.83 39.31 C3.28 39.31, 0 36.03, 0 29.48 M9.83 39.31 C3.28 39.31, 0 36.03, 0 29.48 M0 29.48 C0 24.43, 0 19.38, 0 9.83 M0 29.48 C0 23.01, 0 16.55, 0 9.83 M0 9.83 C0 3.28, 3.28 0, 9.83 0 M0 9.83 C0 3.28, 3.28 0, 9.83 0" stroke="#158bc2" stroke-width="2" fill="none"></path></g><g transform="translate(1414.022523468071 424.3640882934833) rotate(0 83.26171875 16.100000000000023)"><text x="83.26171875" y="23.660546874999998" font-family="Helvetica, Segoe UI Emoji" font-size="28px" fill="white" text-anchor="middle" style="white-space: pre;" direction="ltr" dominant-baseline="alphabetic">listener: https</text></g><g stroke-linecap="round"><g transform="translate(1402.4813167662414 215.0876621121124) rotate(0 0.15288642533914754 39.26066643763693)"><path d="M0 0 C0.07 17.61, 0.14 35.23, 0.31 78.52 M0 0 C0.12 29.94, 0.23 59.88, 0.31 78.52" stroke="#1e1e1e" stroke-width="1" fill="none"></path></g></g><mask></mask><g stroke-linecap="round"><g transform="translate(1389.6407497187956 244.55262934512302) rotate(0 45.53585024309996 60.71446699080013)" fill-rule="evenodd"><path d="M0 0 L60.71 0 L91.07 30.36 L91.07 121.43 L0 121.43 L0 0" stroke="none" stroke-width="0" fill="#fff" fill-rule="evenodd"></path><path d="M0 0 C16.48 0, 32.97 0, 60.71 0 M0 0 C12.31 0, 24.61 0, 60.71 0 M60.71 0 C66.79 6.08, 72.87 12.15, 91.07 30.36 M60.71 0 C67.18 6.46, 73.64 12.93, 91.07 30.36 M91.07 30.36 C91.07 50.42, 91.07 70.48, 91.07 121.43 M91.07 30.36 C91.07 56.87, 91.07 83.39, 91.07 121.43 M91.07 121.43 C55.64 121.43, 20.2 121.43, 0 121.43 M91.07 121.43 C65.49 121.43, 39.92 121.43, 0 121.43 M0 121.43 C0 83.43, 0 45.42, 0 0 M0 121.43 C0 77.44, 0 33.45, 0 0 M0 0 C0 0, 0 0, 0 0 M0 0 C0 0, 0 0, 0 0" stroke="#0fac7c" stroke-width="2" fill="none"></path></g></g><mask></mask><g stroke-linecap="round"><g transform="translate(1450.355216709595 244.38858044998597) rotate(0 0 15.178616747700062)"><path d="M0 0 C0 10.44, 0 20.87, 0 30.36 M0 0 C0 8.37, 0 16.73, 0 30.36" stroke="#0fac7c" stroke-width="2" fill="none"></path></g></g><mask></mask><g stroke-linecap="round"><g transform="translate(1450.355216709595 274.74581394538563) rotate(0 15.178616747699834 0)"><path d="M0 0 C9.1 0, 18.19 0, 30.36 0 M0 0 C11.61 0, 23.22 0, 30.36 0" stroke="#0fac7c" stroke-width="2" fill="none"></path></g></g><mask></mask><g stroke-linecap="round" transform="translate(1389.1648107382043 360.71333990233416) rotate(0 46.37853819691736 12.960217825567156)"><path d="M0 0 L92.76 0 L92.76 25.92 L0 25.92" stroke="none" stroke-width="0" fill="#0fac7c"></path><path d="M0 0 C18.86 0, 37.73 0, 92.76 0 M0 0 C26.54 0, 53.09 0, 92.76 0 M92.76 0 C92.76 8.69, 92.76 17.39, 92.76 25.92 M92.76 0 C92.76 7, 92.76 14, 92.76 25.92 M92.76 25.92 C56.27 25.92, 19.78 25.92, 0 25.92 M92.76 25.92 C70.81 25.92, 48.87 25.92, 0 25.92 M0 25.92 C0 16.45, 0 6.98, 0 0 M0 25.92 C0 16.13, 0 6.33, 0 0" stroke="#0fac7c" stroke-width="1" fill="none"></path></g><g transform="translate(1404.9847675106066 304.7166745613931) rotate(0 28.8916015625 11.5)"><text x="28.8916015625" y="16.900390625" font-family="Helvetica, Segoe UI Emoji" font-size="20px" fill="#1e1e1e" text-anchor="middle" style="white-space: pre;" direction="ltr" dominant-baseline="alphabetic">CORS</text></g><g transform="translate(1399.7859964246 363.35427079798046) rotate(0 35.0146484375 11.5)"><text x="35.0146484375" y="16.900390625" font-family="Helvetica, Segoe UI Emoji" font-size="20px" fill="white" text-anchor="middle" style="white-space: pre;" direction="ltr" dominant-baseline="alphabetic">Policy 1</text></g><g stroke-linecap="round"><g transform="translate(1407.3206473546052 459.96891400845016) rotate(0 0.15288642533914754 39.26066643763693)"><path d="M0 0 C0.09 22.48, 0.18 44.96, 0.31 78.52 M0 0 C0.06 15.88, 0.12 31.75, 0.31 78.52" stroke="#1e1e1e" stroke-width="1" fill="none"></path></g></g><mask></mask><g stroke-linecap="round"><g transform="translate(1388.3071684423812 492.10474564934975) rotate(0 45.53585024309996 60.71446699080013)" fill-rule="evenodd"><path d="M0 0 L60.71 0 L91.07 30.36 L91.07 121.43 L0 121.43 L0 0" stroke="none" stroke-width="0" fill="#fff" fill-rule="evenodd"></path><path d="M0 0 C12.15 0, 24.3 0, 60.71 0 M0 0 C12.93 0, 25.86 0, 60.71 0 M60.71 0 C67.4 6.69, 74.09 13.37, 91.07 30.36 M60.71 0 C69.55 8.84, 78.39 17.68, 91.07 30.36 M91.07 30.36 C91.07 65.79, 91.07 101.22, 91.07 121.43 M91.07 30.36 C91.07 55.93, 91.07 81.51, 91.07 121.43 M91.07 121.43 C62.57 121.43, 34.07 121.43, 0 121.43 M91.07 121.43 C58.08 121.43, 25.08 121.43, 0 121.43 M0 121.43 C0 97.04, 0 72.65, 0 0 M0 121.43 C0 79.03, 0 36.63, 0 0 M0 0 C0 0, 0 0, 0 0 M0 0 C0 0, 0 0, 0 0" stroke="#f41cb4" stroke-width="2" fill="none"></path></g></g><mask></mask><g stroke-linecap="round"><g transform="translate(1449.0216354331806 491.9406967542127) rotate(0 0 15.178616747700062)"><path d="M0 0 C0 10.07, 0 20.15, 0 30.36 M0 0 C0 6.82, 0 13.63, 0 30.36" stroke="#f41cb4" stroke-width="2" fill="none"></path></g></g><mask></mask><g stroke-linecap="round"><g transform="translate(1449.0216354331806 522.2979302496124) rotate(0 15.178616747699834 0)"><path d="M0 0 C10.27 0, 20.55 0, 30.36 0 M0 0 C11.31 0, 22.62 0, 30.36 0" stroke="#f41cb4" stroke-width="2" fill="none"></path></g></g><mask></mask><g stroke-linecap="round" transform="translate(1387.83122946179 608.2654562065609) rotate(0 46.37853819691736 12.960217825567156)"><path d="M0 0 L92.76 0 L92.76 25.92 L0 25.92" stroke="none" stroke-width="0" fill="#f41cb4"></path><path d="M0 0 C31.11 0, 62.22 0, 92.76 0 M0 0 C25.05 0, 50.11 0, 92.76 0 M92.76 0 C92.76 10.2, 92.76 20.39, 92.76 25.92 M92.76 0 C92.76 6.13, 92.76 12.26, 92.76 25.92 M92.76 25.92 C58.87 25.92, 24.99 25.92, 0 25.92 M92.76 25.92 C57.71 25.92, 22.66 25.92, 0 25.92 M0 25.92 C0 16.74, 0 7.55, 0 0 M0 25.92 C0 20.55, 0 15.17, 0 0" stroke="#f41cb4" stroke-width="1" fill="none"></path></g><g transform="translate(1400.3105248764605 610.0455270578414) rotate(0 35.0146484375 11.5)"><text x="35.0146484375" y="16.900390625" font-family="Helvetica, Segoe UI Emoji" font-size="20px" fill="white" text-anchor="middle" style="white-space: pre;" direction="ltr" dominant-baseline="alphabetic">Policy 2</text></g><g transform="translate(1404.7863430782782 548.6850956856115) rotate(0 28.8916015625 11.5)"><text x="28.8916015625" y="16.900390625" font-family="Helvetica, Segoe UI Emoji" font-size="20px" fill="#1e1e1e" text-anchor="middle" style="white-space: pre;" direction="ltr" dominant-baseline="alphabetic">CORS</text></g><g stroke-linecap="round"><g transform="translate(1533.9022583683327 213.25467535579992) rotate(0 0.15288642533914754 39.26066643763693)"><path d="M0 0 C0.11 28.7, 0.22 57.4, 0.31 78.52 M0 0 C0.1 26.5, 0.21 53.01, 0.31 78.52" stroke="#1e1e1e" stroke-width="1" fill="none"></path></g></g><mask></mask><g stroke-linecap="round"><g transform="translate(1520.1798844326331 244.5085505778925) rotate(0 45.53585024309996 60.71446699080013)" fill-rule="evenodd"><path d="M0 0 L60.71 0 L91.07 30.36 L91.07 121.43 L0 121.43 L0 0" stroke="none" stroke-width="0" fill="#fff" fill-rule="evenodd"></path><path d="M0 0 C13.37 0, 26.75 0, 60.71 0 M0 0 C17.68 0, 35.35 0, 60.71 0 M60.71 0 C72.53 11.81, 84.34 23.62, 91.07 30.36 M60.71 0 C69.24 8.53, 77.77 17.05, 91.07 30.36 M91.07 30.36 C91.07 58.86, 91.07 87.36, 91.07 121.43 M91.07 30.36 C91.07 63.35, 91.07 96.34, 91.07 121.43 M91.07 121.43 C72.78 121.43, 54.49 121.43, 0 121.43 M91.07 121.43 C59.27 121.43, 27.47 121.43, 0 121.43 M0 121.43 C0 95.06, 0 68.69, 0 0 M0 121.43 C0 86.75, 0 52.06, 0 0 M0 0 C0 0, 0 0, 0 0 M0 0 C0 0, 0 0, 0 0" stroke="#7e4bc6" stroke-width="2" fill="none"></path></g></g><mask></mask><g stroke-linecap="round"><g transform="translate(1580.8943514234325 244.34450168275544) rotate(0 0 15.178616747700062)"><path d="M0 0 C0 8.8, 0 17.59, 0 30.36 M0 0 C0 6.13, 0 12.25, 0 30.36" stroke="#7e4bc6" stroke-width="2" fill="none"></path></g></g><mask></mask><g stroke-linecap="round"><g transform="translate(1580.8943514234325 274.7017351781551) rotate(0 15.178616747699834 0)"><path d="M0 0 C9.14 0, 18.28 0, 30.36 0 M0 0 C10.22 0, 20.44 0, 30.36 0" stroke="#7e4bc6" stroke-width="2" fill="none"></path></g></g><mask></mask><g stroke-linecap="round" transform="translate(1519.7039454520418 360.6692611351036) rotate(0 46.37853819691736 12.960217825567156)"><path d="M0 0 L92.76 0 L92.76 25.92 L0 25.92" stroke="none" stroke-width="0" fill="#7e4bc6"></path><path d="M0 0 C36.49 0, 72.98 0, 92.76 0 M0 0 C21.94 0, 43.89 0, 92.76 0 M92.76 0 C92.76 9.47, 92.76 18.94, 92.76 25.92 M92.76 0 C92.76 9.79, 92.76 19.59, 92.76 25.92 M92.76 25.92 C59.89 25.92, 27.03 25.92, 0 25.92 M92.76 25.92 C73.53 25.92, 54.3 25.92, 0 25.92 M0 25.92 C0 17.33, 0 8.74, 0 0 M0 25.92 C0 16.69, 0 7.46, 0 0" stroke="#7e4bc6" stroke-width="1" fill="none"></path></g><g transform="translate(1532.3381175046616 362.4493319863841) rotate(0 35.0146484375 11.5)"><text x="35.0146484375" y="16.900390625" font-family="Helvetica, Segoe UI Emoji" font-size="20px" fill="white" text-anchor="middle" style="white-space: pre;" direction="ltr" dominant-baseline="alphabetic">Policy 3</text></g><g transform="translate(1536.298265442605 298.1927636632463) rotate(0 27.3828125 11.5)"><text x="27.3828125" y="16.900390625" font-family="Helvetica, Segoe UI Emoji" font-size="20px" fill="#1e1e1e" text-anchor="middle" style="white-space: pre;" direction="ltr" dominant-baseline="alphabetic">CSRF</text></g><g stroke-linecap="round"><g transform="translate(1530.8550767196593 461.3451215543182) rotate(0 0.15288642533914754 39.26066643763693)"><path d="M0 0 C0.09 22.11, 0.17 44.23, 0.31 78.52 M0 0 C0.1 26.83, 0.21 53.67, 0.31 78.52" stroke="#1e1e1e" stroke-width="1" fill="none"></path></g></g><mask></mask><g stroke-linecap="round"><g transform="translate(1517.1327027839598 491.5989967764108) rotate(0 45.53585024309996 60.71446699080013)" fill-rule="evenodd"><path d="M0 0 L60.71 0 L91.07 30.36 L91.07 121.43 L0 121.43 L0 0" stroke="none" stroke-width="0" fill="#fff" fill-rule="evenodd"></path><path d="M0 0 C23.62 0, 47.24 0, 60.71 0 M0 0 C17.05 0, 34.1 0, 60.71 0 M60.71 0 C70.22 9.5, 79.72 19, 91.07 30.36 M60.71 0 C71.71 11, 82.71 22, 91.07 30.36 M91.07 30.36 C91.07 48.65, 91.07 66.94, 91.07 121.43 M91.07 30.36 C91.07 62.16, 91.07 93.96, 91.07 121.43 M91.07 121.43 C71.29 121.43, 51.52 121.43, 0 121.43 M91.07 121.43 C65.06 121.43, 39.05 121.43, 0 121.43 M0 121.43 C0 80.74, 0 40.05, 0 0 M0 121.43 C0 79.79, 0 38.14, 0 0 M0 0 C0 0, 0 0, 0 0 M0 0 C0 0, 0 0, 0 0" stroke="#7e4bc6" stroke-width="2" fill="none"></path></g></g><mask></mask><g stroke-linecap="round"><g transform="translate(1577.847169774759 491.43494788127373) rotate(0 0 15.178616747700062)"><path d="M0 0 C0 9.57, 0 19.14, 0 30.36 M0 0 C0 8.71, 0 17.43, 0 30.36" stroke="#7e4bc6" stroke-width="2" fill="none"></path></g></g><mask></mask><g stroke-linecap="round"><g transform="translate(1577.847169774759 521.7921813766734) rotate(0 15.178616747699834 0)"><path d="M0 0 C6.96 0, 13.92 0, 30.36 0 M0 0 C7.19 0, 14.38 0, 30.36 0" stroke="#7e4bc6" stroke-width="2" fill="none"></path></g></g><mask></mask><g stroke-linecap="round" transform="translate(1516.6567638033684 607.7597073336219) rotate(0 46.37853819691736 12.960217825567156)"><path d="M0 0 L92.76 0 L92.76 25.92 L0 25.92" stroke="none" stroke-width="0" fill="#7e4bc6"></path><path d="M0 0 C33.89 0, 67.77 0, 92.76 0 M0 0 C35.05 0, 70.1 0, 92.76 0 M92.76 0 C92.76 9.18, 92.76 18.37, 92.76 25.92 M92.76 0 C92.76 5.37, 92.76 10.75, 92.76 25.92 M92.76 25.92 C62.02 25.92, 31.28 25.92, 0 25.92 M92.76 25.92 C59.73 25.92, 26.7 25.92, 0 25.92 M0 25.92 C0 15.84, 0 5.76, 0 0 M0 25.92 C0 18.92, 0 11.91, 0 0" stroke="#7e4bc6" stroke-width="1" fill="none"></path></g><g transform="translate(1529.2909358559882 609.5397781849024) rotate(0 35.0146484375 11.5)"><text x="35.0146484375" y="16.900390625" font-family="Helvetica, Segoe UI Emoji" font-size="20px" fill="white" text-anchor="middle" style="white-space: pre;" direction="ltr" dominant-baseline="alphabetic">Policy 3</text></g><g transform="translate(1533.2510837939317 545.2832098617646) rotate(0 27.3828125 11.5)"><text x="27.3828125" y="16.900390625" font-family="Helvetica, Segoe UI Emoji" font-size="20px" fill="#1e1e1e" text-anchor="middle" style="white-space: pre;" direction="ltr" dominant-baseline="alphabetic">CSRF</text></g><g stroke-linecap="round"><g transform="translate(144.47685426309909 373.98224186719335) rotate(0 45.630577568491844 60.8407700913225)" fill-rule="evenodd"><path d="M0 0 L60.84 0 L91.26 30.42 L91.26 121.68 L0 121.68 L0 0" stroke="none" stroke-width="0" fill="#fff" fill-rule="evenodd"></path><path d="M0 0 C15.03 0, 30.05 0, 60.84 0 M0 0 C13.35 0, 26.7 0, 60.84 0 M60.84 0 C71.22 10.38, 81.61 20.77, 91.26 30.42 M60.84 0 C72.17 11.33, 83.5 22.66, 91.26 30.42 M91.26 30.42 C91.26 57.84, 91.26 85.25, 91.26 121.68 M91.26 30.42 C91.26 66.34, 91.26 102.26, 91.26 121.68 M91.26 121.68 C69.74 121.68, 48.21 121.68, 0 121.68 M91.26 121.68 C72.34 121.68, 53.41 121.68, 0 121.68 M0 121.68 C0 91.37, 0 61.06, 0 0 M0 121.68 C0 92.8, 0 63.93, 0 0 M0 0 C0 0, 0 0, 0 0 M0 0 C0 0, 0 0, 0 0" stroke="#7e4bc6" stroke-width="2" fill="none"></path></g></g><mask></mask><g stroke-linecap="round"><g transform="translate(205.31762435442033 373.8178517043975) rotate(0 0 15.210192522830653)"><path d="M0 0 C0 8.58, 0 17.17, 0 30.42 M0 0 C0 7.34, 0 14.68, 0 30.42" stroke="#7e4bc6" stroke-width="2" fill="none"></path></g></g><mask></mask><g stroke-linecap="round"><g transform="translate(205.31762435442033 404.23823675005724) rotate(0 15.210192522830539 0)"><path d="M0 0 C10.39 0, 20.78 0, 30.42 0 M0 0 C9.34 0, 18.68 0, 30.42 0" stroke="#7e4bc6" stroke-width="2" fill="none"></path></g></g><mask></mask><g stroke-linecap="round" transform="translate(143.9999251960944 490.38459924483277) rotate(0 46.47501854933239 12.987178709454383)"><path d="M0 0 L92.95 0 L92.95 25.97 L0 25.97" stroke="none" stroke-width="0" fill="#7e4bc6"></path><path d="M0 0 C25.14 0, 50.28 0, 92.95 0 M0 0 C23.35 0, 46.71 0, 92.95 0 M92.95 0 C92.95 9.8, 92.95 19.61, 92.95 25.97 M92.95 0 C92.95 8.58, 92.95 17.16, 92.95 25.97 M92.95 25.97 C56.85 25.97, 20.76 25.97, 0 25.97 M92.95 25.97 C65.27 25.97, 37.58 25.97, 0 25.97 M0 25.97 C0 17.42, 0 8.87, 0 0 M0 25.97 C0 16.64, 0 7.31, 0 0" stroke="#7e4bc6" stroke-width="1" fill="none"></path></g><g transform="translate(156.6603798660508 492.1683731421722) rotate(0 35.08748871561738 11.523923221729433)"><text x="35.08748871561741" y="16.93554817215102" font-family="Helvetica, Segoe UI Emoji" font-size="20.041605603007795px" fill="white" text-anchor="middle" style="white-space: pre;" direction="ltr" dominant-baseline="alphabetic">Policy 3</text></g><g transform="translate(160.6309684134776 427.77813315541925) rotate(0 27.43757402896881 11.523923221729433)"><text x="27.43757402896881" y="16.93554817215102" font-family="Helvetica, Segoe UI Emoji" font-size="20.041605603007795px" fill="#1e1e1e" text-anchor="middle" style="white-space: pre;" direction="ltr" dominant-baseline="alphabetic">CSRF</text></g></svg>