<svg version="1.1" xmlns="http://www.w3.org/2000/svg" viewBox="0 0 1546.834486724165 743.4487224788977" width="3093.66897344833" height="1486.8974449577954">
  <!-- svg-source:excalidraw -->
  
  <defs>
    <style class="style-fonts">
      
    </style>
    
  </defs>
  <rect x="0" y="0" width="1546.834486724165" height="743.4487224788977" fill="#ffffff"></rect><g transform="translate(693.3788272413284 180.92805722756066) rotate(0 35.0146484375 11.5)"><text x="35.0146484375" y="16.900390625" font-family="Helvetica, Segoe UI Emoji" font-size="20px" fill="white" text-anchor="middle" style="white-space: pre;" direction="ltr" dominant-baseline="alphabetic">Policy 1</text></g><g stroke-linecap="round" transform="translate(441.9953400661724 206.06980689147395) rotate(0 117.48716581554648 19.274144472894704)"><path d="M9.64 0 C92.81 0, 175.99 0, 225.34 0 C231.76 0, 234.97 3.21, 234.97 9.64 C234.97 13.74, 234.97 17.85, 234.97 28.91 C234.97 35.34, 231.76 38.55, 225.34 38.55 C170.82 38.55, 116.3 38.55, 9.64 38.55 C3.21 38.55, 0 35.34, 0 28.91 C0 21.82, 0 14.73, 0 9.64 C0 3.21, 3.21 0, 9.64 0" stroke="none" stroke-width="0" fill="#158bc2"></path><path d="M9.64 0 C53.78 0, 97.92 0, 225.34 0 M9.64 0 C60.35 0, 111.05 0, 225.34 0 M225.34 0 C231.76 0, 234.97 3.21, 234.97 9.64 M225.34 0 C231.76 0, 234.97 3.21, 234.97 9.64 M234.97 9.64 C234.97 14.46, 234.97 19.29, 234.97 28.91 M234.97 9.64 C234.97 17.33, 234.97 25.02, 234.97 28.91 M234.97 28.91 C234.97 35.34, 231.76 38.55, 225.34 38.55 M234.97 28.91 C234.97 35.34, 231.76 38.55, 225.34 38.55 M225.34 38.55 C147.64 38.55, 69.94 38.55, 9.64 38.55 M225.34 38.55 C162.93 38.55, 100.52 38.55, 9.64 38.55 M9.64 38.55 C3.21 38.55, 0 35.34, 0 28.91 M9.64 38.55 C3.21 38.55, 0 35.34, 0 28.91 M0 28.91 C0 24.05, 0 19.2, 0 9.64 M0 28.91 C0 22.24, 0 15.57, 0 9.64 M0 9.64 C0 3.21, 3.21 0, 9.64 0 M0 9.64 C0 3.21, 3.21 0, 9.64 0" stroke="#158bc2" stroke-width="2" fill="none"></path></g><g transform="translate(508.9892740552974 210.05741844176168) rotate(0 50.5859375 16.100000000000023)"><text x="50.5859375" y="23.660546874999998" font-family="Helvetica, Segoe UI Emoji" font-size="28px" fill="white" text-anchor="middle" style="white-space: pre;" direction="ltr" dominant-baseline="alphabetic">Route A</text></g><g stroke-linecap="round" transform="translate(386.57004550637714 136.37046513317455) rotate(359.93787961041494 174.2997195481492 204.20870674833554)"><path d="M0 0 C87.8 0, 175.59 0, 348.6 0 M0 0 C110.85 0, 221.69 0, 348.6 0 M348.6 0 C348.6 95.36, 348.6 190.73, 348.6 408.42 M348.6 0 C348.6 117.12, 348.6 234.24, 348.6 408.42 M348.6 408.42 C209.98 408.42, 71.36 408.42, 0 408.42 M348.6 408.42 C244.83 408.42, 141.06 408.42, 0 408.42 M0 408.42 C0 289.73, 0 171.03, 0 0 M0 408.42 C0 264.02, 0 119.62, 0 0" stroke="#158bc2" stroke-width="1" fill="none"></path></g><g stroke-linecap="round" transform="translate(386.00861513687335 129.11019934707633) rotate(0 174.89483667878696 20.508975348572676)"><path d="M0 0 L349.79 0 L349.79 41.02 L0 41.02" stroke="none" stroke-width="0" fill="#158bc2"></path><path d="M0 0 C110.2 0, 220.4 0, 349.79 0 M0 0 C118.25 0, 236.51 0, 349.79 0 M349.79 0 C349.79 10.99, 349.79 21.98, 349.79 41.02 M349.79 0 C349.79 11.48, 349.79 22.96, 349.79 41.02 M349.79 41.02 C248.81 41.02, 147.84 41.02, 0 41.02 M349.79 41.02 C268.88 41.02, 187.98 41.02, 0 41.02 M0 41.02 C0 28.27, 0 15.52, 0 0 M0 41.02 C0 27.3, 0 13.58, 0 0" stroke="#158bc2" stroke-width="1" fill="none"></path></g><g transform="translate(488.1437642072624 134.5876172792748) rotate(0 73.91015625 16.100000000000023)"><text x="73.91015625" y="23.660546874999998" font-family="Helvetica, Segoe UI Emoji" font-size="28px" fill="white" text-anchor="middle" style="white-space: pre;" direction="ltr" dominant-baseline="alphabetic">HTTPRoute</text></g><g stroke-linecap="round" transform="translate(440.6442644834094 452.24351363905794) rotate(0 117.4492894822059 19.652907806300163)"><path d="M9.83 0 C65.57 0, 121.31 0, 225.07 0 C231.62 0, 234.9 3.28, 234.9 9.83 C234.9 15.06, 234.9 20.29, 234.9 29.48 C234.9 36.03, 231.62 39.31, 225.07 39.31 C151.71 39.31, 78.35 39.31, 9.83 39.31 C3.28 39.31, 0 36.03, 0 29.48 C0 23.01, 0 16.53, 0 9.83 C0 3.28, 3.28 0, 9.83 0" stroke="none" stroke-width="0" fill="#158bc2"></path><path d="M9.83 0 C73.71 0, 137.6 0, 225.07 0 M9.83 0 C65.79 0, 121.75 0, 225.07 0 M225.07 0 C231.62 0, 234.9 3.28, 234.9 9.83 M225.07 0 C231.62 0, 234.9 3.28, 234.9 9.83 M234.9 9.83 C234.9 17.64, 234.9 25.46, 234.9 29.48 M234.9 9.83 C234.9 15.68, 234.9 21.53, 234.9 29.48 M234.9 29.48 C234.9 36.03, 231.62 39.31, 225.07 39.31 M234.9 29.48 C234.9 36.03, 231.62 39.31, 225.07 39.31 M225.07 39.31 C156.52 39.31, 87.97 39.31, 9.83 39.31 M225.07 39.31 C139.76 39.31, 54.44 39.31, 9.83 39.31 M9.83 39.31 C3.28 39.31, 0 36.03, 0 29.48 M9.83 39.31 C3.28 39.31, 0 36.03, 0 29.48 M0 29.48 C0 22.72, 0 15.97, 0 9.83 M0 29.48 C0 23.7, 0 17.92, 0 9.83 M0 9.83 C0 3.28, 3.28 0, 9.83 0 M0 9.83 C0 3.28, 3.28 0, 9.83 0" stroke="#158bc2" stroke-width="2" fill="none"></path></g><g transform="translate(507.4643143297816 455.20168904620937) rotate(0 50.5859375 16.100000000000023)"><text x="50.5859375" y="23.660546874999998" font-family="Helvetica, Segoe UI Emoji" font-size="28px" fill="white" text-anchor="middle" style="white-space: pre;" direction="ltr" dominant-baseline="alphabetic">Route B</text></g><g transform="translate(80.49968378434141 452.05366842564536) rotate(0 35.0146484375 11.5)"><text x="35.0146484375" y="16.900390625" font-family="Helvetica, Segoe UI Emoji" font-size="20px" fill="white" text-anchor="middle" style="white-space: pre;" direction="ltr" dominant-baseline="alphabetic">Policy 1</text></g><g stroke-linecap="round" transform="translate(1243.2476486809273 201.60619173698137) rotate(0 117.48716581554646 19.274144472894704)"><path d="M9.64 0 C54.19 0, 98.75 0, 225.34 0 C231.76 0, 234.97 3.21, 234.97 9.64 C234.97 15.52, 234.97 21.39, 234.97 28.91 C234.97 35.34, 231.76 38.55, 225.34 38.55 C155.09 38.55, 84.84 38.55, 9.64 38.55 C3.21 38.55, 0 35.34, 0 28.91 C0 22.99, 0 17.06, 0 9.64 C0 3.21, 3.21 0, 9.64 0" stroke="none" stroke-width="0" fill="#158bc2"></path><path d="M9.64 0 C76.67 0, 143.71 0, 225.34 0 M9.64 0 C81.78 0, 153.92 0, 225.34 0 M225.34 0 C231.76 0, 234.97 3.21, 234.97 9.64 M225.34 0 C231.76 0, 234.97 3.21, 234.97 9.64 M234.97 9.64 C234.97 13.93, 234.97 18.23, 234.97 28.91 M234.97 9.64 C234.97 13.7, 234.97 17.76, 234.97 28.91 M234.97 28.91 C234.97 35.34, 231.76 38.55, 225.34 38.55 M234.97 28.91 C234.97 35.34, 231.76 38.55, 225.34 38.55 M225.34 38.55 C156.48 38.55, 87.62 38.55, 9.64 38.55 M225.34 38.55 C179.41 38.55, 133.47 38.55, 9.64 38.55 M9.64 38.55 C3.21 38.55, 0 35.34, 0 28.91 M9.64 38.55 C3.21 38.55, 0 35.34, 0 28.91 M0 28.91 C0 22.77, 0 16.63, 0 9.64 M0 28.91 C0 21.82, 0 14.73, 0 9.64 M0 9.64 C0 3.21, 3.21 0, 9.64 0 M0 9.64 C0 3.21, 3.21 0, 9.64 0" stroke="#158bc2" stroke-width="2" fill="none"></path></g><g transform="translate(1310.2415826700526 205.59380328726888) rotate(0 50.5859375 16.100000000000023)"><text x="50.5859375" y="23.660546874999998" font-family="Helvetica, Segoe UI Emoji" font-size="28px" fill="white" text-anchor="middle" style="white-space: pre;" direction="ltr" dominant-baseline="alphabetic">Route A</text></g><g stroke-linecap="round" transform="translate(1187.8151641043614 132.42261497720642) rotate(0 174.30690956491986 300.51305375084564)"><path d="M0 0 C126.22 0, 252.44 0, 348.61 0 M0 0 C80.11 0, 160.22 0, 348.61 0 M348.61 0 C348.61 151.48, 348.61 302.95, 348.61 601.03 M348.61 0 C348.61 207.94, 348.61 415.87, 348.61 601.03 M348.61 601.03 C226.59 601.03, 104.57 601.03, 0 601.03 M348.61 601.03 C221.62 601.03, 94.63 601.03, 0 601.03 M0 601.03 C0 383.16, 0 165.3, 0 0 M0 601.03 C0 381.68, 0 162.33, 0 0" stroke="#158bc2" stroke-width="1" fill="none"></path></g><g stroke-linecap="round" transform="translate(1187.044813366591 121.4951614512836) rotate(0 174.894836678787 20.508975348572676)"><path d="M0 0 L349.79 0 L349.79 41.02 L0 41.02" stroke="none" stroke-width="0" fill="#158bc2"></path><path d="M0 0 C111.4 0, 222.81 0, 349.79 0 M0 0 C138.64 0, 277.29 0, 349.79 0 M349.79 0 C349.79 12.79, 349.79 25.58, 349.79 41.02 M349.79 0 C349.79 16.24, 349.79 32.49, 349.79 41.02 M349.79 41.02 C233.63 41.02, 117.48 41.02, 0 41.02 M349.79 41.02 C211.89 41.02, 73.99 41.02, 0 41.02 M0 41.02 C0 26.74, 0 12.47, 0 0 M0 41.02 C0 27.26, 0 13.5, 0 0" stroke="#158bc2" stroke-width="1" fill="none"></path></g><g transform="translate(1289.211484638574 127.01314832734215) rotate(0 73.91015625 16.100000000000023)"><text x="73.91015625" y="23.660546874999998" font-family="Helvetica, Segoe UI Emoji" font-size="28px" fill="white" text-anchor="middle" style="white-space: pre;" direction="ltr" dominant-baseline="alphabetic">HTTPRoute</text></g><g stroke-linecap="round" transform="translate(1241.8965730981645 447.77989848456514) rotate(0 117.44928948220593 19.652907806300163)"><path d="M9.83 0 C91.61 0, 173.4 0, 225.07 0 C231.62 0, 234.9 3.28, 234.9 9.83 C234.9 13.81, 234.9 17.79, 234.9 29.48 C234.9 36.03, 231.62 39.31, 225.07 39.31 C161.8 39.31, 98.53 39.31, 9.83 39.31 C3.28 39.31, 0 36.03, 0 29.48 C0 22.87, 0 16.26, 0 9.83 C0 3.28, 3.28 0, 9.83 0" stroke="none" stroke-width="0" fill="#158bc2"></path><path d="M9.83 0 C74.31 0, 138.79 0, 225.07 0 M9.83 0 C90.28 0, 170.73 0, 225.07 0 M225.07 0 C231.62 0, 234.9 3.28, 234.9 9.83 M225.07 0 C231.62 0, 234.9 3.28, 234.9 9.83 M234.9 9.83 C234.9 16.71, 234.9 23.58, 234.9 29.48 M234.9 9.83 C234.9 16.99, 234.9 24.14, 234.9 29.48 M234.9 29.48 C234.9 36.03, 231.62 39.31, 225.07 39.31 M234.9 29.48 C234.9 36.03, 231.62 39.31, 225.07 39.31 M225.07 39.31 C159.98 39.31, 94.89 39.31, 9.83 39.31 M225.07 39.31 C167.76 39.31, 110.44 39.31, 9.83 39.31 M9.83 39.31 C3.28 39.31, 0 36.03, 0 29.48 M9.83 39.31 C3.28 39.31, 0 36.03, 0 29.48 M0 29.48 C0 23.25, 0 17.02, 0 9.83 M0 29.48 C0 23.01, 0 16.53, 0 9.83 M0 9.83 C0 3.28, 3.28 0, 9.83 0 M0 9.83 C0 3.28, 3.28 0, 9.83 0" stroke="#158bc2" stroke-width="2" fill="none"></path></g><g transform="translate(1308.7166229445365 450.73807389171657) rotate(0 50.5859375 16.100000000000023)"><text x="50.5859375" y="23.660546874999998" font-family="Helvetica, Segoe UI Emoji" font-size="28px" fill="white" text-anchor="middle" style="white-space: pre;" direction="ltr" dominant-baseline="alphabetic">Route B</text></g><g stroke-linecap="round"><g transform="translate(1264.4996349927073 241.4616477103457) rotate(0 0.15288642533892016 39.26066643763693)"><path d="M0 0 C0.08 20.99, 0.16 41.98, 0.31 78.52 M0 0 C0.07 17.11, 0.13 34.23, 0.31 78.52" stroke="#1e1e1e" stroke-width="1" fill="none"></path></g></g><mask></mask><g transform="translate(462.73328237971725 11.169963339177002) rotate(0 100.26045652836191 24.119859776874137)"><text x="0" y="35.446526265165105" font-family="Helvetica, Segoe UI Emoji" font-size="41.947582220650716px" fill="#1e1e1e" text-anchor="start" style="white-space: pre;" direction="ltr" dominant-baseline="alphabetic">Initial state</text></g><g transform="translate(1230.7954788144698 10) rotate(0 149.59552001953125 24.119859776874137)"><text x="0" y="35.446526265165105" font-family="Helvetica, Segoe UI Emoji" font-size="41.947582220650716px" fill="#1e1e1e" text-anchor="start" style="white-space: pre;" direction="ltr" dominant-baseline="alphabetic">Translated state</text></g><g stroke-linecap="round"><g transform="translate(773.4801819315478 39.83666439939452) rotate(0 196.04622347722704 -0.13301207336348853)"><path d="M0 0 C126.24 -0.09, 252.47 -0.17, 392.09 -0.27 M0 0 C156.31 -0.11, 312.61 -0.21, 392.09 -0.27" stroke="#1e1e1e" stroke-width="1" fill="none"></path></g><g transform="translate(773.4801819315478 39.83666439939452) rotate(0 196.04622347722704 -0.13301207336348853)"><path d="M392.09 -0.27 L378.5 6.08 L378.49 -6.6 L392.09 -0.27" stroke="none" stroke-width="0" fill="#1e1e1e" fill-rule="evenodd"></path><path d="M392.09 -0.27 C387.72 1.78, 383.34 3.82, 378.5 6.08 M392.09 -0.27 C386.67 2.26, 381.26 4.8, 378.5 6.08 M378.5 6.08 C378.5 3.46, 378.5 0.84, 378.49 -6.6 M378.5 6.08 C378.5 2.95, 378.5 -0.18, 378.49 -6.6 M378.49 -6.6 C382.4 -4.78, 386.3 -2.96, 392.09 -0.27 M378.49 -6.6 C381.25 -5.31, 384 -4.03, 392.09 -0.27 M392.09 -0.27 C392.09 -0.27, 392.09 -0.27, 392.09 -0.27 M392.09 -0.27 C392.09 -0.27, 392.09 -0.27, 392.09 -0.27" stroke="#1e1e1e" stroke-width="1" fill="none"></path></g></g><mask></mask><g stroke-linecap="round"><g transform="translate(1251.6590679452606 270.9266149433565) rotate(0 45.53585024310007 60.71446699080013)" fill-rule="evenodd"><path d="M0 0 L60.71 0 L91.07 30.36 L91.07 121.43 L0 121.43 L0 0" stroke="none" stroke-width="0" fill="#fff" fill-rule="evenodd"></path><path d="M0 0 C16.24 0, 32.48 0, 60.71 0 M0 0 C15.19 0, 30.37 0, 60.71 0 M60.71 0 C70.93 10.21, 81.14 20.43, 91.07 30.36 M60.71 0 C72.27 11.56, 83.83 23.12, 91.07 30.36 M91.07 30.36 C91.07 65.49, 91.07 100.62, 91.07 121.43 M91.07 30.36 C91.07 57.6, 91.07 84.85, 91.07 121.43 M91.07 121.43 C70.32 121.43, 49.58 121.43, 0 121.43 M91.07 121.43 C55.92 121.43, 20.76 121.43, 0 121.43 M0 121.43 C0 77.14, 0 32.84, 0 0 M0 121.43 C0 76.76, 0 32.09, 0 0 M0 0 C0 0, 0 0, 0 0 M0 0 C0 0, 0 0, 0 0" stroke="#0fac7c" stroke-width="2" fill="none"></path></g></g><mask></mask><g stroke-linecap="round"><g transform="translate(1312.37353493606 270.76256604821947) rotate(0 0 15.178616747700062)"><path d="M0 0 C0 7.28, 0 14.57, 0 30.36 M0 0 C0 12.07, 0 24.14, 0 30.36" stroke="#0fac7c" stroke-width="2" fill="none"></path></g></g><mask></mask><g stroke-linecap="round"><g transform="translate(1312.37353493606 301.11979954361914) rotate(0 15.178616747700005 0)"><path d="M0 0 C8.64 0, 17.27 0, 30.36 0 M0 0 C12 0, 24.01 0, 30.36 0" stroke="#0fac7c" stroke-width="2" fill="none"></path></g></g><mask></mask><g stroke-linecap="round" transform="translate(1251.1831289646693 387.08732550056766) rotate(0 46.378538196917134 12.960217825567156)"><path d="M0 0 L92.76 0 L92.76 25.92 L0 25.92" stroke="none" stroke-width="0" fill="#0fac7c"></path><path d="M0 0 C30.85 0, 61.7 0, 92.76 0 M0 0 C26.38 0, 52.76 0, 92.76 0 M92.76 0 C92.76 6.15, 92.76 12.31, 92.76 25.92 M92.76 0 C92.76 8.14, 92.76 16.28, 92.76 25.92 M92.76 25.92 C66.8 25.92, 40.84 25.92, 0 25.92 M92.76 25.92 C71.04 25.92, 49.32 25.92, 0 25.92 M0 25.92 C0 20.58, 0 15.23, 0 0 M0 25.92 C0 17.6, 0 9.27, 0 0" stroke="#0fac7c" stroke-width="1" fill="none"></path></g><g transform="translate(1258.6485935495716 308.7311043350269) rotate(0 37.24609375 34.5)"><text x="37.24609375" y="16.900390625" font-family="Helvetica, Segoe UI Emoji" font-size="20px" fill="#1e1e1e" text-anchor="middle" style="white-space: pre;" direction="ltr" dominant-baseline="alphabetic">Request</text><text x="37.24609375" y="39.900390625" font-family="Helvetica, Segoe UI Emoji" font-size="20px" fill="#1e1e1e" text-anchor="middle" style="white-space: pre;" direction="ltr" dominant-baseline="alphabetic">header</text><text x="37.24609375" y="62.900390625" font-family="Helvetica, Segoe UI Emoji" font-size="20px" fill="#1e1e1e" text-anchor="middle" style="white-space: pre;" direction="ltr" dominant-baseline="alphabetic">foo</text></g><g transform="translate(1261.8043146510663 389.72825639621396) rotate(0 35.0146484375 11.5)"><text x="35.0146484375" y="16.900390625" font-family="Helvetica, Segoe UI Emoji" font-size="20px" fill="white" text-anchor="middle" style="white-space: pre;" direction="ltr" dominant-baseline="alphabetic">Policy 1</text></g><g stroke-linecap="round"><g transform="translate(10.475938980591309 287.7955971904164) rotate(0 45.53585024310007 60.71446699080013)" fill-rule="evenodd"><path d="M0 0 L60.71 0 L91.07 30.36 L91.07 121.43 L0 121.43 L0 0" stroke="none" stroke-width="0" fill="#fff" fill-rule="evenodd"></path><path d="M0 0 C13.6 0, 27.19 0, 60.71 0 M0 0 C18.54 0, 37.08 0, 60.71 0 M60.71 0 C69.01 8.29, 77.3 16.59, 91.07 30.36 M60.71 0 C67.02 6.31, 73.33 12.61, 91.07 30.36 M91.07 30.36 C91.07 59.64, 91.07 88.92, 91.07 121.43 M91.07 30.36 C91.07 65.08, 91.07 99.81, 91.07 121.43 M91.07 121.43 C61.99 121.43, 32.9 121.43, 0 121.43 M91.07 121.43 C62.92 121.43, 34.77 121.43, 0 121.43 M0 121.43 C0 75.8, 0 30.18, 0 0 M0 121.43 C0 90.88, 0 60.33, 0 0 M0 0 C0 0, 0 0, 0 0 M0 0 C0 0, 0 0, 0 0" stroke="#0fac7c" stroke-width="2" fill="none"></path></g></g><mask></mask><g stroke-linecap="round"><g transform="translate(71.19040597139065 287.63154829527934) rotate(0 0 15.178616747700062)"><path d="M0 0 C0 10.11, 0 20.22, 0 30.36 M0 0 C0 6.69, 0 13.38, 0 30.36" stroke="#0fac7c" stroke-width="2" fill="none"></path></g></g><mask></mask><g stroke-linecap="round"><g transform="translate(71.19040597139065 317.988781790679) rotate(0 15.178616747700005 0)"><path d="M0 0 C6.32 0, 12.64 0, 30.36 0 M0 0 C6.5 0, 13 0, 30.36 0" stroke="#0fac7c" stroke-width="2" fill="none"></path></g></g><mask></mask><g stroke-linecap="round" transform="translate(10 403.95630774762753) rotate(0 46.378538196917134 12.960217825567156)"><path d="M0 0 L92.76 0 L92.76 25.92 L0 25.92" stroke="none" stroke-width="0" fill="#0fac7c"></path><path d="M0 0 C26.44 0, 52.87 0, 92.76 0 M0 0 C28.54 0, 57.08 0, 92.76 0 M92.76 0 C92.76 8.3, 92.76 16.6, 92.76 25.92 M92.76 0 C92.76 8.2, 92.76 16.39, 92.76 25.92 M92.76 25.92 C59.52 25.92, 26.29 25.92, 0 25.92 M92.76 25.92 C59.83 25.92, 26.9 25.92, 0 25.92 M0 25.92 C0 20.02, 0 14.13, 0 0 M0 25.92 C0 16.61, 0 7.3, 0 0" stroke="#0fac7c" stroke-width="1" fill="none"></path></g><g transform="translate(17.465464584902406 325.60008658208676) rotate(0 37.24609375 34.5)"><text x="37.24609375" y="16.900390625" font-family="Helvetica, Segoe UI Emoji" font-size="20px" fill="#1e1e1e" text-anchor="middle" style="white-space: pre;" direction="ltr" dominant-baseline="alphabetic">Request</text><text x="37.24609375" y="39.900390625" font-family="Helvetica, Segoe UI Emoji" font-size="20px" fill="#1e1e1e" text-anchor="middle" style="white-space: pre;" direction="ltr" dominant-baseline="alphabetic">header</text><text x="37.24609375" y="62.900390625" font-family="Helvetica, Segoe UI Emoji" font-size="20px" fill="#1e1e1e" text-anchor="middle" style="white-space: pre;" direction="ltr" dominant-baseline="alphabetic">foo</text></g><g transform="translate(20.621185686396984 406.59723864327384) rotate(0 35.0146484375 11.5)"><text x="35.0146484375" y="16.900390625" font-family="Helvetica, Segoe UI Emoji" font-size="20px" fill="white" text-anchor="middle" style="white-space: pre;" direction="ltr" dominant-baseline="alphabetic">Policy 1</text></g><g stroke-linecap="round"><g transform="translate(100.96444024447555 347.8864463365519) rotate(0 142.87862274941398 -0.5531816612354987)"><path d="M0 0 C76.53 -0.3, 153.07 -0.59, 285.76 -1.11 M0 0 C113.64 -0.44, 227.28 -0.88, 285.76 -1.11" stroke="#1e1e1e" stroke-width="1" fill="none"></path></g><g transform="translate(100.96444024447555 347.8864463365519) rotate(0 142.87862274941398 -0.5531816612354987)"><path d="M285.76 -1.11 L272.19 5.29 L272.14 -7.39 L285.76 -1.11" stroke="none" stroke-width="0" fill="#1e1e1e" fill-rule="evenodd"></path><path d="M285.76 -1.11 C282.12 0.61, 278.49 2.32, 272.19 5.29 M285.76 -1.11 C280.36 1.44, 274.96 3.98, 272.19 5.29 M272.19 5.29 C272.17 1.56, 272.16 -2.16, 272.14 -7.39 M272.19 5.29 C272.17 1.73, 272.16 -1.83, 272.14 -7.39 M272.14 -7.39 C276.18 -5.53, 280.23 -3.66, 285.76 -1.11 M272.14 -7.39 C277.23 -5.04, 282.33 -2.69, 285.76 -1.11 M285.76 -1.11 C285.76 -1.11, 285.76 -1.11, 285.76 -1.11 M285.76 -1.11 C285.76 -1.11, 285.76 -1.11, 285.76 -1.11" stroke="#1e1e1e" stroke-width="1" fill="none"></path></g></g><mask></mask><g stroke-linecap="round"><g transform="translate(226.30453551894504 379.180644957135) rotate(0 80.09421032480952 -0.14725479232856742)"><path d="M0 0 C62.14 -0.11, 124.27 -0.23, 160.19 -0.29 M0 0 C59.19 -0.11, 118.38 -0.22, 160.19 -0.29" stroke="#1e1e1e" stroke-width="1" fill="none"></path></g><g transform="translate(226.30453551894504 379.180644957135) rotate(0 80.09421032480952 -0.14725479232856742)"><path d="M160.19 -0.29 L146.61 6.07 L146.58 -6.61 L160.19 -0.29" stroke="none" stroke-width="0" fill="#1e1e1e" fill-rule="evenodd"></path><path d="M160.19 -0.29 C154.92 2.17, 149.65 4.64, 146.61 6.07 M160.19 -0.29 C155.17 2.06, 150.15 4.41, 146.61 6.07 M146.61 6.07 C146.6 1.26, 146.59 -3.55, 146.58 -6.61 M146.61 6.07 C146.6 1.16, 146.59 -3.76, 146.58 -6.61 M146.58 -6.61 C150.27 -4.9, 153.95 -3.19, 160.19 -0.29 M146.58 -6.61 C151.27 -4.43, 155.97 -2.25, 160.19 -0.29 M160.19 -0.29 C160.19 -0.29, 160.19 -0.29, 160.19 -0.29 M160.19 -0.29 C160.19 -0.29, 160.19 -0.29, 160.19 -0.29" stroke="#1e1e1e" stroke-width="1" fill="none"></path></g></g><mask></mask><g transform="translate(263.31642780186115 353.5238722464378) rotate(359.27908722660004 43.619642527120504 12.200211655751332)"><text x="0" y="17.92942110346739" font-family="Helvetica, Segoe UI Emoji" font-size="21.21775940130661px" fill="#1e1e1e" text-anchor="start" style="white-space: pre;" direction="ltr" dominant-baseline="alphabetic">targetRef</text></g><g stroke-linecap="round"><g transform="translate(1266.570804125884 490.32807619139453) rotate(0 0.15288642533892016 39.26066643763693)"><path d="M0 0 C0.08 20.06, 0.16 40.12, 0.31 78.52 M0 0 C0.08 21.7, 0.17 43.4, 0.31 78.52" stroke="#1e1e1e" stroke-width="1" fill="none"></path></g></g><mask></mask><g stroke-linecap="round"><g transform="translate(1253.7302370784375 519.7930434244056) rotate(0 45.53585024310007 60.71446699080013)" fill-rule="evenodd"><path d="M0 0 L60.71 0 L91.07 30.36 L91.07 121.43 L0 121.43 L0 0" stroke="none" stroke-width="0" fill="#fff" fill-rule="evenodd"></path><path d="M0 0 C18.8 0, 37.59 0, 60.71 0 M0 0 C23 0, 46.01 0, 60.71 0 M60.71 0 C67.27 6.56, 73.82 13.11, 91.07 30.36 M60.71 0 C69.43 8.72, 78.15 17.43, 91.07 30.36 M91.07 30.36 C91.07 62.69, 91.07 95.02, 91.07 121.43 M91.07 30.36 C91.07 66.09, 91.07 101.81, 91.07 121.43 M91.07 121.43 C68.75 121.43, 46.43 121.43, 0 121.43 M91.07 121.43 C68.42 121.43, 45.77 121.43, 0 121.43 M0 121.43 C0 89.86, 0 58.28, 0 0 M0 121.43 C0 80.01, 0 38.59, 0 0 M0 0 C0 0, 0 0, 0 0 M0 0 C0 0, 0 0, 0 0" stroke="#0fac7c" stroke-width="2" fill="none"></path></g></g><mask></mask><g stroke-linecap="round"><g transform="translate(1314.4447040692369 519.6289945292685) rotate(0 0 15.178616747700062)"><path d="M0 0 C0 7.44, 0 14.88, 0 30.36 M0 0 C0 10.01, 0 20.01, 0 30.36" stroke="#0fac7c" stroke-width="2" fill="none"></path></g></g><mask></mask><g stroke-linecap="round"><g transform="translate(1314.4447040692369 549.9862280246682) rotate(0 15.178616747700005 0)"><path d="M0 0 C7.73 0, 15.47 0, 30.36 0 M0 0 C8.5 0, 16.99 0, 30.36 0" stroke="#0fac7c" stroke-width="2" fill="none"></path></g></g><mask></mask><g stroke-linecap="round" transform="translate(1253.2542980978462 635.9537539816167) rotate(0 46.378538196917134 12.960217825567156)"><path d="M0 0 L92.76 0 L92.76 25.92 L0 25.92" stroke="none" stroke-width="0" fill="#0fac7c"></path><path d="M0 0 C22.56 0, 45.12 0, 92.76 0 M0 0 C32.95 0, 65.9 0, 92.76 0 M92.76 0 C92.76 8.92, 92.76 17.83, 92.76 25.92 M92.76 0 C92.76 7.46, 92.76 14.92, 92.76 25.92 M92.76 25.92 C56.92 25.92, 21.08 25.92, 0 25.92 M92.76 25.92 C72.64 25.92, 52.53 25.92, 0 25.92 M0 25.92 C0 16.83, 0 7.74, 0 0 M0 25.92 C0 20.37, 0 14.82, 0 0" stroke="#0fac7c" stroke-width="1" fill="none"></path></g><g transform="translate(1260.7197626827485 557.597532816076) rotate(0 37.24609375 34.5)"><text x="37.24609375" y="16.900390625" font-family="Helvetica, Segoe UI Emoji" font-size="20px" fill="#1e1e1e" text-anchor="middle" style="white-space: pre;" direction="ltr" dominant-baseline="alphabetic">Request</text><text x="37.24609375" y="39.900390625" font-family="Helvetica, Segoe UI Emoji" font-size="20px" fill="#1e1e1e" text-anchor="middle" style="white-space: pre;" direction="ltr" dominant-baseline="alphabetic">header</text><text x="37.24609375" y="62.900390625" font-family="Helvetica, Segoe UI Emoji" font-size="20px" fill="#1e1e1e" text-anchor="middle" style="white-space: pre;" direction="ltr" dominant-baseline="alphabetic">foo</text></g><g transform="translate(1263.8754837842432 638.594684877263) rotate(0 35.0146484375 11.5)"><text x="35.0146484375" y="16.900390625" font-family="Helvetica, Segoe UI Emoji" font-size="20px" fill="white" text-anchor="middle" style="white-space: pre;" direction="ltr" dominant-baseline="alphabetic">Policy 1</text></g><g stroke-linecap="round"><g transform="translate(136.07849369650046 288.79884925135957) rotate(0 45.53585024310007 60.71446699080013)" fill-rule="evenodd"><path d="M0 0 L60.71 0 L91.07 30.36 L91.07 121.43 L0 121.43 L0 0" stroke="none" stroke-width="0" fill="#fff" fill-rule="evenodd"></path><path d="M0 0 C22.99 0, 45.98 0, 60.71 0 M0 0 C12.18 0, 24.35 0, 60.71 0 M60.71 0 C70.83 10.11, 80.94 20.22, 91.07 30.36 M60.71 0 C67.4 6.69, 74.09 13.38, 91.07 30.36 M91.07 30.36 C91.07 62.18, 91.07 94.01, 91.07 121.43 M91.07 30.36 C91.07 50.17, 91.07 69.98, 91.07 121.43 M91.07 121.43 C63.11 121.43, 35.15 121.43, 0 121.43 M91.07 121.43 C60.36 121.43, 29.65 121.43, 0 121.43 M0 121.43 C0 95.65, 0 69.87, 0 0 M0 121.43 C0 93.14, 0 64.86, 0 0 M0 0 C0 0, 0 0, 0 0 M0 0 C0 0, 0 0, 0 0" stroke="#e005a3" stroke-width="2" fill="none"></path></g></g><mask></mask><g stroke-linecap="round"><g transform="translate(196.79296068730025 288.6348003562225) rotate(0 0 15.178616747700062)"><path d="M0 0 C0 10.24, 0 20.49, 0 30.36 M0 0 C0 8.35, 0 16.7, 0 30.36" stroke="#e005a3" stroke-width="2" fill="none"></path></g></g><mask></mask><g stroke-linecap="round"><g transform="translate(196.79296068730025 318.9920338516222) rotate(0 15.178616747700033 0)"><path d="M0 0 C8.98 0, 17.95 0, 30.36 0 M0 0 C7.87 0, 15.74 0, 30.36 0" stroke="#e005a3" stroke-width="2" fill="none"></path></g></g><mask></mask><g stroke-linecap="round" transform="translate(135.60255471590915 404.9595598085707) rotate(0 46.37853819691716 12.960217825567156)"><path d="M0 0 L92.76 0 L92.76 25.92 L0 25.92" stroke="none" stroke-width="0" fill="#e005a3"></path><path d="M0 0 C30.41 0, 60.81 0, 92.76 0 M0 0 C25.07 0, 50.13 0, 92.76 0 M92.76 0 C92.76 8.71, 92.76 17.43, 92.76 25.92 M92.76 0 C92.76 7.03, 92.76 14.05, 92.76 25.92 M92.76 25.92 C63.98 25.92, 35.2 25.92, 0 25.92 M92.76 25.92 C59.2 25.92, 25.64 25.92, 0 25.92 M0 25.92 C0 19.42, 0 12.92, 0 0 M0 25.92 C0 15.66, 0 5.41, 0 0" stroke="#e005a3" stroke-width="1" fill="none"></path></g><g transform="translate(148.0818501305797 406.7396306598512) rotate(0 35.0146484375 11.5)"><text x="35.0146484375" y="16.900390625" font-family="Helvetica, Segoe UI Emoji" font-size="20px" fill="white" text-anchor="middle" style="white-space: pre;" direction="ltr" dominant-baseline="alphabetic">Policy 2</text></g><g transform="translate(144.2760400380604 326.44622719938207) rotate(0 36.689453125 23)"><text x="36.689453125" y="16.900390625" font-family="Helvetica, Segoe UI Emoji" font-size="20px" fill="#1e1e1e" text-anchor="middle" style="white-space: pre;" direction="ltr" dominant-baseline="alphabetic">Fault</text><text x="36.689453125" y="39.900390625" font-family="Helvetica, Segoe UI Emoji" font-size="20px" fill="#1e1e1e" text-anchor="middle" style="white-space: pre;" direction="ltr" dominant-baseline="alphabetic">injection</text></g></svg>