<svg version="1.1" xmlns="http://www.w3.org/2000/svg" viewBox="0 0 1548.3413587494697 704.5651676574839" width="3096.6827174989394" height="1409.1303353149679">
  <!-- svg-source:excalidraw -->
  
  <defs>
    <style class="style-fonts">
      
    </style>
    
  </defs>
  <rect x="0" y="0" width="1548.3413587494697" height="704.5651676574839" fill="#ffffff"></rect><g transform="translate(694.8856992666335 180.9280572275602) rotate(0 35.0146484375 11.5)"><text x="35.0146484375" y="16.900390625" font-family="Helvetica, Segoe UI Emoji" font-size="20px" fill="white" text-anchor="middle" style="white-space: pre;" direction="ltr" dominant-baseline="alphabetic">Policy 1</text></g><g stroke-linecap="round" transform="translate(443.50221209147753 206.0698068914735) rotate(0 117.48716581554648 19.274144472894704)"><path d="M9.64 0 C59.66 0, 109.68 0, 225.34 0 C231.76 0, 234.97 3.21, 234.97 9.64 C234.97 16.46, 234.97 23.29, 234.97 28.91 C234.97 35.34, 231.76 38.55, 225.34 38.55 C178.41 38.55, 131.49 38.55, 9.64 38.55 C3.21 38.55, 0 35.34, 0 28.91 C0 21.85, 0 14.79, 0 9.64 C0 3.21, 3.21 0, 9.64 0" stroke="none" stroke-width="0" fill="#158bc2"></path><path d="M9.64 0 C69.35 0, 129.06 0, 225.34 0 M9.64 0 C81.69 0, 153.75 0, 225.34 0 M225.34 0 C231.76 0, 234.97 3.21, 234.97 9.64 M225.34 0 C231.76 0, 234.97 3.21, 234.97 9.64 M234.97 9.64 C234.97 15.63, 234.97 21.63, 234.97 28.91 M234.97 9.64 C234.97 14.68, 234.97 19.73, 234.97 28.91 M234.97 28.91 C234.97 35.34, 231.76 38.55, 225.34 38.55 M234.97 28.91 C234.97 35.34, 231.76 38.55, 225.34 38.55 M225.34 38.55 C152.64 38.55, 79.94 38.55, 9.64 38.55 M225.34 38.55 C139.71 38.55, 54.08 38.55, 9.64 38.55 M9.64 38.55 C3.21 38.55, 0 35.34, 0 28.91 M9.64 38.55 C3.21 38.55, 0 35.34, 0 28.91 M0 28.91 C0 24.49, 0 20.07, 0 9.64 M0 28.91 C0 24.37, 0 19.82, 0 9.64 M0 9.64 C0 3.21, 3.21 0, 9.64 0 M0 9.64 C0 3.21, 3.21 0, 9.64 0" stroke="#158bc2" stroke-width="2" fill="none"></path></g><g transform="translate(484.82036483060256 210.057418441761) rotate(0 76.26171875 16.09999999999991)"><text x="76.26171875" y="23.660546874999998" font-family="Helvetica, Segoe UI Emoji" font-size="28px" fill="white" text-anchor="middle" style="white-space: pre;" direction="ltr" dominant-baseline="alphabetic">listener: http</text></g><g stroke-linecap="round" transform="translate(388.0769175316823 136.37046513317364) rotate(359.93787961041494 174.2997195481492 204.20870674833554)"><path d="M0 0 C79.42 0, 158.84 0, 348.6 0 M0 0 C88.04 0, 176.07 0, 348.6 0 M348.6 0 C348.6 158.08, 348.6 316.15, 348.6 408.42 M348.6 0 C348.6 118.28, 348.6 236.56, 348.6 408.42 M348.6 408.42 C248.92 408.42, 149.25 408.42, 0 408.42 M348.6 408.42 C236.36 408.42, 124.12 408.42, 0 408.42 M0 408.42 C0 255.57, 0 102.73, 0 0 M0 408.42 C0 254.65, 0 100.87, 0 0" stroke="#158bc2" stroke-width="1" fill="none"></path></g><g stroke-linecap="round" transform="translate(387.5154871621785 129.11019934707565) rotate(0 174.89483667878696 20.508975348572676)"><path d="M0 0 L349.79 0 L349.79 41.02 L0 41.02" stroke="none" stroke-width="0" fill="#158bc2"></path><path d="M0 0 C89.97 0, 179.95 0, 349.79 0 M0 0 C109.29 0, 218.59 0, 349.79 0 M349.79 0 C349.79 9.31, 349.79 18.62, 349.79 41.02 M349.79 0 C349.79 9.92, 349.79 19.84, 349.79 41.02 M349.79 41.02 C216.11 41.02, 82.42 41.02, 0 41.02 M349.79 41.02 C240.96 41.02, 132.14 41.02, 0 41.02 M0 41.02 C0 32.34, 0 23.66, 0 0 M0 41.02 C0 26.4, 0 11.79, 0 0" stroke="#158bc2" stroke-width="1" fill="none"></path></g><g transform="translate(508.31274560756754 134.58761727927413) rotate(0 55.248046875 16.09999999999991)"><text x="55.248046875" y="23.660546874999998" font-family="Helvetica, Segoe UI Emoji" font-size="28px" fill="white" text-anchor="middle" style="white-space: pre;" direction="ltr" dominant-baseline="alphabetic">Gateway</text></g><g stroke-linecap="round" transform="translate(442.15113650871456 452.2435136390577) rotate(0 117.4492894822059 19.652907806300163)"><path d="M9.83 0 C69.96 0, 130.09 0, 225.07 0 C231.62 0, 234.9 3.28, 234.9 9.83 C234.9 16.49, 234.9 23.15, 234.9 29.48 C234.9 36.03, 231.62 39.31, 225.07 39.31 C165.13 39.31, 105.18 39.31, 9.83 39.31 C3.28 39.31, 0 36.03, 0 29.48 C0 25.04, 0 20.61, 0 9.83 C0 3.28, 3.28 0, 9.83 0" stroke="none" stroke-width="0" fill="#158bc2"></path><path d="M9.83 0 C72 0, 134.18 0, 225.07 0 M9.83 0 C73.37 0, 136.91 0, 225.07 0 M225.07 0 C231.62 0, 234.9 3.28, 234.9 9.83 M225.07 0 C231.62 0, 234.9 3.28, 234.9 9.83 M234.9 9.83 C234.9 15.45, 234.9 21.07, 234.9 29.48 M234.9 9.83 C234.9 16.15, 234.9 22.48, 234.9 29.48 M234.9 29.48 C234.9 36.03, 231.62 39.31, 225.07 39.31 M234.9 29.48 C234.9 36.03, 231.62 39.31, 225.07 39.31 M225.07 39.31 C155.08 39.31, 85.09 39.31, 9.83 39.31 M225.07 39.31 C160.79 39.31, 96.51 39.31, 9.83 39.31 M9.83 39.31 C3.28 39.31, 0 36.03, 0 29.48 M9.83 39.31 C3.28 39.31, 0 36.03, 0 29.48 M0 29.48 C0 24, 0 18.52, 0 9.83 M0 29.48 C0 24.87, 0 20.27, 0 9.83 M0 9.83 C0 3.28, 3.28 0, 9.83 0 M0 9.83 C0 3.28, 3.28 0, 9.83 0" stroke="#158bc2" stroke-width="2" fill="none"></path></g><g transform="translate(476.29540510508673 455.20168904620914) rotate(0 83.26171875 16.09999999999991)"><text x="83.26171875" y="23.660546874999998" font-family="Helvetica, Segoe UI Emoji" font-size="28px" fill="white" text-anchor="middle" style="white-space: pre;" direction="ltr" dominant-baseline="alphabetic">listener: https</text></g><g stroke-linecap="round" transform="translate(1244.7545207062321 201.6061917369807) rotate(0 117.48716581554646 19.274144472894704)"><path d="M9.64 0 C74.02 0, 138.39 0, 225.34 0 C231.76 0, 234.97 3.21, 234.97 9.64 C234.97 17.1, 234.97 24.57, 234.97 28.91 C234.97 35.34, 231.76 38.55, 225.34 38.55 C161.04 38.55, 96.73 38.55, 9.64 38.55 C3.21 38.55, 0 35.34, 0 28.91 C0 21.8, 0 14.68, 0 9.64 C0 3.21, 3.21 0, 9.64 0" stroke="none" stroke-width="0" fill="#158bc2"></path><path d="M9.64 0 C94.89 0, 180.14 0, 225.34 0 M9.64 0 C58.32 0, 107 0, 225.34 0 M225.34 0 C231.76 0, 234.97 3.21, 234.97 9.64 M225.34 0 C231.76 0, 234.97 3.21, 234.97 9.64 M234.97 9.64 C234.97 16.36, 234.97 23.09, 234.97 28.91 M234.97 9.64 C234.97 16.89, 234.97 24.15, 234.97 28.91 M234.97 28.91 C234.97 35.34, 231.76 38.55, 225.34 38.55 M234.97 28.91 C234.97 35.34, 231.76 38.55, 225.34 38.55 M225.34 38.55 C145.51 38.55, 65.68 38.55, 9.64 38.55 M225.34 38.55 C181.1 38.55, 136.86 38.55, 9.64 38.55 M9.64 38.55 C3.21 38.55, 0 35.34, 0 28.91 M9.64 38.55 C3.21 38.55, 0 35.34, 0 28.91 M0 28.91 C0 24.08, 0 19.26, 0 9.64 M0 28.91 C0 24.37, 0 19.84, 0 9.64 M0 9.64 C0 3.21, 3.21 0, 9.64 0 M0 9.64 C0 3.21, 3.21 0, 9.64 0" stroke="#158bc2" stroke-width="2" fill="none"></path></g><g transform="translate(1286.0726734453574 205.35191492134982) rotate(0 76.26171875 16.09999999999991)"><text x="76.26171875" y="23.660546874999998" font-family="Helvetica, Segoe UI Emoji" font-size="28px" fill="white" text-anchor="middle" style="white-space: pre;" direction="ltr" dominant-baseline="alphabetic">listener: http</text></g><g stroke-linecap="round" transform="translate(1189.5714835070198 131.96151527967368) rotate(0 174.30690956491986 281.3018261889051)"><path d="M0 0 C134.93 0, 269.86 0, 348.61 0 M0 0 C100.96 0, 201.92 0, 348.61 0 M348.61 0 C348.61 160.87, 348.61 321.73, 348.61 562.6 M348.61 0 C348.61 181.14, 348.61 362.29, 348.61 562.6 M348.61 562.6 C218.15 562.6, 87.68 562.6, 0 562.6 M348.61 562.6 C217.36 562.6, 86.1 562.6, 0 562.6 M0 562.6 C0 359.95, 0 157.29, 0 0 M0 562.6 C0 444.1, 0 325.6, 0 0" stroke="#158bc2" stroke-width="1" fill="none"></path></g><g stroke-linecap="round" transform="translate(1188.5516853918957 121.49516145128291) rotate(0 174.894836678787 20.508975348572676)"><path d="M0 0 L349.79 0 L349.79 41.02 L0 41.02" stroke="none" stroke-width="0" fill="#158bc2"></path><path d="M0 0 C79.41 0, 158.82 0, 349.79 0 M0 0 C84.61 0, 169.21 0, 349.79 0 M349.79 0 C349.79 15.68, 349.79 31.35, 349.79 41.02 M349.79 0 C349.79 12.76, 349.79 25.52, 349.79 41.02 M349.79 41.02 C275.77 41.02, 201.76 41.02, 0 41.02 M349.79 41.02 C225.16 41.02, 100.53 41.02, 0 41.02 M0 41.02 C0 24.99, 0 8.96, 0 0 M0 41.02 C0 26.01, 0 10.99, 0 0" stroke="#158bc2" stroke-width="1" fill="none"></path></g><g transform="translate(1309.3804660388791 127.0131483273417) rotate(0 55.248046875 16.09999999999991)"><text x="55.248046875" y="23.660546874999998" font-family="Helvetica, Segoe UI Emoji" font-size="28px" fill="white" text-anchor="middle" style="white-space: pre;" direction="ltr" dominant-baseline="alphabetic">Gateway</text></g><g stroke-linecap="round" transform="translate(1243.4034451234693 447.7798984845649) rotate(0 117.44928948220593 19.652907806300163)"><path d="M9.83 0 C67.18 0, 124.53 0, 225.07 0 C231.62 0, 234.9 3.28, 234.9 9.83 C234.9 14.47, 234.9 19.12, 234.9 29.48 C234.9 36.03, 231.62 39.31, 225.07 39.31 C173.88 39.31, 122.7 39.31, 9.83 39.31 C3.28 39.31, 0 36.03, 0 29.48 C0 24.55, 0 19.63, 0 9.83 C0 3.28, 3.28 0, 9.83 0" stroke="none" stroke-width="0" fill="#158bc2"></path><path d="M9.83 0 C72.67 0, 135.51 0, 225.07 0 M9.83 0 C70.99 0, 132.15 0, 225.07 0 M225.07 0 C231.62 0, 234.9 3.28, 234.9 9.83 M225.07 0 C231.62 0, 234.9 3.28, 234.9 9.83 M234.9 9.83 C234.9 17.18, 234.9 24.54, 234.9 29.48 M234.9 9.83 C234.9 17.23, 234.9 24.63, 234.9 29.48 M234.9 29.48 C234.9 36.03, 231.62 39.31, 225.07 39.31 M234.9 29.48 C234.9 36.03, 231.62 39.31, 225.07 39.31 M225.07 39.31 C156.7 39.31, 88.32 39.31, 9.83 39.31 M225.07 39.31 C176.59 39.31, 128.11 39.31, 9.83 39.31 M9.83 39.31 C3.28 39.31, 0 36.03, 0 29.48 M9.83 39.31 C3.28 39.31, 0 36.03, 0 29.48 M0 29.48 C0 23.29, 0 17.09, 0 9.83 M0 29.48 C0 25.27, 0 21.06, 0 9.83 M0 9.83 C0 3.28, 3.28 0, 9.83 0 M0 9.83 C0 3.28, 3.28 0, 9.83 0" stroke="#158bc2" stroke-width="2" fill="none"></path></g><g transform="translate(1277.5477137198413 450.73807389171634) rotate(0 83.26171875 16.09999999999991)"><text x="83.26171875" y="23.660546874999998" font-family="Helvetica, Segoe UI Emoji" font-size="28px" fill="white" text-anchor="middle" style="white-space: pre;" direction="ltr" dominant-baseline="alphabetic">listener: https</text></g><g stroke-linecap="round"><g transform="translate(1266.0065070180121 241.46164771034455) rotate(0 0.15288642533892016 39.26066643763693)"><path d="M0 0 C0.1 25.15, 0.2 50.29, 0.31 78.52 M0 0 C0.09 24.15, 0.19 48.29, 0.31 78.52" stroke="#1e1e1e" stroke-width="1" fill="none"></path></g></g><mask></mask><g transform="translate(464.2401544050224 11.16996333917632) rotate(0 100.26045652836191 24.119859776874137)"><text x="0" y="35.446526265165105" font-family="Helvetica, Segoe UI Emoji" font-size="41.947582220650716px" fill="#1e1e1e" text-anchor="start" style="white-space: pre;" direction="ltr" dominant-baseline="alphabetic">Initial state</text></g><g transform="translate(1232.302350839775 10) rotate(0 149.59552001953125 24.119859776874137)"><text x="0" y="35.446526265165105" font-family="Helvetica, Segoe UI Emoji" font-size="41.947582220650716px" fill="#1e1e1e" text-anchor="start" style="white-space: pre;" direction="ltr" dominant-baseline="alphabetic">Translated state</text></g><g stroke-linecap="round"><g transform="translate(774.987053956853 39.83666439939407) rotate(0 196.04622347722704 -0.13301207336348853)"><path d="M0 0 C136.85 -0.09, 273.7 -0.19, 392.09 -0.27 M0 0 C147.62 -0.1, 295.23 -0.2, 392.09 -0.27" stroke="#1e1e1e" stroke-width="1" fill="none"></path></g><g transform="translate(774.987053956853 39.83666439939407) rotate(0 196.04622347722704 -0.13301207336348853)"><path d="M392.09 -0.27 L378.5 6.08 L378.49 -6.6 L392.09 -0.27" stroke="none" stroke-width="0" fill="#1e1e1e" fill-rule="evenodd"></path><path d="M392.09 -0.27 C387.35 1.95, 382.61 4.17, 378.5 6.08 M392.09 -0.27 C386.98 2.12, 381.86 4.51, 378.5 6.08 M378.5 6.08 C378.5 1.65, 378.5 -2.79, 378.49 -6.6 M378.5 6.08 C378.5 2.52, 378.5 -1.05, 378.49 -6.6 M378.49 -6.6 C381.26 -5.31, 384.03 -4.02, 392.09 -0.27 M378.49 -6.6 C383.92 -4.07, 389.34 -1.55, 392.09 -0.27 M392.09 -0.27 C392.09 -0.27, 392.09 -0.27, 392.09 -0.27 M392.09 -0.27 C392.09 -0.27, 392.09 -0.27, 392.09 -0.27" stroke="#1e1e1e" stroke-width="1" fill="none"></path></g></g><mask></mask><g stroke-linecap="round"><g transform="translate(1253.165939970566 270.92661494335516) rotate(0 45.53585024310007 60.71446699080002)" fill-rule="evenodd"><path d="M0 0 L60.71 0 L91.07 30.36 L91.07 121.43 L0 121.43 L0 0" stroke="none" stroke-width="0" fill="#fff" fill-rule="evenodd"></path><path d="M0 0 C13.92 0, 27.85 0, 60.71 0 M0 0 C14.32 0, 28.64 0, 60.71 0 M60.71 0 C68.32 7.6, 75.92 15.21, 91.07 30.36 M60.71 0 C67.86 7.15, 75 14.29, 91.07 30.36 M91.07 30.36 C91.07 55.26, 91.07 80.16, 91.07 121.43 M91.07 30.36 C91.07 53.39, 91.07 76.42, 91.07 121.43 M91.07 121.43 C58.4 121.43, 25.73 121.43, 0 121.43 M91.07 121.43 C67.76 121.43, 44.45 121.43, 0 121.43 M0 121.43 C0 85.31, 0 49.2, 0 0 M0 121.43 C0 82.46, 0 43.49, 0 0 M0 0 C0 0, 0 0, 0 0 M0 0 C0 0, 0 0, 0 0" stroke="#0fac7c" stroke-width="2" fill="none"></path></g></g><mask></mask><g stroke-linecap="round"><g transform="translate(1313.8804069613648 270.762566048219) rotate(0 0 15.178616747700062)"><path d="M0 0 C0 9.64, 0 19.29, 0 30.36 M0 0 C0 6.84, 0 13.68, 0 30.36" stroke="#0fac7c" stroke-width="2" fill="none"></path></g></g><mask></mask><g stroke-linecap="round"><g transform="translate(1313.8804069613648 301.1197995436178) rotate(0 15.178616747700005 0)"><path d="M0 0 C11.04 0, 22.07 0, 30.36 0 M0 0 C7.84 0, 15.67 0, 30.36 0" stroke="#0fac7c" stroke-width="2" fill="none"></path></g></g><mask></mask><g stroke-linecap="round" transform="translate(1252.6900009899746 387.0873255005663) rotate(0 46.378538196917134 12.96021782556727)"><path d="M0 0 L92.76 0 L92.76 25.92 L0 25.92" stroke="none" stroke-width="0" fill="#0fac7c"></path><path d="M0 0 C21.92 0, 43.85 0, 92.76 0 M0 0 C36.23 0, 72.46 0, 92.76 0 M92.76 0 C92.76 7.13, 92.76 14.26, 92.76 25.92 M92.76 0 C92.76 9.32, 92.76 18.64, 92.76 25.92 M92.76 25.92 C69.92 25.92, 47.08 25.92, 0 25.92 M92.76 25.92 C66.2 25.92, 39.64 25.92, 0 25.92 M0 25.92 C0 17.42, 0 8.91, 0 0 M0 25.92 C0 16.43, 0 6.93, 0 0" stroke="#0fac7c" stroke-width="1" fill="none"></path></g><g transform="translate(1265.3924711282957 319.5178136527079) rotate(0 32.2509765625 23)"><text x="32.2509765625" y="16.900390625" font-family="Helvetica, Segoe UI Emoji" font-size="20px" fill="#1e1e1e" text-anchor="middle" style="white-space: pre;" direction="ltr" dominant-baseline="alphabetic">Access</text><text x="32.2509765625" y="39.900390625" font-family="Helvetica, Segoe UI Emoji" font-size="20px" fill="#1e1e1e" text-anchor="middle" style="white-space: pre;" direction="ltr" dominant-baseline="alphabetic">logging</text></g><g transform="translate(1263.3111866763716 389.7282563962126) rotate(0 35.0146484375 11.5)"><text x="35.0146484375" y="16.900390625" font-family="Helvetica, Segoe UI Emoji" font-size="20px" fill="white" text-anchor="middle" style="white-space: pre;" direction="ltr" dominant-baseline="alphabetic">Policy 1</text></g><g stroke-linecap="round"><g transform="translate(1272.7582674994205 488.91296349456434) rotate(0 0.15288642533892016 39.26066643763693)"><path d="M0 0 C0.09 23.91, 0.19 47.81, 0.31 78.52 M0 0 C0.11 27.45, 0.21 54.91, 0.31 78.52" stroke="#1e1e1e" stroke-width="1" fill="none"></path></g></g><mask></mask><g stroke-linecap="round"><g transform="translate(1259.9177004519738 518.377930727575) rotate(0 45.53585024310007 60.71446699080002)" fill-rule="evenodd"><path d="M0 0 L60.71 0 L91.07 30.36 L91.07 121.43 L0 121.43 L0 0" stroke="none" stroke-width="0" fill="#fff" fill-rule="evenodd"></path><path d="M0 0 C22.52 0, 45.04 0, 60.71 0 M0 0 C13.57 0, 27.14 0, 60.71 0 M60.71 0 C69.99 9.27, 79.26 18.55, 91.07 30.36 M60.71 0 C68.56 7.84, 76.4 15.69, 91.07 30.36 M91.07 30.36 C91.07 60.83, 91.07 91.31, 91.07 121.43 M91.07 30.36 C91.07 56.45, 91.07 82.55, 91.07 121.43 M91.07 121.43 C60.2 121.43, 29.34 121.43, 0 121.43 M91.07 121.43 C65.58 121.43, 40.1 121.43, 0 121.43 M0 121.43 C0 94.71, 0 67.99, 0 0 M0 121.43 C0 81.98, 0 42.52, 0 0 M0 0 C0 0, 0 0, 0 0 M0 0 C0 0, 0 0, 0 0" stroke="#0fac7c" stroke-width="2" fill="none"></path></g></g><mask></mask><g stroke-linecap="round"><g transform="translate(1320.6321674427732 518.2138818324388) rotate(0 0 15.178616747700062)"><path d="M0 0 C0 10.86, 0 21.72, 0 30.36 M0 0 C0 12.06, 0 24.11, 0 30.36" stroke="#0fac7c" stroke-width="2" fill="none"></path></g></g><mask></mask><g stroke-linecap="round"><g transform="translate(1320.6321674427732 548.5711153278376) rotate(0 15.178616747700005 0)"><path d="M0 0 C7.85 0, 15.7 0, 30.36 0 M0 0 C6.94 0, 13.88 0, 30.36 0" stroke="#0fac7c" stroke-width="2" fill="none"></path></g></g><mask></mask><g stroke-linecap="round" transform="translate(1259.4417614713825 634.5386412847861) rotate(0 46.378538196917134 12.96021782556727)"><path d="M0 0 L92.76 0 L92.76 25.92 L0 25.92" stroke="none" stroke-width="0" fill="#0fac7c"></path><path d="M0 0 C31.98 0, 63.96 0, 92.76 0 M0 0 C21.76 0, 43.53 0, 92.76 0 M92.76 0 C92.76 7.75, 92.76 15.5, 92.76 25.92 M92.76 0 C92.76 6.14, 92.76 12.28, 92.76 25.92 M92.76 25.92 C65.91 25.92, 39.06 25.92, 0 25.92 M92.76 25.92 C60.51 25.92, 28.26 25.92, 0 25.92 M0 25.92 C0 15.89, 0 5.85, 0 0 M0 25.92 C0 18.72, 0 11.51, 0 0" stroke="#0fac7c" stroke-width="1" fill="none"></path></g><g transform="translate(1272.1442316097036 566.9691294369281) rotate(0 32.2509765625 23)"><text x="32.2509765625" y="16.900390625" font-family="Helvetica, Segoe UI Emoji" font-size="20px" fill="#1e1e1e" text-anchor="middle" style="white-space: pre;" direction="ltr" dominant-baseline="alphabetic">Access</text><text x="32.2509765625" y="39.900390625" font-family="Helvetica, Segoe UI Emoji" font-size="20px" fill="#1e1e1e" text-anchor="middle" style="white-space: pre;" direction="ltr" dominant-baseline="alphabetic">logging</text></g><g transform="translate(1270.0629471577795 637.1795721804324) rotate(0 35.0146484375 11.5)"><text x="35.0146484375" y="16.900390625" font-family="Helvetica, Segoe UI Emoji" font-size="20px" fill="white" text-anchor="middle" style="white-space: pre;" direction="ltr" dominant-baseline="alphabetic">Policy 1</text></g><g stroke-linecap="round"><g transform="translate(10.475938980591309 261.7928743125276) rotate(0 45.53585024310007 60.71446699080002)" fill-rule="evenodd"><path d="M0 0 L60.71 0 L91.07 30.36 L91.07 121.43 L0 121.43 L0 0" stroke="none" stroke-width="0" fill="#fff" fill-rule="evenodd"></path><path d="M0 0 C12.34 0, 24.68 0, 60.71 0 M0 0 C20.43 0, 40.86 0, 60.71 0 M60.71 0 C68.08 7.36, 75.44 14.73, 91.07 30.36 M60.71 0 C69.99 9.28, 79.27 18.55, 91.07 30.36 M91.07 30.36 C91.07 66.7, 91.07 103.05, 91.07 121.43 M91.07 30.36 C91.07 53.64, 91.07 76.93, 91.07 121.43 M91.07 121.43 C64.34 121.43, 37.61 121.43, 0 121.43 M91.07 121.43 C65.1 121.43, 39.13 121.43, 0 121.43 M0 121.43 C0 91.62, 0 61.82, 0 0 M0 121.43 C0 81.09, 0 40.75, 0 0 M0 0 C0 0, 0 0, 0 0 M0 0 C0 0, 0 0, 0 0" stroke="#0fac7c" stroke-width="2" fill="none"></path></g></g><mask></mask><g stroke-linecap="round"><g transform="translate(71.19040597139065 261.62882541739054) rotate(0 0 15.178616747700062)"><path d="M0 0 C0 6.13, 0 12.26, 0 30.36 M0 0 C0 10.37, 0 20.74, 0 30.36" stroke="#0fac7c" stroke-width="2" fill="none"></path></g></g><mask></mask><g stroke-linecap="round"><g transform="translate(71.19040597139065 291.9860589127902) rotate(0 15.178616747700005 0)"><path d="M0 0 C7.89 0, 15.79 0, 30.36 0 M0 0 C6.44 0, 12.89 0, 30.36 0" stroke="#0fac7c" stroke-width="2" fill="none"></path></g></g><mask></mask><g stroke-linecap="round" transform="translate(10 377.95358486973873) rotate(0 46.378538196917134 12.96021782556727)"><path d="M0 0 L92.76 0 L92.76 25.92 L0 25.92" stroke="none" stroke-width="0" fill="#0fac7c"></path><path d="M0 0 C28.18 0, 56.37 0, 92.76 0 M0 0 C35.42 0, 70.84 0, 92.76 0 M92.76 0 C92.76 6.1, 92.76 12.19, 92.76 25.92 M92.76 0 C92.76 6.11, 92.76 12.22, 92.76 25.92 M92.76 25.92 C67.65 25.92, 42.55 25.92, 0 25.92 M92.76 25.92 C64.22 25.92, 35.69 25.92, 0 25.92 M0 25.92 C0 15.76, 0 5.6, 0 0 M0 25.92 C0 16.08, 0 6.24, 0 0" stroke="#0fac7c" stroke-width="1" fill="none"></path></g><g transform="translate(22.46058177240252 299.59736370419796) rotate(0 32.2509765625 23)"><text x="32.2509765625" y="16.900390625" font-family="Helvetica, Segoe UI Emoji" font-size="20px" fill="#1e1e1e" text-anchor="middle" style="white-space: pre;" direction="ltr" dominant-baseline="alphabetic">Access</text><text x="32.2509765625" y="39.900390625" font-family="Helvetica, Segoe UI Emoji" font-size="20px" fill="#1e1e1e" text-anchor="middle" style="white-space: pre;" direction="ltr" dominant-baseline="alphabetic">logging</text></g><g transform="translate(20.621185686396984 380.59451576538504) rotate(0 35.0146484375 11.5)"><text x="35.0146484375" y="16.900390625" font-family="Helvetica, Segoe UI Emoji" font-size="20px" fill="white" text-anchor="middle" style="white-space: pre;" direction="ltr" dominant-baseline="alphabetic">Policy 1</text></g><g stroke-linecap="round"><g transform="translate(101.09822910821231 321.30620990962007) rotate(0 142.8117283175456 -0.17324433469184441)"><path d="M0 0 C71.05 -0.09, 142.11 -0.17, 285.62 -0.35 M0 0 C91.01 -0.11, 182.02 -0.22, 285.62 -0.35" stroke="#1e1e1e" stroke-width="1" fill="none"></path></g><g transform="translate(101.09822910821231 321.30620990962007) rotate(0 142.8117283175456 -0.17324433469184441)"><path d="M285.62 -0.35 L272.04 6.01 L272.02 -6.67 L285.62 -0.35" stroke="none" stroke-width="0" fill="#1e1e1e" fill-rule="evenodd"></path><path d="M285.62 -0.35 C282.24 1.23, 278.86 2.82, 272.04 6.01 M285.62 -0.35 C281.29 1.68, 276.96 3.7, 272.04 6.01 M272.04 6.01 C272.03 1.59, 272.03 -2.83, 272.02 -6.67 M272.04 6.01 C272.03 2.23, 272.03 -1.54, 272.02 -6.67 M272.02 -6.67 C277.11 -4.31, 282.19 -1.94, 285.62 -0.35 M272.02 -6.67 C275.75 -4.94, 279.47 -3.21, 285.62 -0.35 M285.62 -0.35 C285.62 -0.35, 285.62 -0.35, 285.62 -0.35 M285.62 -0.35 C285.62 -0.35, 285.62 -0.35, 285.62 -0.35" stroke="#1e1e1e" stroke-width="1" fill="none"></path></g></g><mask></mask><g stroke-linecap="round"><g transform="translate(230.8332081792346 353.0685214898449) rotate(0 77.82987399466481 -0.09255449762804346)"><path d="M0 0 C37.75 -0.04, 75.51 -0.09, 155.66 -0.19 M0 0 C47.56 -0.06, 95.13 -0.11, 155.66 -0.19" stroke="#1e1e1e" stroke-width="1" fill="none"></path></g><g transform="translate(230.8332081792346 353.0685214898449) rotate(0 77.82987399466481 -0.09255449762804346)"><path d="M155.66 -0.19 L142.07 6.17 L142.06 -6.51 L155.66 -0.19" stroke="none" stroke-width="0" fill="#1e1e1e" fill-rule="evenodd"></path><path d="M155.66 -0.19 C152.36 1.36, 149.07 2.9, 142.07 6.17 M155.66 -0.19 C151.51 1.76, 147.36 3.7, 142.07 6.17 M142.07 6.17 C142.07 1.11, 142.06 -3.95, 142.06 -6.51 M142.07 6.17 C142.07 2.93, 142.06 -0.31, 142.06 -6.51 M142.06 -6.51 C146.05 -4.65, 150.04 -2.8, 155.66 -0.19 M142.06 -6.51 C145.94 -4.7, 149.82 -2.9, 155.66 -0.19 M155.66 -0.19 C155.66 -0.19, 155.66 -0.19, 155.66 -0.19 M155.66 -0.19 C155.66 -0.19, 155.66 -0.19, 155.66 -0.19" stroke="#1e1e1e" stroke-width="1" fill="none"></path></g></g><mask></mask><g transform="translate(263.3164278018612 326.52114936854923) rotate(359.27908722660004 43.619642527120504 12.200211655751218)"><text x="0" y="17.92942110346739" font-family="Helvetica, Segoe UI Emoji" font-size="21.21775940130661px" fill="#1e1e1e" text-anchor="start" style="white-space: pre;" direction="ltr" dominant-baseline="alphabetic">targetRef</text></g><g stroke-linecap="round"><g transform="translate(136.07849369650057 262.79612637347145) rotate(0 45.53585024310007 60.71446699080002)" fill-rule="evenodd"><path d="M0 0 L60.71 0 L91.07 30.36 L91.07 121.43 L0 121.43 L0 0" stroke="none" stroke-width="0" fill="#fff" fill-rule="evenodd"></path><path d="M0 0 C14.66 0, 29.33 0, 60.71 0 M0 0 C22.45 0, 44.9 0, 60.71 0 M60.71 0 C72.81 12.1, 84.91 24.2, 91.07 30.36 M60.71 0 C70.89 10.17, 81.06 20.35, 91.07 30.36 M91.07 30.36 C91.07 61.84, 91.07 93.32, 91.07 121.43 M91.07 30.36 C91.07 53.99, 91.07 77.63, 91.07 121.43 M91.07 121.43 C58.95 121.43, 26.82 121.43, 0 121.43 M91.07 121.43 C65.76 121.43, 40.45 121.43, 0 121.43 M0 121.43 C0 92.07, 0 62.7, 0 0 M0 121.43 C0 89.62, 0 57.81, 0 0 M0 0 C0 0, 0 0, 0 0 M0 0 C0 0, 0 0, 0 0" stroke="#4e44df" stroke-width="2" fill="none"></path></g></g><mask></mask><g stroke-linecap="round"><g transform="translate(196.79296068730036 262.6320774783335) rotate(0 0 15.178616747700062)"><path d="M0 0 C0 7.14, 0 14.28, 0 30.36 M0 0 C0 7.16, 0 14.32, 0 30.36" stroke="#4e44df" stroke-width="2" fill="none"></path></g></g><mask></mask><g stroke-linecap="round"><g transform="translate(196.79296068730036 292.98931097373406) rotate(0 15.178616747700033 0)"><path d="M0 0 C10.47 0, 20.94 0, 30.36 0 M0 0 C10.76 0, 21.52 0, 30.36 0" stroke="#4e44df" stroke-width="2" fill="none"></path></g></g><mask></mask><g stroke-linecap="round" transform="translate(135.60255471590926 378.9568369306826) rotate(0 46.37853819691716 12.96021782556727)"><path d="M0 0 L92.76 0 L92.76 25.92 L0 25.92" stroke="none" stroke-width="0" fill="#4e44df"></path><path d="M0 0 C23.07 0, 46.15 0, 92.76 0 M0 0 C28.66 0, 57.32 0, 92.76 0 M92.76 0 C92.76 8.05, 92.76 16.09, 92.76 25.92 M92.76 0 C92.76 6.37, 92.76 12.74, 92.76 25.92 M92.76 25.92 C57.52 25.92, 22.29 25.92, 0 25.92 M92.76 25.92 C71.7 25.92, 50.64 25.92, 0 25.92 M0 25.92 C0 19.34, 0 12.76, 0 0 M0 25.92 C0 19.28, 0 12.63, 0 0" stroke="#4e44df" stroke-width="1" fill="none"></path></g><g transform="translate(148.08185013057982 380.73690778196305) rotate(0 35.0146484375 11.5)"><text x="35.0146484375" y="16.900390625" font-family="Helvetica, Segoe UI Emoji" font-size="20px" fill="white" text-anchor="middle" style="white-space: pre;" direction="ltr" dominant-baseline="alphabetic">Policy 2</text></g><g transform="translate(140.9410791005605 300.4435043214935) rotate(0 40.0244140625 34.5)"><text x="40.0244140625" y="16.900390625" font-family="Helvetica, Segoe UI Emoji" font-size="20px" fill="#1e1e1e" text-anchor="middle" style="white-space: pre;" direction="ltr" dominant-baseline="alphabetic">Connect.</text><text x="40.0244140625" y="39.900390625" font-family="Helvetica, Segoe UI Emoji" font-size="20px" fill="#1e1e1e" text-anchor="middle" style="white-space: pre;" direction="ltr" dominant-baseline="alphabetic">buffer</text><text x="40.0244140625" y="62.900390625" font-family="Helvetica, Segoe UI Emoji" font-size="20px" fill="#1e1e1e" text-anchor="middle" style="white-space: pre;" direction="ltr" dominant-baseline="alphabetic">limit</text></g></svg>