<svg version="1.1" xmlns="http://www.w3.org/2000/svg" viewBox="0 0 1560.5041417295602 704.5651676574839" width="3121.0082834591203" height="1409.1303353149679">
  <!-- svg-source:excalidraw -->
  
  <defs>
    <style class="style-fonts">
      
    </style>
    
  </defs>
  <rect x="0" y="0" width="1560.5041417295602" height="704.5651676574839" fill="#ffffff"></rect><g transform="translate(707.048482246724 180.92805722756066) rotate(0 35.0146484375 11.5)"><text x="35.0146484375" y="16.900390625" font-family="Helvetica, Segoe UI Emoji" font-size="20px" fill="white" text-anchor="middle" style="white-space: pre;" direction="ltr" dominant-baseline="alphabetic">Policy 1</text></g><g stroke-linecap="round" transform="translate(455.664995071568 206.06980689147395) rotate(0 117.48716581554648 19.274144472894477)"><path d="M9.64 0 C58.95 0, 108.26 0, 225.34 0 C231.76 0, 234.97 3.21, 234.97 9.64 C234.97 15.35, 234.97 21.07, 234.97 28.91 C234.97 35.34, 231.76 38.55, 225.34 38.55 C167.13 38.55, 108.93 38.55, 9.64 38.55 C3.21 38.55, 0 35.34, 0 28.91 C0 21.93, 0 14.94, 0 9.64 C0 3.21, 3.21 0, 9.64 0" stroke="none" stroke-width="0" fill="#158bc2"></path><path d="M9.64 0 C85.89 0, 162.14 0, 225.34 0 M9.64 0 C62.92 0, 116.2 0, 225.34 0 M225.34 0 C231.76 0, 234.97 3.21, 234.97 9.64 M225.34 0 C231.76 0, 234.97 3.21, 234.97 9.64 M234.97 9.64 C234.97 15.48, 234.97 21.32, 234.97 28.91 M234.97 9.64 C234.97 17.01, 234.97 24.39, 234.97 28.91 M234.97 28.91 C234.97 35.34, 231.76 38.55, 225.34 38.55 M234.97 28.91 C234.97 35.34, 231.76 38.55, 225.34 38.55 M225.34 38.55 C181.7 38.55, 138.06 38.55, 9.64 38.55 M225.34 38.55 C181.14 38.55, 136.95 38.55, 9.64 38.55 M9.64 38.55 C3.21 38.55, 0 35.34, 0 28.91 M9.64 38.55 C3.21 38.55, 0 35.34, 0 28.91 M0 28.91 C0 22.56, 0 16.21, 0 9.64 M0 28.91 C0 21.65, 0 14.39, 0 9.64 M0 9.64 C0 3.21, 3.21 0, 9.64 0 M0 9.64 C0 3.21, 3.21 0, 9.64 0" stroke="#158bc2" stroke-width="2" fill="none"></path></g><g transform="translate(496.983147810693 210.05741844176055) rotate(0 76.26171875 16.09999999999991)"><text x="76.26171875" y="23.660546874999998" font-family="Helvetica, Segoe UI Emoji" font-size="28px" fill="white" text-anchor="middle" style="white-space: pre;" direction="ltr" dominant-baseline="alphabetic">listener: http</text></g><g stroke-linecap="round" transform="translate(400.23970051177275 136.37046513317364) rotate(359.93787961041494 174.2997195481492 204.20870674833554)"><path d="M0 0 C88.92 0, 177.85 0, 348.6 0 M0 0 C113.48 0, 226.96 0, 348.6 0 M348.6 0 C348.6 136.31, 348.6 272.62, 348.6 408.42 M348.6 0 C348.6 92.74, 348.6 185.49, 348.6 408.42 M348.6 408.42 C273.83 408.42, 199.06 408.42, 0 408.42 M348.6 408.42 C262.04 408.42, 175.49 408.42, 0 408.42 M0 408.42 C0 317.46, 0 226.49, 0 0 M0 408.42 C0 304.51, 0 200.6, 0 0" stroke="#158bc2" stroke-width="1" fill="none"></path></g><g stroke-linecap="round" transform="translate(399.67827014226896 129.11019934707474) rotate(0 174.89483667878696 20.508975348572676)"><path d="M0 0 L349.79 0 L349.79 41.02 L0 41.02" stroke="none" stroke-width="0" fill="#158bc2"></path><path d="M0 0 C84.36 0, 168.73 0, 349.79 0 M0 0 C105.94 0, 211.88 0, 349.79 0 M349.79 0 C349.79 10.31, 349.79 20.62, 349.79 41.02 M349.79 0 C349.79 14.34, 349.79 28.68, 349.79 41.02 M349.79 41.02 C264.53 41.02, 179.26 41.02, 0 41.02 M349.79 41.02 C262.51 41.02, 175.23 41.02, 0 41.02 M0 41.02 C0 26.21, 0 11.39, 0 0 M0 41.02 C0 30.81, 0 20.59, 0 0" stroke="#158bc2" stroke-width="1" fill="none"></path></g><g transform="translate(520.475528587658 134.58761727927413) rotate(0 55.248046875 16.09999999999991)"><text x="55.248046875" y="23.660546874999998" font-family="Helvetica, Segoe UI Emoji" font-size="28px" fill="white" text-anchor="middle" style="white-space: pre;" direction="ltr" dominant-baseline="alphabetic">Gateway</text></g><g stroke-linecap="round" transform="translate(454.313919488805 452.24351363905816) rotate(0 117.4492894822059 19.652907806299936)"><path d="M9.83 0 C59.27 0, 108.72 0, 225.07 0 C231.62 0, 234.9 3.28, 234.9 9.83 C234.9 16.27, 234.9 22.7, 234.9 29.48 C234.9 36.03, 231.62 39.31, 225.07 39.31 C159.84 39.31, 94.61 39.31, 9.83 39.31 C3.28 39.31, 0 36.03, 0 29.48 C0 24.52, 0 19.56, 0 9.83 C0 3.28, 3.28 0, 9.83 0" stroke="none" stroke-width="0" fill="#158bc2"></path><path d="M9.83 0 C81.37 0, 152.91 0, 225.07 0 M9.83 0 C64.53 0, 119.24 0, 225.07 0 M225.07 0 C231.62 0, 234.9 3.28, 234.9 9.83 M225.07 0 C231.62 0, 234.9 3.28, 234.9 9.83 M234.9 9.83 C234.9 14.04, 234.9 18.26, 234.9 29.48 M234.9 9.83 C234.9 14.71, 234.9 19.59, 234.9 29.48 M234.9 29.48 C234.9 36.03, 231.62 39.31, 225.07 39.31 M234.9 29.48 C234.9 36.03, 231.62 39.31, 225.07 39.31 M225.07 39.31 C175.7 39.31, 126.33 39.31, 9.83 39.31 M225.07 39.31 C140.36 39.31, 55.64 39.31, 9.83 39.31 M9.83 39.31 C3.28 39.31, 0 36.03, 0 29.48 M9.83 39.31 C3.28 39.31, 0 36.03, 0 29.48 M0 29.48 C0 23.47, 0 17.46, 0 9.83 M0 29.48 C0 22.35, 0 15.21, 0 9.83 M0 9.83 C0 3.28, 3.28 0, 9.83 0 M0 9.83 C0 3.28, 3.28 0, 9.83 0" stroke="#158bc2" stroke-width="2" fill="none"></path></g><g transform="translate(488.4581880851772 455.2016890462096) rotate(0 83.26171875 16.09999999999991)"><text x="83.26171875" y="23.660546874999998" font-family="Helvetica, Segoe UI Emoji" font-size="28px" fill="white" text-anchor="middle" style="white-space: pre;" direction="ltr" dominant-baseline="alphabetic">listener: https</text></g><g stroke-linecap="round" transform="translate(1256.9173036863226 201.60619173698115) rotate(0 117.48716581554646 19.274144472894477)"><path d="M9.64 0 C87.67 0, 165.71 0, 225.34 0 C231.76 0, 234.97 3.21, 234.97 9.64 C234.97 13.82, 234.97 18, 234.97 28.91 C234.97 35.34, 231.76 38.55, 225.34 38.55 C155.44 38.55, 85.55 38.55, 9.64 38.55 C3.21 38.55, 0 35.34, 0 28.91 C0 23.32, 0 17.73, 0 9.64 C0 3.21, 3.21 0, 9.64 0" stroke="none" stroke-width="0" fill="#158bc2"></path><path d="M9.64 0 C92.55 0, 175.46 0, 225.34 0 M9.64 0 C69.98 0, 130.33 0, 225.34 0 M225.34 0 C231.76 0, 234.97 3.21, 234.97 9.64 M225.34 0 C231.76 0, 234.97 3.21, 234.97 9.64 M234.97 9.64 C234.97 15.03, 234.97 20.42, 234.97 28.91 M234.97 9.64 C234.97 15.67, 234.97 21.7, 234.97 28.91 M234.97 28.91 C234.97 35.34, 231.76 38.55, 225.34 38.55 M234.97 28.91 C234.97 35.34, 231.76 38.55, 225.34 38.55 M225.34 38.55 C167.35 38.55, 109.36 38.55, 9.64 38.55 M225.34 38.55 C169.06 38.55, 112.78 38.55, 9.64 38.55 M9.64 38.55 C3.21 38.55, 0 35.34, 0 28.91 M9.64 38.55 C3.21 38.55, 0 35.34, 0 28.91 M0 28.91 C0 23.48, 0 18.04, 0 9.64 M0 28.91 C0 22.55, 0 16.19, 0 9.64 M0 9.64 C0 3.21, 3.21 0, 9.64 0 M0 9.64 C0 3.21, 3.21 0, 9.64 0" stroke="#158bc2" stroke-width="2" fill="none"></path></g><g transform="translate(1298.2354564254479 205.35191492135027) rotate(0 76.26171875 16.09999999999991)"><text x="76.26171875" y="23.660546874999998" font-family="Helvetica, Segoe UI Emoji" font-size="28px" fill="white" text-anchor="middle" style="white-space: pre;" direction="ltr" dominant-baseline="alphabetic">listener: http</text></g><g stroke-linecap="round" transform="translate(1201.7342664871103 131.96151527967322) rotate(0 174.30690956491986 281.30182618890535)"><path d="M0 0 C116.35 0, 232.7 0, 348.61 0 M0 0 C79.16 0, 158.33 0, 348.61 0 M348.61 0 C348.61 120.67, 348.61 241.34, 348.61 562.6 M348.61 0 C348.61 139.69, 348.61 279.38, 348.61 562.6 M348.61 562.6 C270.97 562.6, 193.33 562.6, 0 562.6 M348.61 562.6 C259.92 562.6, 171.22 562.6, 0 562.6 M0 562.6 C0 399.86, 0 237.12, 0 0 M0 562.6 C0 368.85, 0 175.09, 0 0" stroke="#158bc2" stroke-width="1" fill="none"></path></g><g stroke-linecap="round" transform="translate(1200.7144683719862 121.49516145128291) rotate(0 174.894836678787 20.508975348572676)"><path d="M0 0 L349.79 0 L349.79 41.02 L0 41.02" stroke="none" stroke-width="0" fill="#158bc2"></path><path d="M0 0 C87.92 0, 175.85 0, 349.79 0 M0 0 C122.29 0, 244.59 0, 349.79 0 M349.79 0 C349.79 10, 349.79 20, 349.79 41.02 M349.79 0 C349.79 10.24, 349.79 20.47, 349.79 41.02 M349.79 41.02 C223.48 41.02, 97.17 41.02, 0 41.02 M349.79 41.02 C262.7 41.02, 175.62 41.02, 0 41.02 M0 41.02 C0 25.45, 0 9.88, 0 0 M0 41.02 C0 26.67, 0 12.31, 0 0" stroke="#158bc2" stroke-width="1" fill="none"></path></g><g transform="translate(1321.5432490189696 127.0131483273417) rotate(0 55.248046875 16.09999999999991)"><text x="55.248046875" y="23.660546874999998" font-family="Helvetica, Segoe UI Emoji" font-size="28px" fill="white" text-anchor="middle" style="white-space: pre;" direction="ltr" dominant-baseline="alphabetic">Gateway</text></g><g stroke-linecap="round" transform="translate(1255.5662281035598 447.77989848456536) rotate(0 117.44928948220593 19.652907806299936)"><path d="M9.83 0 C88.72 0, 167.62 0, 225.07 0 C231.62 0, 234.9 3.28, 234.9 9.83 C234.9 15.24, 234.9 20.65, 234.9 29.48 C234.9 36.03, 231.62 39.31, 225.07 39.31 C156.69 39.31, 88.31 39.31, 9.83 39.31 C3.28 39.31, 0 36.03, 0 29.48 C0 22.17, 0 14.87, 0 9.83 C0 3.28, 3.28 0, 9.83 0" stroke="none" stroke-width="0" fill="#158bc2"></path><path d="M9.83 0 C72.93 0, 136.03 0, 225.07 0 M9.83 0 C86.85 0, 163.87 0, 225.07 0 M225.07 0 C231.62 0, 234.9 3.28, 234.9 9.83 M225.07 0 C231.62 0, 234.9 3.28, 234.9 9.83 M234.9 9.83 C234.9 14.2, 234.9 18.58, 234.9 29.48 M234.9 9.83 C234.9 14.83, 234.9 19.83, 234.9 29.48 M234.9 29.48 C234.9 36.03, 231.62 39.31, 225.07 39.31 M234.9 29.48 C234.9 36.03, 231.62 39.31, 225.07 39.31 M225.07 39.31 C141.5 39.31, 57.92 39.31, 9.83 39.31 M225.07 39.31 C181.82 39.31, 138.58 39.31, 9.83 39.31 M9.83 39.31 C3.28 39.31, 0 36.03, 0 29.48 M9.83 39.31 C3.28 39.31, 0 36.03, 0 29.48 M0 29.48 C0 24.1, 0 18.72, 0 9.83 M0 29.48 C0 24.36, 0 19.24, 0 9.83 M0 9.83 C0 3.28, 3.28 0, 9.83 0 M0 9.83 C0 3.28, 3.28 0, 9.83 0" stroke="#158bc2" stroke-width="2" fill="none"></path></g><g transform="translate(1289.7104966999318 450.7380738917168) rotate(0 83.26171875 16.09999999999991)"><text x="83.26171875" y="23.660546874999998" font-family="Helvetica, Segoe UI Emoji" font-size="28px" fill="white" text-anchor="middle" style="white-space: pre;" direction="ltr" dominant-baseline="alphabetic">listener: https</text></g><g stroke-linecap="round"><g transform="translate(1278.1692899981026 241.461647710345) rotate(0 0.15288642533892016 39.260666437637155)"><path d="M0 0 C0.09 24.02, 0.19 48.04, 0.31 78.52 M0 0 C0.09 24.22, 0.19 48.45, 0.31 78.52" stroke="#1e1e1e" stroke-width="1" fill="none"></path></g></g><mask></mask><g transform="translate(476.40293738511286 11.16996333917632) rotate(0 100.26045652836191 24.119859776874137)"><text x="0" y="35.446526265165105" font-family="Helvetica, Segoe UI Emoji" font-size="41.947582220650716px" fill="#1e1e1e" text-anchor="start" style="white-space: pre;" direction="ltr" dominant-baseline="alphabetic">Initial state</text></g><g transform="translate(1244.4651338198655 10) rotate(0 149.59552001953125 24.119859776874137)"><text x="0" y="35.446526265165105" font-family="Helvetica, Segoe UI Emoji" font-size="41.947582220650716px" fill="#1e1e1e" text-anchor="start" style="white-space: pre;" direction="ltr" dominant-baseline="alphabetic">Translated state</text></g><g stroke-linecap="round"><g transform="translate(787.1498369369434 39.83666439939407) rotate(0 196.04622347722704 -0.13301207336348853)"><path d="M0 0 C95.58 -0.06, 191.15 -0.13, 392.09 -0.27 M0 0 C97.84 -0.07, 195.68 -0.13, 392.09 -0.27" stroke="#1e1e1e" stroke-width="1" fill="none"></path></g><g transform="translate(787.1498369369434 39.83666439939407) rotate(0 196.04622347722704 -0.13301207336348853)"><path d="M392.09 -0.27 L378.5 6.08 L378.49 -6.6 L392.09 -0.27" stroke="none" stroke-width="0" fill="#1e1e1e" fill-rule="evenodd"></path><path d="M392.09 -0.27 C388.78 1.28, 385.47 2.83, 378.5 6.08 M392.09 -0.27 C388.7 1.32, 385.31 2.9, 378.5 6.08 M378.5 6.08 C378.5 1.5, 378.5 -3.07, 378.49 -6.6 M378.5 6.08 C378.5 2.93, 378.5 -0.23, 378.49 -6.6 M378.49 -6.6 C383.66 -4.19, 388.82 -1.79, 392.09 -0.27 M378.49 -6.6 C383.25 -4.38, 388.01 -2.17, 392.09 -0.27 M392.09 -0.27 C392.09 -0.27, 392.09 -0.27, 392.09 -0.27 M392.09 -0.27 C392.09 -0.27, 392.09 -0.27, 392.09 -0.27" stroke="#1e1e1e" stroke-width="1" fill="none"></path></g></g><mask></mask><g stroke-linecap="round"><g transform="translate(1265.3287229506564 270.9266149433556) rotate(0 45.53585024310007 60.71446699080025)" fill-rule="evenodd"><path d="M0 0 L60.71 0 L91.07 30.36 L91.07 121.43 L0 121.43 L0 0" stroke="none" stroke-width="0" fill="#fff" fill-rule="evenodd"></path><path d="M0 0 C17.56 0, 35.12 0, 60.71 0 M0 0 C20.91 0, 41.82 0, 60.71 0 M60.71 0 C68.22 7.5, 75.72 15.01, 91.07 30.36 M60.71 0 C66.91 6.19, 73.1 12.38, 91.07 30.36 M91.07 30.36 C91.07 51.18, 91.07 72, 91.07 121.43 M91.07 30.36 C91.07 63.03, 91.07 95.71, 91.07 121.43 M91.07 121.43 C58.12 121.43, 25.18 121.43, 0 121.43 M91.07 121.43 C61.23 121.43, 31.39 121.43, 0 121.43 M0 121.43 C0 76.78, 0 32.13, 0 0 M0 121.43 C0 87.98, 0 54.53, 0 0 M0 0 C0 0, 0 0, 0 0 M0 0 C0 0, 0 0, 0 0" stroke="#0fac7c" stroke-width="2" fill="none"></path></g></g><mask></mask><g stroke-linecap="round"><g transform="translate(1326.0431899414552 270.76256604821947) rotate(0 0 15.178616747699834)"><path d="M0 0 C0 11.52, 0 23.05, 0 30.36 M0 0 C0 10.62, 0 21.24, 0 30.36" stroke="#0fac7c" stroke-width="2" fill="none"></path></g></g><mask></mask><g stroke-linecap="round"><g transform="translate(1326.0431899414552 301.1197995436182) rotate(0 15.178616747700005 0)"><path d="M0 0 C11.25 0, 22.5 0, 30.36 0 M0 0 C11.06 0, 22.11 0, 30.36 0" stroke="#0fac7c" stroke-width="2" fill="none"></path></g></g><mask></mask><g stroke-linecap="round" transform="translate(1264.852783970065 387.08732550056675) rotate(0 46.378538196917134 12.96021782556727)"><path d="M0 0 L92.76 0 L92.76 25.92 L0 25.92" stroke="none" stroke-width="0" fill="#0fac7c"></path><path d="M0 0 C30.56 0, 61.11 0, 92.76 0 M0 0 C34.94 0, 69.89 0, 92.76 0 M92.76 0 C92.76 7.31, 92.76 14.61, 92.76 25.92 M92.76 0 C92.76 8.56, 92.76 17.11, 92.76 25.92 M92.76 25.92 C72.9 25.92, 53.04 25.92, 0 25.92 M92.76 25.92 C56.88 25.92, 21 25.92, 0 25.92 M0 25.92 C0 18.55, 0 11.19, 0 0 M0 25.92 C0 16.04, 0 6.17, 0 0" stroke="#0fac7c" stroke-width="1" fill="none"></path></g><g transform="translate(1273.1167775458862 319.517813652707) rotate(0 36.689453125 11.5)"><text x="36.689453125" y="16.900390625" font-family="Helvetica, Segoe UI Emoji" font-size="20px" fill="#1e1e1e" text-anchor="middle" style="white-space: pre;" direction="ltr" dominant-baseline="alphabetic">Caching</text></g><g transform="translate(1275.473969656462 389.72825639621306) rotate(0 35.0146484375 11.5)"><text x="35.0146484375" y="16.900390625" font-family="Helvetica, Segoe UI Emoji" font-size="20px" fill="white" text-anchor="middle" style="white-space: pre;" direction="ltr" dominant-baseline="alphabetic">Policy 1</text></g><g stroke-linecap="round"><g transform="translate(1284.921050479511 488.91296349456434) rotate(0 0.15288642533892016 39.260666437637155)"><path d="M0 0 C0.09 22.14, 0.17 44.27, 0.31 78.52 M0 0 C0.1 25.92, 0.2 51.83, 0.31 78.52" stroke="#1e1e1e" stroke-width="1" fill="none"></path></g></g><mask></mask><g stroke-linecap="round"><g transform="translate(1272.0804834320643 518.377930727575) rotate(0 45.53585024310007 60.71446699080025)" fill-rule="evenodd"><path d="M0 0 L60.71 0 L91.07 30.36 L91.07 121.43 L0 121.43 L0 0" stroke="none" stroke-width="0" fill="#fff" fill-rule="evenodd"></path><path d="M0 0 C17.2 0, 34.39 0, 60.71 0 M0 0 C15.38 0, 30.76 0, 60.71 0 M60.71 0 C70.86 10.15, 81.01 20.29, 91.07 30.36 M60.71 0 C69.29 8.57, 77.86 17.14, 91.07 30.36 M91.07 30.36 C91.07 54.93, 91.07 79.51, 91.07 121.43 M91.07 30.36 C91.07 57.69, 91.07 85.02, 91.07 121.43 M91.07 121.43 C61.56 121.43, 32.05 121.43, 0 121.43 M91.07 121.43 C68.09 121.43, 45.1 121.43, 0 121.43 M0 121.43 C0 81, 0 40.56, 0 0 M0 121.43 C0 76.28, 0 31.13, 0 0 M0 0 C0 0, 0 0, 0 0 M0 0 C0 0, 0 0, 0 0" stroke="#0fac7c" stroke-width="2" fill="none"></path></g></g><mask></mask><g stroke-linecap="round"><g transform="translate(1332.7949504228636 518.2138818324388) rotate(0 0 15.178616747699834)"><path d="M0 0 C0 10.53, 0 21.06, 0 30.36 M0 0 C0 12.07, 0 24.13, 0 30.36" stroke="#0fac7c" stroke-width="2" fill="none"></path></g></g><mask></mask><g stroke-linecap="round"><g transform="translate(1332.7949504228636 548.5711153278376) rotate(0 15.178616747700005 0)"><path d="M0 0 C10.72 0, 21.44 0, 30.36 0 M0 0 C11.52 0, 23.03 0, 30.36 0" stroke="#0fac7c" stroke-width="2" fill="none"></path></g></g><mask></mask><g stroke-linecap="round" transform="translate(1271.604544451473 634.5386412847861) rotate(0 46.378538196917134 12.96021782556727)"><path d="M0 0 L92.76 0 L92.76 25.92 L0 25.92" stroke="none" stroke-width="0" fill="#0fac7c"></path><path d="M0 0 C21.21 0, 42.41 0, 92.76 0 M0 0 C33.28 0, 66.56 0, 92.76 0 M92.76 0 C92.76 9.38, 92.76 18.75, 92.76 25.92 M92.76 0 C92.76 8.49, 92.76 16.99, 92.76 25.92 M92.76 25.92 C58.65 25.92, 24.55 25.92, 0 25.92 M92.76 25.92 C67.21 25.92, 41.65 25.92, 0 25.92 M0 25.92 C0 19.26, 0 12.59, 0 0 M0 25.92 C0 16.42, 0 6.92, 0 0" stroke="#0fac7c" stroke-width="1" fill="none"></path></g><g transform="translate(1279.868538027294 566.9691294369281) rotate(0 36.689453125 11.5)"><text x="36.689453125" y="16.900390625" font-family="Helvetica, Segoe UI Emoji" font-size="20px" fill="#1e1e1e" text-anchor="middle" style="white-space: pre;" direction="ltr" dominant-baseline="alphabetic">Caching</text></g><g transform="translate(1282.22573013787 637.1795721804324) rotate(0 35.0146484375 11.5)"><text x="35.0146484375" y="16.900390625" font-family="Helvetica, Segoe UI Emoji" font-size="20px" fill="white" text-anchor="middle" style="white-space: pre;" direction="ltr" dominant-baseline="alphabetic">Policy 1</text></g><g transform="translate(10 161.37169508331635) rotate(0 35.0146484375 11.5)"><text x="35.0146484375" y="16.900390625" font-family="Helvetica, Segoe UI Emoji" font-size="20px" fill="white" text-anchor="middle" style="white-space: pre;" direction="ltr" dominant-baseline="alphabetic">Policy 1</text></g><g stroke-linecap="round"><g transform="translate(21.25801853935002 269.5269205827767) rotate(0 45.53585024310007 60.71446699080025)" fill-rule="evenodd"><path d="M0 0 L60.71 0 L91.07 30.36 L91.07 121.43 L0 121.43 L0 0" stroke="none" stroke-width="0" fill="#fff" fill-rule="evenodd"></path><path d="M0 0 C24.14 0, 48.28 0, 60.71 0 M0 0 C12.15 0, 24.3 0, 60.71 0 M60.71 0 C71.07 10.36, 81.42 20.71, 91.07 30.36 M60.71 0 C70.2 9.48, 79.68 18.96, 91.07 30.36 M91.07 30.36 C91.07 52.55, 91.07 74.74, 91.07 121.43 M91.07 30.36 C91.07 65.47, 91.07 100.57, 91.07 121.43 M91.07 121.43 C72.02 121.43, 52.97 121.43, 0 121.43 M91.07 121.43 C55.28 121.43, 19.49 121.43, 0 121.43 M0 121.43 C0 83.44, 0 45.46, 0 0 M0 121.43 C0 88.28, 0 55.13, 0 0 M0 0 C0 0, 0 0, 0 0 M0 0 C0 0, 0 0, 0 0" stroke="#0fac7c" stroke-width="2" fill="none"></path></g></g><mask></mask><g stroke-linecap="round"><g transform="translate(81.97248553014936 269.36287168763965) rotate(0 0 15.178616747699834)"><path d="M0 0 C0 10.23, 0 20.46, 0 30.36 M0 0 C0 12.03, 0 24.06, 0 30.36" stroke="#0fac7c" stroke-width="2" fill="none"></path></g></g><mask></mask><g stroke-linecap="round"><g transform="translate(81.97248553014936 299.7201051830393) rotate(0 15.178616747700005 0)"><path d="M0 0 C9.61 0, 19.22 0, 30.36 0 M0 0 C11.2 0, 22.39 0, 30.36 0" stroke="#0fac7c" stroke-width="2" fill="none"></path></g></g><mask></mask><g stroke-linecap="round" transform="translate(20.78207955875871 385.68763113998784) rotate(0 46.378538196917134 12.96021782556727)"><path d="M0 0 L92.76 0 L92.76 25.92 L0 25.92" stroke="none" stroke-width="0" fill="#0fac7c"></path><path d="M0 0 C25.2 0, 50.4 0, 92.76 0 M0 0 C32.01 0, 64.02 0, 92.76 0 M92.76 0 C92.76 8.16, 92.76 16.31, 92.76 25.92 M92.76 0 C92.76 9.85, 92.76 19.7, 92.76 25.92 M92.76 25.92 C71.84 25.92, 50.91 25.92, 0 25.92 M92.76 25.92 C69.67 25.92, 46.58 25.92, 0 25.92 M0 25.92 C0 19.47, 0 13.03, 0 0 M0 25.92 C0 17.77, 0 9.62, 0 0" stroke="#0fac7c" stroke-width="1" fill="none"></path></g><g transform="translate(29.8413635479111 324.4619561855775) rotate(0 36.689453125 11.5)"><text x="36.689453125" y="16.900390625" font-family="Helvetica, Segoe UI Emoji" font-size="20px" fill="#1e1e1e" text-anchor="middle" style="white-space: pre;" direction="ltr" dominant-baseline="alphabetic">Caching</text></g><g transform="translate(31.403265245155694 388.32856203563415) rotate(0 35.0146484375 11.5)"><text x="35.0146484375" y="16.900390625" font-family="Helvetica, Segoe UI Emoji" font-size="20px" fill="white" text-anchor="middle" style="white-space: pre;" direction="ltr" dominant-baseline="alphabetic">Policy 1</text></g><g stroke-linecap="round"><g transform="translate(112.22705795748436 328.746728244299) rotate(0 142.63835367228893 -0.11766091892923214)"><path d="M0 0 C61.45 -0.05, 122.9 -0.1, 285.28 -0.24 M0 0 C82.94 -0.07, 165.88 -0.14, 285.28 -0.24" stroke="#1e1e1e" stroke-width="1" fill="none"></path></g><g transform="translate(112.22705795748436 328.746728244299) rotate(0 142.63835367228893 -0.11766091892923214)"><path d="M285.28 -0.24 L271.69 6.12 L271.68 -6.56 L285.28 -0.24" stroke="none" stroke-width="0" fill="#1e1e1e" fill-rule="evenodd"></path><path d="M285.28 -0.24 C282.35 1.13, 279.42 2.5, 271.69 6.12 M285.28 -0.24 C281.33 1.61, 277.37 3.46, 271.69 6.12 M271.69 6.12 C271.68 1.33, 271.68 -3.45, 271.68 -6.56 M271.69 6.12 C271.68 2.76, 271.68 -0.59, 271.68 -6.56 M271.68 -6.56 C276.29 -4.41, 280.91 -2.27, 285.28 -0.24 M271.68 -6.56 C274.67 -5.17, 277.66 -3.78, 285.28 -0.24 M285.28 -0.24 C285.28 -0.24, 285.28 -0.24, 285.28 -0.24 M285.28 -0.24 C285.28 -0.24, 285.28 -0.24, 285.28 -0.24" stroke="#1e1e1e" stroke-width="1" fill="none"></path></g></g><mask></mask><g stroke-linecap="round"><g transform="translate(234.1558124240156 360.90813137656596) rotate(0 81.55961165165354 -0.1453363058640207)"><path d="M0 0 C55.64 -0.1, 111.28 -0.2, 163.12 -0.29 M0 0 C50.95 -0.09, 101.9 -0.18, 163.12 -0.29" stroke="#1e1e1e" stroke-width="1" fill="none"></path></g><g transform="translate(234.1558124240156 360.90813137656596) rotate(0 81.55961165165354 -0.1453363058640207)"><path d="M163.12 -0.29 L149.54 6.07 L149.51 -6.61 L163.12 -0.29" stroke="none" stroke-width="0" fill="#1e1e1e" fill-rule="evenodd"></path><path d="M163.12 -0.29 C158.49 1.88, 153.85 4.05, 149.54 6.07 M163.12 -0.29 C158.88 1.7, 154.63 3.68, 149.54 6.07 M149.54 6.07 C149.53 2.98, 149.52 -0.11, 149.51 -6.61 M149.54 6.07 C149.53 1.19, 149.52 -3.7, 149.51 -6.61 M149.51 -6.61 C152.36 -5.28, 155.21 -3.96, 163.12 -0.29 M149.51 -6.61 C154.86 -4.12, 160.21 -1.64, 163.12 -0.29 M163.12 -0.29 C163.12 -0.29, 163.12 -0.29, 163.12 -0.29 M163.12 -0.29 C163.12 -0.29, 163.12 -0.29, 163.12 -0.29" stroke="#1e1e1e" stroke-width="1" fill="none"></path></g></g><mask></mask><g transform="translate(274.0985073606197 335.25519563879743) rotate(359.27908722660004 43.619642527120504 12.200211655751446)"><text x="0" y="17.92942110346739" font-family="Helvetica, Segoe UI Emoji" font-size="21.21775940130661px" fill="#1e1e1e" text-anchor="start" style="white-space: pre;" direction="ltr" dominant-baseline="alphabetic">targetRef</text></g><g stroke-linecap="round"><g transform="translate(146.86057325525906 270.53017264371965) rotate(0 45.53585024310007 60.71446699080025)" fill-rule="evenodd"><path d="M0 0 L60.71 0 L91.07 30.36 L91.07 121.43 L0 121.43 L0 0" stroke="none" stroke-width="0" fill="#fff" fill-rule="evenodd"></path><path d="M0 0 C14.63 0, 29.27 0, 60.71 0 M0 0 C23.38 0, 46.77 0, 60.71 0 M60.71 0 C71.89 11.18, 83.07 22.36, 91.07 30.36 M60.71 0 C67.67 6.96, 74.63 13.91, 91.07 30.36 M91.07 30.36 C91.07 56.99, 91.07 83.62, 91.07 121.43 M91.07 30.36 C91.07 65.59, 91.07 100.82, 91.07 121.43 M91.07 121.43 C61.66 121.43, 32.25 121.43, 0 121.43 M91.07 121.43 C66.91 121.43, 42.75 121.43, 0 121.43 M0 121.43 C0 92.64, 0 63.86, 0 0 M0 121.43 C0 74.13, 0 26.84, 0 0 M0 0 C0 0, 0 0, 0 0 M0 0 C0 0, 0 0, 0 0" stroke="#4e44df" stroke-width="2" fill="none"></path></g></g><mask></mask><g stroke-linecap="round"><g transform="translate(207.57504024605885 270.3661237485826) rotate(0 0 15.178616747699834)"><path d="M0 0 C0 9.55, 0 19.1, 0 30.36 M0 0 C0 11.54, 0 23.08, 0 30.36" stroke="#4e44df" stroke-width="2" fill="none"></path></g></g><mask></mask><g stroke-linecap="round"><g transform="translate(207.57504024605885 300.72335724398226) rotate(0 15.178616747700033 0)"><path d="M0 0 C7.88 0, 15.77 0, 30.36 0 M0 0 C8.51 0, 17.02 0, 30.36 0" stroke="#4e44df" stroke-width="2" fill="none"></path></g></g><mask></mask><g stroke-linecap="round" transform="translate(146.38463427466775 386.6908832009308) rotate(0 46.37853819691716 12.96021782556727)"><path d="M0 0 L92.76 0 L92.76 25.92 L0 25.92" stroke="none" stroke-width="0" fill="#4e44df"></path><path d="M0 0 C31.81 0, 63.61 0, 92.76 0 M0 0 C32.96 0, 65.91 0, 92.76 0 M92.76 0 C92.76 5.5, 92.76 11, 92.76 25.92 M92.76 0 C92.76 9.4, 92.76 18.8, 92.76 25.92 M92.76 25.92 C66.82 25.92, 40.87 25.92, 0 25.92 M92.76 25.92 C73.34 25.92, 53.92 25.92, 0 25.92 M0 25.92 C0 16.08, 0 6.24, 0 0 M0 25.92 C0 16.65, 0 7.38, 0 0" stroke="#4e44df" stroke-width="1" fill="none"></path></g><g transform="translate(158.8639296893383 388.47095405221125) rotate(0 35.0146484375 11.5)"><text x="35.0146484375" y="16.900390625" font-family="Helvetica, Segoe UI Emoji" font-size="20px" fill="white" text-anchor="middle" style="white-space: pre;" direction="ltr" dominant-baseline="alphabetic">Policy 2</text></g><g transform="translate(158.93995553431898 308.1775505917426) rotate(0 32.8076171875 23)"><text x="32.8076171875" y="16.900390625" font-family="Helvetica, Segoe UI Emoji" font-size="20px" fill="#1e1e1e" text-anchor="middle" style="white-space: pre;" direction="ltr" dominant-baseline="alphabetic">Traffic</text><text x="32.8076171875" y="39.900390625" font-family="Helvetica, Segoe UI Emoji" font-size="20px" fill="#1e1e1e" text-anchor="middle" style="white-space: pre;" direction="ltr" dominant-baseline="alphabetic">tapping</text></g></svg>