<svg version="1.1" xmlns="http://www.w3.org/2000/svg" viewBox="0 0 1653.8879350331622 699.6215741790238" width="3307.7758700663244" height="1399.2431483580476">
  <!-- svg-source:excalidraw -->
  
  <defs>
    <style class="style-fonts">
      
    </style>
    
  </defs>
  <rect x="0" y="0" width="1653.8879350331622" height="699.6215741790238" fill="#ffffff"></rect><g transform="translate(800.4322755503267 180.9280572275602) rotate(0 35.0146484375 11.5)"><text x="35.0146484375" y="16.900390625" font-family="Helvetica, Segoe UI Emoji" font-size="20px" fill="white" text-anchor="middle" style="white-space: pre;" direction="ltr" dominant-baseline="alphabetic">Policy 1</text></g><g stroke-linecap="round" transform="translate(549.0487883751698 206.0698068914735) rotate(0 117.48716581554663 19.274144472894704)"><path d="M9.64 0 C72.52 0, 135.39 0, 225.34 0 C231.76 0, 234.97 3.21, 234.97 9.64 C234.97 13.84, 234.97 18.05, 234.97 28.91 C234.97 35.34, 231.76 38.55, 225.34 38.55 C174.03 38.55, 122.73 38.55, 9.64 38.55 C3.21 38.55, 0 35.34, 0 28.91 C0 22.34, 0 15.76, 0 9.64 C0 3.21, 3.21 0, 9.64 0" stroke="none" stroke-width="0" fill="#158bc2"></path><path d="M9.64 0 C69.29 0, 128.93 0, 225.34 0 M9.64 0 C83.98 0, 158.31 0, 225.34 0 M225.34 0 C231.76 0, 234.97 3.21, 234.97 9.64 M225.34 0 C231.76 0, 234.97 3.21, 234.97 9.64 M234.97 9.64 C234.97 15.93, 234.97 22.23, 234.97 28.91 M234.97 9.64 C234.97 16.76, 234.97 23.89, 234.97 28.91 M234.97 28.91 C234.97 35.34, 231.76 38.55, 225.34 38.55 M234.97 28.91 C234.97 35.34, 231.76 38.55, 225.34 38.55 M225.34 38.55 C166.6 38.55, 107.87 38.55, 9.64 38.55 M225.34 38.55 C151.72 38.55, 78.11 38.55, 9.64 38.55 M9.64 38.55 C3.21 38.55, 0 35.34, 0 28.91 M9.64 38.55 C3.21 38.55, 0 35.34, 0 28.91 M0 28.91 C0 22.4, 0 15.89, 0 9.64 M0 28.91 C0 23.65, 0 18.38, 0 9.64 M0 9.64 C0 3.21, 3.21 0, 9.64 0 M0 9.64 C0 3.21, 3.21 0, 9.64 0" stroke="#158bc2" stroke-width="2" fill="none"></path></g><g transform="translate(590.366941114296 210.0574184417619) rotate(0 76.26171875 16.09999999999991)"><text x="76.26171875" y="23.660546874999998" font-family="Helvetica, Segoe UI Emoji" font-size="28px" fill="white" text-anchor="middle" style="white-space: pre;" direction="ltr" dominant-baseline="alphabetic">listener: http</text></g><g stroke-linecap="round" transform="translate(493.62349381537524 136.37046513317546) rotate(359.93787961041494 174.29971954814937 204.20870674833554)"><path d="M0 0 C108.5 0, 217.01 0, 348.6 0 M0 0 C87.02 0, 174.04 0, 348.6 0 M348.6 0 C348.6 132.65, 348.6 265.31, 348.6 408.42 M348.6 0 C348.6 152.16, 348.6 304.33, 348.6 408.42 M348.6 408.42 C231.3 408.42, 114.01 408.42, 0 408.42 M348.6 408.42 C274.77 408.42, 200.94 408.42, 0 408.42 M0 408.42 C0 310.89, 0 213.37, 0 0 M0 408.42 C0 261.43, 0 114.43, 0 0" stroke="#158bc2" stroke-width="1" fill="none"></path></g><g stroke-linecap="round" transform="translate(493.06206344587144 129.11019934707656) rotate(0 174.89483667878676 20.508975348572676)"><path d="M0 0 L349.79 0 L349.79 41.02 L0 41.02" stroke="none" stroke-width="0" fill="#158bc2"></path><path d="M0 0 C127.32 0, 254.65 0, 349.79 0 M0 0 C111.41 0, 222.82 0, 349.79 0 M349.79 0 C349.79 15.02, 349.79 30.05, 349.79 41.02 M349.79 0 C349.79 11.65, 349.79 23.31, 349.79 41.02 M349.79 41.02 C272.63 41.02, 195.46 41.02, 0 41.02 M349.79 41.02 C212.84 41.02, 75.89 41.02, 0 41.02 M0 41.02 C0 27.54, 0 14.05, 0 0 M0 41.02 C0 28.69, 0 16.36, 0 0" stroke="#158bc2" stroke-width="1" fill="none"></path></g><g transform="translate(613.8593218912606 134.58761727927595) rotate(0 55.248046875 16.09999999999991)"><text x="55.248046875" y="23.660546874999998" font-family="Helvetica, Segoe UI Emoji" font-size="28px" fill="white" text-anchor="middle" style="white-space: pre;" direction="ltr" dominant-baseline="alphabetic">Gateway</text></g><g stroke-linecap="round" transform="translate(547.697712792407 452.2435136390577) rotate(0 117.44928948220604 19.652907806300163)"><path d="M9.83 0 C66.13 0, 122.44 0, 225.07 0 C231.62 0, 234.9 3.28, 234.9 9.83 C234.9 15.06, 234.9 20.29, 234.9 29.48 C234.9 36.03, 231.62 39.31, 225.07 39.31 C145.66 39.31, 66.24 39.31, 9.83 39.31 C3.28 39.31, 0 36.03, 0 29.48 C0 22.79, 0 16.11, 0 9.83 C0 3.28, 3.28 0, 9.83 0" stroke="none" stroke-width="0" fill="#158bc2"></path><path d="M9.83 0 C95.65 0, 181.48 0, 225.07 0 M9.83 0 C61.26 0, 112.7 0, 225.07 0 M225.07 0 C231.62 0, 234.9 3.28, 234.9 9.83 M225.07 0 C231.62 0, 234.9 3.28, 234.9 9.83 M234.9 9.83 C234.9 16.44, 234.9 23.05, 234.9 29.48 M234.9 9.83 C234.9 13.99, 234.9 18.15, 234.9 29.48 M234.9 29.48 C234.9 36.03, 231.62 39.31, 225.07 39.31 M234.9 29.48 C234.9 36.03, 231.62 39.31, 225.07 39.31 M225.07 39.31 C174.71 39.31, 124.34 39.31, 9.83 39.31 M225.07 39.31 C170.6 39.31, 116.13 39.31, 9.83 39.31 M9.83 39.31 C3.28 39.31, 0 36.03, 0 29.48 M9.83 39.31 C3.28 39.31, 0 36.03, 0 29.48 M0 29.48 C0 23.02, 0 16.56, 0 9.83 M0 29.48 C0 24.02, 0 18.57, 0 9.83 M0 9.83 C0 3.28, 3.28 0, 9.83 0 M0 9.83 C0 3.28, 3.28 0, 9.83 0" stroke="#158bc2" stroke-width="2" fill="none"></path></g><g transform="translate(581.841981388779 455.20168904620914) rotate(0 83.26171875 16.09999999999991)"><text x="83.26171875" y="23.660546874999998" font-family="Helvetica, Segoe UI Emoji" font-size="28px" fill="white" text-anchor="middle" style="white-space: pre;" direction="ltr" dominant-baseline="alphabetic">listener: https</text></g><g stroke-linecap="round" transform="translate(1350.3010969899256 201.6061917369825) rotate(0 117.48716581554663 19.274144472894704)"><path d="M9.64 0 C72.05 0, 134.46 0, 225.34 0 C231.76 0, 234.97 3.21, 234.97 9.64 C234.97 13.69, 234.97 17.74, 234.97 28.91 C234.97 35.34, 231.76 38.55, 225.34 38.55 C169.77 38.55, 114.2 38.55, 9.64 38.55 C3.21 38.55, 0 35.34, 0 28.91 C0 23.92, 0 18.94, 0 9.64 C0 3.21, 3.21 0, 9.64 0" stroke="none" stroke-width="0" fill="#158bc2"></path><path d="M9.64 0 C74.08 0, 138.52 0, 225.34 0 M9.64 0 C57.95 0, 106.26 0, 225.34 0 M225.34 0 C231.76 0, 234.97 3.21, 234.97 9.64 M225.34 0 C231.76 0, 234.97 3.21, 234.97 9.64 M234.97 9.64 C234.97 14.41, 234.97 19.19, 234.97 28.91 M234.97 9.64 C234.97 15.61, 234.97 21.59, 234.97 28.91 M234.97 28.91 C234.97 35.34, 231.76 38.55, 225.34 38.55 M234.97 28.91 C234.97 35.34, 231.76 38.55, 225.34 38.55 M225.34 38.55 C149.12 38.55, 72.9 38.55, 9.64 38.55 M225.34 38.55 C162.49 38.55, 99.65 38.55, 9.64 38.55 M9.64 38.55 C3.21 38.55, 0 35.34, 0 28.91 M9.64 38.55 C3.21 38.55, 0 35.34, 0 28.91 M0 28.91 C0 21.83, 0 14.75, 0 9.64 M0 28.91 C0 21.51, 0 14.12, 0 9.64 M0 9.64 C0 3.21, 3.21 0, 9.64 0 M0 9.64 C0 3.21, 3.21 0, 9.64 0" stroke="#158bc2" stroke-width="2" fill="none"></path></g><g transform="translate(1391.61924972905 205.35191492135164) rotate(0 76.26171875 16.09999999999991)"><text x="76.26171875" y="23.660546874999998" font-family="Helvetica, Segoe UI Emoji" font-size="28px" fill="white" text-anchor="middle" style="white-space: pre;" direction="ltr" dominant-baseline="alphabetic">listener: http</text></g><g stroke-linecap="round" transform="translate(1294.8686124133596 132.64938532025553) rotate(0 174.3069095649198 278.48609442938414)"><path d="M0 0 C113.23 0, 226.46 0, 348.61 0 M0 0 C129.88 0, 259.76 0, 348.61 0 M348.61 0 C348.61 187.41, 348.61 374.82, 348.61 556.97 M348.61 0 C348.61 117.96, 348.61 235.92, 348.61 556.97 M348.61 556.97 C265.37 556.97, 182.13 556.97, 0 556.97 M348.61 556.97 C223.15 556.97, 97.68 556.97, 0 556.97 M0 556.97 C0 359.38, 0 161.79, 0 0 M0 556.97 C0 353.72, 0 150.47, 0 0" stroke="#158bc2" stroke-width="1" fill="none"></path></g><g stroke-linecap="round" transform="translate(1294.0982616755887 121.49516145128473) rotate(0 174.89483667878676 20.508975348572676)"><path d="M0 0 L349.79 0 L349.79 41.02 L0 41.02" stroke="none" stroke-width="0" fill="#158bc2"></path><path d="M0 0 C128.12 0, 256.25 0, 349.79 0 M0 0 C99.39 0, 198.78 0, 349.79 0 M349.79 0 C349.79 9.05, 349.79 18.1, 349.79 41.02 M349.79 0 C349.79 16.06, 349.79 32.12, 349.79 41.02 M349.79 41.02 C234.82 41.02, 119.84 41.02, 0 41.02 M349.79 41.02 C244.66 41.02, 139.53 41.02, 0 41.02 M0 41.02 C0 26.88, 0 12.74, 0 0 M0 41.02 C0 30.57, 0 20.13, 0 0" stroke="#158bc2" stroke-width="1" fill="none"></path></g><g transform="translate(1414.927042322572 127.0131483273417) rotate(0 55.248046875 16.09999999999991)"><text x="55.248046875" y="23.660546874999998" font-family="Helvetica, Segoe UI Emoji" font-size="28px" fill="white" text-anchor="middle" style="white-space: pre;" direction="ltr" dominant-baseline="alphabetic">Gateway</text></g><g stroke-linecap="round" transform="translate(1348.9500214071627 447.7798984845649) rotate(0 117.44928948220604 19.652907806300163)"><path d="M9.83 0 C63.86 0, 117.89 0, 225.07 0 C231.62 0, 234.9 3.28, 234.9 9.83 C234.9 17.23, 234.9 24.64, 234.9 29.48 C234.9 36.03, 231.62 39.31, 225.07 39.31 C158.69 39.31, 92.32 39.31, 9.83 39.31 C3.28 39.31, 0 36.03, 0 29.48 C0 22.87, 0 16.27, 0 9.83 C0 3.28, 3.28 0, 9.83 0" stroke="none" stroke-width="0" fill="#158bc2"></path><path d="M9.83 0 C74.44 0, 139.05 0, 225.07 0 M9.83 0 C64.53 0, 119.24 0, 225.07 0 M225.07 0 C231.62 0, 234.9 3.28, 234.9 9.83 M225.07 0 C231.62 0, 234.9 3.28, 234.9 9.83 M234.9 9.83 C234.9 14.52, 234.9 19.21, 234.9 29.48 M234.9 9.83 C234.9 16.9, 234.9 23.97, 234.9 29.48 M234.9 29.48 C234.9 36.03, 231.62 39.31, 225.07 39.31 M234.9 29.48 C234.9 36.03, 231.62 39.31, 225.07 39.31 M225.07 39.31 C174.65 39.31, 124.23 39.31, 9.83 39.31 M225.07 39.31 C162.21 39.31, 99.35 39.31, 9.83 39.31 M9.83 39.31 C3.28 39.31, 0 36.03, 0 29.48 M9.83 39.31 C3.28 39.31, 0 36.03, 0 29.48 M0 29.48 C0 21.65, 0 13.81, 0 9.83 M0 29.48 C0 24.17, 0 18.85, 0 9.83 M0 9.83 C0 3.28, 3.28 0, 9.83 0 M0 9.83 C0 3.28, 3.28 0, 9.83 0" stroke="#158bc2" stroke-width="2" fill="none"></path></g><g transform="translate(1383.0942900035348 450.73807389171634) rotate(0 83.26171875 16.09999999999991)"><text x="83.26171875" y="23.660546874999998" font-family="Helvetica, Segoe UI Emoji" font-size="28px" fill="white" text-anchor="middle" style="white-space: pre;" direction="ltr" dominant-baseline="alphabetic">listener: https</text></g><g stroke-linecap="round"><g transform="translate(1371.553083301705 241.46164771034637) rotate(0 0.15288642533914754 39.26066643763693)"><path d="M0 0 C0.12 31.04, 0.24 62.07, 0.31 78.52 M0 0 C0.08 21.01, 0.16 42.02, 0.31 78.52" stroke="#1e1e1e" stroke-width="1" fill="none"></path></g></g><mask></mask><g transform="translate(569.7867306887151 11.169963339178139) rotate(0 100.26045652836183 24.119859776874137)"><text x="0" y="35.446526265165105" font-family="Helvetica, Segoe UI Emoji" font-size="41.947582220650716px" fill="#1e1e1e" text-anchor="start" style="white-space: pre;" direction="ltr" dominant-baseline="alphabetic">Initial state</text></g><g transform="translate(1337.848927123468 10) rotate(0 149.59552001953125 24.119859776874137)"><text x="0" y="35.446526265165105" font-family="Helvetica, Segoe UI Emoji" font-size="41.947582220650716px" fill="#1e1e1e" text-anchor="start" style="white-space: pre;" direction="ltr" dominant-baseline="alphabetic">Translated state</text></g><g stroke-linecap="round"><g transform="translate(880.5336302405462 39.83666439939407) rotate(0 196.04622347722716 -0.13301207336348853)"><path d="M0 0 C86.5 -0.06, 172.99 -0.12, 392.09 -0.27 M0 0 C153.51 -0.1, 307.03 -0.21, 392.09 -0.27" stroke="#1e1e1e" stroke-width="1" fill="none"></path></g><g transform="translate(880.5336302405462 39.83666439939407) rotate(0 196.04622347722716 -0.13301207336348853)"><path d="M392.09 -0.27 L378.5 6.08 L378.49 -6.6 L392.09 -0.27" stroke="none" stroke-width="0" fill="#1e1e1e" fill-rule="evenodd"></path><path d="M392.09 -0.27 C389.09 1.13, 386.1 2.53, 378.5 6.08 M392.09 -0.27 C386.77 2.22, 381.45 4.71, 378.5 6.08 M378.5 6.08 C378.5 1.92, 378.5 -2.25, 378.49 -6.6 M378.5 6.08 C378.5 2.27, 378.5 -1.54, 378.49 -6.6 M378.49 -6.6 C383.18 -4.41, 387.87 -2.23, 392.09 -0.27 M378.49 -6.6 C381.96 -4.98, 385.42 -3.37, 392.09 -0.27 M392.09 -0.27 C392.09 -0.27, 392.09 -0.27, 392.09 -0.27 M392.09 -0.27 C392.09 -0.27, 392.09 -0.27, 392.09 -0.27" stroke="#1e1e1e" stroke-width="1" fill="none"></path></g></g><mask></mask><g stroke-linecap="round"><g transform="translate(10.768530454234678 161.05238008803417) rotate(0 45.53585024309996 60.71446699080002)" fill-rule="evenodd"><path d="M0 0 L60.71 0 L91.07 30.36 L91.07 121.43 L0 121.43 L0 0" stroke="none" stroke-width="0" fill="#fff" fill-rule="evenodd"></path><path d="M0 0 C19.96 0, 39.91 0, 60.71 0 M0 0 C18.25 0, 36.5 0, 60.71 0 M60.71 0 C71.18 10.47, 81.65 20.93, 91.07 30.36 M60.71 0 C68.44 7.73, 76.17 15.46, 91.07 30.36 M91.07 30.36 C91.07 60.28, 91.07 90.21, 91.07 121.43 M91.07 30.36 C91.07 55.64, 91.07 80.91, 91.07 121.43 M91.07 121.43 C54.77 121.43, 18.47 121.43, 0 121.43 M91.07 121.43 C66.45 121.43, 41.83 121.43, 0 121.43 M0 121.43 C0 86.81, 0 52.18, 0 0 M0 121.43 C0 96.16, 0 70.89, 0 0 M0 0 C0 0, 0 0, 0 0 M0 0 C0 0, 0 0, 0 0" stroke="#0fac7c" stroke-width="2" fill="none"></path></g></g><mask></mask><g stroke-linecap="round"><g transform="translate(71.48299744503402 160.8883311928971) rotate(0 0 15.178616747700062)"><path d="M0 0 C0 10.51, 0 21.02, 0 30.36 M0 0 C0 8.97, 0 17.93, 0 30.36" stroke="#0fac7c" stroke-width="2" fill="none"></path></g></g><mask></mask><g stroke-linecap="round"><g transform="translate(71.48299744503402 191.24556468829678) rotate(0 15.178616747700062 0)"><path d="M0 0 C7.34 0, 14.68 0, 30.36 0 M0 0 C8.08 0, 16.17 0, 30.36 0" stroke="#0fac7c" stroke-width="2" fill="none"></path></g></g><mask></mask><g stroke-linecap="round" transform="translate(10.29259147364337 277.2130906452453) rotate(0 46.378538196917134 12.96021782556727)"><path d="M0 0 L92.76 0 L92.76 25.92 L0 25.92" stroke="none" stroke-width="0" fill="#0fac7c"></path><path d="M0 0 C21.7 0, 43.41 0, 92.76 0 M0 0 C23.47 0, 46.95 0, 92.76 0 M92.76 0 C92.76 6.07, 92.76 12.14, 92.76 25.92 M92.76 0 C92.76 7.57, 92.76 15.14, 92.76 25.92 M92.76 25.92 C71.35 25.92, 49.94 25.92, 0 25.92 M92.76 25.92 C63.63 25.92, 34.49 25.92, 0 25.92 M0 25.92 C0 15.93, 0 5.93, 0 0 M0 25.92 C0 19.28, 0 12.63, 0 0" stroke="#0fac7c" stroke-width="1" fill="none"></path></g><g transform="translate(26.112548246045662 214.5569362301071) rotate(0 28.8916015625 11.5)"><text x="28.8916015625" y="16.900390625" font-family="Helvetica, Segoe UI Emoji" font-size="20px" fill="#1e1e1e" text-anchor="middle" style="white-space: pre;" direction="ltr" dominant-baseline="alphabetic">CORS</text></g><g transform="translate(22.298362471136443 281.18109300991773) rotate(0 35.0146484375 11.5)"><text x="35.0146484375" y="16.900390625" font-family="Helvetica, Segoe UI Emoji" font-size="20px" fill="white" text-anchor="middle" style="white-space: pre;" direction="ltr" dominant-baseline="alphabetic">Policy 1</text></g><g stroke-linecap="round"><g transform="translate(1358.7125162542593 270.926614943357) rotate(0 45.53585024309996 60.71446699080002)" fill-rule="evenodd"><path d="M0 0 L60.71 0 L91.07 30.36 L91.07 121.43 L0 121.43 L0 0" stroke="none" stroke-width="0" fill="#fff" fill-rule="evenodd"></path><path d="M0 0 C21.54 0, 43.08 0, 60.71 0 M0 0 C22.16 0, 44.31 0, 60.71 0 M60.71 0 C69.55 8.84, 78.39 17.68, 91.07 30.36 M60.71 0 C67.61 6.89, 74.5 13.79, 91.07 30.36 M91.07 30.36 C91.07 56.91, 91.07 83.45, 91.07 121.43 M91.07 30.36 C91.07 66.4, 91.07 102.43, 91.07 121.43 M91.07 121.43 C64.72 121.43, 38.37 121.43, 0 121.43 M91.07 121.43 C66.83 121.43, 42.58 121.43, 0 121.43 M0 121.43 C0 89.71, 0 57.99, 0 0 M0 121.43 C0 75.67, 0 29.92, 0 0 M0 0 C0 0, 0 0, 0 0 M0 0 C0 0, 0 0, 0 0" stroke="#0fac7c" stroke-width="2" fill="none"></path></g></g><mask></mask><g stroke-linecap="round"><g transform="translate(1419.4269832450586 270.762566048219) rotate(0 0 15.178616747700062)"><path d="M0 0 C0 10.47, 0 20.93, 0 30.36 M0 0 C0 7.73, 0 15.46, 0 30.36" stroke="#0fac7c" stroke-width="2" fill="none"></path></g></g><mask></mask><g stroke-linecap="round"><g transform="translate(1419.4269832450586 301.1197995436196) rotate(0 15.178616747699834 0)"><path d="M0 0 C6.38 0, 12.77 0, 30.36 0 M0 0 C6.42 0, 12.84 0, 30.36 0" stroke="#0fac7c" stroke-width="2" fill="none"></path></g></g><mask></mask><g stroke-linecap="round" transform="translate(1358.236577273668 387.0873255005681) rotate(0 46.37853819691736 12.96021782556727)"><path d="M0 0 L92.76 0 L92.76 25.92 L0 25.92" stroke="none" stroke-width="0" fill="#0fac7c"></path><path d="M0 0 C31.32 0, 62.64 0, 92.76 0 M0 0 C25.34 0, 50.68 0, 92.76 0 M92.76 0 C92.76 9.52, 92.76 19.04, 92.76 25.92 M92.76 0 C92.76 9.95, 92.76 19.9, 92.76 25.92 M92.76 25.92 C64.15 25.92, 35.55 25.92, 0 25.92 M92.76 25.92 C60.94 25.92, 29.13 25.92, 0 25.92 M0 25.92 C0 18.3, 0 10.68, 0 0 M0 25.92 C0 17.47, 0 9.01, 0 0" stroke="#0fac7c" stroke-width="1" fill="none"></path></g><g transform="translate(1374.0565340460703 331.0906601596271) rotate(0 28.8916015625 11.5)"><text x="28.8916015625" y="16.900390625" font-family="Helvetica, Segoe UI Emoji" font-size="20px" fill="#1e1e1e" text-anchor="middle" style="white-space: pre;" direction="ltr" dominant-baseline="alphabetic">CORS</text></g><g transform="translate(1368.8577629600636 389.7282563962144) rotate(0 35.0146484375 11.5)"><text x="35.0146484375" y="16.900390625" font-family="Helvetica, Segoe UI Emoji" font-size="20px" fill="white" text-anchor="middle" style="white-space: pre;" direction="ltr" dominant-baseline="alphabetic">Policy 1</text></g><g transform="translate(315.62313396282116 435.7818971968941) rotate(359.4817649676382 44.18152455738186 12.357367452947301)"><text x="0" y="18.160377134910437" font-family="Helvetica, Segoe UI Emoji" font-size="21.491073831212628px" fill="#1e1e1e" text-anchor="start" style="white-space: pre;" direction="ltr" dominant-baseline="alphabetic">targetRef</text></g><g stroke-linecap="round"><g transform="translate(10.476929067004676 372.8694769852709) rotate(0 45.630577568491844 60.84077009132261)" fill-rule="evenodd"><path d="M0 0 L60.84 0 L91.26 30.42 L91.26 121.68 L0 121.68 L0 0" stroke="none" stroke-width="0" fill="#fff" fill-rule="evenodd"></path><path d="M0 0 C15.57 0, 31.15 0, 60.84 0 M0 0 C21.46 0, 42.91 0, 60.84 0 M60.84 0 C69.35 8.51, 77.86 17.02, 91.26 30.42 M60.84 0 C67.48 6.64, 74.12 13.28, 91.26 30.42 M91.26 30.42 C91.26 58.87, 91.26 87.31, 91.26 121.68 M91.26 30.42 C91.26 49.61, 91.26 68.79, 91.26 121.68 M91.26 121.68 C57.59 121.68, 23.92 121.68, 0 121.68 M91.26 121.68 C70.32 121.68, 49.38 121.68, 0 121.68 M0 121.68 C0 84.16, 0 46.63, 0 0 M0 121.68 C0 76.32, 0 30.95, 0 0 M0 0 C0 0, 0 0, 0 0 M0 0 C0 0, 0 0, 0 0" stroke="#7e4bc6" stroke-width="2" fill="none"></path></g></g><mask></mask><g stroke-linecap="round"><g transform="translate(71.31769915832683 372.7050868224742) rotate(0 0 15.210192522830539)"><path d="M0 0 C0 11.17, 0 22.35, 0 30.42 M0 0 C0 11.67, 0 23.35, 0 30.42" stroke="#7e4bc6" stroke-width="2" fill="none"></path></g></g><mask></mask><g stroke-linecap="round"><g transform="translate(71.31769915832683 403.1254718681348) rotate(0 15.210192522830539 0)"><path d="M0 0 C7.02 0, 14.04 0, 30.42 0 M0 0 C9.55 0, 19.11 0, 30.42 0" stroke="#7e4bc6" stroke-width="2" fill="none"></path></g></g><mask></mask><g stroke-linecap="round" transform="translate(10 489.27183436291034) rotate(0 46.47501854933239 12.987178709454383)"><path d="M0 0 L92.95 0 L92.95 25.97 L0 25.97" stroke="none" stroke-width="0" fill="#7e4bc6"></path><path d="M0 0 C28.91 0, 57.81 0, 92.95 0 M0 0 C30.33 0, 60.67 0, 92.95 0 M92.95 0 C92.95 6.79, 92.95 13.59, 92.95 25.97 M92.95 0 C92.95 5.38, 92.95 10.75, 92.95 25.97 M92.95 25.97 C69.62 25.97, 46.29 25.97, 0 25.97 M92.95 25.97 C68.01 25.97, 43.06 25.97, 0 25.97 M0 25.97 C0 16.09, 0 6.21, 0 0 M0 25.97 C0 16.7, 0 7.44, 0 0" stroke="#7e4bc6" stroke-width="1" fill="none"></path></g><g transform="translate(22.66045466995729 491.05560826024885) rotate(0 35.08748871561738 11.523923221729547)"><text x="35.08748871561741" y="16.93554817215102" font-family="Helvetica, Segoe UI Emoji" font-size="20.041605603007795px" fill="white" text-anchor="middle" style="white-space: pre;" direction="ltr" dominant-baseline="alphabetic">Policy 3</text></g><g transform="translate(25.11923827906776 426.6653682734959) rotate(0 28.949378967285156 11.523923221729547)"><text x="28.949378967285156" y="16.93554817215102" font-family="Helvetica, Segoe UI Emoji" font-size="20.041605603007795px" fill="#1e1e1e" text-anchor="middle" style="white-space: pre;" direction="ltr" dominant-baseline="alphabetic">CORS</text></g><g stroke-linecap="round"><g transform="translate(1373.0333939432262 489.67361235631597) rotate(0 0.15288642533914754 39.26066643763693)"><path d="M0 0 C0.12 31.3, 0.24 62.6, 0.31 78.52 M0 0 C0.08 21.23, 0.17 42.46, 0.31 78.52" stroke="#1e1e1e" stroke-width="1" fill="none"></path></g></g><mask></mask><g stroke-linecap="round"><g transform="translate(1359.3110200075266 519.9274875784085) rotate(0 45.53585024309996 60.71446699080002)" fill-rule="evenodd"><path d="M0 0 L60.71 0 L91.07 30.36 L91.07 121.43 L0 121.43 L0 0" stroke="none" stroke-width="0" fill="#fff" fill-rule="evenodd"></path><path d="M0 0 C16.98 0, 33.97 0, 60.71 0 M0 0 C13.25 0, 26.51 0, 60.71 0 M60.71 0 C70.18 9.46, 79.64 18.92, 91.07 30.36 M60.71 0 C67.1 6.38, 73.48 12.76, 91.07 30.36 M91.07 30.36 C91.07 63.96, 91.07 97.56, 91.07 121.43 M91.07 30.36 C91.07 51.25, 91.07 72.15, 91.07 121.43 M91.07 121.43 C62.99 121.43, 34.9 121.43, 0 121.43 M91.07 121.43 C57.12 121.43, 23.16 121.43, 0 121.43 M0 121.43 C0 75.29, 0 29.14, 0 0 M0 121.43 C0 81.34, 0 41.24, 0 0 M0 0 C0 0, 0 0, 0 0 M0 0 C0 0, 0 0, 0 0" stroke="#7e4bc6" stroke-width="2" fill="none"></path></g></g><mask></mask><g stroke-linecap="round"><g transform="translate(1420.025486998326 519.7634386832715) rotate(0 0 15.178616747700062)"><path d="M0 0 C0 9.36, 0 18.72, 0 30.36 M0 0 C0 10.41, 0 20.82, 0 30.36" stroke="#7e4bc6" stroke-width="2" fill="none"></path></g></g><mask></mask><g stroke-linecap="round"><g transform="translate(1420.025486998326 550.1206721786712) rotate(0 15.178616747699834 0)"><path d="M0 0 C11.7 0, 23.41 0, 30.36 0 M0 0 C7.78 0, 15.57 0, 30.36 0" stroke="#7e4bc6" stroke-width="2" fill="none"></path></g></g><mask></mask><g stroke-linecap="round" transform="translate(1358.8350810269353 636.0881981356197) rotate(0 46.37853819691736 12.96021782556727)"><path d="M0 0 L92.76 0 L92.76 25.92 L0 25.92" stroke="none" stroke-width="0" fill="#7e4bc6"></path><path d="M0 0 C24.26 0, 48.53 0, 92.76 0 M0 0 C19.2 0, 38.41 0, 92.76 0 M92.76 0 C92.76 6.51, 92.76 13.01, 92.76 25.92 M92.76 0 C92.76 6.96, 92.76 13.91, 92.76 25.92 M92.76 25.92 C57.48 25.92, 22.19 25.92, 0 25.92 M92.76 25.92 C59.66 25.92, 26.55 25.92, 0 25.92 M0 25.92 C0 19.28, 0 12.63, 0 0 M0 25.92 C0 15.57, 0 5.21, 0 0" stroke="#7e4bc6" stroke-width="1" fill="none"></path></g><g transform="translate(1371.469253079555 637.8682689869001) rotate(0 35.0146484375 11.5)"><text x="35.0146484375" y="16.900390625" font-family="Helvetica, Segoe UI Emoji" font-size="20px" fill="white" text-anchor="middle" style="white-space: pre;" direction="ltr" dominant-baseline="alphabetic">Policy 3</text></g><g transform="translate(1373.9206119549985 573.6117006637623) rotate(0 28.8916015625 11.5)"><text x="28.8916015625" y="16.900390625" font-family="Helvetica, Segoe UI Emoji" font-size="20px" fill="#1e1e1e" text-anchor="middle" style="white-space: pre;" direction="ltr" dominant-baseline="alphabetic">CORS</text></g><g stroke-linecap="round"><g transform="translate(100.90726937858835 430.8136583279211) rotate(0 195.70221461550886 0.12741582617445601)"><path d="M0 0 C150.05 0.1, 300.09 0.2, 391.4 0.25 M0 0 C92.78 0.06, 185.55 0.12, 391.4 0.25" stroke="#1e1e1e" stroke-width="1" fill="none"></path></g><g transform="translate(100.90726937858835 430.8136583279211) rotate(0 195.70221461550886 0.12741582617445601)"><path d="M391.4 0.25 L377.81 6.59 L377.81 -6.09 L391.4 0.25" stroke="none" stroke-width="0" fill="#1e1e1e" fill-rule="evenodd"></path><path d="M391.4 0.25 C386.19 2.68, 380.98 5.11, 377.81 6.59 M391.4 0.25 C388.18 1.76, 384.96 3.26, 377.81 6.59 M377.81 6.59 C377.81 2.7, 377.81 -1.19, 377.81 -6.09 M377.81 6.59 C377.81 3.15, 377.81 -0.29, 377.81 -6.09 M377.81 -6.09 C382.42 -3.94, 387.03 -1.79, 391.4 0.25 M377.81 -6.09 C381.74 -4.26, 385.67 -2.42, 391.4 0.25 M391.4 0.25 C391.4 0.25, 391.4 0.25, 391.4 0.25 M391.4 0.25 C391.4 0.25, 391.4 0.25, 391.4 0.25" stroke="#1e1e1e" stroke-width="1" fill="none"></path></g></g><mask></mask><g stroke-linecap="round"><g transform="translate(100.73738161035635 215.12944739381282) rotate(0 224.02675277408412 0.07220230149891904)"><path d="M0 0 C165.31 0.05, 330.62 0.11, 448.05 0.14 M0 0 C102.81 0.03, 205.61 0.07, 448.05 0.14" stroke="#1e1e1e" stroke-width="1" fill="none"></path></g><g transform="translate(100.73738161035635 215.12944739381282) rotate(0 224.02675277408412 0.07220230149891904)"><path d="M448.05 0.14 L434.46 6.48 L434.46 -6.2 L448.05 0.14" stroke="none" stroke-width="0" fill="#1e1e1e" fill-rule="evenodd"></path><path d="M448.05 0.14 C443.04 2.48, 438.02 4.82, 434.46 6.48 M448.05 0.14 C444.93 1.6, 441.81 3.05, 434.46 6.48 M434.46 6.48 C434.46 2.57, 434.46 -1.34, 434.46 -6.2 M434.46 6.48 C434.46 1.75, 434.46 -2.97, 434.46 -6.2 M434.46 -6.2 C439.63 -3.79, 444.79 -1.38, 448.05 0.14 M434.46 -6.2 C438.95 -4.1, 443.44 -2.01, 448.05 0.14 M448.05 0.14 C448.05 0.14, 448.05 0.14, 448.05 0.14 M448.05 0.14 C448.05 0.14, 448.05 0.14, 448.05 0.14" stroke="#1e1e1e" stroke-width="1" fill="none"></path></g></g><mask></mask><g stroke-linecap="round"><g transform="translate(234.60044858920946 461.7841984767183) rotate(0 129.4899300782697 0)"><path d="M0 0 C66.72 0, 133.44 0, 258.98 0 M0 0 C88.1 0, 176.19 0, 258.98 0" stroke="#1e1e1e" stroke-width="1" fill="none"></path></g><g transform="translate(234.60044858920946 461.7841984767183) rotate(0 129.4899300782697 0)"><path d="M258.98 0 L245.39 6.34 L245.39 -6.34 L258.98 0" stroke="none" stroke-width="0" fill="#1e1e1e" fill-rule="evenodd"></path><path d="M258.98 0 C255.48 1.63, 251.98 3.27, 245.39 6.34 M258.98 0 C254.36 2.16, 249.73 4.31, 245.39 6.34 M245.39 6.34 C245.39 2.55, 245.39 -1.23, 245.39 -6.34 M245.39 6.34 C245.39 2.08, 245.39 -2.18, 245.39 -6.34 M245.39 -6.34 C250.16 -4.11, 254.93 -1.89, 258.98 0 M245.39 -6.34 C248.85 -4.72, 252.32 -3.1, 258.98 0 M258.98 0 C258.98 0, 258.98 0, 258.98 0 M258.98 0 C258.98 0, 258.98 0, 258.98 0" stroke="#1e1e1e" stroke-width="1" fill="none"></path></g></g><mask></mask><g stroke-linecap="round"><g transform="translate(142.49477567146732 165.84830696579047) rotate(0 45.53585024309996 60.71446699080002)" fill-rule="evenodd"><path d="M0 0 L60.71 0 L91.07 30.36 L91.07 121.43 L0 121.43 L0 0" stroke="none" stroke-width="0" fill="#fff" fill-rule="evenodd"></path><path d="M0 0 C15.05 0, 30.1 0, 60.71 0 M0 0 C18.82 0, 37.64 0, 60.71 0 M60.71 0 C71.23 10.51, 81.74 21.02, 91.07 30.36 M60.71 0 C69.68 8.97, 78.65 17.93, 91.07 30.36 M91.07 30.36 C91.07 49.51, 91.07 68.66, 91.07 121.43 M91.07 30.36 C91.07 49.62, 91.07 68.89, 91.07 121.43 M91.07 121.43 C67.76 121.43, 44.45 121.43, 0 121.43 M91.07 121.43 C58.96 121.43, 26.84 121.43, 0 121.43 M0 121.43 C0 87.46, 0 53.5, 0 0 M0 121.43 C0 94.92, 0 68.42, 0 0 M0 0 C0 0, 0 0, 0 0 M0 0 C0 0, 0 0, 0 0" stroke="#e005a3" stroke-width="2" fill="none"></path></g></g><mask></mask><g stroke-linecap="round"><g transform="translate(203.20924266226666 165.6842580706534) rotate(0 0 15.178616747700062)"><path d="M0 0 C0 9.25, 0 18.5, 0 30.36 M0 0 C0 7.64, 0 15.27, 0 30.36" stroke="#e005a3" stroke-width="2" fill="none"></path></g></g><mask></mask><g stroke-linecap="round"><g transform="translate(203.20924266226666 196.04149156605308) rotate(0 15.178616747700062 0)"><path d="M0 0 C11.91 0, 23.82 0, 30.36 0 M0 0 C6.72 0, 13.45 0, 30.36 0" stroke="#e005a3" stroke-width="2" fill="none"></path></g></g><mask></mask><g stroke-linecap="round" transform="translate(142.01883669087601 282.0090175230016) rotate(0 46.378538196917134 12.96021782556727)"><path d="M0 0 L92.76 0 L92.76 25.92 L0 25.92" stroke="none" stroke-width="0" fill="#e005a3"></path><path d="M0 0 C32.4 0, 64.8 0, 92.76 0 M0 0 C25.43 0, 50.86 0, 92.76 0 M92.76 0 C92.76 5.99, 92.76 11.98, 92.76 25.92 M92.76 0 C92.76 6.26, 92.76 12.52, 92.76 25.92 M92.76 25.92 C69.51 25.92, 46.27 25.92, 0 25.92 M92.76 25.92 C68.33 25.92, 43.91 25.92, 0 25.92 M0 25.92 C0 17.86, 0 9.8, 0 0 M0 25.92 C0 17.46, 0 9, 0 0" stroke="#e005a3" stroke-width="1" fill="none"></path></g><g transform="translate(156.42635827498634 286.8443394141368) rotate(0 35.0146484375 11.5)"><text x="35.0146484375" y="16.900390625" font-family="Helvetica, Segoe UI Emoji" font-size="20px" fill="white" text-anchor="middle" style="white-space: pre;" direction="ltr" dominant-baseline="alphabetic">Policy 2</text></g><g transform="translate(159.23727634812485 222.4286570020522) rotate(0 28.8916015625 11.5)"><text x="28.8916015625" y="16.900390625" font-family="Helvetica, Segoe UI Emoji" font-size="20px" fill="#1e1e1e" text-anchor="middle" style="white-space: pre;" direction="ltr" dominant-baseline="alphabetic">CORS</text></g><g stroke-linecap="round"><g transform="translate(236.14087915452455 239.73051427086557) rotate(0 155.66391483729785 -0.1911237392619114)"><path d="M0 0 C91.61 -0.11, 183.22 -0.22, 311.33 -0.38 M0 0 C99.66 -0.12, 199.33 -0.24, 311.33 -0.38" stroke="#1e1e1e" stroke-width="1" fill="none"></path></g><g transform="translate(236.14087915452455 239.73051427086557) rotate(0 155.66391483729785 -0.1911237392619114)"><path d="M311.33 -0.38 L297.74 5.97 L297.73 -6.7 L311.33 -0.38" stroke="none" stroke-width="0" fill="#1e1e1e" fill-rule="evenodd"></path><path d="M311.33 -0.38 C307.33 1.49, 303.33 3.36, 297.74 5.97 M311.33 -0.38 C306.98 1.65, 302.63 3.69, 297.74 5.97 M297.74 5.97 C297.74 1.27, 297.73 -3.44, 297.73 -6.7 M297.74 5.97 C297.74 3.34, 297.73 0.7, 297.73 -6.7 M297.73 -6.7 C301.48 -4.96, 305.23 -3.22, 311.33 -0.38 M297.73 -6.7 C301.91 -4.76, 306.1 -2.81, 311.33 -0.38 M311.33 -0.38 C311.33 -0.38, 311.33 -0.38, 311.33 -0.38 M311.33 -0.38 C311.33 -0.38, 311.33 -0.38, 311.33 -0.38" stroke="#1e1e1e" stroke-width="1" fill="none"></path></g></g><mask></mask><g stroke-linecap="round"><g transform="translate(141.5410888967649 371.6095830088884) rotate(0 45.488762212494066 60.651682949992164)" fill-rule="evenodd"><path d="M0 0 L60.65 0 L90.98 30.33 L90.98 121.3 L0 121.3 L0 0" stroke="none" stroke-width="0" fill="#fff" fill-rule="evenodd"></path><path d="M0 0 C17.29 0, 34.59 0, 60.65 0 M0 0 C12.62 0, 25.25 0, 60.65 0 M60.65 0 C72.28 11.63, 83.9 23.25, 90.98 30.33 M60.65 0 C67.84 7.19, 75.03 14.38, 90.98 30.33 M90.98 30.33 C90.98 58.22, 90.98 86.11, 90.98 121.3 M90.98 30.33 C90.98 54.99, 90.98 79.65, 90.98 121.3 M90.98 121.3 C60.11 121.3, 29.25 121.3, 0 121.3 M90.98 121.3 C64.68 121.3, 38.38 121.3, 0 121.3 M0 121.3 C0 73.97, 0 26.65, 0 0 M0 121.3 C0 81.11, 0 40.92, 0 0 M0 0 C0 0, 0 0, 0 0 M0 0 C0 0, 0 0, 0 0" stroke="#f08c00" stroke-width="2" fill="none"></path></g></g><mask></mask><g stroke-linecap="round"><g transform="translate(202.1927718467564 371.4457037545794) rotate(0 0 15.162920737498098)"><path d="M0 0 C0 9.45, 0 18.91, 0 30.33 M0 0 C0 6.38, 0 12.75, 0 30.33" stroke="#f08c00" stroke-width="2" fill="none"></path></g></g><mask></mask><g stroke-linecap="round"><g transform="translate(202.1927718467564 401.7715452295756) rotate(0 15.162920737498098 0)"><path d="M0 0 C8.92 0, 17.84 0, 30.33 0 M0 0 C9.89 0, 19.78 0, 30.33 0" stroke="#f08c00" stroke-width="2" fill="none"></path></g></g><mask></mask><g stroke-linecap="round" transform="translate(141.06564207848396 487.650173285821) rotate(0 46.33057875365603 12.946815832843413)"><path d="M0 0 L92.66 0 L92.66 25.89 L0 25.89" stroke="none" stroke-width="0" fill="#f08c00"></path><path d="M0 0 C22.04 0, 44.08 0, 92.66 0 M0 0 C29.16 0, 58.32 0, 92.66 0 M92.66 0 C92.66 6.67, 92.66 13.34, 92.66 25.89 M92.66 0 C92.66 8.81, 92.66 17.62, 92.66 25.89 M92.66 25.89 C65 25.89, 37.34 25.89, 0 25.89 M92.66 25.89 C61.51 25.89, 30.36 25.89, 0 25.89 M0 25.89 C0 16.81, 0 7.72, 0 0 M0 25.89 C0 19.29, 0 12.68, 0 0" stroke="#f08c00" stroke-width="1" fill="none"></path></g><g transform="translate(149.84435696896207 489.829030995033) rotate(0 35.48377227783203 11.488107999541398)"><text x="35.48377227783203" y="16.882914150820767" font-family="Helvetica, Segoe UI Emoji" font-size="19.97931826007219px" fill="white" text-anchor="middle" style="white-space: pre;" direction="ltr" dominant-baseline="alphabetic">Policy 4</text></g><g transform="translate(157.76913559491322 426.314177545431) rotate(0 28.861725133019263 11.488107999541398)"><text x="28.861725133019323" y="16.882914150820767" font-family="Helvetica, Segoe UI Emoji" font-size="19.97931826007219px" fill="#1e1e1e" text-anchor="middle" style="white-space: pre;" direction="ltr" dominant-baseline="alphabetic">CORS</text></g><g stroke-linecap="round" transform="translate(333.99623365648495 197.55587580712972) rotate(0 46.22646173608223 9.343827252791243)"><path d="M4.67 0 C37.02 0, 69.36 0, 87.78 0 C90.9 0, 92.45 1.56, 92.45 4.67 C92.45 7.3, 92.45 9.93, 92.45 14.02 C92.45 17.13, 90.9 18.69, 87.78 18.69 C59.97 18.69, 32.15 18.69, 4.67 18.69 C1.56 18.69, 0 17.13, 0 14.02 C0 11.46, 0 8.91, 0 4.67 C0 1.56, 1.56 0, 4.67 0" stroke="none" stroke-width="0" fill="#fff"></path><path d="M4.67 0 C34.92 0, 65.16 0, 87.78 0 M4.67 0 C23.87 0, 43.07 0, 87.78 0 M87.78 0 C90.9 0, 92.45 1.56, 92.45 4.67 M87.78 0 C90.9 0, 92.45 1.56, 92.45 4.67 M92.45 4.67 C92.45 8.03, 92.45 11.4, 92.45 14.02 M92.45 4.67 C92.45 8.31, 92.45 11.95, 92.45 14.02 M92.45 14.02 C92.45 17.13, 90.9 18.69, 87.78 18.69 M92.45 14.02 C92.45 17.13, 90.9 18.69, 87.78 18.69 M87.78 18.69 C56.23 18.69, 24.69 18.69, 4.67 18.69 M87.78 18.69 C55.77 18.69, 23.76 18.69, 4.67 18.69 M4.67 18.69 C1.56 18.69, 0 17.13, 0 14.02 M4.67 18.69 C1.56 18.69, 0 17.13, 0 14.02 M0 14.02 C0 10.72, 0 7.42, 0 4.67 M0 14.02 C0 11.23, 0 8.45, 0 4.67 M0 4.67 C0 1.56, 1.56 0, 4.67 0 M0 4.67 C0 1.56, 1.56 0, 4.67 0" stroke="#ffffff" stroke-width="1" fill="none"></path></g><g stroke-linecap="round" transform="translate(293.2444052516971 232.75662138491816) rotate(0 87.5346725818315 8.715242510330881)"><path d="M4.36 0 C50.86 0, 97.36 0, 170.71 0 C173.62 0, 175.07 1.45, 175.07 4.36 C175.07 6.99, 175.07 9.62, 175.07 13.07 C175.07 15.98, 173.62 17.43, 170.71 17.43 C116.45 17.43, 62.18 17.43, 4.36 17.43 C1.45 17.43, 0 15.98, 0 13.07 C0 11.18, 0 9.3, 0 4.36 C0 1.45, 1.45 0, 4.36 0" stroke="none" stroke-width="0" fill="#fff"></path><path d="M4.36 0 C65.59 0, 126.82 0, 170.71 0 M4.36 0 C40.67 0, 76.98 0, 170.71 0 M170.71 0 C173.62 0, 175.07 1.45, 175.07 4.36 M170.71 0 C173.62 0, 175.07 1.45, 175.07 4.36 M175.07 4.36 C175.07 7.44, 175.07 10.51, 175.07 13.07 M175.07 4.36 C175.07 7.08, 175.07 9.8, 175.07 13.07 M175.07 13.07 C175.07 15.98, 173.62 17.43, 170.71 17.43 M175.07 13.07 C175.07 15.98, 173.62 17.43, 170.71 17.43 M170.71 17.43 C117.48 17.43, 64.26 17.43, 4.36 17.43 M170.71 17.43 C112.9 17.43, 55.09 17.43, 4.36 17.43 M4.36 17.43 C1.45 17.43, 0 15.98, 0 13.07 M4.36 17.43 C1.45 17.43, 0 15.98, 0 13.07 M0 13.07 C0 9.97, 0 6.86, 0 4.36 M0 13.07 C0 9.8, 0 6.52, 0 4.36 M0 4.36 C0 1.45, 1.45 0, 4.36 0 M0 4.36 C0 1.45, 1.45 0, 4.36 0" stroke="#ffffff" stroke-width="1" fill="none"></path></g><g transform="translate(296.72562917191 203.5907905178492) rotate(359.69832334439906 84.60486427350156 24.1445322996683)"><text x="84.60486427350162" y="17.74139249227497" font-family="Helvetica, Segoe UI Emoji" font-size="20.995245477972457px" fill="#1e1e1e" text-anchor="middle" style="white-space: pre;" direction="ltr" dominant-baseline="alphabetic">targetRef</text><text x="84.60486427350162" y="41.885924791943296" font-family="Helvetica, Segoe UI Emoji" font-size="20.995245477972457px" fill="#1e1e1e" text-anchor="middle" style="white-space: pre;" direction="ltr" dominant-baseline="alphabetic">sectionName: http</text></g></svg>