<svg width="2026" height="1970" viewBox="0 0 2026 1970" fill="none" xmlns="http://www.w3.org/2000/svg">
<g filter="url(#filter0_i_10680_40957)">
<path d="M1970.6 1199.51C1968.7 1199.51 1968.7 1199.51 1970.6 1199.51H1968.7C1966.8 1199.51 1964.9 1199.51 1964.9 1197.6C1961.1 1197.6 1957.29 1195.7 1953.49 1195.7C1940.18 1193.8 1928.78 1191.9 1917.37 1191.9C1911.67 1191.9 1905.97 1191.9 1898.36 1190H1896.46C1856.54 1186.2 1824.23 1182.4 1793.81 1172.89C1780.5 1167.19 1776.7 1159.59 1772.9 1151.98C1772.9 1150.08 1771 1150.08 1771 1148.18L1746.29 1140.58C1757.69 1053.13 1753.89 961.886 1732.98 872.541C1712.07 783.196 1675.95 699.553 1626.53 623.515L1645.54 606.406V602.604C1645.54 593.1 1647.44 583.595 1655.04 574.09C1677.85 553.179 1706.37 536.071 1740.58 515.16C1746.29 511.358 1751.99 509.457 1757.69 505.655C1769.1 499.952 1778.6 494.25 1790.01 486.646C1791.91 484.745 1795.71 482.844 1799.51 479.042C1801.41 477.141 1803.32 477.141 1803.32 475.24C1829.93 452.428 1835.63 414.409 1816.62 389.697C1807.12 376.39 1790.01 368.786 1772.9 368.786C1757.69 368.786 1744.39 374.489 1731.08 383.994C1729.18 385.895 1729.18 385.895 1727.28 387.796C1723.48 389.697 1721.57 393.499 1717.77 395.4C1708.27 404.904 1700.66 412.508 1693.06 422.013C1689.26 425.815 1685.46 431.518 1679.75 435.32C1653.14 463.834 1628.43 486.646 1603.71 503.754C1598.01 507.556 1592.31 509.457 1586.61 509.457C1582.8 509.457 1579 509.457 1575.2 507.556H1571.4L1548.59 522.764C1523.87 496.151 1497.26 473.339 1470.65 450.528C1356.59 361.182 1217.82 306.055 1073.35 292.748L1071.45 268.035C1069.54 266.134 1069.54 266.134 1067.64 264.233C1061.94 258.531 1054.34 252.828 1052.44 239.521C1050.54 209.106 1054.34 174.888 1058.14 136.869V134.968C1058.14 129.265 1060.04 121.661 1061.94 115.959C1063.84 104.553 1065.74 93.147 1067.64 79.8403V68.4345V62.7317C1067.64 28.5144 1041.03 0 1008.71 0C993.507 0 978.299 7.60383 966.893 19.0096C955.487 30.4153 949.784 45.623 949.784 62.7317V66.5336V77.9393C949.784 91.2461 951.685 102.652 955.487 114.058C957.388 119.76 957.388 125.463 959.289 133.067V134.968C963.091 172.987 968.794 207.205 964.992 237.62C963.091 250.927 955.487 256.63 949.784 262.332C947.883 264.233 947.883 264.233 945.983 266.134L944.082 290.847C909.864 294.649 875.647 298.451 841.43 306.055C695.056 338.371 565.79 412.508 465.039 518.962L446.03 505.655H442.228C438.426 505.655 434.624 507.556 430.822 507.556C425.119 507.556 419.416 505.655 413.714 501.853C389.001 484.745 364.289 460.032 337.675 431.518C333.873 427.716 330.071 422.013 324.368 418.211C316.765 408.706 309.161 401.103 299.656 391.598C297.755 389.697 293.953 387.796 290.151 383.994C288.25 382.093 286.349 382.093 286.349 380.192C274.943 370.687 259.736 364.984 244.528 364.984C227.419 364.984 210.311 372.588 200.806 385.895C181.796 410.607 187.499 448.627 214.113 471.438C216.014 471.438 216.014 473.339 217.915 473.339C221.717 475.24 223.617 479.042 227.419 480.943C238.825 488.547 248.33 494.25 259.736 499.952C265.439 501.853 271.142 505.655 276.844 509.457C311.062 530.368 339.576 547.476 362.388 568.387C371.892 577.892 371.892 587.397 371.892 596.901V600.703L390.902 617.812C387.1 623.515 383.298 627.317 381.397 633.02C286.349 783.196 250.231 959.985 274.943 1134.87L250.231 1142.48C250.231 1144.38 248.33 1144.38 248.33 1146.28C244.528 1153.88 238.825 1161.49 227.419 1167.19C198.905 1176.69 164.688 1180.5 124.768 1184.3H122.867C117.164 1184.3 109.56 1184.3 103.857 1186.2C92.4512 1186.2 81.0454 1188.1 67.7387 1190C63.9368 1190 60.1349 1191.9 56.3329 1191.9C54.432 1191.9 52.531 1191.9 50.6301 1193.8C16.4128 1201.41 -4.4978 1233.72 1.20508 1264.14C6.90796 1290.75 31.6205 1307.86 62.0359 1307.86C67.7387 1307.86 71.5406 1307.86 77.2435 1305.96C79.1445 1305.96 81.0454 1305.96 81.0454 1304.06C84.8474 1304.06 88.6493 1302.16 92.4512 1302.16C105.758 1298.36 115.263 1294.55 126.668 1288.85C132.371 1286.95 138.074 1283.15 143.777 1281.25H145.678C181.796 1267.94 214.113 1256.53 244.528 1252.73H248.33C259.736 1252.73 267.34 1258.44 273.042 1262.24C274.943 1262.24 274.943 1264.14 276.844 1264.14L303.458 1260.34C349.081 1401.01 436.525 1526.47 552.484 1617.72C579.097 1638.63 605.711 1655.74 634.225 1672.84L622.819 1697.56C622.819 1699.46 624.72 1699.46 624.72 1701.36C628.522 1708.96 632.324 1718.47 628.522 1731.77C617.116 1760.29 600.008 1788.8 579.097 1821.12V1823.02C575.295 1828.72 571.493 1832.53 567.691 1838.23C560.088 1847.73 554.385 1857.24 546.781 1868.64C544.88 1870.54 542.979 1874.35 541.078 1878.15C541.078 1880.05 539.177 1881.95 539.177 1881.95C523.969 1914.27 535.375 1950.38 563.889 1963.69C571.493 1967.49 579.097 1969.39 586.701 1969.39C609.512 1969.39 632.324 1954.19 643.73 1933.28C643.73 1931.38 645.631 1929.47 645.631 1929.47C647.532 1925.67 649.433 1921.87 651.334 1919.97C657.037 1906.66 658.937 1897.16 662.739 1885.75C664.64 1880.05 666.541 1874.35 668.442 1868.64C681.749 1830.62 691.254 1800.21 708.362 1773.6C715.966 1762.19 725.471 1760.29 733.075 1756.49C734.976 1756.49 734.976 1756.49 736.877 1754.59L750.184 1729.87C833.826 1762.19 925.072 1779.3 1016.32 1779.3C1071.45 1779.3 1128.47 1773.6 1181.7 1760.29C1215.92 1752.69 1248.24 1743.18 1280.55 1731.77L1291.96 1752.69C1293.86 1752.69 1293.86 1752.69 1295.76 1754.59C1305.26 1756.49 1312.87 1760.29 1320.47 1771.69C1335.68 1798.31 1347.09 1830.62 1360.39 1866.74V1868.64C1362.29 1874.35 1364.19 1880.05 1366.09 1885.75C1369.9 1897.16 1371.8 1908.56 1377.5 1919.97C1379.4 1923.77 1381.3 1925.67 1383.2 1929.47C1383.2 1931.38 1385.1 1933.28 1385.1 1933.28C1396.51 1956.09 1419.32 1969.39 1442.13 1969.39C1449.74 1969.39 1457.34 1967.49 1464.95 1963.69C1478.25 1956.09 1489.66 1944.68 1493.46 1929.47C1497.26 1914.27 1497.26 1897.16 1489.66 1881.95C1489.66 1880.05 1487.76 1880.05 1487.76 1878.15C1485.86 1874.35 1483.95 1870.54 1482.05 1868.64C1476.35 1857.24 1468.75 1847.73 1461.14 1838.23C1457.34 1832.53 1453.54 1828.72 1449.74 1823.02V1821.12C1428.83 1788.8 1409.82 1760.29 1400.31 1731.77C1396.51 1718.47 1400.31 1710.86 1402.21 1701.36C1402.21 1699.46 1404.11 1699.46 1404.11 1697.56L1394.61 1674.75C1495.36 1615.82 1580.9 1532.17 1645.54 1429.52C1679.75 1376.3 1706.37 1317.37 1725.38 1258.44L1748.19 1262.24C1750.09 1262.24 1750.09 1260.34 1751.99 1260.34C1759.59 1256.53 1765.3 1250.83 1776.7 1250.83H1780.5C1810.92 1254.63 1843.24 1266.04 1879.35 1279.35H1881.26C1886.96 1281.25 1892.66 1285.05 1898.36 1286.95C1909.77 1292.65 1919.27 1296.45 1932.58 1300.26C1936.38 1300.26 1940.18 1302.16 1943.99 1302.16C1945.89 1302.16 1947.79 1302.16 1949.69 1304.06C1955.39 1305.96 1959.19 1305.96 1964.9 1305.96C1993.41 1305.96 2018.12 1286.95 2025.73 1262.24C2025.73 1239.43 2004.82 1209.01 1970.6 1199.51ZM1586.61 908.659C1601.81 973.292 1605.62 1037.92 1599.91 1100.66L1309.07 1017.01C1282.45 1009.41 1267.25 982.796 1272.95 956.183C1274.85 948.579 1278.65 940.975 1284.35 935.272L1514.37 728.068C1546.69 781.295 1571.4 842.125 1586.61 908.659ZM1423.12 614.01L1174.1 790.799C1153.19 804.106 1124.67 800.304 1107.56 779.394C1101.86 773.691 1099.96 766.087 1098.06 758.483L1080.95 448.627C1212.12 463.834 1331.88 522.764 1423.12 614.01ZM871.845 458.131C892.756 454.329 911.765 450.528 932.676 446.726L915.567 750.879C913.666 777.493 892.756 800.304 864.241 800.304C856.637 800.304 847.133 798.403 841.43 794.601L588.602 614.01C666.541 536.071 763.49 482.844 871.845 458.131ZM497.356 728.068L723.57 929.57C744.481 946.678 746.382 978.994 729.273 999.905C723.57 1007.51 715.966 1013.21 706.461 1015.11L411.813 1100.66C400.407 971.391 428.921 840.224 497.356 728.068ZM446.03 1243.23L748.283 1191.9C772.995 1190 795.807 1207.11 801.51 1231.82C803.411 1243.23 803.411 1252.73 799.609 1262.24L683.65 1541.68C577.196 1473.24 491.653 1368.69 446.03 1243.23ZM1139.88 1621.52C1096.16 1631.02 1052.44 1636.73 1006.81 1636.73C940.28 1636.73 875.647 1625.32 814.816 1606.31L964.992 1334.47C980.2 1317.37 1004.91 1309.76 1025.82 1321.17C1035.33 1326.87 1042.93 1334.47 1048.63 1342.08L1195.01 1606.31C1177.9 1612.01 1158.89 1615.82 1139.88 1621.52ZM1510.57 1357.29C1463.04 1433.32 1400.31 1494.15 1328.08 1541.68L1208.32 1254.63C1202.61 1231.82 1212.12 1207.11 1234.93 1195.7C1242.53 1191.9 1252.04 1190 1261.54 1190L1565.7 1241.33C1554.29 1283.15 1535.28 1321.17 1510.57 1357.29Z" fill="url(#paint0_linear_10680_40957)"/>
</g>
<defs>
<filter id="filter0_i_10680_40957" x="0.271484" y="0" width="2025.46" height="1973.39" filterUnits="userSpaceOnUse" color-interpolation-filters="sRGB">
<feFlood flood-opacity="0" result="BackgroundImageFix"/>
<feBlend mode="normal" in="SourceGraphic" in2="BackgroundImageFix" result="shape"/>
<feColorMatrix in="SourceAlpha" type="matrix" values="0 0 0 0 0 0 0 0 0 0 0 0 0 0 0 0 0 0 127 0" result="hardAlpha"/>
<feOffset dy="4"/>
<feGaussianBlur stdDeviation="10"/>
<feComposite in2="hardAlpha" operator="arithmetic" k2="-1" k3="1"/>
<feColorMatrix type="matrix" values="0 0 0 0 1 0 0 0 0 1 0 0 0 0 1 0 0 0 0.1 0"/>
<feBlend mode="normal" in2="shape" result="effect1_innerShadow_10680_40957"/>
</filter>
<linearGradient id="paint0_linear_10680_40957" x1="1013" y1="0" x2="1013" y2="1969.39" gradientUnits="userSpaceOnUse">
<stop stop-color="#6A5EFF"/>
<stop offset="1" stop-color="#5044E9"/>
</linearGradient>
</defs>
</svg>
