<svg width="211" height="47" viewBox="0 0 211 47" fill="none" xmlns="http://www.w3.org/2000/svg">
<g id="Group 1171274997">
<g id="Amazon ELB">
<path id="Vector" d="M197.538 14.174H203.082C205.486 14.174 207.3 14.5223 208.524 15.219C209.747 15.9157 210.359 17.118 210.359 18.8258C210.359 19.5395 210.231 20.1853 209.977 20.763C209.73 21.3323 209.369 21.8039 208.893 22.1777C208.417 22.5431 207.831 22.7895 207.134 22.9169V23.0444C207.857 23.1718 208.498 23.397 209.059 23.7199C209.628 24.0427 210.074 24.5058 210.397 25.109C210.729 25.7123 210.894 26.494 210.894 27.4541C210.894 28.5926 210.622 29.5613 210.079 30.3599C209.543 31.1586 208.774 31.7661 207.772 32.1825C206.778 32.5988 205.597 32.8069 204.229 32.8069H197.538V14.174ZM200.596 21.8591H203.528C204.913 21.8591 205.873 21.6339 206.408 21.1836C206.943 20.7333 207.211 20.0748 207.211 19.2082C207.211 18.3245 206.892 17.6873 206.255 17.2964C205.626 16.9056 204.624 16.7102 203.247 16.7102H200.596V21.8591ZM200.596 24.3316V30.2452H203.821C205.248 30.2452 206.251 29.9691 206.829 29.4168C207.406 28.8645 207.695 28.1168 207.695 27.1737C207.695 26.596 207.564 26.0947 207.3 25.6698C207.045 25.245 206.625 24.9179 206.038 24.6885C205.452 24.4506 204.662 24.3316 203.668 24.3316H200.596Z" fill="#ACACAC"/>
<path id="Vector_2" d="M183.34 32.8069V14.174H186.399V30.207H194.313V32.8069H183.34Z" fill="#ACACAC"/>
<path id="Vector_3" d="M179.312 32.8069H168.76V14.174H179.312V16.7484H171.818V21.8081H178.841V24.3698H171.818V30.2197H179.312V32.8069Z" fill="#ACACAC"/>
<path id="Vector_4" d="M152.51 18.6855C154.065 18.6855 155.259 19.0934 156.091 19.9091C156.924 20.7247 157.34 22.0035 157.34 23.7453V32.8069H156.066V23.8217C156.066 22.4453 155.751 21.4342 155.123 20.7885C154.494 20.1427 153.581 19.8198 152.383 19.8198C150.862 19.8198 149.698 20.2659 148.89 21.1581C148.092 22.0417 147.692 23.3799 147.692 25.1727V32.8069H146.405V18.9532H147.45L147.641 21.4767H147.718C147.964 20.9584 148.3 20.4911 148.725 20.0747C149.158 19.6499 149.689 19.3143 150.318 19.0679C150.947 18.813 151.677 18.6855 152.51 18.6855Z" fill="#ACACAC"/>
<path id="Vector_5" d="M142.582 25.8609C142.582 26.9315 142.45 27.9086 142.187 28.7922C141.923 29.6674 141.532 30.4236 141.014 31.0608C140.496 31.6981 139.85 32.1909 139.077 32.5392C138.312 32.8876 137.42 33.0618 136.4 33.0618C135.432 33.0618 134.569 32.8918 133.813 32.552C133.057 32.2036 132.416 31.7108 131.889 31.0736C131.37 30.4363 130.975 29.6801 130.703 28.805C130.432 27.9213 130.296 26.94 130.296 25.8609C130.296 24.374 130.542 23.0953 131.035 22.0247C131.536 20.9456 132.25 20.1215 133.176 19.5522C134.111 18.9744 135.228 18.6855 136.528 18.6855C137.87 18.6855 138.988 18.9914 139.88 19.6032C140.78 20.2064 141.456 21.0476 141.906 22.1267C142.357 23.2057 142.582 24.4505 142.582 25.8609ZM131.621 25.8609C131.621 27.0759 131.795 28.138 132.144 29.0471C132.492 29.9563 133.019 30.6657 133.724 31.1755C134.438 31.6853 135.338 31.9402 136.426 31.9402C137.539 31.9402 138.452 31.6853 139.166 31.1755C139.88 30.6657 140.407 29.952 140.746 29.0344C141.086 28.1167 141.256 27.0589 141.256 25.8609C141.256 24.6969 141.095 23.6603 140.772 22.7512C140.449 21.842 139.939 21.1283 139.243 20.61C138.546 20.0832 137.637 19.8198 136.515 19.8198C134.909 19.8198 133.69 20.3551 132.857 21.4257C132.033 22.4963 131.621 23.9747 131.621 25.8609Z" fill="#ACACAC"/>
<path id="Vector_6" d="M127.683 32.8069H117.78V31.953L126.09 20.0238H118.392V18.9532H127.657V19.8326L119.361 31.7364H127.683V32.8069Z" fill="#ACACAC"/>
<path id="Vector_7" d="M110.031 18.7111C111.552 18.7111 112.691 19.0934 113.447 19.8581C114.203 20.6228 114.581 21.842 114.581 23.5159V32.8069H113.587L113.358 30.3854H113.281C112.984 30.9037 112.623 31.3667 112.198 31.7746C111.773 32.1739 111.251 32.4883 110.63 32.7177C110.019 32.9471 109.271 33.0618 108.387 33.0618C107.495 33.0618 106.73 32.9131 106.093 32.6157C105.464 32.3183 104.976 31.885 104.628 31.3157C104.288 30.7465 104.118 30.054 104.118 29.2383C104.118 27.8619 104.687 26.8168 105.826 26.1031C106.964 25.3809 108.6 24.973 110.732 24.8796L113.307 24.7521V23.7453C113.307 22.3264 113.026 21.3153 112.466 20.712C111.905 20.1087 111.076 19.8071 109.98 19.8071C109.267 19.8071 108.578 19.9006 107.916 20.0875C107.261 20.2659 106.594 20.5251 105.915 20.8649L105.507 19.7944C106.17 19.48 106.879 19.2209 107.635 19.0169C108.4 18.813 109.199 18.7111 110.031 18.7111ZM113.294 25.759L110.872 25.8609C109.114 25.9459 107.775 26.2603 106.858 26.8041C105.94 27.3478 105.481 28.1635 105.481 29.2511C105.481 30.1262 105.753 30.7974 106.297 31.2648C106.849 31.7321 107.614 31.9657 108.591 31.9657C110.112 31.9657 111.272 31.5324 112.071 30.6657C112.878 29.7991 113.286 28.6181 113.294 27.1227V25.759Z" fill="#ACACAC"/>
<path id="Vector_8" d="M96.4198 18.6855C97.7538 18.6855 98.8073 19.0721 99.5805 19.8453C100.354 20.6185 100.74 21.8378 100.74 23.5031V32.8069H99.4786V23.5541C99.4786 22.2711 99.1854 21.328 98.5992 20.7247C98.0129 20.1215 97.2397 19.8198 96.2796 19.8198C94.9626 19.8198 93.9303 20.2064 93.1826 20.9796C92.4434 21.7443 92.0738 22.9508 92.0738 24.5992V32.8069H90.7993V23.5541C90.7993 22.6959 90.6634 21.995 90.3915 21.4512C90.1281 20.8989 89.7585 20.4911 89.2827 20.2277C88.8069 19.9558 88.2461 19.8198 87.6003 19.8198C86.7422 19.8198 85.9987 19.9983 85.37 20.3551C84.7413 20.7035 84.2569 21.2473 83.9171 21.9865C83.5772 22.7172 83.4073 23.6475 83.4073 24.7776V32.8069H82.1201V18.9532H83.1651L83.3563 21.2218H83.4328C83.6622 20.7715 83.9681 20.3551 84.3504 19.9728C84.7328 19.5904 85.2043 19.2803 85.7651 19.0424C86.3344 18.8045 87.0013 18.6855 87.766 18.6855C88.7601 18.6855 89.6013 18.9107 90.2895 19.361C90.9862 19.8028 91.4705 20.4613 91.7424 21.3365H91.8316C92.2055 20.5038 92.7833 19.8538 93.5649 19.3865C94.3551 18.9192 95.3067 18.6855 96.4198 18.6855Z" fill="#ACACAC"/>
<path id="Vector_9" d="M78.4368 32.807L75.9005 26.2179H68.0752L65.488 32.807H64.1498L71.4781 14.1102H72.6761L79.8132 32.807H78.4368ZM75.48 25.0326L72.9055 18.0484C72.8375 17.87 72.7526 17.6406 72.6506 17.3602C72.5571 17.0798 72.4552 16.7824 72.3447 16.468C72.2428 16.1537 72.1408 15.8563 72.0389 15.5759C71.9539 15.8733 71.8604 16.1707 71.7585 16.468C71.6565 16.7654 71.5588 17.0543 71.4653 17.3347C71.3719 17.6066 71.2827 17.853 71.1977 18.0739L68.5213 25.0326H75.48Z" fill="#ACACAC"/>
</g>
<g id="A">
<path id="Vector_10" fill-rule="evenodd" clip-rule="evenodd" d="M2.88397 9.0481L0.867554 10.0106V37.1614L2.88397 38.1239L10.8767 23.586L2.88397 9.0481Z" fill="#121212"/>
<path id="Vector_11" fill-rule="evenodd" clip-rule="evenodd" d="M7.58543 37.0716L2.88391 38.1239V9.0481L7.58485 10.0732V37.0722L7.58543 37.0716Z" fill="#ACACAC"/>
<path id="Vector_12" fill-rule="evenodd" clip-rule="evenodd" d="M5.10834 7.98367L7.58548 6.80798L13.4486 23.5861L7.58548 40.3641L5.10834 39.1885V7.98367Z" fill="#121212"/>
<path id="Vector_13" fill-rule="evenodd" clip-rule="evenodd" d="M13.4486 38.7831L7.58606 40.3641V6.80798L13.4486 8.39486V38.7831Z" fill="#ACACAC"/>
<path id="Vector_14" fill-rule="evenodd" clip-rule="evenodd" d="M10.3464 5.48569L13.4486 4.00537L32.8177 23.586L13.4486 43.1614L10.3464 41.6868V5.48569Z" fill="#121212"/>
<path id="Vector_15" fill-rule="evenodd" clip-rule="evenodd" d="M34.3923 35.7655L13.4486 43.1613V4.00476L34.3929 11.3102L34.3923 35.7655Z" fill="#ACACAC"/>
<path id="Vector_16" fill-rule="evenodd" clip-rule="evenodd" d="M31.679 19.9333L27.7686 20.1754L16.9569 19.3032L20.9742 0.419922L31.6853 19.9333H31.679Z" fill="#121212"/>
<path id="Vector_17" fill-rule="evenodd" clip-rule="evenodd" d="M20.9743 18.9146V0.419922L16.9633 2.33345V19.3026L20.9743 18.9146Z" fill="#121212"/>
<path id="Vector_18" fill-rule="evenodd" clip-rule="evenodd" d="M31.6795 19.9333V5.53037L20.9742 0.419922V18.9146L31.6853 19.9339L31.6795 19.9333Z" fill="#ACACAC"/>
<path id="Vector_19" fill-rule="evenodd" clip-rule="evenodd" d="M31.679 27.1153L27.9748 26.8894L16.9563 27.779L20.9742 46.7521L31.6853 27.1147L31.679 27.1153Z" fill="#121212"/>
<path id="Vector_20" fill-rule="evenodd" clip-rule="evenodd" d="M16.9575 27.7791V44.8438L20.9743 46.7521V28.1277L16.9633 27.7791H16.9575Z" fill="#121212"/>
<path id="Vector_21" fill-rule="evenodd" clip-rule="evenodd" d="M20.9742 28.1278V46.7522L31.6853 41.6418V27.1149L20.9742 28.1278Z" fill="#ACACAC"/>
<path id="Vector_22" fill-rule="evenodd" clip-rule="evenodd" d="M41.0809 26.2257L38.7807 26.1354L32.8176 26.6363L35.3361 39.8966L41.0809 26.2257Z" fill="#121212"/>
<path id="Vector_23" fill-rule="evenodd" clip-rule="evenodd" d="M35.3361 26.7655V39.8961L41.0809 37.1549V26.2257L35.3361 26.7655Z" fill="#ACACAC"/>
<path id="Vector_24" fill-rule="evenodd" clip-rule="evenodd" d="M41.0809 20.8338L38.7807 20.9236L32.8176 20.4168L35.3361 7.27527L41.0809 20.8338Z" fill="#121212"/>
<path id="Vector_25" fill-rule="evenodd" clip-rule="evenodd" d="M41.0809 20.8338V10.0164L35.3361 7.27527V20.2831L41.0809 20.8338Z" fill="#ACACAC"/>
<path id="Vector_26" fill-rule="evenodd" clip-rule="evenodd" d="M32.8176 39.2608L35.3361 39.8967V26.7713L32.8119 26.6416V39.266L32.8176 39.2608ZM32.8176 7.91118L35.3361 7.27527V20.2831L32.8119 20.418V7.91118H32.8176Z" fill="#121212"/>
</g>
</g>
</svg>
