<svg version="1.1"
  xmlns="http://www.w3.org/2000/svg" viewBox="0 0 24 24">
  <path fill-rule="evenodd" clip-rule="evenodd" d="M8.847,8.25c-0.2275-0.5185-0.4205-0.977-0.6095-1.5875 c-0.0315-0.102,0.004-0.137,0.0675-0.08l1.0155,0.9095C8.5925,7.7285,8.935,7.983,8.847,8.25 M10.513,6.4925 c-0.948-0.3325-1.9085-0.654-2.8735-0.889c-0.068-0.0165-0.0985,0.029-0.048,0.074l1.858,1.6625 C9.739,7.0125,10.093,6.725,10.513,6.4925z M9.8905,12.321c0.3275,0.511,0.6545,1.022,0.982,1.533 C10.248,11.7175,12.615,9.715,14.382,10.2245c-0.111-0.2745-0.543-0.5595-0.8965-0.7155 c-1.0935-0.4825-2.9905-0.3245-3.6915,0.2585C9.3865,10.5855,10.2985,11.464,9.8905,12.321 M12.938,9.5635 c0.0325,0.1725,0.1995,0.1965,0.232,0.3685c0.0595,0.088-0.0275,0.2355,0.073,0.2465c0.4295,0.048,1.373,0.912,1.758,0.7255 c0.281-0.1365,0.3185-0.633-0.391-1.182C13.7645,9.6465,13.784,9.638,12.938,9.5635 M13.43,9.372 c0.0205,0.1095-0.234,0.3875-0.1245,0.4065c0.484,0.0835,0.96,0.6085,1.32,0.8055c0.1375,0.075,0.2855,0.1235,0.3975,0.069 C15.39,10.4735,14.2825,9.4315,13.43,9.372 M15.4875,10.425c-0.234,0.031-0.586-0.043-0.926-0.2115 c-0.227-0.1125-0.565-0.418-0.715-0.469c-0.3905-0.1325-0.4955,0.149-0.8555,0.002c-1.277-0.5205-2.4905-0.3315-3.1865,0.381 c-0.097,0.0995-0.0185,0.168,0.1665,0.149c0.244-0.025,0.5315-0.0125,0.746,0.0945c0.0895,0.0445,0.11,0.1125,0.07,0.1665 c-0.5775,0.778-0.4905,2.068-0.1265,2.8705c0.153,0.338,0.3035,0.4655,0.6455,0.4725c0.2905,0.006,0.596-0.011,0.9725,0.144 c0.34,0.14,1.3275,0.685,0.6835,0.882c-0.0715,0.07-0.213,0.069-0.3695-0.002c-0.7255-0.3275-1.6185,0.129-1.3725,0.989 c0.043,0.15,0.1075,0.25,0.047,0.356c-0.2235,0.3935-1.1525-0.401-0.768-1.6665c0.1025-0.336,0.161-0.3915-0.0685-0.5615 c-2.6415-1.955-2.5365-6.568,0.9815-7.746c1.6855-0.5645,3.581,0.0845,4.099,1.8265c0.0545,0.1835,0.167,0.66,0.2025,0.8345 C16.4495,9.5235,16.2415,10.345,15.4875,10.425 M12.728,15.1095c-0.0705,0.0105-0.119,0.076-0.1085,0.146 c0.0105,0.0705,0.076,0.119,0.146,0.1085c0.0705-0.0105,0.119-0.076,0.1085-0.146 C12.8635,15.1475,12.7985,15.099,12.728,15.1095 M13.248,14.965c-0.101,0.015-0.1705,0.1085-0.1555,0.2095 c0.015,0.101,0.1085,0.1705,0.2095,0.1555c0.101-0.015,0.1705-0.1085,0.1555-0.2095 C13.4425,15.0195,13.349,14.95,13.248,14.965 M14.671,7.2045c-0.0895-0.089-0.192-0.1115-0.2285-0.05 c-0.037,0.0615,0.006,0.1835,0.0955,0.2725c0.0895,0.089,0.192,0.1115,0.2285,0.05 C14.8035,7.4155,14.7605,7.2935,14.671,7.2045 M13.8335,6.9305c-1.1035-0.6405-2.578-0.3375-1.9285-0.529 c0.8015-0.2365,1.471-0.0235,1.9405,0.2165C14.4215,6.912,14.329,7.2165,13.8335,6.9305z M13.63,8.4515 c-0.2245,0.033-0.379,0.245-0.3455,0.4725c0.0335,0.228,0.243,0.3855,0.4675,0.3525c0.2245-0.033,0.379-0.245,0.3455-0.4725 C14.0635,8.576,13.854,8.4185,13.63,8.4515"></path>
</svg>