<svg width="189" height="27" viewBox="0 0 189 27" fill="none" xmlns="http://www.w3.org/2000/svg">
<path fill-rule="evenodd" clip-rule="evenodd" d="M2.98722 7.14264C2.45655 5.93318 2.00636 4.86367 1.56549 3.43961C1.49202 3.20168 1.57482 3.12004 1.72294 3.253L4.09172 5.37452C2.39357 5.92618 3.19249 6.51983 2.98722 7.14264ZM6.87336 3.04307C4.66204 2.26747 2.42156 1.51753 0.170588 0.969369C0.0119697 0.930881 -0.0591759 1.03702 0.0586213 1.14198L4.39262 5.01996C5.06792 4.25603 5.89366 3.5854 6.87336 3.04307ZM5.42131 16.6387C6.18524 17.8307 6.94801 19.0227 7.71194 20.2146C6.25522 15.231 11.7765 10.5599 15.8983 11.7484C15.6393 11.1081 14.6316 10.4433 13.8071 10.0794C11.2563 8.95392 6.83137 9.32247 5.19621 10.6824C4.24567 12.5905 6.37302 14.6397 5.42131 16.6387ZM12.53 10.2065C12.6058 10.6089 12.9953 10.6649 13.0711 11.0661C13.2099 11.2714 13.007 11.6154 13.2414 11.6411C14.2433 11.7531 16.4441 13.7684 17.3421 13.3334C17.9976 13.015 18.0851 11.8569 16.4301 10.5763C14.4579 10.4001 14.5034 10.3803 12.53 10.2065ZM13.6776 9.75984C13.7254 10.0153 13.1318 10.6637 13.3872 10.708C14.5162 10.9028 15.6265 12.1274 16.4662 12.587C16.787 12.7619 17.1322 12.875 17.3935 12.7479C18.2495 12.3292 15.6662 9.89863 13.6776 9.75984ZM18.477 12.2161C17.9311 12.2884 17.1101 12.1158 16.317 11.7227C15.7875 11.4603 14.999 10.7477 14.6491 10.6287C13.7383 10.3197 13.4933 10.9763 12.6536 10.6334C9.67484 9.41927 6.8442 9.86014 5.2207 11.5221C4.99444 11.7542 5.17755 11.914 5.60908 11.8697C6.17824 11.8114 6.84887 11.8405 7.34922 12.0901C7.55798 12.1939 7.6058 12.3525 7.5125 12.4785C6.16541 14.2933 6.36835 17.3024 7.21742 19.1743C7.57431 19.9627 7.92537 20.2601 8.72313 20.2764C9.40075 20.2904 10.1134 20.2508 10.9916 20.6123C11.7847 20.9389 14.0881 22.2102 12.5859 22.6697C12.4192 22.833 12.0891 22.8307 11.724 22.665C10.0317 21.9011 7.9487 22.9659 8.52252 24.972C8.62283 25.3219 8.77328 25.5552 8.63216 25.8024C8.11082 26.7203 5.94381 24.867 6.8407 21.9151C7.0798 21.1313 7.21626 21.0019 6.68092 20.6053C0.519314 16.0451 0.764238 5.28471 8.97038 2.53689C12.902 1.22013 17.3235 2.73399 18.5318 6.79741C18.6589 7.22545 18.9213 8.33694 19.0041 8.74398C20.7209 10.1132 20.2358 12.0295 18.477 12.2161ZM12.0401 23.1432C11.8757 23.1677 11.7625 23.3205 11.787 23.4838C11.8115 23.6482 11.9643 23.7614 12.1276 23.7369C12.292 23.7124 12.4052 23.5596 12.3807 23.3963C12.3562 23.2319 12.2046 23.1187 12.0401 23.1432ZM13.2531 22.8062C13.0175 22.8412 12.8554 23.0593 12.8903 23.2948C12.9253 23.5304 13.1434 23.6926 13.379 23.6576C13.6146 23.6226 13.7767 23.4045 13.7418 23.1689C13.7068 22.9333 13.4887 22.7712 13.2531 22.8062ZM16.5724 4.70389C16.3636 4.49629 16.1245 4.4438 16.0394 4.58726C15.9531 4.73071 16.0534 5.01529 16.2621 5.2229C16.4709 5.4305 16.71 5.48298 16.7951 5.33953C16.8815 5.19607 16.7812 4.91149 16.5724 4.70389ZM14.6188 4.06475C12.0448 2.57071 8.60533 3.27749 10.1204 2.8308C11.99 2.27913 13.5516 2.77598 14.6468 3.33581C15.9904 4.0216 15.7746 4.73188 14.6188 4.06475ZM14.1441 7.61266C13.6205 7.68964 13.2601 8.18415 13.3382 8.71482C13.4164 9.24666 13.905 9.61405 14.4287 9.53707C14.9524 9.46009 15.3128 8.96558 15.2346 8.43491C15.1553 7.90307 14.6666 7.53569 14.1441 7.61266Z" fill="#002DC9"/>
<path d="M185.963 22.3001V15.3751C185.963 14.4751 185.679 13.7334 185.113 13.1501C184.546 12.5667 183.813 12.2751 182.913 12.2751C182.313 12.2751 181.779 12.4084 181.312 12.6751C180.846 12.9417 180.479 13.3084 180.213 13.7751C179.946 14.2417 179.812 14.7751 179.812 15.3751L178.888 14.8501C178.888 13.9501 179.088 13.1501 179.488 12.4501C179.888 11.7501 180.446 11.2001 181.163 10.8001C181.879 10.3834 182.688 10.1751 183.588 10.1751C184.488 10.1751 185.279 10.3751 185.963 10.7751C186.663 11.1751 187.213 11.7334 187.613 12.4501C188.013 13.1667 188.213 13.9917 188.213 14.9251V22.3001H185.963ZM177.562 22.3001V4.45007H179.812V22.3001H177.562Z" fill="#151927"/>
<path d="M170.919 22.5502C170.252 22.5502 169.619 22.4668 169.019 22.3002C168.435 22.1168 167.894 21.8668 167.394 21.5502C166.894 21.2168 166.46 20.8252 166.094 20.3752L167.544 18.9252C167.977 19.4585 168.477 19.8585 169.044 20.1252C169.61 20.3752 170.244 20.5002 170.944 20.5002C171.644 20.5002 172.185 20.3835 172.569 20.1502C172.952 19.9002 173.144 19.5585 173.144 19.1252C173.144 18.6918 172.985 18.3585 172.669 18.1252C172.369 17.8752 171.977 17.6752 171.494 17.5252C171.01 17.3585 170.494 17.2002 169.944 17.0502C169.41 16.8835 168.902 16.6752 168.419 16.4252C167.935 16.1752 167.535 15.8335 167.219 15.4002C166.919 14.9668 166.769 14.3918 166.769 13.6752C166.769 12.9585 166.944 12.3418 167.294 11.8252C167.644 11.2918 168.127 10.8835 168.744 10.6002C169.377 10.3168 170.135 10.1752 171.019 10.1752C171.952 10.1752 172.777 10.3418 173.494 10.6752C174.227 10.9918 174.827 11.4752 175.294 12.1252L173.844 13.5752C173.51 13.1418 173.094 12.8085 172.594 12.5752C172.11 12.3418 171.56 12.2252 170.944 12.2252C170.294 12.2252 169.794 12.3418 169.444 12.5752C169.11 12.7918 168.944 13.1002 168.944 13.5002C168.944 13.9002 169.094 14.2085 169.394 14.4252C169.694 14.6418 170.085 14.8252 170.569 14.9752C171.069 15.1252 171.585 15.2835 172.119 15.4502C172.652 15.6002 173.16 15.8085 173.644 16.0752C174.127 16.3418 174.519 16.7002 174.819 17.1502C175.135 17.6002 175.294 18.1918 175.294 18.9252C175.294 20.0418 174.894 20.9252 174.094 21.5752C173.31 22.2252 172.252 22.5502 170.919 22.5502Z" fill="#151927"/>
<path d="M159.492 22.5502C158.308 22.5502 157.242 22.2835 156.292 21.7502C155.342 21.2002 154.592 20.4585 154.042 19.5252C153.492 18.5918 153.217 17.5335 153.217 16.3502C153.217 15.1835 153.483 14.1335 154.017 13.2002C154.567 12.2668 155.3 11.5335 156.217 11.0002C157.15 10.4502 158.192 10.1752 159.342 10.1752C160.442 10.1752 161.408 10.4252 162.242 10.9252C163.092 11.4252 163.75 12.1168 164.217 13.0002C164.7 13.8835 164.942 14.8835 164.942 16.0002C164.942 16.1668 164.933 16.3502 164.917 16.5502C164.9 16.7335 164.867 16.9502 164.817 17.2002H154.792V15.3252H163.617L162.792 16.0502C162.792 15.2502 162.65 14.5752 162.367 14.0252C162.083 13.4585 161.683 13.0252 161.167 12.7252C160.65 12.4085 160.025 12.2502 159.292 12.2502C158.525 12.2502 157.85 12.4168 157.267 12.7502C156.683 13.0835 156.233 13.5502 155.917 14.1502C155.6 14.7502 155.442 15.4585 155.442 16.2752C155.442 17.1085 155.608 17.8418 155.942 18.4752C156.275 19.0918 156.75 19.5752 157.367 19.9252C157.983 20.2585 158.692 20.4252 159.492 20.4252C160.158 20.4252 160.767 20.3085 161.317 20.0752C161.883 19.8418 162.367 19.4918 162.767 19.0252L164.217 20.5002C163.65 21.1668 162.95 21.6752 162.117 22.0252C161.3 22.3752 160.425 22.5502 159.492 22.5502Z" fill="#151927"/>
<path d="M133.67 22.3001V4.95007H135.32L142.67 17.0251H141.545L148.895 4.95007H150.545V22.3001H148.195V9.07507L148.745 9.22507L142.945 18.7501H141.295L135.495 9.22507L136.02 9.07507V22.3001H133.67Z" fill="#151927"/>
<path d="M121.191 22.3001V5.45007H123.441V22.3001H121.191ZM118.266 12.4751V10.4251H126.366V12.4751H118.266Z" fill="#151927"/>
<path d="M114.464 22.3002V15.3752C114.464 14.4752 114.181 13.7335 113.614 13.1502C113.048 12.5668 112.314 12.2752 111.414 12.2752C110.814 12.2752 110.281 12.4085 109.814 12.6752C109.348 12.9418 108.981 13.3085 108.714 13.7752C108.448 14.2418 108.314 14.7752 108.314 15.3752L107.389 14.8502C107.389 13.9502 107.589 13.1502 107.989 12.4502C108.389 11.7502 108.948 11.2002 109.664 10.8002C110.381 10.3835 111.189 10.1752 112.089 10.1752C112.989 10.1752 113.781 10.4002 114.464 10.8502C115.164 11.3002 115.714 11.8918 116.114 12.6252C116.514 13.3418 116.714 14.1085 116.714 14.9252V22.3002H114.464ZM106.064 22.3002V10.4252H108.314V22.3002H106.064Z" fill="#151927"/>
<path d="M98.4117 22.5502C97.2284 22.5502 96.1617 22.2835 95.2117 21.7502C94.2617 21.2002 93.5117 20.4585 92.9617 19.5252C92.4117 18.5918 92.1367 17.5335 92.1367 16.3502C92.1367 15.1835 92.4034 14.1335 92.9367 13.2002C93.4867 12.2668 94.2201 11.5335 95.1367 11.0002C96.0701 10.4502 97.1117 10.1752 98.2617 10.1752C99.3617 10.1752 100.328 10.4252 101.162 10.9252C102.012 11.4252 102.67 12.1168 103.137 13.0002C103.62 13.8835 103.862 14.8835 103.862 16.0002C103.862 16.1668 103.853 16.3502 103.837 16.5502C103.82 16.7335 103.787 16.9502 103.737 17.2002H93.7117V15.3252H102.537L101.712 16.0502C101.712 15.2502 101.57 14.5752 101.287 14.0252C101.003 13.4585 100.603 13.0252 100.087 12.7252C99.57 12.4085 98.945 12.2502 98.2117 12.2502C97.445 12.2502 96.7701 12.4168 96.1867 12.7502C95.6034 13.0835 95.1534 13.5502 94.8367 14.1502C94.5201 14.7502 94.3617 15.4585 94.3617 16.2752C94.3617 17.1085 94.5284 17.8418 94.8617 18.4752C95.1951 19.0918 95.6701 19.5752 96.2867 19.9252C96.9034 20.2585 97.6117 20.4252 98.4117 20.4252C99.0784 20.4252 99.6867 20.3085 100.237 20.0752C100.803 19.8418 101.287 19.4918 101.687 19.0252L103.137 20.5002C102.57 21.1668 101.87 21.6752 101.037 22.0252C100.22 22.3752 99.3451 22.5502 98.4117 22.5502Z" fill="#151927"/>
<path d="M87.5949 22.3002V10.4252H89.8449V22.3002H87.5949ZM88.7199 8.05017C88.3033 8.05017 87.9616 7.91684 87.6949 7.65017C87.4283 7.36684 87.2949 7.01684 87.2949 6.60017C87.2949 6.20017 87.4283 5.86684 87.6949 5.60017C87.9616 5.31684 88.3033 5.17517 88.7199 5.17517C89.1366 5.17517 89.4783 5.31684 89.7449 5.60017C90.0116 5.86684 90.1449 6.20017 90.1449 6.60017C90.1449 7.01684 90.0116 7.36684 89.7449 7.65017C89.4783 7.91684 89.1366 8.05017 88.7199 8.05017Z" fill="#151927"/>
<path d="M79.5195 22.5501C78.6195 22.5501 77.8029 22.3667 77.0695 22.0001C76.3529 21.6167 75.7779 21.0917 75.3445 20.4251C74.9112 19.7584 74.6695 19.0001 74.6195 18.1501V14.5751C74.6695 13.7084 74.9112 12.9501 75.3445 12.3001C75.7945 11.6334 76.3779 11.1167 77.0945 10.7501C77.8279 10.3667 78.6362 10.1751 79.5195 10.1751C80.6029 10.1751 81.5779 10.4501 82.4445 11.0001C83.3279 11.5501 84.0195 12.2917 84.5195 13.2251C85.0195 14.1584 85.2695 15.2084 85.2695 16.3751C85.2695 17.5417 85.0195 18.5917 84.5195 19.5251C84.0195 20.4584 83.3279 21.2001 82.4445 21.7501C81.5779 22.2834 80.6029 22.5501 79.5195 22.5501ZM79.1445 20.4251C79.8945 20.4251 80.5529 20.2501 81.1195 19.9001C81.6862 19.5501 82.1362 19.0751 82.4695 18.4751C82.8029 17.8584 82.9695 17.1501 82.9695 16.3501C82.9695 15.5667 82.8029 14.8667 82.4695 14.2501C82.1362 13.6334 81.6862 13.1584 81.1195 12.8251C80.5529 12.4751 79.9029 12.3001 79.1695 12.3001C78.4195 12.3001 77.7612 12.4751 77.1945 12.8251C76.6279 13.1584 76.1862 13.6334 75.8695 14.2501C75.5529 14.8667 75.3945 15.5751 75.3945 16.3751C75.3945 17.1584 75.5445 17.8584 75.8445 18.4751C76.1612 19.0751 76.6029 19.5501 77.1695 19.9001C77.7529 20.2501 78.4112 20.4251 79.1445 20.4251ZM73.2695 22.3001V4.45007H75.5195V13.3251L75.0945 16.2001L75.5195 19.1001V22.3001H73.2695Z" fill="#151927"/>
<path d="M52.1328 22.3002V10.4252H54.3828V22.3002H52.1328ZM60.1578 22.3002V15.1252C60.1578 14.2418 59.8828 13.5502 59.3328 13.0502C58.7995 12.5335 58.1245 12.2752 57.3078 12.2752C56.7578 12.2752 56.2661 12.3918 55.8328 12.6252C55.3995 12.8585 55.0495 13.1835 54.7828 13.6002C54.5161 14.0168 54.3828 14.5168 54.3828 15.1002L53.4578 14.6502C53.4578 13.7502 53.6495 12.9668 54.0328 12.3002C54.4328 11.6335 54.9745 11.1168 55.6578 10.7502C56.3411 10.3668 57.1078 10.1752 57.9578 10.1752C58.7911 10.1752 59.5411 10.3585 60.2078 10.7252C60.8911 11.0918 61.4245 11.6085 61.8078 12.2752C62.2078 12.9418 62.4078 13.7335 62.4078 14.6502V22.3002H60.1578ZM68.1828 22.3002V15.1252C68.1828 14.2418 67.9078 13.5502 67.3578 13.0502C66.8245 12.5335 66.1578 12.2752 65.3578 12.2752C64.8078 12.2752 64.3078 12.3918 63.8578 12.6252C63.4245 12.8585 63.0745 13.1835 62.8078 13.6002C62.5411 14.0168 62.4078 14.5168 62.4078 15.1002L61.1328 14.6502C61.1828 13.7335 61.4245 12.9502 61.8578 12.3002C62.3078 11.6335 62.8828 11.1168 63.5828 10.7502C64.2828 10.3668 65.0495 10.1752 65.8828 10.1752C66.7495 10.1752 67.5245 10.3585 68.2078 10.7252C68.8911 11.0918 69.4328 11.6085 69.8328 12.2752C70.2495 12.9418 70.4578 13.7418 70.4578 14.6752V22.3002H68.1828Z" fill="#151927"/>
<path d="M34.1016 22.3001L41.2016 4.95007H42.9016L49.9766 22.3001H47.4266L41.6016 7.62507H42.4766L36.6016 22.3001H34.1016ZM37.4766 18.3751V16.3251H46.6016V18.3751H37.4766Z" fill="#151927"/>
</svg>
