<svg width="512" height="100" viewBox="0 0 512 100" fill="none" xmlns="http://www.w3.org/2000/svg">
<path d="M102.34 59.5L94.0597 23.44C93.3997 20.6 91.5297 18.25 88.8997 17L55.4397 0.94C54.1897 0.35 52.7797 0 51.4097 0C50.0397 0 48.6297 0.34 47.3197 0.94L13.7197 17C11.0597 18.25 9.21973 20.59 8.55973 23.44L0.249732 59.5C-0.410268 62.34 0.249732 65.28 2.08973 67.59L25.3097 96.47C27.0897 98.72 29.8097 100 32.6497 100H69.8697C72.7097 100 75.4297 98.75 77.2097 96.47L100.43 67.59C102.27 65.34 102.96 62.34 102.27 59.5H102.34ZM43.8797 27.76H46.5997C47.3997 27.76 48.0597 27.11 48.0597 26.3V13.43C48.0597 12.63 48.7097 11.97 49.5197 11.97H53.0097C53.8097 11.97 54.4697 12.62 54.4697 13.43V26.31C54.4697 27.11 55.1197 27.77 55.9297 27.77H58.6597C59.7797 27.77 60.4797 28.98 59.9197 29.95L52.5397 42.74C51.9797 43.71 50.5797 43.71 50.0197 42.74L42.6397 29.95C42.0797 28.98 42.7797 27.77 43.8997 27.77L43.8797 27.76ZM29.2497 54.58C28.4497 54.58 27.7897 55.23 27.7897 56.04V58.77C27.7897 59.89 26.5797 60.59 25.6097 60.03L12.8197 52.65C11.8497 52.09 11.8497 50.69 12.8197 50.13L25.6097 42.75C26.5797 42.19 27.7897 42.89 27.7897 44.01V46.73C27.7897 47.53 28.4397 48.19 29.2497 48.19H42.1297C42.9297 48.19 43.5897 48.84 43.5897 49.65V53.14C43.5897 53.94 42.9397 54.6 42.1297 54.6H29.2497V54.58ZM58.6497 75.01H55.9297C55.1297 75.01 54.4697 75.66 54.4697 76.47V89.35C54.4697 90.15 53.8197 90.81 53.0097 90.81H49.5197C48.7197 90.81 48.0597 90.16 48.0597 89.35V76.47C48.0597 75.67 47.4097 75.01 46.5997 75.01H43.8697C42.7497 75.01 42.0497 73.8 42.6097 72.83L49.9897 60.04C50.5497 59.07 51.9497 59.07 52.5097 60.04L59.8897 72.83C60.4497 73.8 59.7497 75.01 58.6297 75.01H58.6497ZM89.7097 52.65L76.9197 60.03C75.9497 60.59 74.7397 59.89 74.7397 58.77V56.05C74.7397 55.25 74.0897 54.59 73.2797 54.59H60.3997C59.5997 54.59 58.9397 53.94 58.9397 53.13V49.64C58.9397 48.84 59.5897 48.18 60.3997 48.18H73.2797C74.0797 48.18 74.7397 47.53 74.7397 46.72V43.99C74.7397 42.87 75.9497 42.17 76.9197 42.73L89.7097 50.11C90.6797 50.67 90.6797 52.07 89.7097 52.63V52.65Z" fill="white"/>
<path d="M143.615 52.44C144.862 51.08 146.137 49.6633 147.44 48.19C148.8 46.7167 150.103 45.2717 151.35 43.855C152.597 42.3817 153.758 40.9933 154.835 39.69C155.968 38.3867 156.932 37.2533 157.725 36.29H172.77C169.767 39.7467 166.82 43.0617 163.93 46.235C161.097 49.3517 157.98 52.5817 154.58 55.925C156.28 57.455 158.037 59.2967 159.85 61.45C161.663 63.5467 163.42 65.7283 165.12 67.995C166.82 70.2617 168.378 72.5283 169.795 74.795C171.212 77.0617 172.402 79.13 173.365 81H158.83C157.923 79.5267 156.875 77.9117 155.685 76.155C154.552 74.3417 153.333 72.5567 152.03 70.8C150.727 68.9867 149.338 67.2583 147.865 65.615C146.448 63.9717 145.032 62.5833 143.615 61.45V81H130.95V17.08L143.615 15.04V52.44Z" fill="white"/>
<path d="M187.897 57.2C187.897 64.2833 190.759 67.825 196.482 67.825C197.786 67.825 199.004 67.655 200.137 67.315C201.271 66.975 202.234 66.5783 203.027 66.125V45.895C202.404 45.7817 201.667 45.6967 200.817 45.64C199.967 45.5267 198.976 45.47 197.842 45.47C194.499 45.47 192.006 46.575 190.362 48.785C188.719 50.995 187.897 53.8 187.897 57.2ZM215.692 75.39C215.692 82.7 213.822 88.1117 210.082 91.625C206.399 95.195 200.676 96.98 192.912 96.98C190.192 96.98 187.472 96.725 184.752 96.215C182.032 95.7617 179.511 95.1383 177.187 94.345L179.397 83.72C181.381 84.5133 183.449 85.1367 185.602 85.59C187.812 86.0433 190.306 86.27 193.082 86.27C196.709 86.27 199.259 85.4767 200.732 83.89C202.262 82.3033 203.027 80.2633 203.027 77.77V76.155C201.667 76.7783 200.251 77.26 198.777 77.6C197.361 77.8833 195.802 78.025 194.102 78.025C187.926 78.025 183.194 76.2117 179.907 72.585C176.621 68.9017 174.977 63.7733 174.977 57.2C174.977 53.9133 175.487 50.9383 176.507 48.275C177.527 45.555 179.001 43.2317 180.927 41.305C182.911 39.3783 185.319 37.905 188.152 36.885C190.986 35.8083 194.187 35.27 197.757 35.27C199.287 35.27 200.846 35.355 202.432 35.525C204.076 35.6383 205.691 35.8083 207.277 36.035C208.864 36.2617 210.366 36.545 211.782 36.885C213.256 37.1683 214.559 37.48 215.692 37.82V75.39Z" fill="white"/>
<path d="M244.656 72.16C245.903 72.16 247.093 72.1317 248.226 72.075C249.359 72.0183 250.266 71.9333 250.946 71.82V62.215C250.436 62.1017 249.671 61.9883 248.651 61.875C247.631 61.7617 246.696 61.705 245.846 61.705C244.656 61.705 243.523 61.79 242.446 61.96C241.426 62.0733 240.519 62.3283 239.726 62.725C238.933 63.1217 238.309 63.66 237.856 64.34C237.403 65.02 237.176 65.87 237.176 66.89C237.176 68.8733 237.828 70.2617 239.131 71.055C240.491 71.7917 242.333 72.16 244.656 72.16ZM243.636 35.1C247.376 35.1 250.493 35.525 252.986 36.375C255.479 37.225 257.463 38.4433 258.936 40.03C260.466 41.6167 261.543 43.5433 262.166 45.81C262.789 48.0767 263.101 50.5983 263.101 53.375V79.725C261.288 80.1217 258.766 80.575 255.536 81.085C252.306 81.6517 248.396 81.935 243.806 81.935C240.916 81.935 238.281 81.68 235.901 81.17C233.578 80.66 231.566 79.8383 229.866 78.705C228.166 77.515 226.863 75.985 225.956 74.115C225.049 72.245 224.596 69.95 224.596 67.23C224.596 64.6233 225.106 62.4133 226.126 60.6C227.203 58.7867 228.619 57.3417 230.376 56.265C232.133 55.1883 234.144 54.4233 236.411 53.97C238.678 53.46 241.029 53.205 243.466 53.205C245.109 53.205 246.554 53.29 247.801 53.46C249.104 53.5733 250.153 53.7433 250.946 53.97V52.78C250.946 50.6267 250.294 48.8983 248.991 47.595C247.688 46.2917 245.421 45.64 242.191 45.64C240.038 45.64 237.913 45.81 235.816 46.15C233.719 46.4333 231.906 46.8583 230.376 47.425L228.761 37.225C229.498 36.9983 230.404 36.7717 231.481 36.545C232.614 36.2617 233.833 36.035 235.136 35.865C236.439 35.6383 237.799 35.4683 239.216 35.355C240.689 35.185 242.163 35.1 243.636 35.1Z" fill="white"/>
<path d="M274.129 25.155L286.794 23.115V36.29H302.009V46.83H286.794V62.555C286.794 65.2183 287.247 67.3433 288.154 68.93C289.117 70.5167 291.015 71.31 293.849 71.31C295.209 71.31 296.597 71.1967 298.014 70.97C299.487 70.6867 300.819 70.3183 302.009 69.865L303.794 79.725C302.264 80.3483 300.564 80.8867 298.694 81.34C296.824 81.7933 294.529 82.02 291.809 82.02C288.352 82.02 285.49 81.5667 283.224 80.66C280.957 79.6967 279.144 78.3933 277.784 76.75C276.424 75.05 275.46 73.01 274.894 70.63C274.384 68.25 274.129 65.615 274.129 62.725V25.155Z" fill="white"/>
<path d="M308.537 58.985C308.537 55.0183 309.132 51.5617 310.322 48.615C311.569 45.6117 313.184 43.1183 315.167 41.135C317.15 39.1517 319.417 37.65 321.967 36.63C324.574 35.61 327.237 35.1 329.957 35.1C336.304 35.1 341.319 37.055 345.002 40.965C348.685 44.8183 350.527 50.5133 350.527 58.05C350.527 58.7867 350.499 59.6083 350.442 60.515C350.385 61.365 350.329 62.13 350.272 62.81H321.542C321.825 65.4167 323.044 67.485 325.197 69.015C327.35 70.545 330.24 71.31 333.867 71.31C336.19 71.31 338.457 71.1117 340.667 70.715C342.934 70.2617 344.775 69.7233 346.192 69.1L347.892 79.385C347.212 79.725 346.305 80.065 345.172 80.405C344.039 80.745 342.764 81.0283 341.347 81.255C339.987 81.5383 338.514 81.765 336.927 81.935C335.34 82.105 333.754 82.19 332.167 82.19C328.144 82.19 324.63 81.595 321.627 80.405C318.68 79.215 316.215 77.6 314.232 75.56C312.305 73.4633 310.86 70.9983 309.897 68.165C308.99 65.3317 308.537 62.2717 308.537 58.985ZM338.287 54.14C338.23 53.0633 338.032 52.015 337.692 50.995C337.409 49.975 336.927 49.0683 336.247 48.275C335.624 47.4817 334.802 46.83 333.782 46.32C332.819 45.81 331.6 45.555 330.127 45.555C328.71 45.555 327.492 45.81 326.472 46.32C325.452 46.7733 324.602 47.3967 323.922 48.19C323.242 48.9833 322.704 49.9183 322.307 50.995C321.967 52.015 321.712 53.0633 321.542 54.14H338.287Z" fill="white"/>
<path d="M387.501 55.33C386.367 59.6367 385.149 63.915 383.846 68.165C382.599 72.415 381.267 76.6933 379.851 81H369.991C368.971 78.62 367.866 75.7867 366.676 72.5C365.486 69.2133 364.239 65.6433 362.936 61.79C361.689 57.88 360.386 53.7717 359.026 49.465C357.722 45.1017 356.447 40.71 355.201 36.29H368.546C368.999 38.33 369.481 40.5683 369.991 43.005C370.557 45.385 371.124 47.85 371.691 50.4C372.314 52.95 372.937 55.5283 373.561 58.135C374.241 60.685 374.921 63.15 375.601 65.53C376.337 63.0367 377.046 60.4867 377.726 57.88C378.462 55.2733 379.142 52.7233 379.766 50.23C380.446 47.68 381.069 45.2433 381.636 42.92C382.259 40.54 382.797 38.33 383.251 36.29H392.431C392.884 38.33 393.394 40.54 393.961 42.92C394.527 45.2433 395.122 47.68 395.746 50.23C396.369 52.7233 397.021 55.2733 397.701 57.88C398.381 60.4867 399.089 63.0367 399.826 65.53C400.506 63.15 401.186 60.685 401.866 58.135C402.546 55.5283 403.169 52.95 403.736 50.4C404.359 47.85 404.926 45.385 405.436 43.005C406.002 40.5683 406.512 38.33 406.966 36.29H420.141C418.894 40.71 417.591 45.1017 416.231 49.465C414.927 53.7717 413.624 57.88 412.321 61.79C411.074 65.6433 409.827 69.2133 408.581 72.5C407.391 75.7867 406.286 78.62 405.266 81H395.406C393.989 76.6933 392.601 72.415 391.241 68.165C389.881 63.915 388.634 59.6367 387.501 55.33Z" fill="white"/>
<path d="M443.211 72.16C444.457 72.16 445.647 72.1317 446.781 72.075C447.914 72.0183 448.821 71.9333 449.501 71.82V62.215C448.991 62.1017 448.226 61.9883 447.206 61.875C446.186 61.7617 445.251 61.705 444.401 61.705C443.211 61.705 442.077 61.79 441.001 61.96C439.981 62.0733 439.074 62.3283 438.281 62.725C437.487 63.1217 436.864 63.66 436.411 64.34C435.957 65.02 435.731 65.87 435.731 66.89C435.731 68.8733 436.382 70.2617 437.686 71.055C439.046 71.7917 440.887 72.16 443.211 72.16ZM442.191 35.1C445.931 35.1 449.047 35.525 451.541 36.375C454.034 37.225 456.017 38.4433 457.491 40.03C459.021 41.6167 460.097 43.5433 460.721 45.81C461.344 48.0767 461.656 50.5983 461.656 53.375V79.725C459.842 80.1217 457.321 80.575 454.091 81.085C450.861 81.6517 446.951 81.935 442.361 81.935C439.471 81.935 436.836 81.68 434.456 81.17C432.132 80.66 430.121 79.8383 428.421 78.705C426.721 77.515 425.417 75.985 424.511 74.115C423.604 72.245 423.151 69.95 423.151 67.23C423.151 64.6233 423.661 62.4133 424.681 60.6C425.757 58.7867 427.174 57.3417 428.931 56.265C430.687 55.1883 432.699 54.4233 434.966 53.97C437.232 53.46 439.584 53.205 442.021 53.205C443.664 53.205 445.109 53.29 446.356 53.46C447.659 53.5733 448.707 53.7433 449.501 53.97V52.78C449.501 50.6267 448.849 48.8983 447.546 47.595C446.242 46.2917 443.976 45.64 440.746 45.64C438.592 45.64 436.467 45.81 434.371 46.15C432.274 46.4333 430.461 46.8583 428.931 47.425L427.316 37.225C428.052 36.9983 428.959 36.7717 430.036 36.545C431.169 36.2617 432.387 36.035 433.691 35.865C434.994 35.6383 436.354 35.4683 437.771 35.355C439.244 35.185 440.717 35.1 442.191 35.1Z" fill="white"/>
<path d="M511.724 36.29C509.174 44.9033 506.511 52.9783 503.734 60.515C500.957 68.0517 497.926 75.3617 494.639 82.445C493.449 84.995 492.259 87.1483 491.069 88.905C489.879 90.7183 488.576 92.1917 487.159 93.325C485.742 94.515 484.127 95.365 482.314 95.875C480.557 96.4417 478.489 96.725 476.109 96.725C474.126 96.725 472.284 96.5267 470.584 96.13C468.941 95.79 467.581 95.3933 466.504 94.94L468.714 84.825C470.017 85.2783 471.179 85.59 472.199 85.76C473.219 85.93 474.296 86.015 475.429 86.015C477.696 86.015 479.424 85.3917 480.614 84.145C481.861 82.955 482.909 81.2833 483.759 79.13C480.869 73.4633 477.979 67.1167 475.089 60.09C472.199 53.0067 469.479 45.0733 466.929 36.29H480.359C480.926 38.5 481.577 40.9083 482.314 43.515C483.107 46.065 483.929 48.6717 484.779 51.335C485.629 53.9417 486.479 56.4917 487.329 58.985C488.236 61.4783 489.086 63.745 489.879 65.785C490.616 63.745 491.381 61.4783 492.174 58.985C492.967 56.4917 493.732 53.9417 494.469 51.335C495.262 48.6717 495.999 46.065 496.679 43.515C497.416 40.9083 498.067 38.5 498.634 36.29H511.724Z" fill="white"/>
</svg>
