<svg width="86" height="86" viewBox="0 0 86 86" fill="none" xmlns="http://www.w3.org/2000/svg">
<g id="Group 1171274996">
<rect id="Rectangle 1" x="13.9359" y="14.0591" width="57.8901" height="57.8886" rx="5" fill="#5044E9"/>
<g id="Group 1171274994">
<path id="Line 1 (Stroke)" fill-rule="evenodd" clip-rule="evenodd" d="M39.545 0.751709L39.545 14.0591L27.2174 14.0591L27.2174 0.75171L39.545 0.751709Z" fill="#33B5CB"/>
<path id="Line 1 (Stroke)_2" fill-rule="evenodd" clip-rule="evenodd" d="M46.2168 85.2551L46.2168 71.9477L58.5444 71.9477L58.5444 85.2551L46.2168 85.2551Z" fill="#33B5CB"/>
<path id="Line 2 (Stroke)" fill-rule="evenodd" clip-rule="evenodd" d="M58.5444 0.751709L58.5444 14.0591L46.2168 14.0591L46.2168 0.75171L58.5444 0.751709Z" fill="#C4E5E9"/>
<path id="Line 2 (Stroke)_2" fill-rule="evenodd" clip-rule="evenodd" d="M27.2174 85.2551L27.2174 71.9477L39.545 71.9477L39.545 85.2551L27.2174 85.2551Z" fill="#C4E5E9"/>
</g>
<g id="Group 1171274995">
<path id="Line 1 (Stroke)_3" fill-rule="evenodd" clip-rule="evenodd" d="M85.1326 39.6675L71.8252 39.6675L71.8252 27.3399L85.1326 27.3399L85.1326 39.6675Z" fill="#33B5CB"/>
<path id="Line 1 (Stroke)_4" fill-rule="evenodd" clip-rule="evenodd" d="M0.629122 46.3393L13.9366 46.3393L13.9366 58.6669L0.629121 58.6669L0.629122 46.3393Z" fill="#33B5CB"/>
<path id="Line 2 (Stroke)_3" fill-rule="evenodd" clip-rule="evenodd" d="M85.1326 58.6669L71.8252 58.6669L71.8252 46.3393L85.1326 46.3393L85.1326 58.6669Z" fill="#C4E5E9"/>
<path id="Line 2 (Stroke)_4" fill-rule="evenodd" clip-rule="evenodd" d="M0.629122 27.3399L13.9366 27.3399L13.9366 39.6675L0.629121 39.6675L0.629122 27.3399Z" fill="#C4E5E9"/>
</g>
<g id="AI">
<path id="Vector" d="M49.9346 34.1784H53.8346V51.5034H49.9346V34.1784Z" fill="white"/>
<path id="Vector_2" d="M43.5171 51.5034C43.3337 50.9034 43.1254 50.2868 42.8921 49.6534C42.6754 49.0201 42.4587 48.3868 42.2421 47.7534H35.4921C35.2754 48.3868 35.0504 49.0201 34.8171 49.6534C34.6004 50.2868 34.4004 50.9034 34.2171 51.5034H30.1671C30.8171 49.6368 31.4337 47.9118 32.0171 46.3284C32.6004 44.7451 33.1671 43.2534 33.7171 41.8534C34.2837 40.4534 34.8337 39.1284 35.3671 37.8784C35.9171 36.6118 36.4837 35.3784 37.0671 34.1784H40.7921C41.3587 35.3784 41.9171 36.6118 42.4671 37.8784C43.0171 39.1284 43.5671 40.4534 44.1171 41.8534C44.6837 43.2534 45.2587 44.7451 45.8421 46.3284C46.4254 47.9118 47.0421 49.6368 47.6921 51.5034H43.5171ZM38.8421 38.1034C38.7587 38.3534 38.6337 38.6951 38.4671 39.1284C38.3004 39.5618 38.1087 40.0618 37.8921 40.6284C37.6754 41.1951 37.4337 41.8201 37.1671 42.5034C36.9171 43.1868 36.6587 43.9034 36.3921 44.6534H41.3171C41.0504 43.9034 40.7921 43.1868 40.5421 42.5034C40.2921 41.8201 40.0504 41.1951 39.8171 40.6284C39.6004 40.0618 39.4087 39.5618 39.2421 39.1284C39.0754 38.6951 38.9421 38.3534 38.8421 38.1034Z" fill="white"/>
</g>
</g>
</svg>
