<svg width="89" height="86" viewBox="0 0 89 86" fill="none" xmlns="http://www.w3.org/2000/svg">
<g id="Group 1171274993">
<g id="Group 1171274986">
<path id="Vector (Stroke)" fill-rule="evenodd" clip-rule="evenodd" d="M51.4825 85.2551V0.751709H38.2793V85.2551H51.4825Z" fill="#5044E9"/>
<path id="Vector (Stroke)_2" fill-rule="evenodd" clip-rule="evenodd" d="M24.8672 85.2551C38.5104 57.5747 38.5104 28.4321 24.8672 0.751709L13.0244 6.58884C24.8538 30.5892 24.8538 55.4176 13.0244 79.418L24.8672 85.2551Z" fill="#33B5CB"/>
<path id="Vector (Stroke)_3" fill-rule="evenodd" clip-rule="evenodd" d="M76.7373 79.418C64.9079 55.4176 64.9079 30.5892 76.7373 6.58884L64.8945 0.751709C51.2512 28.4321 51.2512 57.5747 64.8945 85.2551L76.7373 79.418Z" fill="#C4E5E9"/>
</g>
<g id="Group 1171274992">
<path id="Vector" d="M88.8542 53.2324C88.8542 55.0142 86.6999 55.9065 85.44 54.6466L75.2111 44.4176C74.43 43.6366 74.43 42.3703 75.2111 41.5892L85.44 31.3603C86.6999 30.1003 88.8542 30.9927 88.8542 32.7745V53.2324Z" fill="#5044E9"/>
<path id="Vector_2" d="M0.907511 32.7745C0.907511 30.9927 3.06179 30.1003 4.32172 31.3603L14.5507 41.5892C15.3317 42.3703 15.3317 43.6366 14.5507 44.4176L4.32172 54.6466C3.06179 55.9065 0.907509 55.0142 0.907509 53.2324L0.907511 32.7745Z" fill="#5044E9"/>
</g>
</g>
</svg>
